<svg width="320" height="329" viewBox="0 0 320 329" fill="none" xmlns="http://www.w3.org/2000/svg">
<path d="M176 270.333L179.067 302.179C179.167 303.218 179.881 304 180.73 304H181.631C182.498 304 183.222 303.184 183.299 302.119L186 265L176.001 270.333H176Z" fill="#EDBA9C"/>
<path d="M256.14 270.333L259.335 302.761C259.405 303.467 259.901 304 260.492 304H262.403C263.005 304 263.509 303.445 263.563 302.722L266.371 265L256.14 270.333Z" fill="#EDBA9C"/>
<path d="M206.124 270.333L209.319 302.761C209.388 303.467 209.885 304 210.476 304H212.387C212.989 304 213.492 303.445 213.547 302.722L216.355 265L206.124 270.333Z" fill="#EDBA9C"/>
<path d="M298.769 270.333L301.964 302.761C302.033 303.467 302.53 304 303.121 304H305.031C305.634 304 306.137 303.445 306.192 302.722L309 265L298.769 270.333Z" fill="#EDBA9C"/>
<path d="M161.522 220.629C161.444 216.037 159.65 209.653 163.192 206.524C166.845 203.298 173.119 203.341 177.667 203.22C193.921 202.791 216.157 202.167 219.677 198.108C224.859 192.131 221.246 171.188 228.242 159.249C233.985 149.45 309.336 155.045 312.797 156.26C319.282 158.537 319.406 164.636 319.282 182.018C319.175 196.818 320.712 240.158 315.216 260.954C313.558 267.228 308.622 272.086 302.352 273.54C297.692 274.619 290.983 275.329 280.793 275.629L184.148 276.013C184.148 276.013 170.191 277.72 167.23 263.632C164.269 249.545 161.52 220.629 161.52 220.629H161.522Z" fill="#C6D7D0"/>
<path d="M183.2 276.076C183.93 276.076 184.407 276.031 184.52 276.019L281.03 275.637C290.85 275.347 297.717 274.682 302.647 273.54C309.045 272.058 314.077 267.138 315.778 260.699C320.351 243.4 320.066 210.904 319.896 191.487C319.862 187.622 319.833 184.288 319.85 181.79C319.97 165.056 320.019 158.129 313.119 155.708C311.406 155.107 291.81 153.384 271.627 153.054C253.548 152.761 231.338 153.527 228.214 158.857C224.457 165.265 223.732 174.176 223.091 182.038C222.529 188.938 222.044 194.896 219.7 197.6C216.262 201.564 193.245 202.172 178.015 202.573L177.214 202.594C172.6 202.704 166.857 202.84 163.316 205.968C160.464 208.486 160.894 212.961 161.274 216.91C161.39 218.13 161.501 219.282 161.52 220.345C161.52 220.356 161.52 220.366 161.52 220.376C161.547 220.665 164.302 249.429 167.229 263.355C169.673 274.982 179.568 276.077 183.2 276.077V276.076ZM265.134 153.765C267.214 153.765 269.373 153.783 271.614 153.819C291.727 154.148 311.188 155.841 312.868 156.431C318.965 158.571 319.216 164.227 319.09 181.785C319.071 184.288 319.102 187.628 319.135 191.493C319.306 210.871 319.589 243.303 315.043 260.502C313.414 266.666 308.598 271.376 302.475 272.795C297.595 273.925 290.776 274.585 281.016 274.871L184.496 275.254C184.481 275.254 184.468 275.254 184.453 275.257C183.896 275.327 170.819 276.749 167.971 263.197C165.079 249.439 162.353 221.113 162.277 220.318C162.258 219.229 162.145 218.067 162.027 216.837C161.648 212.888 161.257 208.804 163.815 206.545C167.15 203.599 172.74 203.467 177.23 203.361L178.033 203.341C194.314 202.91 216.612 202.323 220.268 198.105C222.777 195.213 223.271 189.137 223.845 182.103C224.479 174.324 225.197 165.505 228.865 159.249C230.955 155.684 243.752 153.766 265.134 153.766V153.765Z" fill="#99ABB6"/>
<path d="M183.172 275.93C183.9 275.93 184.376 275.885 184.489 275.873H198.227C198.436 275.873 198.606 275.702 198.606 275.491C198.606 275.281 198.436 275.109 198.227 275.109H184.469C184.454 275.109 184.438 275.109 184.423 275.113C183.868 275.182 170.808 276.602 167.964 263.076C165.049 249.219 162.302 220.551 162.275 220.264C162.258 219.203 162.146 218.038 162.028 216.805C161.649 212.864 161.258 208.788 163.813 206.533C166.682 204.001 171.293 203.885 175.36 203.783L176.153 203.763C176.537 203.749 185.491 203.58 186.331 212.159L187.498 222.751C187.522 222.959 187.705 223.109 187.916 223.088C188.123 223.065 188.273 222.876 188.251 222.667L187.084 212.081C186.175 202.792 176.231 202.989 176.13 203.002L175.34 203.023C171.145 203.128 166.389 203.247 163.313 205.96C160.465 208.474 160.894 212.94 161.273 216.882C161.389 218.099 161.501 219.251 161.519 220.31C161.548 220.629 164.299 249.338 167.223 263.237C169.663 274.841 179.545 275.933 183.172 275.935V275.93Z" fill="#8FA1B0"/>
<path d="M316.15 258.106C320.692 236.493 319.145 195.952 319.247 181.734C319.371 164.37 319.247 158.277 312.739 156.003L312.73 155.999C312.103 155.781 311.419 155.802 310.805 156.054C310.755 156.074 310.704 156.096 310.655 156.118C297.955 161.68 304.741 194.02 300.917 200.963C297.424 207.301 280.106 206.453 280.106 206.453L284.559 223.378L285.128 270.752C285.158 273.276 287.83 274.938 287.83 274.938C307.752 274.938 314.137 267.694 316.153 258.105L316.15 258.106Z" fill="#C6D7D0"/>
<path d="M288.17 275.502C305.44 275.502 314.248 270.202 316.728 258.314C320.408 240.671 320.081 210.313 319.885 192.175C319.839 187.955 319.801 184.31 319.819 181.63C319.939 164.836 319.988 157.884 313.087 155.454C312.369 155.203 311.593 155.226 310.895 155.514C310.841 155.536 310.789 155.559 310.737 155.583C302.341 159.29 302.273 174.259 302.219 186.287C302.19 192.762 302.165 198.355 300.865 200.732C297.545 206.807 280.675 206.049 280.504 206.04C280.292 206.027 280.118 206.194 280.107 206.406C280.096 206.618 280.258 206.797 280.467 206.809C281.181 206.845 297.98 207.596 301.529 201.105C302.922 198.558 302.948 192.873 302.978 186.294C303.032 174.489 303.098 159.797 311.04 156.291C311.086 156.271 311.133 156.25 311.182 156.23C311.71 156.011 312.297 155.994 312.831 156.182C318.936 158.332 319.187 164.008 319.062 181.63C319.044 184.316 319.082 187.964 319.128 192.188C319.323 210.296 319.651 240.601 315.988 258.162C314.377 265.88 309.762 274.741 288.174 274.741C287.965 274.741 287.794 274.913 287.794 275.125C287.794 275.337 287.965 275.509 288.174 275.509L288.17 275.502Z" fill="#8FA1B0"/>
<path d="M319.619 198.013H319.624C319.834 198.009 320.003 197.836 319.999 197.622C319.979 195.904 319.957 194.252 319.935 192.685C319.876 188.272 319.824 184.464 319.844 181.69C319.964 164.857 320.013 157.89 313.1 155.454C311.465 154.878 296.486 153.565 279.936 153C279.717 152.992 279.551 153.159 279.544 153.372C279.538 153.584 279.701 153.762 279.911 153.769C296.888 154.349 311.428 155.68 312.85 156.182C318.959 158.335 319.211 164.024 319.084 181.685C319.064 184.468 319.116 188.281 319.175 192.697C319.197 194.264 319.219 195.914 319.239 197.634C319.243 197.845 319.412 198.014 319.619 198.014V198.013Z" fill="#9DADBA"/>
<path d="M208.902 278.922C209.121 279.207 213.506 297.803 213.506 297.803L220.868 292.772L216.626 277.288L208.902 278.922Z" fill="#EDAF8C"/>
<path d="M213.812 297.803C213.886 297.803 213.958 297.781 214.022 297.738L221.27 292.757C221.405 292.664 221.468 292.49 221.424 292.327L217.247 277.001C217.193 276.804 217 276.686 216.807 276.726L209.204 278.343C209.076 278.371 208.97 278.464 208.925 278.591C208.888 278.697 208.896 278.815 208.948 278.912C209.207 279.593 211.774 290.381 213.446 297.505C213.474 297.628 213.56 297.731 213.676 297.777C213.719 297.795 213.766 297.803 213.813 297.803H213.812ZM220.622 292.265L214.052 296.781C211.053 284.003 210.088 280.189 209.757 279.021L216.614 277.563L220.622 292.267V292.265Z" fill="#EDAF8C"/>
<path d="M217.208 290.972C216.871 290.219 216.197 289.404 215.126 288.958C213.725 288.375 212.116 288.748 211.01 289.807C208.115 292.581 200.195 300.48 195.877 307.856C194.356 310.456 195.492 313.591 199.423 313.145C205.865 312.415 215.894 308.699 223.78 300.238C224.685 299.268 225.06 297.89 224.749 296.582C224.493 295.515 222.845 291.799 222.265 290.56C222.161 290.338 222.03 290.138 221.879 289.96C220.947 288.876 219.733 289.695 219.276 291.133C219.276 291.133 218.008 292.757 217.209 290.968L217.208 290.972Z" fill="#333333"/>
<path d="M199.049 313.188C199.294 313.188 199.55 313.172 199.814 313.143C206.5 312.386 216.43 308.598 224.251 300.226C225.252 299.153 225.646 297.664 225.307 296.241C225.033 295.093 223.283 291.195 222.812 290.193C222.695 289.946 222.546 289.716 222.369 289.51C221.94 289.012 221.403 288.801 220.855 288.918C220.14 289.071 219.498 289.764 219.168 290.735C219.014 290.91 218.648 291.257 218.342 291.21C218.093 291.178 217.903 290.864 217.787 290.606C217.35 289.63 216.522 288.83 215.518 288.413C214.026 287.792 212.263 288.153 211.032 289.331C207.912 292.314 200.197 300.035 195.926 307.316C195.07 308.776 194.995 310.415 195.729 311.594C196.377 312.635 197.54 313.188 199.047 313.188H199.049ZM221.148 289.657C221.377 289.657 221.597 289.779 221.806 290.021C221.938 290.174 222.048 290.344 222.134 290.529C222.732 291.801 224.334 295.421 224.575 296.427C224.854 297.592 224.53 298.814 223.708 299.694C216.028 307.917 206.286 311.638 199.731 312.378C198.152 312.556 196.955 312.131 196.362 311.178C195.782 310.248 195.862 308.92 196.569 307.714C200.79 300.517 208.447 292.856 211.543 289.896C212.562 288.921 214.013 288.619 215.236 289.129C216.065 289.474 216.745 290.129 217.104 290.929C217.388 291.564 217.774 291.917 218.25 291.977C219.056 292.082 219.719 291.265 219.791 291.171C219.819 291.135 219.841 291.094 219.854 291.049C220.087 290.323 220.548 289.769 221.004 289.673C221.051 289.663 221.098 289.657 221.144 289.657H221.148Z" fill="#333333"/>
<path d="M200.26 309.77C203.69 309.77 210.685 308.151 221.876 298.471C222.033 298.336 222.051 298.096 221.919 297.936C221.786 297.777 221.551 297.757 221.393 297.892C205.291 311.819 198.105 308.708 198.034 308.674C197.847 308.586 197.626 308.671 197.54 308.861C197.454 309.052 197.537 309.277 197.722 309.364C197.82 309.41 198.644 309.77 200.26 309.77Z" fill="black"/>
<path d="M207.404 301.791C207.497 301.791 207.591 301.754 207.661 301.679C207.797 301.534 207.794 301.301 207.653 301.16L204.376 297.904C204.235 297.764 204.009 297.769 203.872 297.914C203.736 298.059 203.739 298.292 203.88 298.433L207.157 301.689C207.227 301.757 207.315 301.791 207.404 301.791Z" fill="black"/>
<path d="M210.236 299.512C210.338 299.512 210.442 299.466 210.516 299.377C210.655 299.209 210.644 298.948 210.489 298.796L206.685 295.06C206.531 294.906 206.291 294.921 206.152 295.089C206.013 295.257 206.025 295.518 206.179 295.67L209.983 299.406C210.055 299.477 210.146 299.512 210.235 299.512H210.236Z" fill="black"/>
<path d="M237.968 291.947L242.494 308.055L248.224 303.066L244.604 287.539L237.968 291.947Z" fill="#EDAF8C"/>
<path d="M242.792 308.055C242.881 308.055 242.968 308.022 243.037 307.961L248.661 303.022C248.768 302.927 248.816 302.778 248.784 302.635L245.23 287.27C245.202 287.147 245.117 287.044 245.003 286.998C244.888 286.951 244.759 286.963 244.656 287.032L238.14 291.394C238 291.488 237.936 291.663 237.982 291.828L242.426 307.769C242.462 307.897 242.558 307.996 242.68 308.034C242.716 308.046 242.753 308.052 242.79 308.052L242.792 308.055ZM247.994 302.585L242.994 306.977L238.789 291.894L244.619 287.991L247.994 302.585Z" fill="#EDAF8C"/>
<path d="M240.274 305.029C240.905 309.988 242.314 319.953 246.398 326.845C247.493 328.694 251.354 328.333 252.619 325.656C255.254 320.075 258.496 310.66 255.685 299.676C255.466 298.819 254.858 298.116 254.048 297.788C253.099 297.403 251.607 296.939 249.505 296.669C248.458 296.535 247.514 297.332 247.446 298.406L247.195 302.348L246.671 301.726C245.88 300.79 244.567 300.525 243.488 301.084C242.906 301.384 242.264 301.716 241.682 302.017C240.596 302.579 240.118 303.797 240.274 305.029Z" fill="#333333"/>
<path d="M249.075 327.998C249.147 327.998 249.22 327.996 249.295 327.993C250.978 327.911 252.508 326.913 253.193 325.454C257.366 316.571 258.395 307.797 256.251 299.374C256.004 298.406 255.316 297.608 254.409 297.238C253.515 296.874 251.996 296.382 249.824 296.102C249.22 296.025 248.63 296.201 248.16 296.599C247.695 296.992 247.406 297.571 247.368 298.185L247.18 301.168C246.278 300.176 244.845 299.912 243.657 300.53L241.871 301.457C240.717 302.056 240.092 303.385 240.277 304.841C240.782 308.836 242.126 319.448 246.383 326.668C246.879 327.509 247.875 327.998 249.075 327.998ZM249.549 296.854C249.609 296.854 249.67 296.857 249.73 296.865C251.825 297.135 253.278 297.605 254.132 297.951C254.819 298.231 255.339 298.836 255.526 299.567C257.623 307.809 256.611 316.406 252.518 325.119C251.828 326.589 250.331 327.171 249.26 327.224C248.242 327.275 247.406 326.917 247.026 326.27C242.851 319.189 241.523 308.693 241.022 304.742C240.877 303.595 241.333 302.597 242.213 302.142L243.998 301.214C244.914 300.74 246.023 300.963 246.693 301.761L247.213 302.379C247.313 302.497 247.471 302.543 247.616 302.493C247.761 302.444 247.861 302.309 247.871 302.153L248.12 298.237C248.147 297.827 248.332 297.456 248.642 297.193C248.904 296.971 249.222 296.855 249.552 296.855L249.549 296.854Z" fill="#333333"/>
<path d="M249.747 324.579C249.882 324.579 250.013 324.509 250.083 324.384C256.413 313.228 254.069 300.512 254.045 300.387C254.006 300.18 253.803 300.044 253.594 300.083C253.384 300.122 253.247 300.322 253.287 300.529C253.311 300.653 255.599 313.103 249.41 324.012C249.306 324.195 249.373 324.428 249.558 324.531C249.618 324.565 249.683 324.581 249.747 324.581V324.579Z" fill="black"/>
<path d="M242.324 312.043C242.365 312.043 242.407 312.036 242.446 312.021L246.835 310.484C247.028 310.417 247.13 310.206 247.062 310.011C246.995 309.819 246.784 309.717 246.592 309.784L242.203 311.321C242.01 311.389 241.908 311.6 241.976 311.794C242.028 311.947 242.171 312.043 242.324 312.043Z" fill="black"/>
<path d="M242.915 316.032C242.967 316.032 243.021 316.021 243.073 315.997L247.42 313.97C247.618 313.878 247.706 313.634 247.619 313.427C247.533 313.218 247.302 313.127 247.104 313.217L242.757 315.244C242.559 315.335 242.471 315.579 242.558 315.786C242.622 315.94 242.764 316.032 242.915 316.032Z" fill="black"/>
<path d="M251.069 214.597C251.069 214.597 209.613 214.597 190.359 225.608C188.427 226.714 186.988 228.387 186.801 230.639C185.83 242.319 190.593 257.933 209.674 285.262L220.45 284.848L210.347 241.597L249.253 240.459L251.069 214.597Z" fill="#E2B8AF"/>
<path d="M209.982 285.262C209.982 285.262 209.992 285.262 209.996 285.262L220.741 284.85C220.854 284.847 220.959 284.79 221.028 284.698C221.097 284.605 221.121 284.487 221.095 284.376L211.13 241.71L249.461 240.589C249.654 240.582 249.813 240.427 249.827 240.23L251.638 214.441C251.645 214.334 251.609 214.228 251.537 214.151C251.466 214.072 251.366 214.027 251.26 214.027C250.845 214.027 209.603 214.154 190.538 225.055C188.273 226.35 186.98 228.189 186.798 230.375C185.669 243.944 192.725 260.822 209.675 285.099C209.745 285.2 209.861 285.26 209.982 285.26V285.262ZM220.254 284.096L210.172 284.484C193.419 260.456 186.442 243.785 187.551 230.442C187.753 228.018 189.488 226.542 190.908 225.729C208.789 215.504 246.517 214.844 250.855 214.802L249.098 239.827L210.644 240.952C210.53 240.956 210.424 241.01 210.355 241.103C210.286 241.196 210.261 241.314 210.288 241.427L220.254 284.098V284.096Z" fill="#E2B8AF"/>
<path d="M273.722 220.298C273.722 220.298 275.8 226.449 274.66 237.641C273.454 249.478 250.822 250.358 243.312 250.108L235.394 249.845C235.394 249.845 241.837 263.92 247.657 295.032L237.418 295.52C237.418 295.52 216.351 261.421 207.53 243.363C205.724 239.667 206.686 235.167 209.879 232.633C215.101 228.492 224.98 222.326 241.801 222.281C269.895 222.209 273.723 220.297 273.723 220.297L273.722 220.298Z" fill="#E2B8AF"/>
<path d="M237.708 295.517C237.708 295.517 237.72 295.517 237.727 295.517L247.937 295.029C248.046 295.024 248.148 294.971 248.216 294.884C248.283 294.796 248.311 294.683 248.29 294.573C243.178 267.251 237.513 252.92 236.277 249.986L243.574 250.228C246.67 250.335 273.859 250.846 275.224 237.449C276.358 226.33 274.356 220.241 274.27 219.986C274.235 219.882 274.158 219.798 274.057 219.756C273.958 219.715 273.847 219.717 273.751 219.763C273.587 219.841 269.424 221.634 242.077 221.705C229.463 221.737 218.673 225.238 210.012 232.11C206.709 234.73 205.678 239.432 207.563 243.288C216.268 261.109 237.179 294.999 237.389 295.34C237.458 295.452 237.579 295.52 237.708 295.52V295.517ZM247.465 294.278L237.91 294.734C236.203 291.963 216.587 260.031 208.238 242.941C206.515 239.413 207.455 235.114 210.476 232.718C219.003 225.954 229.635 222.507 242.079 222.474C265.631 222.414 272.134 221.063 273.664 220.604C274.07 222.081 275.433 227.943 274.472 237.365C273.42 247.682 254.569 249.814 243.598 249.452L235.701 249.19C235.563 249.184 235.445 249.251 235.373 249.363C235.301 249.475 235.291 249.617 235.346 249.739C235.41 249.878 241.76 263.967 247.465 294.276V294.278Z" fill="white"/>
<path d="M215.762 140.642C216.597 143.602 217.288 145.513 217.288 145.513C217.288 145.513 217.54 140.972 217.656 138.496C217.823 134.946 219.518 133.346 219.883 137.616C220.171 140.986 220.334 142.05 220.334 142.05C220.334 142.05 221.085 137.683 221.205 136.34C221.418 133.939 223.127 133.209 223.27 136.285C223.437 139.882 223.203 143.063 223.203 143.063C223.203 143.063 226.374 133.691 228.136 136.342C229.454 138.323 227.126 142.44 226.707 143.559C226.288 144.678 227.362 142.174 229.326 142.926C231.165 143.629 223.134 154.924 223.11 159.296C223.081 164.424 222.969 179.418 224.004 177.6C229.023 168.788 231.188 167.509 231.188 167.509L240.813 175.099C240.813 175.099 230.059 191.844 219.021 196.082C210.07 199.519 214.177 170.658 216.028 159.732C216.493 156.994 216.432 154.232 215.845 151.619C214.889 147.356 213.522 141.087 213.478 139.899C213.364 136.677 215.003 137.947 215.764 140.644L215.762 140.642Z" fill="#EDBA9C"/>
<path d="M218.007 196.365C218.477 196.365 218.976 196.262 219.508 196.057C230.452 191.837 240.882 175.678 241.322 174.992C241.429 174.824 241.392 174.6 241.237 174.477L231.682 166.911C231.562 166.816 231.396 166.805 231.264 166.882C231.174 166.935 229.037 168.268 224.22 176.687C223.891 175.021 223.752 169.235 223.807 159.444V159.033C223.82 156.94 225.809 153.066 227.562 149.647C229.473 145.92 230.538 143.766 230.183 142.813C230.101 142.592 229.948 142.433 229.737 142.352C228.967 142.056 228.315 142.19 227.812 142.443C228.616 140.663 229.879 137.667 228.733 135.935C228.337 135.338 227.884 135.265 227.573 135.306C226.277 135.482 224.885 138.319 224.006 140.48C224.036 139.269 224.044 137.71 223.967 136.076C223.869 133.935 223.055 133.687 222.711 133.678H222.693C221.934 133.678 221.294 134.698 221.169 136.113C221.115 136.705 220.936 137.913 220.754 139.062C220.709 138.581 220.659 138.025 220.604 137.386C220.438 135.442 219.991 134.474 219.26 134.479C218.271 134.5 217.73 136.462 217.645 138.278C217.579 139.679 217.469 141.765 217.387 143.293C217.137 142.506 216.831 141.498 216.502 140.33C216.066 138.774 215.222 137.279 214.336 137.415C213.728 137.515 213.446 138.286 213.496 139.708C213.537 140.893 214.801 146.753 215.853 151.463C216.427 154.03 216.487 156.699 216.031 159.399C214.034 171.229 211.389 191.671 216.099 195.658C216.655 196.128 217.292 196.365 218.004 196.365H218.007ZM240.5 174.865C239.008 177.115 229.162 191.512 219.244 195.338C218.161 195.755 217.29 195.666 216.58 195.066C213.402 192.374 213.474 179.09 216.774 159.531C217.247 156.73 217.183 153.958 216.589 151.292C215.111 144.68 214.281 140.557 214.249 139.681C214.203 138.372 214.463 138.174 214.467 138.172C214.637 138.175 215.32 138.903 215.782 140.544C216.605 143.473 217.297 145.405 217.304 145.424C217.366 145.595 217.536 145.694 217.711 145.672C217.887 145.645 218.021 145.496 218.031 145.313C218.032 145.266 218.283 140.756 218.397 138.316C218.492 136.291 219.073 135.288 219.279 135.249C219.274 135.251 219.688 135.487 219.857 137.455C220.141 140.788 220.301 141.858 220.308 141.902C220.337 142.089 220.492 142.226 220.676 142.227H220.679C220.861 142.227 221.018 142.094 221.048 141.909C221.078 141.731 221.797 137.525 221.916 136.185C222.017 135.042 222.472 134.45 222.691 134.45H222.694C222.84 134.453 223.159 134.864 223.216 136.115C223.379 139.633 223.15 142.792 223.149 142.823C223.134 143.016 223.262 143.189 223.448 143.228C223.633 143.266 223.817 143.16 223.879 142.977C224.816 140.194 226.613 136.214 227.672 136.07C227.732 136.062 227.892 136.04 228.11 136.37C229.077 137.831 227.68 140.91 227.009 142.39C226.851 142.736 226.726 143.011 226.653 143.211C226.547 143.492 226.44 143.783 226.716 143.963C226.987 144.14 227.206 143.909 227.324 143.786C227.824 143.263 228.519 142.71 229.473 143.074C229.839 143.552 228.068 147.005 226.897 149.291C225.104 152.787 223.07 156.75 223.058 159.031V159.442C222.96 176.2 223.401 177.62 224.036 177.796C224.146 177.827 224.425 177.856 224.646 177.47C228.651 170.406 230.82 168.239 231.45 167.702L240.5 174.868V174.865Z" fill="#EDBA9C"/>
<path d="M229.691 133.704C233.281 129.493 238.777 128.459 242.962 129.484C248.258 130.781 251.045 135.329 253.012 138.534C256.487 144.203 254.956 146.342 257.652 149.613C262.426 155.407 269.52 151.472 275.25 155.634C283.993 161.984 285.83 184.401 274.524 193.311C266.984 199.253 256.398 196.282 253.517 195.474C244.775 193.022 233.771 185.758 231.915 175.505C230.38 167.026 235.676 159.769 230.851 152.772C229.622 150.991 228.635 150.528 227.696 148.281C226.168 144.633 225.663 138.425 229.691 133.703V133.704Z" fill="#333333"/>
<path d="M241.916 134.222C239.934 132.67 241.016 127.873 242.178 125.267C242.614 124.29 244.56 119.919 247.296 120.001C250.105 120.085 252.933 124.84 252.048 128.706C250.939 133.539 244.239 136.041 241.916 134.222Z" fill="#333333"/>
<path d="M274.199 219.013C275.277 222.789 272.482 226.557 268.597 226.568L249.775 226.064C247.763 226.011 245.763 225.604 243.925 224.77C238.636 222.372 236.943 218.002 237.163 213.47C237.543 205.66 237.732 193.288 236.122 186.175C236.077 185.974 224.548 176.212 224.866 174.332C224.946 173.861 229.544 159.532 251.282 158.283C266.376 157.417 276.147 162.046 271.979 175.556C270.522 180.282 268.196 184.945 268.196 184.945C268.749 193.048 269.965 201.093 271.83 208.992L274.197 219.009L274.199 219.013Z" fill="#DEFCE9"/>
<path d="M268.799 226.568C270.775 226.563 272.578 225.647 273.757 224.056C274.934 222.466 275.298 220.462 274.755 218.553L272.399 208.573C270.558 200.773 269.345 192.762 268.794 184.761C269.131 184.071 271.209 179.754 272.539 175.434C274.136 170.252 273.775 166.105 271.468 163.11C268.311 159.012 261.419 157.144 251.538 157.713C229.196 158.997 224.895 173.884 224.87 174.033C224.664 175.245 227.459 178.3 234.834 184.926C235.424 185.457 235.943 185.923 236.109 186.087C237.824 193.803 237.385 207.538 237.115 213.103C236.932 216.888 237.991 221.98 244.075 224.739C245.885 225.56 247.895 226.006 250.047 226.064L268.797 226.564L268.799 226.568ZM254.914 158.38C262.751 158.38 268.234 160.158 270.871 163.581C273.018 166.366 273.335 170.278 271.817 175.204C270.391 179.833 268.095 184.462 268.072 184.508C268.041 184.569 268.028 184.638 268.031 184.708C268.583 192.786 269.804 200.874 271.662 208.749L274.02 218.737C274.02 218.737 274.023 218.749 274.025 218.754C274.504 220.433 274.185 222.195 273.15 223.593C272.114 224.99 270.532 225.794 268.807 225.798L250.067 225.297C248.015 225.243 246.104 224.819 244.384 224.041C238.69 221.457 237.701 216.688 237.873 213.142C238.144 207.523 238.588 193.612 236.827 185.821C236.802 185.713 236.305 185.223 235.336 184.352C228.746 178.429 225.475 175.001 225.617 174.162C225.646 174.024 230.009 159.717 251.58 158.479C252.734 158.413 253.845 158.38 254.911 158.38H254.914Z" fill="#DEFCE9"/>
<path d="M243.155 146.968C243.271 147.183 246.537 152.035 249.614 157.007C250.48 158.405 251.638 159.576 253.246 159.74L258.333 160.258C259 160.325 259.285 161.169 258.797 161.642C256.499 163.873 251.119 168.75 245.329 168.427C234.678 167.83 237.442 164.2 239.861 162.19C240.932 161.302 241.307 159.797 240.793 158.484C240.171 156.894 239.385 154.884 238.937 153.721C238.333 154.231 237.719 154.649 237.097 154.978C236.297 155.403 235.266 155.13 234.799 154.34C234.029 153.041 232.894 151.405 232.492 150.657C232.393 150.47 232.203 150.355 231.996 150.353C231.507 150.349 231.009 150.518 230.54 150.118C230.352 149.958 230.292 149.687 230.366 149.447C231.013 147.371 229.572 144.25 229.432 142.566C228.93 136.519 238.128 137.622 243.153 146.966L243.155 146.968Z" fill="#EDAF8C"/>
<path d="M246.158 168.441C250.152 168.441 254.553 166.137 259.25 161.583C259.582 161.261 259.696 160.786 259.547 160.342C259.399 159.897 259.023 159.592 258.566 159.546L253.51 159.032C252.249 158.903 251.159 158.074 250.182 156.494C247.937 152.873 245.586 149.304 244.455 147.589C244.096 147.044 243.812 146.611 243.772 146.544C240.353 140.193 234.973 137.438 231.746 138.44C230.11 138.949 229.266 140.392 229.433 142.396C229.483 142.994 229.684 143.746 229.896 144.543C230.306 146.078 230.77 147.819 230.377 149.078C230.252 149.477 230.367 149.902 230.668 150.159C231.143 150.562 231.641 150.524 232.042 150.495C232.145 150.488 232.251 150.476 232.352 150.479C232.423 150.479 232.484 150.517 232.518 150.58C232.732 150.98 233.129 151.595 233.591 152.306C233.995 152.931 234.455 153.639 234.819 154.254C235.379 155.198 236.625 155.545 237.598 155.03C238.102 154.762 238.602 154.437 239.09 154.062C239.546 155.239 240.209 156.935 240.749 158.314C241.202 159.47 240.874 160.771 239.935 161.55C238.067 163.099 237.307 164.478 237.676 165.645C238.182 167.247 240.769 168.157 245.585 168.427C245.775 168.438 245.966 168.443 246.158 168.443V168.441ZM243.117 146.919C243.154 146.989 243.319 147.239 243.834 148.021C244.962 149.732 247.309 153.296 249.548 156.907C250.659 158.699 251.931 159.645 253.437 159.798L258.493 160.312C258.734 160.336 258.817 160.531 258.837 160.591C258.857 160.649 258.907 160.853 258.734 161.023C253.966 165.643 249.557 167.872 245.627 167.655C239.847 167.331 238.612 166.106 238.391 165.405C238.136 164.595 238.852 163.437 240.408 162.147C241.606 161.153 242.024 159.496 241.447 158.024C240.829 156.447 240.049 154.451 239.603 153.296C239.559 153.181 239.464 153.095 239.347 153.065C239.232 153.035 239.106 153.063 239.015 153.14C238.443 153.621 237.852 154.027 237.253 154.344C236.625 154.678 235.821 154.457 235.462 153.853C235.09 153.224 234.627 152.509 234.219 151.879C233.786 151.211 233.378 150.58 233.18 150.21C233.016 149.904 232.702 149.712 232.361 149.71C232.237 149.708 232.114 149.717 231.988 149.727C231.607 149.755 231.38 149.761 231.151 149.566C231.088 149.513 231.066 149.408 231.096 149.313C231.557 147.836 231.061 145.979 230.625 144.339C230.421 143.577 230.229 142.857 230.185 142.331C230.05 140.698 230.682 139.58 231.968 139.179C234.847 138.283 239.927 140.988 243.12 146.919H243.117Z" fill="#EDAF8C"/>
<path d="M239.47 153.625C239.543 153.625 239.616 153.603 239.681 153.557C241.939 151.98 242.487 149.628 242.508 149.528C242.555 149.325 242.429 149.121 242.228 149.076C242.03 149.028 241.828 149.156 241.783 149.36C241.775 149.399 241.26 151.534 239.26 152.933C239.091 153.051 239.048 153.286 239.164 153.46C239.237 153.566 239.353 153.625 239.472 153.625H239.47Z" fill="#EDAF8C"/>
<path d="M238.459 147.084C239.891 149.754 240.589 150.164 240.589 150.164C240.589 150.164 239.425 145.973 238.756 143.635C237.459 139.109 239.38 138.089 240.906 142.011C242.112 145.106 242.562 146.065 242.562 146.065C242.562 146.065 242.08 141.745 241.825 140.447C241.37 138.124 243.489 137.206 244.12 139.827C244.946 143.267 245.547 146.956 245.547 146.956C245.547 146.956 246.417 142.456 246.758 140.641C247.119 138.715 249.058 138.402 248.999 140.749C248.935 143.306 248.663 147.089 248.569 148.259C248.474 149.43 249.348 144.251 251.442 144.42C253.402 144.579 251.35 147.778 250.913 151.605C250.289 157.062 248.798 157.424 249.979 161.551C251.363 166.39 254.422 175.803 254.982 177.789C255.249 178.739 255.844 177.576 256.502 175.677C257.701 172.215 269.409 175.01 267.353 180.207C264.979 186.213 261.245 193.561 256.186 197.327C248.532 203.024 244.525 174.708 243.294 163.907C242.985 161.201 242.166 158.614 240.882 156.314C238.789 152.562 236.543 148.403 236.056 147.341C234.867 144.756 236.784 143.965 238.457 147.085L238.459 147.084Z" fill="#EDBA9C"/>
<path d="M254.482 198.073C255.203 198.073 255.934 197.799 256.668 197.25C261.862 193.374 265.643 185.742 267.898 180.02C268.394 178.76 268.195 177.517 267.321 176.424C265.52 174.17 261.397 173.106 258.828 173.558C257.542 173.784 256.704 174.366 256.403 175.237C255.996 176.418 255.728 176.971 255.572 177.228C255.315 176.337 254.71 174.41 253.954 172.004C252.837 168.446 251.445 164.016 250.635 161.177C249.934 158.721 250.216 157.674 250.682 155.939C250.974 154.852 251.338 153.5 251.576 151.415C251.73 150.062 252.089 148.8 252.404 147.686C252.849 146.121 253.169 144.99 252.711 144.32C252.513 144.029 252.191 143.863 251.757 143.829C250.694 143.745 249.931 144.703 249.413 145.739C249.518 144.138 249.636 142.116 249.674 140.562C249.71 139.157 249.089 138.589 248.496 138.524C247.808 138.448 246.941 139.072 246.698 140.375C246.509 141.385 246.156 143.228 245.881 144.659C245.625 143.276 245.249 141.368 244.812 139.543C244.429 137.949 243.546 137.555 242.907 137.696C242.151 137.866 241.503 138.844 241.793 140.325C241.906 140.895 242.063 142.077 242.204 143.205C242.028 142.764 241.829 142.256 241.601 141.671C240.854 139.747 239.922 138.768 239.11 139.048C238.188 139.368 238.049 141.087 238.75 143.534C239.136 144.883 239.691 146.871 240.088 148.295C239.825 147.888 239.511 147.361 239.149 146.684C238.106 144.735 236.951 144.215 236.265 144.565C235.733 144.837 235.368 145.711 236.089 147.283C236.553 148.295 238.711 152.32 240.901 156.254C242.159 158.512 242.95 161.01 243.254 163.677C244.584 175.359 247.652 195.326 253.271 197.811C253.67 197.988 254.076 198.076 254.485 198.076L254.482 198.073ZM260.092 174.218C262.405 174.218 265.381 175.209 266.736 176.903C267.439 177.782 267.595 178.735 267.199 179.735C264.979 185.364 261.273 192.864 256.222 196.633C255.29 197.328 254.423 197.481 253.571 197.105C249.777 195.428 246.198 182.898 244.002 163.585C243.687 160.815 242.865 158.22 241.557 155.873C239.375 151.953 237.229 147.953 236.771 146.955C236.315 145.961 236.402 145.346 236.604 145.242C236.857 145.114 237.667 145.509 238.487 147.043C239.89 149.667 240.616 150.184 240.747 150.261C240.88 150.339 241.046 150.327 241.166 150.232C241.287 150.136 241.339 149.977 241.299 149.827C241.287 149.784 240.133 145.621 239.474 143.317C238.77 140.853 239.146 139.839 239.354 139.766C239.518 139.71 240.19 140.118 240.9 141.944C242.089 145.007 242.538 145.97 242.556 146.009C242.635 146.177 242.825 146.261 243.001 146.213C243.178 146.162 243.292 145.989 243.272 145.801C243.252 145.625 242.788 141.465 242.535 140.171C242.347 139.215 242.667 138.528 243.071 138.438C243.401 138.366 243.844 138.73 244.081 139.718C244.889 143.092 245.487 146.759 245.494 146.795C245.524 146.977 245.679 147.111 245.861 147.114H245.866C246.046 147.114 246.202 146.985 246.237 146.805C246.237 146.805 247.102 142.32 247.441 140.509C247.592 139.699 248.066 139.237 248.418 139.278C248.744 139.313 248.942 139.807 248.923 140.535C248.859 143.072 248.586 146.869 248.497 147.999C248.486 148.138 248.457 148.507 248.801 148.577C249.146 148.645 249.238 148.359 249.364 147.96C249.636 147.101 250.459 144.473 251.7 144.584C251.997 144.608 252.069 144.713 252.092 144.749C252.347 145.121 252.024 146.261 251.68 147.468C251.371 148.555 250.989 149.905 250.826 151.322C250.595 153.349 250.24 154.67 249.954 155.732C249.47 157.533 249.15 158.721 249.911 161.385C250.724 164.233 252.118 168.669 253.236 172.23C253.999 174.662 254.66 176.762 254.886 177.568C255.025 178.065 255.287 178.177 255.483 178.182C255.49 178.182 255.496 178.182 255.501 178.182C255.934 178.182 256.341 177.725 257.116 175.483C257.376 174.731 258.261 174.427 258.959 174.305C259.309 174.243 259.692 174.213 260.094 174.213L260.092 174.218Z" fill="#EDBA9C"/>
<path d="M259.905 212.388L260.109 239.956C260.109 248.266 254.571 249.569 253.314 249.763C248.704 250.472 236.247 250.927 236.247 250.927L238.679 257.197L240.846 263.604H274.635C280.508 263.604 285.264 260.765 285.249 256.961L285.07 212.348C285.055 208.575 280.349 205.517 274.526 205.492C273.258 205.487 271.991 205.493 270.725 205.478C264.752 205.404 259.875 208.529 259.905 212.386V212.388Z" fill="#C6D7D0"/>
<path d="M245.048 263.602H274.834C278.704 263.602 282.194 262.396 284.172 260.372C285.255 259.265 285.824 257.959 285.819 256.597L285.64 212.136C285.624 208.184 280.729 204.947 274.727 204.921C273.462 204.916 272.195 204.925 270.932 204.908C267.102 204.869 263.577 206.089 261.5 208.196C260.336 209.377 259.727 210.754 259.737 212.179L259.941 239.653C259.941 247.446 254.988 248.813 253.469 249.045C251.254 249.386 246.504 249.428 242.687 249.462C240.627 249.481 238.849 249.496 237.743 249.554C237.535 249.564 237.376 249.745 237.387 249.957C237.397 250.168 237.577 250.33 237.781 250.32C238.872 250.263 240.643 250.248 242.694 250.229C246.534 250.195 251.314 250.151 253.581 249.803C254.769 249.621 260.692 248.276 260.692 239.65L260.488 212.172C260.478 210.959 261.012 209.771 262.029 208.738C263.965 206.774 267.306 205.634 270.921 205.675C272.187 205.69 273.455 205.683 274.722 205.688C280.312 205.712 284.872 208.606 284.885 212.14L285.064 256.6C285.069 257.754 284.575 258.873 283.637 259.832C281.798 261.714 278.507 262.837 274.832 262.837H245.046C244.839 262.837 244.67 263.009 244.67 263.221C244.67 263.432 244.839 263.604 245.046 263.604L245.048 263.602Z" fill="#8FA1B0"/>
<path d="M243.068 74.054C244.174 74.054 245.011 73.765 245.031 73.7563C245.223 73.6866 245.327 73.4655 245.263 73.2601C245.197 73.0547 244.988 72.945 244.794 73.0146C244.615 73.0773 240.362 74.531 238.861 70.0393C237.955 67.3269 239.615 64.6771 241.205 63.9703C241.394 63.8867 241.481 63.6569 241.402 63.4584C241.323 63.2582 241.106 63.1625 240.918 63.2495C239.059 64.0747 237.112 67.1563 238.162 70.3004C239.205 73.4185 241.43 74.054 243.066 74.054H243.068Z" fill="#8FA1B0"/>
<path d="M238.051 67.781C238.227 67.781 238.386 67.6574 238.425 67.4772C238.471 67.2696 238.34 67.0636 238.133 67.0173C236.959 66.7582 234.214 65.7937 234.072 62.449C233.965 59.8765 235.958 58.7575 237.65 58.2719C237.853 58.2135 237.973 57.999 237.915 57.7948C237.857 57.5906 237.645 57.4722 237.44 57.5288C235.837 57.9887 233.169 59.2449 233.306 62.4798C233.47 66.3617 236.621 67.4721 237.969 67.769C237.997 67.7758 238.024 67.7776 238.051 67.7776V67.781Z" fill="#8FA1B0"/>
<path d="M234.083 60.934C234.195 60.934 234.306 60.8759 234.376 60.7669C234.491 60.5892 234.452 60.3412 234.292 60.2163C233.948 59.9471 230.998 57.4739 233.022 53.5407C233.119 53.3507 233.06 53.1097 232.888 53.0007C232.716 52.8934 232.498 52.9584 232.4 53.1484C230.066 57.6868 233.48 60.5487 233.878 60.8601C233.942 60.9093 234.013 60.9322 234.085 60.9322L234.083 60.934Z" fill="#8FA1B0"/>
<path d="M236.761 55.2309C236.976 55.2309 237.152 55.065 237.154 54.8572C237.154 54.6494 236.981 54.4784 236.764 54.4767C236.745 54.4767 234.759 54.4432 233.48 53.1644C232.702 52.3867 232.332 51.2973 232.379 49.9246C232.422 48.634 232.863 47.6099 233.69 46.8775C234.59 46.0797 235.958 45.6573 237.453 45.7244C237.668 45.7411 237.853 45.5735 237.864 45.3657C237.874 45.1579 237.706 44.9819 237.489 44.9718C235.791 44.8981 234.21 45.3908 233.157 46.3244C232.171 47.1993 231.645 48.401 231.594 49.8994C231.54 51.485 231.985 52.7604 232.919 53.6906C234.432 55.1991 236.666 55.2293 236.759 55.2293H236.761V55.2309Z" fill="#8FA1B0"/>
<path d="M234.375 46.6774C234.428 46.6774 234.482 46.6658 234.534 46.6409C234.719 46.553 234.799 46.3307 234.711 46.1433C234.034 44.7153 233.266 42.0468 235.714 40.2208C237.894 38.5954 240.571 39.7879 241.776 41.1529C241.912 41.3071 242.147 41.322 242.301 41.186C242.455 41.05 242.469 40.8145 242.334 40.6603C240.94 39.0814 237.828 37.7164 235.269 39.6237C232.286 41.8478 233.413 45.1482 234.037 46.4651C234.1 46.5994 234.234 46.6774 234.373 46.6774H234.375Z" fill="#8FA1B0"/>
<path d="M238.238 39.259C238.238 39.259 238.247 39.259 238.251 39.259C238.456 39.2522 238.616 39.0766 238.609 38.8672C238.58 37.9653 238.639 33.4562 242.777 33.1877C247.016 32.9175 247.932 36.9875 247.97 37.1615C248.013 37.3658 248.212 37.4959 248.412 37.452C248.611 37.408 248.738 37.2054 248.696 36.9993C248.686 36.9504 247.585 32.117 242.731 32.4311C237.808 32.7503 237.849 38.266 237.869 38.8942C237.875 39.0985 238.04 39.2607 238.24 39.2607L238.238 39.259Z" fill="#8FA1B0"/>
<path d="M250.225 78.0457C251.337 78.0457 252.336 77.7702 253.21 77.2208C254.673 76.3024 255.548 74.69 255.548 72.9075V33.2488C255.548 31.2554 254.492 29.4355 252.793 28.4984C251.673 27.881 250.349 27.7058 248.864 27.9813C245.299 28.6412 244.31 32.2725 244.149 32.9954C244.102 33.2012 244.235 33.4053 244.443 33.4512C244.651 33.4955 244.858 33.3662 244.904 33.1604C245.047 32.5209 245.918 29.3063 249.005 28.7331C250.308 28.4916 251.454 28.6378 252.413 29.1668C253.868 29.9696 254.771 31.5344 254.771 33.2505V72.9092C254.771 74.4042 254.014 75.8091 252.793 76.5762C251.726 77.2463 250.421 77.4402 248.913 77.1494C246.953 76.7718 245.562 75.5064 245.097 73.6797C244.605 71.7475 245.285 69.6333 246.789 68.4189C246.955 68.2846 246.979 68.0448 246.844 67.8815C246.708 67.7182 246.466 67.6944 246.3 67.827C244.569 69.2268 243.785 71.654 244.348 73.8668C244.889 75.9928 246.5 77.4623 248.767 77.8995C249.271 77.9964 249.759 78.0457 250.225 78.0457Z" fill="#8FA1B0"/>
<path d="M255.159 50.6681H255.161C255.375 50.6681 255.548 50.4884 255.548 50.27C255.532 47.2031 253.966 45.1263 251.557 44.9765C248.95 44.8162 247.702 46.3224 247.65 46.3875C247.514 46.5567 247.538 46.8068 247.704 46.946C247.869 47.0851 248.113 47.0605 248.249 46.8931C248.294 46.8385 249.316 45.6318 251.51 45.7675C253.509 45.8908 254.757 47.6189 254.771 50.2735C254.771 50.492 254.945 50.6681 255.159 50.6681Z" fill="#8FA1B0"/>
<path d="M246.301 60.9342C247.255 60.9342 248.424 60.6381 249.421 59.6571C251.225 57.8808 250.032 54.4865 249.981 54.3437C249.909 54.144 249.692 54.0407 249.496 54.113C249.299 54.187 249.2 54.4091 249.271 54.6105C249.281 54.6414 250.345 57.6742 248.897 59.0994C247.276 60.6949 245.296 60.022 245.213 59.9927C245.016 59.9238 244.799 60.0306 244.732 60.2319C244.663 60.4333 244.769 60.6554 244.966 60.7242C245.297 60.8413 245.765 60.9342 246.301 60.9342Z" fill="#8FA1B0"/>
<path d="M245.741 64.9284C245.903 64.9284 246.052 64.8186 246.101 64.6495C246.333 63.8409 246.969 61.0681 245.371 59.341C243.731 57.5704 241.12 58.1803 241.009 58.2065C240.807 58.2553 240.681 58.4662 240.728 58.677C240.775 58.8879 240.978 59.0169 241.18 58.9698C241.203 58.9646 243.491 58.4365 244.831 59.8848C246.146 61.3051 245.584 63.7172 245.381 64.423C245.321 64.6304 245.435 64.8482 245.634 64.911C245.671 64.9214 245.706 64.9266 245.742 64.9266L245.741 64.9284Z" fill="#8FA1B0"/>
<path d="M236.581 50.6671C238.075 50.6671 240.046 50.3694 241.055 48.9662C242.76 46.5985 241.224 43.5862 241.158 43.4603C241.06 43.2732 240.828 43.2001 240.64 43.2971C240.452 43.394 240.379 43.6253 240.475 43.8124C240.488 43.8396 241.856 46.5373 240.43 48.5222C239.61 49.6602 237.894 49.9034 236.581 49.9034C236.565 49.9034 236.547 49.9034 236.536 49.9034C236.325 49.9034 236.154 50.0735 236.152 50.2844C236.152 50.4953 236.323 50.6671 236.535 50.6688H236.579L236.581 50.6671Z" fill="#8FA1B0"/>
<path d="M245.168 55.803C245.313 55.803 245.451 55.7112 245.506 55.5599C245.547 55.4528 246.474 52.9099 245.093 50.6764C243.935 48.8066 241.471 48.8916 240.466 49.0139C240.267 49.0377 240.123 49.2281 240.147 49.4372C240.17 49.6463 240.354 49.7993 240.551 49.7721C241.23 49.6905 243.519 49.5392 244.48 51.0928C245.66 52.9983 244.835 55.2573 244.827 55.2811C244.754 55.4783 244.845 55.6993 245.033 55.7758C245.077 55.7945 245.122 55.803 245.166 55.803H245.168Z" fill="#8FA1B0"/>
<path d="M247.913 42.1124C248.617 42.1124 249.369 41.9377 250.079 41.4381C252.391 39.816 252.122 36.8894 252.111 36.7659C252.089 36.5488 251.898 36.3899 251.693 36.4128C251.484 36.4358 251.333 36.6317 251.355 36.8488C251.365 36.9618 251.578 39.4294 249.657 40.7797C247.754 42.1159 245.32 40.5079 245.297 40.492C245.121 40.3738 244.884 40.4249 244.771 40.6103C244.658 40.7939 244.707 41.0392 244.883 41.1592C244.964 41.214 246.318 42.1142 247.914 42.1142L247.913 42.1124Z" fill="#8FA1B0"/>
<path d="M272.888 43.2531C272.936 43.2531 272.983 43.2444 273.031 43.2218C274.891 42.3964 276.837 39.3142 275.788 36.1694C274.04 30.9419 268.969 32.6954 268.918 32.7128C268.726 32.7825 268.622 33.0036 268.686 33.2091C268.752 33.4146 268.963 33.5243 269.155 33.4546C269.336 33.3902 273.587 31.9362 275.088 36.4306C275.995 39.1436 274.334 41.7939 272.745 42.5009C272.555 42.5845 272.468 42.8143 272.547 43.0128C272.606 43.1626 272.745 43.2531 272.889 43.2531H272.888Z" fill="#8FA1B0"/>
<path d="M275.831 48.3874C275.865 48.3874 275.901 48.3822 275.937 48.3719C277.539 47.9119 280.206 46.6555 280.07 43.4199C279.906 39.5373 276.756 38.4267 275.408 38.1298C275.203 38.0852 274.997 38.2156 274.95 38.4233C274.904 38.631 275.036 38.837 275.242 38.8833C276.416 39.1425 279.16 40.1071 279.302 43.4525C279.411 46.0255 277.416 47.1447 275.725 47.6304C275.522 47.6888 275.403 47.9033 275.462 48.1076C275.51 48.2775 275.664 48.3874 275.831 48.3874Z" fill="#8FA1B0"/>
<path d="M280.664 53.5209C280.788 53.5209 280.909 53.4488 280.976 53.3204C283.31 48.7823 279.896 45.9205 279.498 45.6091C279.336 45.4825 279.113 45.5247 279 45.7023C278.885 45.88 278.924 46.128 279.084 46.2529C279.428 46.522 282.378 48.9951 280.354 52.9282C280.257 53.1181 280.316 53.3591 280.488 53.4682C280.543 53.5034 280.604 53.5192 280.664 53.5192V53.5209Z" fill="#8FA1B0"/>
<path d="M275.651 60.3641C277.222 60.3641 278.665 59.8763 279.649 59.003C280.635 58.1281 281.16 56.9263 281.211 55.4278C281.265 53.8422 280.82 52.5667 279.887 51.6364C278.373 50.1279 276.14 50.0977 276.046 50.0977C275.813 50.1061 275.653 50.2637 275.651 50.4715C275.649 50.6793 275.824 50.8503 276.041 50.852C276.06 50.852 278.045 50.8855 279.324 52.1644C280.102 52.9421 280.472 54.0316 280.425 55.4044C280.381 56.6933 279.941 57.7191 279.114 58.4516C278.214 59.2494 276.846 59.6718 275.352 59.6048C275.137 59.5863 274.952 59.7556 274.942 59.9635C274.931 60.1713 275.099 60.3473 275.315 60.3574C275.427 60.3624 275.539 60.3641 275.649 60.3641H275.651Z" fill="#8FA1B0"/>
<path d="M275.329 67.21C276.257 67.21 277.216 66.9431 278.106 66.2782C281.089 64.0546 279.962 60.7549 279.338 59.4383C279.25 59.2526 279.027 59.173 278.841 59.2609C278.656 59.3488 278.576 59.571 278.664 59.7583C279.341 61.186 280.109 63.8539 277.661 65.6796C275.481 67.3045 272.804 66.1123 271.599 64.7477C271.463 64.5935 271.228 64.5786 271.074 64.7145C270.92 64.8505 270.905 65.0859 271.041 65.2402C271.948 66.2699 273.589 67.2067 275.327 67.2084L275.329 67.21Z" fill="#8FA1B0"/>
<path d="M270.769 73.4843C270.916 73.4843 271.064 73.4792 271.218 73.4691C276.141 73.15 276.1 67.6355 276.08 67.0074C276.073 66.798 275.908 66.6258 275.697 66.641C275.493 66.6478 275.333 66.8234 275.339 67.0327C275.369 67.9344 275.31 72.4425 271.171 72.711C266.927 72.9913 266.017 68.912 265.979 68.7381C265.934 68.5338 265.737 68.4038 265.537 68.4477C265.337 68.4916 265.21 68.6942 265.253 68.9002C265.263 68.9474 266.286 73.4826 270.769 73.4826V73.4843Z" fill="#8FA1B0"/>
<path d="M263.194 78.0457C263.617 78.0457 264.058 78.0032 264.514 77.9199C268.08 77.2599 269.068 73.6286 269.23 72.9057C269.276 72.6999 269.144 72.4958 268.935 72.4499C268.727 72.4039 268.52 72.5349 268.474 72.7407C268.331 73.3802 267.46 76.5949 264.373 77.1681C263.07 77.4079 261.923 77.2633 260.964 76.7344C259.509 75.9315 258.607 74.3667 258.607 72.6506V32.9913C258.607 31.4962 259.365 30.0913 260.585 29.3242C261.655 28.6541 262.96 28.4602 264.466 28.751C266.427 29.1286 267.818 30.3941 268.283 32.2208C268.775 34.153 268.095 36.2672 266.59 37.4816C266.425 37.616 266.401 37.8558 266.535 38.0191C266.671 38.1824 266.914 38.2062 267.079 38.0735C268.811 36.6737 269.595 34.2465 269.032 32.0337C268.489 29.9076 266.88 28.4381 264.612 28.0009C262.904 27.671 261.41 27.9006 260.169 28.6796C258.705 29.5981 257.831 31.2105 257.831 32.993V72.6523C257.831 74.6457 258.886 76.4656 260.585 77.4028C261.362 77.8314 262.236 78.0457 263.195 78.0457H263.194Z" fill="#8FA1B0"/>
<path d="M262.21 60.9327C264.553 60.9327 265.68 59.5711 265.729 59.5112C265.865 59.3421 265.841 59.092 265.675 58.9528C265.511 58.8137 265.266 58.8383 265.13 59.0056C265.087 59.0567 264.065 60.2668 261.868 60.1312C259.87 60.0079 258.622 58.2799 258.608 55.6255C258.608 55.407 258.434 55.2309 258.22 55.2309H258.218C258.004 55.2309 257.831 55.4106 257.831 55.629C257.847 58.6939 259.412 60.7724 261.82 60.9221C261.953 60.9309 262.082 60.9344 262.206 60.9344L262.21 60.9327Z" fill="#8FA1B0"/>
<path d="M263.749 52.3802C263.793 52.3802 263.837 52.3733 263.881 52.3561C264.076 52.2821 264.177 52.0601 264.106 51.8588C264.096 51.8278 263.032 48.7956 264.48 47.3707C266.101 45.7754 268.08 46.4483 268.162 46.4775C268.361 46.5464 268.576 46.4397 268.644 46.2383C268.713 46.037 268.607 45.815 268.41 45.7462C267.487 45.4209 265.513 45.2798 263.955 46.8131C262.15 48.5891 263.344 51.9827 263.394 52.1255C263.45 52.2821 263.594 52.3785 263.749 52.3785V52.3802Z" fill="#8FA1B0"/>
<path d="M271.758 47.8148C272.417 47.8148 272.895 47.7033 272.94 47.6928C273.143 47.644 273.268 47.4331 273.221 47.2223C273.175 47.0114 272.972 46.8824 272.77 46.9294C272.746 46.9347 270.46 47.4628 269.12 46.0144C267.806 44.594 268.368 42.1818 268.57 41.4759C268.63 41.2685 268.516 41.0506 268.317 40.9879C268.118 40.9286 267.909 41.0437 267.849 41.2511C267.617 42.0598 266.981 44.8327 268.578 46.5599C269.537 47.5952 270.828 47.8166 271.756 47.8166L271.758 47.8148Z" fill="#8FA1B0"/>
<path d="M272.56 62.6455C272.619 62.6455 272.679 62.6319 272.736 62.6029C272.924 62.506 272.997 62.2746 272.901 62.0875C272.888 62.0603 271.519 59.3623 272.946 57.3788C273.774 56.2271 275.52 56.0077 276.839 55.9975C277.051 55.9975 277.222 55.8274 277.223 55.6164C277.223 55.4055 277.053 55.2337 276.841 55.232C275.353 55.2099 273.34 55.5161 272.321 56.9331C270.616 59.3011 272.151 62.3138 272.218 62.4396C272.286 62.5706 272.42 62.6455 272.56 62.6455Z" fill="#8FA1B0"/>
<path d="M272 56.9419C272.36 56.9419 272.674 56.9147 272.909 56.8858C273.109 56.862 273.253 56.6717 273.229 56.4626C273.204 56.2535 273.021 56.1006 272.825 56.1277C272.146 56.211 269.857 56.3606 268.895 54.807C267.722 52.9101 268.54 50.6408 268.548 50.6187C268.621 50.4216 268.529 50.2006 268.341 50.1241C268.153 50.0476 267.942 50.1428 267.869 50.34C267.829 50.4471 266.901 52.9916 268.283 55.2235C269.169 56.6564 270.823 56.9419 272 56.9419Z" fill="#8FA1B0"/>
<path d="M261.643 69.4903C261.657 69.4903 261.67 69.4903 261.684 69.4886C261.893 69.4656 262.044 69.2697 262.022 69.0526C262.011 68.9396 261.799 66.4719 263.72 65.1216C265.622 63.7854 268.055 65.3934 268.079 65.4093C268.254 65.5276 268.489 65.4764 268.604 65.2911C268.717 65.1075 268.668 64.8621 268.492 64.7421C268.376 64.6627 265.619 62.8287 263.295 64.4614C260.984 66.0854 261.253 69.0102 261.265 69.1355C261.285 69.3385 261.451 69.4903 261.641 69.4903H261.643Z" fill="#8FA1B0"/>
<path d="M263.464 43.2523C263.619 43.2523 263.763 43.1556 263.816 43.0015C263.852 42.8966 264.676 40.4019 263.351 38.4792C261.823 36.2598 258.258 37.1498 258.106 37.1892C257.907 37.24 257.788 37.4416 257.84 37.6383C257.891 37.835 258.094 37.953 258.292 37.9022C258.324 37.894 261.504 37.1039 262.737 38.8955C263.855 40.5199 263.118 42.7442 263.11 42.7672C263.044 42.9606 263.15 43.1687 263.343 43.2343C263.383 43.2474 263.422 43.254 263.462 43.254L263.464 43.2523Z" fill="#8FA1B0"/>
<path d="M145.451 160.425L142.301 192.56C142.198 193.609 141.466 194.398 140.594 194.398H139.669C138.778 194.398 138.036 193.575 137.956 192.5L135.184 155.044L145.449 160.425H145.451Z" fill="#EDBA9C"/>
<path d="M59.3184 160.425L56.1119 193.148C56.0421 193.86 55.5437 194.398 54.9506 194.398H53.0333C52.4286 194.398 51.9235 193.838 51.8687 193.108L49.051 155.044L59.3184 160.425Z" fill="#EDBA9C"/>
<path d="M113.506 160.424L110.299 193.148C110.229 193.86 109.731 194.398 109.138 194.398H107.221C106.616 194.398 106.111 193.838 106.056 193.108L103.238 155.044L113.506 160.426V160.424Z" fill="#EDBA9C"/>
<path d="M21.1035 159.856L17.897 192.578C17.8272 193.29 17.3288 193.828 16.7357 193.828H14.8185C14.2137 193.828 13.7087 193.268 13.6538 192.539L10.8361 154.474L21.1035 159.856Z" fill="#EDBA9C"/>
<path d="M159.141 110.948C158.98 98.5169 152.089 93.5379 142.995 93.908C123.81 94.6858 104.504 92.4718 100.984 88.407C95.8026 82.4249 99.4155 61.4612 92.4192 49.5107C86.6757 39.7027 11.3237 45.3027 7.8627 46.5189C1.37796 48.7977 1.25305 54.9026 1.37798 72.3013C1.48434 87.1157 -0.4319 130.498 5.06351 151.313C6.72141 157.594 11.658 162.457 17.9283 163.912C22.588 164.992 29.6772 166.087 39.8677 166.387H136.514C136.514 166.387 150.471 168.096 153.433 153.995C156.394 139.893 159.142 110.95 159.142 110.95L159.141 110.948Z" fill="#C6D7D0"/>
<path d="M138.031 166.449C141.664 166.449 151.557 165.354 154.002 153.715C156.93 139.775 159.685 110.981 159.712 110.694C159.712 110.68 159.714 110.666 159.712 110.653C159.634 104.644 158.01 100.081 154.886 97.0889C152.066 94.3877 148.023 93.0626 143.191 93.2602C123.472 94.059 104.785 91.6541 101.53 87.8987C99.1862 85.1924 98.7006 79.228 98.1391 72.3218C97.4983 64.4515 96.7732 55.5322 93.0162 49.1181C89.8915 43.7822 67.6832 43.0158 49.6012 43.3087C29.4181 43.6374 9.82185 45.3627 8.1086 45.9656C1.20665 48.3892 1.25725 55.3227 1.37698 72.0731C1.39722 74.8373 1.34492 78.6319 1.2859 83.0277C1.02791 102.135 0.594528 134.113 5.06992 151.06C6.77306 157.506 11.8033 162.43 18.201 163.913C24.216 165.307 31.612 166.143 40.1884 166.395H136.711C136.826 166.407 137.301 166.451 138.03 166.451L138.031 166.449ZM158.955 110.641C158.867 111.559 156.145 139.816 153.26 153.557C150.409 167.136 136.915 165.647 136.778 165.628C136.763 165.628 136.748 165.625 136.733 165.625H40.2019C31.6879 165.375 24.3391 164.545 18.373 163.164C12.2501 161.745 7.43578 157.029 5.80515 150.859C1.35674 134.016 1.78842 102.103 2.04642 83.0345C2.10544 78.6353 2.15773 74.8356 2.1375 72.0646C2.01271 54.4898 2.26225 48.8269 8.35985 46.686C10.0394 46.0951 29.5007 44.4004 49.6147 44.0717C74.8853 43.6579 90.0702 45.5892 92.3652 49.5047C96.0329 55.7672 96.7513 64.5929 97.3853 72.3814C97.9586 79.4222 98.4527 85.5024 100.962 88.3994C104.805 92.8361 125.467 94.7419 143.223 94.0232C147.846 93.8325 151.699 95.0877 154.366 97.6424C157.333 100.483 158.877 104.857 158.955 110.639V110.641Z" fill="#8FA1B0"/>
<path d="M4.40265 148.762C-0.125408 127.064 1.41659 86.3651 1.31525 72.0912C1.19196 54.659 1.31524 48.5423 7.80247 46.259L7.81092 46.2556C8.43583 46.0368 9.11814 46.0573 9.72953 46.3103C9.7802 46.3308 9.83089 46.353 9.87988 46.3752C22.5385 51.9587 15.7743 84.4254 19.5862 91.3949C23.0671 97.7576 30.6944 97.4056 37.2914 96.9065C57.1145 95.4077 54.0136 113.898 54.0136 113.898L53.5644 161.529C53.539 164.185 51.4363 166.343 48.8134 166.4C46.4269 166.451 43.4577 166.478 40.7031 166.401C40.6287 166.4 32.005 166.41 32.005 166.41C23.459 166.169 24.5264 166.099 19.9459 165.198C12.0265 163.638 6.41249 158.389 4.40265 148.762Z" fill="#C6D7D0"/>
<path d="M44.6539 166.448C46.0169 166.448 47.4775 166.431 49.0239 166.399C51.8593 166.338 54.1024 164.034 54.1293 161.156L54.5753 113.633C54.6745 113.007 55.7599 105.49 51.2535 100.472C48.3189 97.2045 43.6947 95.7833 37.509 96.2542C30.2279 96.807 23.4313 96.8155 20.2291 90.9496C18.9334 88.5763 18.9081 82.9886 18.8795 76.517C18.8257 64.4986 18.7567 49.5422 10.3784 45.838C10.3262 45.8159 10.2741 45.792 10.2202 45.7698C9.52356 45.4797 8.74783 45.4593 8.04109 45.7067C1.14695 48.138 1.19575 55.0839 1.31354 71.8642C1.33205 74.5429 1.29333 78.1856 1.24789 82.405C1.0527 100.528 0.726242 130.859 4.39796 148.486C6.32973 157.757 11.7868 163.534 20.182 165.191C20.9055 165.334 21.4878 165.455 21.9892 165.561C24.6546 166.119 25.0636 166.204 32.2589 166.409C35.207 166.406 40.7971 166.399 40.93 166.402C42.0726 166.435 43.3161 166.45 44.6539 166.45V166.448ZM39.742 96.9349C44.5933 96.9349 48.2701 98.293 50.6898 100.985C55.0464 105.833 53.8365 113.459 53.8231 113.536C53.8197 113.557 53.818 113.577 53.818 113.596L53.3704 161.147C53.3469 163.609 51.4302 165.578 49.0054 165.631C45.953 165.698 43.2421 165.698 40.9435 165.633C40.8728 165.633 34.2832 165.638 32.2656 165.64C25.1477 165.438 24.7472 165.355 22.1373 164.807C21.6342 164.701 21.0486 164.578 20.3216 164.435C12.1335 162.819 7.02472 157.399 5.13333 148.325C1.47844 130.782 1.80487 100.503 2.00007 82.4119C2.0455 78.189 2.08422 74.5429 2.06572 71.8574C1.9412 54.2512 2.19191 48.5782 8.27497 46.4335C8.81681 46.2441 9.40073 46.2612 9.92742 46.4796L10.0705 46.541C17.9961 50.0438 18.0634 64.7238 18.1172 76.5187C18.1475 83.0943 18.1728 88.7725 19.5627 91.3182C23.2647 98.1003 31.5286 97.4741 37.5612 97.0168C38.3117 96.9605 39.0369 96.9315 39.7386 96.9315L39.742 96.9349Z" fill="#8FA1B0"/>
<path d="M153.075 156.18C153.23 156.18 153.376 156.082 153.43 155.925C153.703 155.138 153.934 154.295 154.116 153.423C156.574 141.663 158.952 117.782 159.624 110.743C159.932 107.513 159.434 104.34 158.187 101.561C156.58 97.9814 153.169 93.6658 146.051 93.4448H141.475C135.559 93.4448 130.534 97.9372 129.784 103.896L128.913 110.819C128.887 111.029 129.032 111.221 129.24 111.248C129.447 111.272 129.635 111.127 129.662 110.916L130.532 103.993C131.234 98.4148 135.939 94.2097 141.477 94.2097H146.04C152.76 94.4188 155.984 98.4947 157.503 101.879C158.695 104.534 159.17 107.575 158.875 110.67C158.206 117.7 155.829 141.545 153.381 153.267C153.205 154.106 152.984 154.917 152.722 155.674C152.653 155.873 152.755 156.092 152.951 156.161C152.993 156.177 153.035 156.184 153.076 156.184L153.075 156.18Z" fill="#99ABB6"/>
<path d="M168.841 66.0645C157.815 66.0645 148.877 56.9993 148.877 45.817C148.877 34.6346 157.815 25.5695 168.841 25.5695C179.867 25.5695 188.806 34.6346 188.806 45.817C188.806 56.9993 179.867 66.0645 168.841 66.0645Z" fill="white"/>
<path d="M169.126 66.0653C180.292 66.0653 189.376 56.8543 189.376 45.5327C189.376 34.211 180.292 25 169.126 25C157.961 25 148.877 34.211 148.877 45.5327C148.877 56.8543 157.961 66.0653 169.126 66.0653ZM169.126 25.7636C179.876 25.7636 188.623 34.6311 188.623 45.5327C188.623 56.4342 179.877 65.3017 169.126 65.3017C158.375 65.3017 149.63 56.4342 149.63 45.5327C149.63 34.6311 158.375 25.7636 169.126 25.7636Z" fill="#8FA1B0"/>
<path d="M159.119 47.4259L159.91 45.6824C160.569 44.2292 160.912 42.6511 160.912 41.0544L160.723 39.4865C160.558 38.1143 161.316 36.7978 162.586 36.2543L164.482 35.4425C167.305 34.445 170.383 34.445 173.206 35.4425L175.102 36.2543C176.372 36.7978 177.131 38.1143 176.965 39.4865L176.776 41.0544C176.776 42.6511 177.117 44.2292 177.778 45.6824L178.571 47.4259C178.932 48.2191 179.116 49.1069 179.11 49.9795C179.104 51.1879 178.122 52.1635 176.915 52.1635H175.287C174.501 52.1635 173.916 52.8639 174.081 53.6335L174.211 54.0487C174.398 54.6597 174.238 55.2707 173.867 55.7045C173.486 56.1484 172.756 55.8699 172.756 55.2842C172.756 54.918 172.493 54.5838 172.128 54.5483C171.71 54.5061 171.356 54.8336 171.356 55.2454V55.7315C171.356 56.0808 171.073 56.3661 170.722 56.3661H170.31C169.961 56.3661 169.676 56.0825 169.676 55.7315V55.2859C169.676 54.9196 169.413 54.5855 169.049 54.55C168.631 54.5078 168.277 54.8353 168.277 55.2471V55.7332C168.277 56.0825 167.993 56.3678 167.642 56.3678H167.231C166.88 56.3678 166.597 56.0842 166.597 55.7332V55.2876C166.597 54.9213 166.334 54.5872 165.969 54.5517C165.551 54.5095 165.197 54.8369 165.197 55.2488V55.5695C165.195 56.0471 164.671 56.356 164.264 56.1045C163.602 55.6943 163.227 54.8707 163.475 54.0622L163.605 53.6487C163.77 52.8808 163.183 52.1685 162.399 52.1685H160.772C159.564 52.1685 158.583 51.193 158.576 49.9845C158.571 49.1136 158.755 48.2259 159.116 47.4309L159.119 47.4259Z" fill="#8FA1B0"/>
<path d="M162.533 42.5978L162.042 44.5314C161.83 45.3665 162.382 46.2016 163.212 46.301L166.163 46.6605C166.526 46.7053 166.892 46.5976 167.179 46.3623C167.825 45.8337 167.879 44.8446 167.296 44.2431L165.171 42.056C165.01 41.892 164.815 41.7711 164.599 41.7031L164.264 41.5987C163.517 41.3651 162.732 41.8191 162.533 42.5978Z" fill="white"/>
<path d="M175.166 42.6086L175.644 44.5107C175.855 45.3539 175.304 46.197 174.475 46.2974L171.529 46.6604C171.167 46.7056 170.802 46.5969 170.515 46.3593L170.505 46.3526C169.864 45.8223 169.806 44.8286 170.382 44.2213L172.344 42.1485C172.493 41.9912 172.675 41.8708 172.877 41.7988L173.393 41.6148C174.148 41.3455 174.962 41.8022 175.166 42.6086Z" fill="white"/>
<path d="M171.017 50.0582L169.547 47.4894C169.36 47.1603 168.894 47.1603 168.705 47.4894L167.235 50.0582C166.937 50.58 167.306 51.235 167.898 51.235H170.354C170.946 51.235 171.315 50.58 171.017 50.0582Z" fill="white"/>
<path d="M189.662 120.25C178.793 120.25 169.983 111.441 169.983 100.573C169.983 89.7059 178.793 80.8961 189.662 80.8961C200.53 80.8961 209.341 89.7059 209.341 100.573C209.341 111.441 200.53 120.25 189.662 120.25Z" fill="white"/>
<path d="M189.947 120.251C200.956 120.251 209.911 111.296 209.911 100.288C209.911 89.2806 200.954 80.3267 189.947 80.3267C178.94 80.3267 169.983 89.2823 169.983 100.288C169.983 111.294 178.94 120.251 189.947 120.251ZM189.947 81.0904C200.535 81.0904 209.149 89.7032 209.149 100.29C209.149 110.876 200.535 119.489 189.947 119.489C179.359 119.489 170.745 110.876 170.745 100.29C170.745 89.7032 179.359 81.0904 189.947 81.0904Z" fill="#F8B8B9"/>
<path d="M189.378 101.546C189.378 101.546 190.398 93.9307 190.448 93.8632C191.291 92.7094 192.954 91.1603 195.801 91.1603C200.337 91.1603 203.068 95.3852 203.068 98.8685C203.068 103.624 194.214 110.411 190.937 112.763C190.902 112.786 190.837 112.834 190.837 112.834L193.208 104.049L189.378 101.546Z" fill="#F8B8B9"/>
<path d="M176.833 98.8931C176.868 95.3994 179.502 91.1603 183.935 91.1603C185.8 91.1603 187.145 91.8584 188.078 92.6666C188.083 92.6699 188.091 92.6784 188.091 92.6784L186.794 102.487L190.521 105.247L188.696 112.834C188.696 112.834 188.672 112.817 188.661 112.807C186.61 111.292 176.782 103.774 176.831 98.8931H176.833Z" fill="#F8B8B9"/>
<path d="M58.1816 244.014C60.5494 239.964 65.3818 231.495 72.56 227.455C87.5057 219.043 106.824 231.75 106.666 234.79C106.363 240.633 97.2249 231.449 79.8553 236.293C71.0924 238.737 63.6357 240.633 58.1816 244.014Z" fill="#C6D7D0"/>
<path d="M58.5631 244.013C58.6307 244.013 58.7001 243.995 58.761 243.957C63.6927 240.919 70.3602 239.081 78.0817 236.955L80.2506 236.357C89.642 233.753 96.4922 235.26 101.026 236.254C103.674 236.836 105.423 237.22 106.428 236.449C106.924 236.068 107.186 235.437 107.235 234.519C107.306 233.165 104.769 231.068 102.37 229.556C94.9036 224.851 82.653 221.335 72.7 226.903C65.6197 230.863 60.7421 239.168 58.3972 243.159L58.2348 243.435C58.1452 243.587 58.1705 243.78 58.2957 243.904C58.3685 243.978 58.4649 244.015 58.5631 244.015V244.013ZM90.5911 234.139C87.5103 234.139 84.0031 234.521 80.051 235.618L77.8821 236.217C70.7409 238.184 64.4946 239.904 59.6323 242.568C62.1176 238.38 66.7025 231.136 73.0705 227.576C82.7343 222.169 94.6769 225.615 101.969 230.21C105.307 232.312 106.504 233.946 106.477 234.482C106.442 235.161 106.276 235.606 105.97 235.841C105.246 236.399 103.545 236.026 101.19 235.509C98.4869 234.915 94.9713 234.142 90.5928 234.142L90.5911 234.139Z" fill="#C6D7D0"/>
<path d="M54.7002 240.595C55.2617 231.169 51.9419 215.111 41.6017 207.924C29.395 199.441 -0.167305 212.908 0.00129318 222.176C0.114258 228.362 17.5188 217.46 36.2115 223.606C41.5578 225.363 43.0753 227.205 54.7002 240.595Z" fill="#C6D7D0"/>
<path d="M60.4631 247.743C63.7852 247.155 72.4703 244.91 78.759 251.184C81.5345 253.954 85.2892 267.442 81.9923 268.519C80.1325 269.126 76.7903 258.23 70.6625 254.649C66.2168 252.051 62.6818 249.66 60.4631 247.743Z" fill="#C6D7D0"/>
<path d="M42.2131 256.565C41.0827 258.371 38.3296 261.923 36.1994 264.587C35.1692 265.876 32.1224 269.661 28.5801 272.741C23.0637 277.539 20.0407 295.625 17.2724 295.346C12.9153 294.905 10.7359 275.342 21.5327 264.936C23.5492 262.993 26.1834 261.81 30.3877 260.248C34.6803 258.652 39.6026 257.188 42.2131 256.565Z" fill="#C6D7D0"/>
<path d="M41.2363 311.318C41.2517 311.318 41.267 311.318 41.2824 311.315C41.4926 311.289 41.643 311.098 41.619 310.887C37.8666 279.332 41.8873 263.333 45.9217 255.468C50.2619 247.008 55.5334 245.932 55.5864 245.922C55.7948 245.883 55.9333 245.683 55.894 245.474C55.8564 245.265 55.6547 245.126 55.448 245.164C55.219 245.205 49.8125 246.277 45.2946 255.006C41.1799 262.958 37.0686 279.123 40.8552 310.978C40.8792 311.173 41.0449 311.317 41.2363 311.317V311.318Z" fill="#557571"/>
<path d="M43.7356 311.315C43.9143 311.315 44.0725 311.19 44.1099 311.009C44.1728 310.704 50.5133 280.418 63.087 276.558C67.0797 275.332 71.3531 276.932 75.7848 281.311C75.9362 281.46 76.1778 281.456 76.3258 281.306C76.4738 281.153 76.4721 280.91 76.3207 280.761C71.673 276.167 67.1443 274.506 62.8624 275.821C49.8566 279.814 43.6182 309.588 43.3597 310.853C43.3171 311.062 43.4498 311.266 43.6574 311.309C43.6829 311.314 43.7101 311.317 43.7356 311.317V311.315Z" fill="#557571"/>
<path d="M74.8971 291.356C74.1351 292.151 70.7176 295.891 70.7315 301.669C70.7454 307.362 74.0865 312.773 75.4629 312.445C76.6188 312.169 77.0892 307.672 74.8953 291.356H74.8971Z" fill="#C6D7D0"/>
<path d="M77.0005 283.371C80.2744 287.613 83.2397 293.387 91.0013 298.281C99.5869 303.692 102.328 322.769 108.851 321.526C111.019 321.113 107.632 295.276 102.159 291.136C97.4473 287.572 93.4664 284.725 77.0022 283.373L77.0005 283.371Z" fill="#C6D7D0"/>
<path d="M108.441 321.585C108.666 321.585 108.893 321.563 109.128 321.519C109.677 321.415 109.846 320.684 109.9 320.444C110.893 316.132 107.787 294.506 102.629 290.602C98.0721 287.153 94.1363 284.175 77.4098 282.803C77.2563 282.789 77.1164 282.869 77.0455 283.002C76.9747 283.136 76.9882 283.299 77.0793 283.418C77.7386 284.274 78.3862 285.19 79.0691 286.161C81.7993 290.035 84.8953 294.428 91.1026 298.341C95.0907 300.854 97.8394 306.522 100.264 311.522C102.871 316.897 105.148 321.585 108.441 321.585ZM78.1973 283.636C93.9896 285.022 97.7872 287.894 102.173 291.212C106.311 294.343 109.379 311.001 109.338 318.143C109.325 320.482 108.964 320.776 108.959 320.778C105.88 321.366 103.595 316.645 100.947 311.185C98.4769 306.093 95.6776 300.322 91.5057 297.691C85.4265 293.858 82.3777 289.532 79.6897 285.716C79.1804 284.991 78.6897 284.299 78.199 283.634L78.1973 283.636Z" fill="#C6D7D0"/>
<path d="M75.8646 279.488C79.5136 276.266 86.8218 271.646 95.3844 268.994C113.624 263.342 137.402 282.86 136.289 285.594C134.017 291.176 115.218 281.686 109.865 282.648C99.1476 284.576 83.5563 283.935 75.8629 279.488H75.8646Z" fill="#C6D7D0"/>
<path d="M132.665 287.365C134.724 287.365 136.236 286.82 136.831 285.371C137.086 284.751 136.603 283.776 135.36 282.387C129.945 276.343 110.814 263.741 95.5912 268.424C86.8791 271.105 79.589 275.736 75.9941 278.889C75.9007 278.971 75.8514 279.094 75.865 279.219C75.8769 279.344 75.9482 279.454 76.057 279.516C83.7667 283.941 99.4732 284.605 110.205 282.688C112.195 282.334 116.27 283.52 120.586 284.776C124.986 286.057 129.478 287.365 132.665 287.365ZM102.749 268.168C116.055 268.168 130.276 277.863 134.794 282.906C136.044 284.3 136.178 284.945 136.126 285.076C134.872 288.132 127.395 285.956 120.798 284.034C116.394 282.751 112.232 281.541 110.073 281.928C99.6958 283.781 84.6382 283.209 76.9183 279.112C80.5863 276.027 87.5468 271.709 95.8154 269.165C98.058 268.475 100.391 268.169 102.75 268.169L102.749 268.168Z" fill="#C6D7D0"/>
<path d="M50.7676 243.355C45.3628 241.055 36.3738 237.337 25.9742 239.573C15.4126 241.843 3.72716 255.652 6.76453 261.836C8.1499 264.656 21.1465 252.772 31.6102 251.57C40.535 250.545 47.1177 246.245 50.7676 243.353V243.355Z" fill="#C6D7D0"/>
<path d="M43.0608 329C50.4637 329 56.4663 322.999 56.4663 315.597V302.193H29.657V315.597C29.657 322.999 35.6579 329 43.0625 329H43.0608Z" fill="#E2B8AF"/>
<path d="M114.655 177.852C115.47 177.019 120.178 162.218 120.178 162.218L129.483 168.927L119.281 182.781L114.653 177.854L114.655 177.852Z" fill="#EDAF8C"/>
<path d="M119.228 183.35C119.228 183.35 119.246 183.35 119.254 183.35C119.385 183.342 119.506 183.276 119.585 183.171L129.965 169.152C130.037 169.056 130.067 168.934 130.049 168.815C130.031 168.695 129.965 168.589 129.866 168.52L120.398 161.73C120.283 161.647 120.134 161.625 119.999 161.671C119.865 161.716 119.759 161.822 119.716 161.96C117.899 167.641 114.792 176.914 114.199 177.605C114.049 177.781 114.039 178.058 114.197 178.225L118.906 183.212C118.992 183.302 119.109 183.352 119.23 183.352L119.228 183.35ZM128.977 168.982L119.186 182.206L115.076 177.854C116.197 175.706 119.353 166.004 120.376 162.815L128.977 168.982Z" fill="black"/>
<path d="M131.454 196.49L125.17 196.452C121.012 196.429 117.146 194.34 114.877 190.892L108.662 181.163C106.945 178.475 107.905 174.912 110.745 173.42C113.338 172.057 116.057 170.73 116.692 170.788C117.985 170.91 118.508 176.958 118.508 176.958L124.107 177.171C124.107 177.171 126.873 188.545 129.306 189.839C131.08 190.78 132.318 192.163 133.149 193.426C134.02 194.747 133.048 196.497 131.452 196.488L131.454 196.49Z" fill="#333333"/>
<path d="M131.565 197.061C132.487 197.061 133.298 196.584 133.739 195.784C134.181 194.981 134.145 194.046 133.641 193.281C132.548 191.622 131.188 190.355 129.599 189.508C127.927 188.619 125.679 181.545 124.576 177.005C124.528 176.811 124.358 176.673 124.156 176.665L118.901 176.465C118.667 174.024 118.084 170.352 116.699 170.222C116.417 170.194 115.76 170.133 110.443 172.928C108.966 173.705 107.871 175.068 107.444 176.667C107.008 178.288 107.268 179.961 108.173 181.377L114.443 191.201C116.825 194.823 120.849 196.998 125.209 197.021L131.551 197.059H131.567L131.565 197.061ZM123.782 177.541C124.318 179.684 126.774 189.016 129.174 190.293C130.63 191.066 131.879 192.235 132.888 193.767C133.208 194.253 133.232 194.849 132.95 195.359C132.668 195.869 132.151 196.173 131.563 196.173H131.553L125.211 196.136C121.155 196.112 117.41 194.089 115.196 190.724L108.928 180.904C108.159 179.698 107.939 178.277 108.307 176.897C108.678 175.515 109.584 174.386 110.86 173.713C115.536 171.256 116.461 171.088 116.611 171.108C117.103 171.238 117.784 174.014 118.038 176.932C118.058 177.156 118.242 177.329 118.467 177.339L123.779 177.543L123.782 177.541Z" fill="#333333"/>
<path d="M130.747 194.204C130.962 194.204 131.152 194.048 131.186 193.831C131.221 193.591 131.055 193.369 130.812 193.332L122.229 192.056C120.428 191.789 118.86 190.752 117.925 189.211L110.342 176.711C110.216 176.502 109.943 176.436 109.731 176.559C109.52 176.684 109.453 176.953 109.577 177.161L117.16 189.661C118.234 191.428 120.031 192.618 122.094 192.924L130.678 194.2C130.699 194.204 130.723 194.204 130.745 194.204H130.747Z" fill="black"/>
<path d="M120.231 185.066C120.27 185.066 120.31 185.062 120.348 185.049L125.157 183.692C125.396 183.624 125.537 183.37 125.471 183.123C125.406 182.876 125.161 182.73 124.923 182.798L120.113 184.155C119.875 184.223 119.734 184.477 119.799 184.724C119.853 184.93 120.034 185.066 120.231 185.066Z" fill="black"/>
<path d="M123.072 187.348C123.107 187.348 123.141 187.344 123.176 187.336L126.301 186.533C126.534 186.472 126.677 186.228 126.619 185.983C126.561 185.738 126.324 185.591 126.095 185.649L122.97 186.452C122.737 186.513 122.594 186.758 122.652 187.002C122.7 187.21 122.877 187.35 123.072 187.35V187.348Z" fill="black"/>
<path d="M148.874 177.668L153.946 183.191C155.693 185.093 156.817 187.485 157.17 190.05L157.741 194.203L176.254 189.666L169.722 186.72C165.648 184.883 162.053 182.119 159.221 178.645L155.445 172.498L148.874 177.668Z" fill="#EDAF8C"/>
<path d="M157.697 194.774C157.733 194.774 157.768 194.77 157.802 194.763L176.486 190.173C176.669 190.127 176.805 189.97 176.822 189.78C176.84 189.589 176.736 189.411 176.563 189.331L169.97 186.352C165.951 184.535 162.348 181.762 159.551 178.332L155.756 172.138C155.689 172.031 155.58 171.956 155.456 171.934C155.333 171.912 155.205 171.944 155.106 172.021L148.474 177.25C148.378 177.327 148.315 177.441 148.305 177.566C148.295 177.691 148.337 177.814 148.421 177.905L153.54 183.491C155.25 185.355 156.336 187.672 156.682 190.187L157.259 194.387C157.276 194.512 157.345 194.624 157.447 194.695C157.522 194.745 157.609 194.772 157.697 194.772V194.774ZM175.022 189.613L158.069 193.778L157.56 190.068C157.19 187.37 156.025 184.887 154.191 182.888L149.397 177.659L155.262 173.034L158.813 178.828C158.823 178.844 158.834 178.862 158.848 178.876C161.734 182.423 165.457 185.29 169.608 187.166L175.022 189.611V189.613Z" fill="#EBB596"/>
<path d="M151.881 182.87C151.881 182.87 151.35 187.515 152.251 191.618C152.729 193.804 154.718 195.343 156.978 195.343H183.887C185.811 195.343 186.683 192.965 185.209 191.74C180.425 187.768 171.622 181.702 160.8 179.921L157.783 184.107L151.883 182.868L151.881 182.87Z" fill="#333333"/>
<path d="M156.896 195.915H183.996C185.068 195.915 185.999 195.263 186.365 194.257C186.732 193.249 186.437 192.151 185.614 191.462C181.17 187.741 172.042 181.218 160.818 179.356C160.65 179.33 160.479 179.398 160.379 179.537L157.51 183.551L151.855 182.354C151.732 182.328 151.604 182.354 151.5 182.43C151.399 182.503 151.331 182.617 151.317 182.742C151.295 182.938 150.785 187.583 151.696 191.777C152.216 194.175 154.402 195.915 156.892 195.915H156.896ZM160.947 180.286C171.835 182.175 180.702 188.516 185.038 192.149C185.682 192.689 185.712 193.434 185.522 193.95C185.335 194.466 184.835 195.018 183.996 195.018H156.896C154.824 195.018 153.007 193.576 152.574 191.586C151.863 188.311 152.06 184.639 152.164 183.334L157.612 184.488C157.785 184.523 157.966 184.454 158.068 184.31L160.945 180.284L160.947 180.286Z" fill="#333333"/>
<path d="M153.36 193.06H184.314C184.587 193.06 184.809 192.803 184.809 192.489C184.809 192.174 184.587 191.917 184.314 191.917H153.36C153.087 191.917 152.866 192.174 152.866 192.489C152.866 192.803 153.087 193.06 153.36 193.06Z" fill="black"/>
<path d="M170.405 187.919C170.573 187.919 170.734 187.813 170.802 187.638L172.225 183.978C172.315 183.745 172.212 183.48 171.993 183.383C171.775 183.288 171.523 183.399 171.432 183.63L170.008 187.29C169.919 187.522 170.022 187.787 170.241 187.884C170.295 187.906 170.35 187.919 170.405 187.919Z" fill="black"/>
<path d="M173.792 189.061C173.954 189.061 174.106 188.945 174.16 188.765L175.094 185.63C175.161 185.404 175.05 185.16 174.846 185.085C174.641 185.008 174.423 185.133 174.355 185.36L173.422 188.494C173.354 188.721 173.465 188.965 173.669 189.04C173.711 189.055 173.75 189.061 173.792 189.061Z" fill="black"/>
<path d="M88.7512 97.8402C88.7512 97.8402 139.032 92.0232 153.984 104.886C168.936 117.75 130.382 173.067 130.382 173.067L118.19 164.081L129.755 124.984L83.2757 111.864L88.7512 97.8402Z" fill="#4C6880"/>
<path d="M130.412 173.638C130.436 173.638 130.46 173.638 130.486 173.632C130.606 173.612 130.713 173.545 130.781 173.446C132.37 171.168 169.514 117.496 154.383 104.484C139.407 91.6041 90.6629 97.0734 88.5954 97.3129C88.4301 97.3326 88.2907 97.4395 88.229 97.5938L82.7357 111.657C82.6899 111.774 82.6959 111.904 82.7516 112.015C82.8074 112.128 82.909 112.211 83.0305 112.245L129.225 125.279L117.751 164.055C117.697 164.233 117.763 164.427 117.914 164.538L130.145 173.549C130.223 173.606 130.317 173.636 130.412 173.636V173.638ZM113.518 96.9072C128.46 96.9072 146.044 98.4882 153.797 105.157C167.684 117.101 133.663 167.652 130.305 172.559L118.699 164.007L130.213 125.099C130.247 124.984 130.233 124.863 130.175 124.758C130.118 124.655 130.02 124.578 129.906 124.545L83.7495 111.522L88.9679 98.1657C90.7645 97.9718 101.253 96.9052 113.518 96.9052V96.9072Z" fill="#DDDDDD"/>
<path d="M60.892 122.996C68.2155 125.317 81.3178 128.316 99.6315 128.068C104.835 127.996 109.638 130.868 112.003 135.497C117.428 146.117 129.168 165.24 148.294 177.636L157.429 172.723L134.115 120.329C131.987 115.545 128.006 111.827 123.083 110.024L76.8787 93.1091C76.8787 93.1091 58.3161 85.6067 51.3888 101.923C48.8149 107.989 54.6016 121.005 60.89 122.998L60.892 122.996Z" fill="#4C6880"/>
<path d="M148.394 177.634C148.468 177.634 148.54 177.616 148.608 177.581L157.764 172.684C157.97 172.573 158.055 172.323 157.962 172.111L134.593 119.889C132.422 115.04 128.3 111.209 123.28 109.382L76.9683 92.5227C76.7907 92.4514 57.8857 85.0765 50.8525 101.552C49.5795 104.537 50.1721 109.378 52.4028 114.19C54.5676 118.859 57.6503 122.21 60.6532 123.155C68.4306 125.606 81.5075 128.482 99.6244 128.23C104.7 128.165 109.315 130.905 111.62 135.391C116.961 145.791 128.809 165.099 148.149 177.565C148.223 177.612 148.309 177.636 148.394 177.636V177.634ZM156.972 172.095L148.416 176.671C129.384 164.314 117.699 145.264 112.42 134.985C109.96 130.193 105.054 127.282 99.6144 127.339C81.6093 127.583 68.6402 124.736 60.9265 122.306C58.203 121.448 55.25 118.193 53.2208 113.815C51.0919 109.224 50.5033 104.658 51.6805 101.898C58.3726 86.2195 76.4655 93.2774 76.6471 93.3507L122.973 110.216C127.765 111.961 131.702 115.618 133.775 120.249L156.974 172.095H156.972Z" fill="#DDDDDD"/>
<path d="M44.129 43.7058C40.2029 46.0499 36.8875 49.0434 35.4558 52.811C30.7425 65.2185 34.4921 78.6951 34.4921 78.6951L52.2252 74.7632C52.9608 74.6008 53.6687 75.1354 53.7103 75.8877L54.7157 94.1396C55.0944 101.027 56.5717 107.004 58.6755 112.13C60.6921 117.044 72.6173 112.9 82.9878 104.409C86.1267 101.839 90.616 98.519 97.806 98.026L96.4854 76.9786L106.346 75.8204C106.346 75.8204 110.411 51.2766 89.339 43.2544C75.4806 37.9782 53.4486 38.1386 44.127 43.7038L44.129 43.7058Z" fill="#557571"/>
<path d="M62.6758 114.805C67.6878 114.805 75.9231 110.893 83.3089 104.846C86.9799 101.841 91.2895 98.9978 97.9252 98.5428C98.1699 98.525 98.3569 98.3144 98.341 98.07L97.0437 77.3741L106.517 76.2616C106.714 76.2378 106.873 76.0868 106.905 75.8902C106.946 75.6359 107.919 69.565 106.296 62.3995C104.79 55.7564 100.665 46.952 89.5565 42.7226C75.4496 37.353 53.2128 37.5874 43.7996 43.2074C39.2213 45.9409 36.2288 49.0915 34.9077 52.568C30.1802 65.0098 33.8889 78.6813 33.9267 78.8183C33.9904 79.0488 34.2212 79.1858 34.456 79.1342L52.2498 75.1909C52.4726 75.1412 52.7055 75.1909 52.8885 75.33C53.0716 75.469 53.183 75.6776 53.1969 75.908L54.2057 94.2221C54.5618 100.686 55.9089 106.809 58.2109 112.419C58.6686 113.535 59.5758 114.272 60.903 114.608C61.4322 114.741 62.0252 114.807 62.6718 114.807L62.6758 114.805ZM97.4198 97.6866C90.7842 98.2508 86.4446 101.125 82.7418 104.157C74.7373 110.71 65.4474 114.829 61.1258 113.74C60.0892 113.478 59.3888 112.92 59.0426 112.079C56.7783 106.563 55.4532 100.537 55.101 94.1724L54.0923 75.8584C54.0644 75.3677 53.8237 74.9148 53.4317 74.6168C53.0397 74.3188 52.5383 74.2115 52.0588 74.3168L34.6888 78.1667C34.1217 75.8206 31.5809 63.8497 35.7473 52.8819C36.9949 49.5981 39.86 46.5984 44.2612 43.9722C53.4814 38.4674 75.3402 38.2628 89.2382 43.555C108.484 50.8834 106.441 72.4753 106.067 75.4114L96.5164 76.5338C96.2797 76.5616 96.1066 76.7682 96.1225 77.0046L97.4198 97.6847V97.6866Z" fill="#557571"/>
<path d="M70.1547 66.9085C71.2246 65.7841 71.7983 65.0494 72.0155 64.7025C72.0155 64.7025 72.406 64.3147 72.5116 63.6833C72.8383 61.7286 73.3822 56.8644 75.249 55.4516C78.373 53.0838 80.965 55.6309 80.965 55.6309C80.965 55.6309 83.1884 53.2338 84.6946 54.787C85.8501 55.9797 86.6928 58.1234 85.6588 60.801C84.2483 64.453 82.5608 67.8478 77.8789 68.8593C76.9704 69.0561 76.1516 69.5413 75.5678 70.2565L70.1547 66.9085Z" fill="#EDBA9C"/>
<path d="M75.5277 70.8258C75.6631 70.8258 75.7945 70.7684 75.8834 70.6576C76.4007 70.0222 77.1424 69.5749 77.971 69.3948C82.9566 68.318 84.7654 64.6245 86.1881 60.935C87.5866 57.3089 85.7213 54.9871 85.115 54.3636C84.6764 53.9123 84.1429 53.6827 83.5528 53.6926C82.4858 53.7045 81.4712 54.4804 80.9761 54.9258C80.1011 54.2765 77.682 52.9009 74.9255 54.9931C73.0986 56.3786 72.472 60.4462 72.0982 62.8768C72.0537 63.1598 72.0153 63.4132 71.9789 63.6329C71.8981 64.1159 71.601 64.4266 71.599 64.4306C71.5768 64.4523 71.5546 64.4801 71.5384 64.5078C71.3222 64.8522 70.728 65.6043 69.7054 66.6791C69.6145 66.7761 69.57 66.9087 69.5882 67.0393C69.6064 67.172 69.6812 67.2887 69.7964 67.358L75.2872 70.7585C75.362 70.8041 75.4469 70.8278 75.5297 70.8278L75.5277 70.8258ZM83.5771 54.5833C83.9125 54.5833 84.2015 54.712 84.4562 54.9772C84.9695 55.5077 86.5498 57.4811 85.3373 60.6223C83.9469 64.2287 82.3221 67.5461 77.773 68.5278C76.8797 68.7218 76.0653 69.1691 75.4428 69.8025L70.7401 66.8909C71.7142 65.8359 72.1325 65.252 72.2881 65.0125C72.4134 64.8759 72.7671 64.4365 72.8762 63.7794C72.9126 63.5577 72.953 63.2984 72.9975 63.0114C73.3289 60.8638 73.9433 56.8655 75.4812 55.6977C78.2843 53.5699 80.5841 55.7492 80.6811 55.8422C80.768 55.9273 80.8872 55.9808 81.0125 55.9709C81.1358 55.9669 81.253 55.9154 81.3379 55.8264C81.6572 55.4839 82.6798 54.5932 83.5629 54.5833H83.575H83.5771Z" fill="#EDBA9C"/>
<path d="M63.3598 71.9721L60.4562 65.0665L63.8066 63.7959C63.9904 63.7255 64.19 63.7014 64.3857 63.7235L64.7395 63.7657C65.1842 63.818 65.627 63.621 65.8879 63.2531C66.0302 63.0541 66.2279 62.9013 66.4572 62.8128L91.3505 53.344C91.5561 53.2656 91.7695 53.2153 91.9889 53.1952L98.6738 52.5519L93.7798 56.832C93.5129 57.0652 93.2184 57.2622 92.9002 57.419L69.0386 69.1757C68.835 69.2762 68.6077 69.3184 68.3844 69.2983L68.329 69.2923C67.8981 69.2521 67.4732 69.445 67.2182 69.7989L67.0877 69.9778C66.9691 70.1406 66.813 70.2733 66.6311 70.3618L63.3618 71.9721H63.3598Z" fill="white"/>
<path d="M63.2539 72.5433C63.3216 72.5433 63.3872 72.5291 63.4489 72.4986L66.7395 70.8693C66.9862 70.7472 67.203 70.5641 67.3642 70.3404L67.4935 70.1594C67.6586 69.9315 67.9292 69.8074 68.2117 69.8298L68.2674 69.8359C68.5738 69.8624 68.8842 69.8074 69.1627 69.6691L93.1797 57.7756C93.5338 57.6007 93.864 57.3789 94.1625 57.1165L99.0884 52.7859C99.2356 52.6557 99.2854 52.4441 99.2078 52.2611C99.1322 52.078 98.9532 51.958 98.7542 51.9844L92.0258 52.6353C91.7671 52.6598 91.5125 52.7208 91.2698 52.8123L66.2143 62.393C65.8999 62.5131 65.6313 62.7226 65.4364 62.9972C65.2673 63.2372 64.9788 63.3613 64.6943 63.3288L64.3382 63.286C64.0716 63.2555 63.799 63.2881 63.5484 63.3857L60.1762 64.6713C60.0608 64.714 59.9693 64.8035 59.9215 64.9194C59.8738 65.0334 59.8738 65.1635 59.9215 65.2795L62.8441 72.2667C62.8918 72.3806 62.9833 72.4722 63.0987 72.5149C63.1485 72.5332 63.2022 72.5433 63.2559 72.5433H63.2539ZM68.144 68.9104C67.6089 68.9104 67.0936 69.1708 66.7733 69.6142L66.644 69.7952C66.5684 69.901 66.4669 69.9865 66.3496 70.0454L63.4807 71.4673L60.9282 65.3608L63.8607 64.2421C63.9801 64.1973 64.1094 64.1811 64.2347 64.1953L64.5908 64.238C65.1976 64.3133 65.8024 64.0407 66.1605 63.5342C66.2521 63.404 66.3794 63.3064 66.5286 63.2494L91.5841 53.6687C91.7532 53.6036 91.9303 53.5629 92.1113 53.5446L97.4411 53.0279L93.5816 56.4209C93.3428 56.6304 93.0782 56.8094 92.7937 56.9497L68.7767 68.8433C68.6434 68.9104 68.4982 68.9368 68.3529 68.9226L68.2972 68.9165C68.2475 68.9124 68.1978 68.9104 68.148 68.9104H68.144Z" fill="black"/>
<path d="M92.5215 55.4077C92.5855 55.4077 92.6495 55.3926 92.7095 55.3623C92.9355 55.2501 93.0335 54.9609 92.9275 54.717L92.1176 52.8328C92.0136 52.5911 91.7476 52.4831 91.5197 52.5975C91.2937 52.7098 91.1957 52.999 91.3017 53.2429L92.1116 55.1271C92.1876 55.3041 92.3496 55.4077 92.5195 55.4077H92.5215Z" fill="black"/>
<path d="M54.8768 67.4121L60.5223 65.1152L63.3101 71.8035L57.6626 74.1004C56.6279 74.5205 55.4514 74.0503 55.034 73.0483L53.7605 69.9903C53.3431 68.9883 53.842 67.8341 54.8768 67.414V67.4121Z" fill="black"/>
<path d="M56.8441 74.8254C57.1665 74.8254 57.4969 74.764 57.8153 74.6334L63.6032 72.2731C63.7127 72.2276 63.8003 72.1424 63.846 72.0335C63.8918 71.9246 63.8918 71.8018 63.846 71.6929L60.9879 64.8201C60.8944 64.5924 60.6317 64.4835 60.4048 64.5785L54.6169 66.9388C53.984 67.1962 53.4924 67.6813 53.2336 68.3011C52.9808 68.905 52.9789 69.5683 53.2277 70.1683L54.5333 73.3107C54.9254 74.2552 55.8569 74.8254 56.8421 74.8254H56.8441ZM62.8489 71.6197L57.475 73.8116C56.6411 74.1502 55.6957 73.774 55.3633 72.9721L54.0576 69.8297C53.9004 69.4495 53.9004 69.0297 54.0616 68.6456C54.2288 68.2456 54.5472 67.9328 54.9592 67.7645L60.3351 65.5725L62.8509 71.6217L62.8489 71.6197Z" fill="black"/>
<path d="M56.3294 70.2578C56.3819 70.2578 56.4363 70.2471 56.4868 70.2258L59.6053 68.898C59.8308 68.8021 59.9416 68.525 59.8541 68.2778C59.7666 68.0305 59.512 67.9112 59.2884 68.0049L56.1699 69.3328C55.9444 69.4287 55.8336 69.7057 55.9211 69.953C55.9891 70.1427 56.1544 70.2578 56.3294 70.2578Z" fill="white"/>
<path d="M70.076 65.4959C70.076 65.4959 72.2029 61.1804 75.9915 59.1063C78.3136 57.8343 82.193 50.5409 84.6057 55.2665C85.1241 56.2836 85.5046 56.9266 85.5539 58.3439C85.5795 59.1182 85.3863 60.9714 85.0709 61.8154C83.5354 65.9199 81.5405 69.0352 76.439 70.1658C75.4554 70.3828 74.5742 70.9322 73.9415 71.7304C73.5374 72.242 63.7641 100.486 55.3826 103.46C44.8918 107.182 38.6667 89.0622 35.978 78.4824C34.9135 74.2922 52.0177 70.6853 53.0447 74.3898C53.7405 76.8959 53.8371 77.6622 54.391 78.8805C56.0547 82.5272 56.9438 82.4694 57.2946 82.7501C57.8604 83.204 70.076 65.4959 70.076 65.4959Z" fill="#EDBA9C"/>
<path d="M52.5981 104.527C53.5549 104.527 54.5275 104.353 55.5081 104.005C62.9068 101.381 71.0247 80.5205 73.693 73.6658C74.0278 72.8037 74.319 72.0596 74.3844 71.9396C74.9251 71.2615 75.7254 70.7595 76.6149 70.5634C81.8188 69.4113 83.976 66.263 85.6103 61.8926C85.951 60.9845 86.1531 59.0743 86.1233 58.2302C86.0758 56.802 85.7014 56.074 85.226 55.1519L85.121 54.9479C84.5663 53.8598 83.869 53.2517 83.0509 53.1397C81.377 52.9137 79.7269 54.7238 78.1224 56.478C77.2765 57.4021 76.4762 58.2762 75.8582 58.6162C72.0984 60.6744 69.9589 64.7729 69.741 65.2009C65.5256 71.3115 58.636 81.0305 57.2949 82.2546C57.2889 82.2506 57.281 82.2466 57.2751 82.2446C56.8967 82.0466 56.1083 81.6366 54.7672 78.6923C54.3928 77.8722 54.2403 77.2821 53.9352 76.108C53.8045 75.606 53.648 75.0059 53.438 74.2458C52.6972 71.5756 46.2572 72.2496 42.3706 73.3017C40.5521 73.7938 34.6747 75.632 35.4254 78.5923C37.8105 87.9832 42.0417 99.9244 48.6521 103.493C49.9278 104.181 51.2471 104.527 52.5922 104.527H52.5981ZM82.7756 54.0198C82.8291 54.0198 82.8825 54.0238 82.936 54.0298C83.4491 54.0998 83.9205 54.5478 84.3346 55.3579L84.4395 55.5639C84.8952 56.45 85.1943 57.0341 85.2379 58.2602C85.2636 59.0183 85.0695 60.8045 84.7803 61.5745C83.2034 65.789 81.2562 68.6153 76.4267 69.6854C75.3372 69.9274 74.3566 70.5414 73.6653 71.4155C73.5742 71.5315 73.4989 71.7096 72.867 73.3377C65.8089 91.4716 59.8701 101.505 55.2169 103.157C53.0973 103.909 51.0332 103.755 49.08 102.701C42.4221 99.1064 38.2126 85.915 36.2951 78.3702C35.9464 77.0001 38.5414 75.2739 42.6083 74.1718C47.5091 72.8437 52.1722 72.9937 52.5862 74.4898C52.7942 75.2419 52.9507 75.838 53.0795 76.338C53.3865 77.5242 53.5569 78.1762 53.965 79.0703C55.4348 82.2946 56.3718 82.7847 56.8729 83.0467C56.9264 83.0747 56.974 83.0947 57.0096 83.1247C57.1067 83.2007 57.2671 83.2407 57.39 83.2247C57.7148 83.1767 58.1625 83.1107 64.4401 74.3178C67.4907 70.0454 70.4661 65.735 70.4958 65.691C70.5077 65.673 70.5196 65.655 70.5295 65.635C70.5493 65.5929 72.653 61.3985 76.288 59.4083C77.0368 58.9983 77.8846 58.0722 78.782 57.0901C80.0379 55.7159 81.589 54.0218 82.7775 54.0218L82.7756 54.0198Z" fill="#EDBA9C"/>
<path d="M122.029 56.5476H97.8166C97.0526 56.5476 96.3305 57.1754 96.2025 57.9474L90.7065 91.1323C90.5785 91.9062 91.0945 92.5321 91.8585 92.5321H116.071C116.835 92.5321 117.557 91.9043 117.685 91.1323L123.181 57.9474C123.309 57.1735 122.793 56.5476 122.029 56.5476Z" fill="black"/>
<path d="M121.183 69.692L120.439 74.0768L108.61 72.0224C106.85 71.7367 105.164 72.9515 104.976 74.7085C104.836 76.0185 105.184 77.5287 106.854 78.7706C108.818 80.2303 114.877 82.4091 119.752 83.307C125.207 84.3118 125.609 76.415 124.26 72.4714C123.21 69.3966 121.187 69.694 121.187 69.694L121.183 69.692Z" fill="#EDBA9C"/>
<path d="M120.727 83.966C121.969 83.966 123.025 83.491 123.82 82.5626C126.01 80.007 125.7 74.8999 124.798 72.2533C123.627 68.8109 121.302 69.1138 121.201 69.1276C121.012 69.1554 120.863 69.3038 120.829 69.4938L120.15 73.5182L108.605 71.5011C107.604 71.3368 106.574 71.5961 105.774 72.2117C104.996 72.8095 104.51 73.6667 104.408 74.6287C104.215 76.438 104.933 78.0077 106.486 79.1697C108.578 80.7335 114.89 82.9743 119.733 83.8691C120.076 83.9324 120.406 83.9641 120.725 83.9641L120.727 83.966ZM121.64 70.0204C122.175 70.0956 123.271 70.5093 123.962 72.5403C124.83 75.0899 125.029 79.7873 123.151 81.9806C122.358 82.907 121.262 83.2495 119.895 82.9961C115.158 82.1192 109.02 79.9556 107.015 78.4571C105.709 77.4812 105.128 76.2262 105.289 74.7257C105.366 74.0091 105.728 73.3677 106.313 72.9204C106.921 72.4532 107.702 72.2553 108.462 72.38L120.44 74.4723C120.556 74.4941 120.674 74.4644 120.77 74.3971C120.867 74.3298 120.932 74.2249 120.951 74.1081L121.642 70.0204H121.64Z" fill="#EDBA9C"/>
<path d="M62.7448 22.2621L59.4635 38.328C59.0849 39.9754 57.7331 41.2246 56.0568 41.4744L54.0511 41.7737C52.9966 41.932 52.6746 43.2851 53.5423 43.906C57.6053 46.8149 67.088 51.7744 78.6207 45.5781C79.6186 44.977 79.4539 43.483 78.3478 43.1095L75.6637 42.2041C74.0882 41.6723 72.9821 40.25 72.8592 38.5952L74.1103 20.5627L62.7473 22.2596L62.7448 22.2621Z" fill="#EDAF8C"/>
<path d="M67.4428 49.122C70.9083 49.122 74.7799 48.3141 78.8952 46.1011C79.5671 45.6971 79.9216 44.9858 79.8404 44.2325C79.7591 43.4741 79.2595 42.8521 78.5383 42.6092L75.8506 41.7022C74.4919 41.2437 73.5419 40.0343 73.4213 38.6143L74.6716 20.5876C74.6839 20.4191 74.6175 20.2555 74.4944 20.139C74.3714 20.025 74.204 19.973 74.0366 19.9978L62.658 21.6978C62.4267 21.7325 62.2445 21.9085 62.1978 22.1365L58.912 38.2326C58.5846 39.6576 57.4253 40.7257 55.9609 40.9463L53.9524 41.2462C53.2362 41.3527 52.6874 41.8583 52.52 42.5621C52.3551 43.256 52.6234 43.9722 53.2042 44.3886C55.6508 46.1407 60.7949 49.122 67.4428 49.122ZM73.5173 21.2022L72.3137 38.5771C72.3137 38.6044 72.3137 38.6316 72.3137 38.6564C72.454 40.5424 73.7043 42.1532 75.4986 42.7579L78.1864 43.6649C78.499 43.769 78.7057 44.0268 78.7402 44.3514C78.7746 44.6711 78.6294 44.9635 78.3513 45.1296C67.3197 51.06 58.2597 46.6438 53.8442 43.4791C53.5217 43.2486 53.571 42.9165 53.5931 42.8199C53.6153 42.7232 53.7211 42.406 54.1124 42.3465L56.1184 42.0466C58.0357 41.7592 59.5544 40.3565 59.99 38.4681L63.202 22.7387L73.5173 21.1972V21.2022Z" fill="#EDAF8C"/>
<path d="M85.6687 4.58806C82.1501 3.38425 85.6314 8.26901 73.4768 0.763151C68.6359 -2.22529 69.6046 4.58062 68.3471 3.8062C63.7029 0.954275 62.4229 0.227019 59.7808 0.174895C58.0303 0.140146 53.6874 2.35666 53.6202 4.6799C53.401 12.2602 57.1139 11.2773 57.5522 18.0659C57.8609 22.8315 58.725 24.4995 60.3113 25.6263C61.9149 26.7656 63.8921 24.775 65.7398 25.8894C68.1304 27.3315 66.3798 31.6107 68.3894 34.1523C69.6544 35.7533 73.2054 37.3269 79.9289 36.1405C81.0196 35.9494 81.8139 35.0111 81.8139 33.9116C81.8139 32.5017 81.8089 30.7221 81.657 29.0193C80.9374 20.9103 78.7535 18.5126 80.2451 16.8819C82.5286 14.3824 87.6434 17.6141 89.2371 15.482C90.8906 13.268 90.4847 6.23618 85.6687 4.58806Z" fill="#333333"/>
<path d="M70.1546 13.6156L70.645 15.7481C70.8767 16.7534 71.0369 17.7708 71.1256 18.7956C71.2932 20.7183 71.7097 24.0121 71.9216 25.864C72.6043 31.8223 80.9736 27.8111 80.9736 27.8111L81.8559 26.4691L82.8614 26.3594C83.0561 26.3374 83.2458 26.2788 83.4036 26.1641C83.7954 25.8787 83.9334 25.3956 83.788 24.9686C82.9895 22.6409 81.4074 17.4732 81.5059 13.257C81.5059 13.257 76.1531 10.1949 70.1546 13.6156Z" fill="#EDAF8C"/>
<path d="M75.7361 29.7033C78.3124 29.7033 81.069 28.4027 81.2221 28.3294C81.3135 28.2854 81.3901 28.2194 81.4469 28.1338L82.1879 27.0068L82.9339 26.9261C83.2427 26.8919 83.5218 26.7892 83.7441 26.6278C84.3246 26.2073 84.5568 25.4764 84.327 24.8089C83.6156 22.7382 81.973 17.4649 82.0694 13.2624C82.0743 13.0619 81.9681 12.8737 81.7927 12.7735C81.563 12.6414 76.0794 9.58796 69.8622 13.1328C69.6498 13.2526 69.5436 13.4947 69.5979 13.7318L70.0895 15.8685C70.3142 16.8464 70.4723 17.8488 70.5588 18.8462C70.6798 20.2446 70.9367 22.3911 71.1417 24.1171C71.2232 24.7967 71.2973 25.4275 71.3566 25.9433C71.532 27.4713 72.1866 28.5543 73.3006 29.163C74.0218 29.5566 74.8691 29.7033 75.7385 29.7033H75.7361ZM80.6021 27.4004C79.829 27.7451 75.9584 29.3586 73.8341 28.1998C73.0437 27.7671 72.5916 26.9897 72.4583 25.8211C72.399 25.3028 72.3249 24.672 72.2434 23.9875C72.0383 22.2689 71.7839 20.1321 71.6629 18.7509C71.5715 17.7021 71.406 16.6484 71.1689 15.6216L70.7687 13.8858C75.536 11.3677 79.8315 13.0546 80.9504 13.5802C80.9405 17.729 82.3905 22.5891 83.2723 25.1585C83.3464 25.3737 83.2723 25.601 83.0846 25.7355C83.0179 25.7844 82.9215 25.8162 82.8079 25.8284L81.8026 25.9384C81.6371 25.9555 81.4889 26.046 81.3975 26.1853L80.5997 27.3979L80.6021 27.4004Z" fill="#EDAF8C"/>
<path d="M69.582 21.0331C69.582 21.0331 68.3878 15.6398 66.0948 16.7021C63.8043 17.7643 65.2644 23.6682 69.582 21.0331Z" fill="#EDAF8C"/>
</svg>
