<svg width="60" height="64" viewBox="0 0 60 64" fill="none" xmlns="http://www.w3.org/2000/svg">
<path d="M32.0051 42.666C16.6451 42.666 13.9251 27.3593 13.4451 15.2153C13.3091 11.8393 13.2425 10.1487 14.5118 8.58866C15.7785 7.02599 17.2958 6.76999 20.3331 6.25799C24.1913 5.62566 28.0955 5.31615 32.0051 5.33266C36.7625 5.33266 40.6798 5.75132 43.6771 6.25799C46.7145 6.76999 48.2318 7.02599 49.5011 8.58866C50.7705 10.1513 50.7011 11.8393 50.5678 15.2153C50.0878 27.3567 47.3678 42.666 32.0078 42.666H32.0051Z"  stroke-width="1.5"/>
<path d="M32 42.666V50.666"  stroke-width="1.5" stroke-linecap="round"/>
<path d="M41.3385 58.6667H22.6719L23.5785 54.144C23.6993 53.5397 24.0257 52.9959 24.5021 52.605C24.9785 52.2142 25.5756 52.0004 26.1919 52H37.8185C38.4348 52.0004 39.0319 52.2142 39.5083 52.605C39.9847 52.9959 40.3111 53.5397 40.4319 54.144L41.3385 58.6667Z"  stroke-width="1.5" stroke-linecap="round" stroke-linejoin="round"/>
<path d="M50.6693 13.332L53.1999 14.1747C55.8399 15.0547 57.1599 15.4947 57.9146 16.5427C58.6693 17.5907 58.6693 18.9827 58.6693 21.764V21.9587C58.6693 24.252 58.6693 25.4014 58.1173 26.34C57.5653 27.2787 56.5599 27.836 54.5546 28.9534L46.6693 33.332M13.3359 13.332L10.8053 14.1747C8.16527 15.0547 6.84527 15.4947 6.0906 16.5427C5.33594 17.5907 5.33594 18.9854 5.33594 21.764V21.9587C5.33594 24.252 5.33594 25.4014 5.88794 26.34C6.43994 27.2787 7.44527 27.836 9.4506 28.9534L17.3359 33.332M29.7253 16.06C30.7386 14.2387 31.2453 13.332 32.0026 13.332C32.7599 13.332 33.2666 14.2387 34.2799 16.06L34.5413 16.5294C34.8293 17.0467 34.9733 17.3027 35.1973 17.4734C35.4239 17.644 35.7039 17.708 36.2639 17.8334L36.7706 17.9507C38.7386 18.396 39.7226 18.6174 39.9573 19.3694C40.1919 20.124 39.5199 20.908 38.1786 22.476L37.8319 22.8814C37.4506 23.3267 37.2586 23.548 37.1733 23.8254C37.0879 24.1027 37.1173 24.3987 37.1733 24.9934L37.2266 25.5347C37.4293 27.628 37.5306 28.676 36.9199 29.14C36.3066 29.604 35.3839 29.18 33.5413 28.332L33.0666 28.1134C32.5413 27.8734 32.2799 27.7534 32.0026 27.7534C31.7253 27.7534 31.4639 27.8734 30.9386 28.1134L30.4639 28.332C28.6213 29.1827 27.6986 29.604 27.0853 29.14C26.4719 28.676 26.5759 27.628 26.7786 25.5347L26.8319 24.9934C26.8879 24.3987 26.9173 24.1027 26.8319 23.8254C26.7466 23.5507 26.5546 23.3267 26.1733 22.8814L25.8266 22.476C24.4853 20.908 23.8133 20.124 24.0479 19.3694C24.2826 18.6174 25.2666 18.396 27.2346 17.9507L27.7413 17.8334C28.3013 17.708 28.5813 17.6467 28.8079 17.4734C29.0319 17.3027 29.1759 17.0467 29.4639 16.5294L29.7253 16.06Z"  stroke-width="1.5"/>
<path d="M48 58.666H16"  stroke-width="1.5" stroke-linecap="round"/>
</svg>
