<svg width="64" height="64" viewBox="0 0 64 64" fill="none" xmlns="http://www.w3.org/2000/svg">
<path d="M32.0012 42.666C16.6412 42.666 13.9212 27.3593 13.4412 15.2153C13.3052 11.8393 13.2386 10.1487 14.5079 8.58866C15.7746 7.02599 17.2919 6.76999 20.3292 6.25799C24.1874 5.62566 28.0916 5.31615 32.0012 5.33266C36.7586 5.33266 40.6759 5.75132 43.6732 6.25799C46.7106 6.76999 48.2279 7.02599 49.4972 8.58866C50.7666 10.1513 50.6972 11.8393 50.5639 15.2153C50.0839 27.3567 47.3639 42.666 32.0039 42.666H32.0012Z" stroke="#294945" stroke-width="1.5"/>
<path d="M32 42.666V50.666" stroke="#294945" stroke-width="1.5" stroke-linecap="round"/>
<path d="M41.3346 58.6667H22.668L23.5746 54.144C23.6954 53.5397 24.0218 52.9959 24.4982 52.605C24.9746 52.2142 25.5717 52.0004 26.188 52H37.8146C38.4309 52.0004 39.028 52.2142 39.5044 52.605C39.9808 52.9959 40.3072 53.5397 40.428 54.144L41.3346 58.6667Z" stroke="#294945" stroke-width="1.5" stroke-linecap="round" stroke-linejoin="round"/>
<path d="M50.6673 13.332L53.198 14.1747C55.838 15.0547 57.158 15.4947 57.9126 16.5427C58.6673 17.5907 58.6673 18.9827 58.6673 21.764V21.9587C58.6673 24.252 58.6673 25.4014 58.1153 26.34C57.5633 27.2787 56.558 27.836 54.5527 28.9534L46.6673 33.332M13.334 13.332L10.8033 14.1747C8.16332 15.0547 6.84332 15.4947 6.08865 16.5427C5.33398 17.5907 5.33398 18.9854 5.33398 21.764V21.9587C5.33398 24.252 5.33398 25.4014 5.88598 26.34C6.43798 27.2787 7.44332 27.836 9.44865 28.9534L17.334 33.332M29.7233 16.06C30.7366 14.2387 31.2433 13.332 32.0006 13.332C32.758 13.332 33.2646 14.2387 34.278 16.06L34.5393 16.5294C34.8273 17.0467 34.9713 17.3027 35.1953 17.4734C35.422 17.644 35.702 17.708 36.262 17.8334L36.7686 17.9507C38.7366 18.396 39.7206 18.6174 39.9553 19.3694C40.19 20.124 39.518 20.908 38.1766 22.476L37.83 22.8814C37.4486 23.3267 37.2566 23.548 37.1713 23.8254C37.086 24.1027 37.1153 24.3987 37.1713 24.9934L37.2246 25.5347C37.4273 27.628 37.5286 28.676 36.918 29.14C36.3046 29.604 35.382 29.18 33.5393 28.332L33.0646 28.1134C32.5393 27.8734 32.278 27.7534 32.0006 27.7534C31.7233 27.7534 31.462 27.8734 30.9366 28.1134L30.462 28.332C28.6193 29.1827 27.6967 29.604 27.0833 29.14C26.47 28.676 26.574 27.628 26.7767 25.5347L26.83 24.9934C26.886 24.3987 26.9153 24.1027 26.83 23.8254C26.7446 23.5507 26.5527 23.3267 26.1713 22.8814L25.8246 22.476C24.4833 20.908 23.8113 20.124 24.046 19.3694C24.2807 18.6174 25.2646 18.396 27.2326 17.9507L27.7393 17.8334C28.2993 17.708 28.5793 17.6467 28.806 17.4734C29.03 17.3027 29.174 17.0467 29.462 16.5294L29.7233 16.06Z" stroke="#294945" stroke-width="1.5"/>
<path d="M48 58.666H16" stroke="#294945" stroke-width="1.5" stroke-linecap="round"/>
</svg>
