<svg width="44" height="44" viewBox="0 0 44 44" fill="none" xmlns="http://www.w3.org/2000/svg">
<path d="M22 34.832C25.0376 34.832 27.5 32.3696 27.5 29.332C27.5 26.2945 25.0376 23.832 22 23.832C18.9624 23.832 16.5 26.2945 16.5 29.332C16.5 32.3696 18.9624 34.832 22 34.832Z"  stroke-width="1.5"/>
<path d="M16.7091 29.2598L14.8024 31.1664L12.0927 33.7643C11.4987 34.3344 11.2017 34.6186 11.0991 34.8606C10.9836 35.118 10.9685 35.4092 11.0567 35.6771C11.1449 35.9451 11.33 36.1704 11.5757 36.3089C11.7994 36.4354 12.2046 36.4739 13.0112 36.5546C13.4659 36.5986 13.6951 36.6206 13.8857 36.6884C14.0931 36.7601 14.2824 36.8758 14.4407 37.0278C14.599 37.1797 14.7224 37.3642 14.8024 37.5684C14.8739 37.7518 14.8977 37.9699 14.9436 38.4081C15.0261 39.1818 15.0682 39.5686 15.2002 39.7831C15.5009 40.2726 16.1371 40.4651 16.7109 40.2414C16.9621 40.1406 17.2591 39.8564 17.8531 39.2881L22.0019 35.3098L26.1507 39.2881C26.7447 39.8564 27.0417 40.1406 27.2929 40.2414C27.8667 40.4651 28.5029 40.2726 28.8036 39.7831C28.9356 39.5686 28.9777 39.1818 29.0602 38.4081C29.1061 37.9699 29.1299 37.7518 29.2014 37.5684C29.2815 37.3642 29.405 37.1798 29.5632 37.0279C29.7215 36.876 29.9108 36.7602 30.1181 36.6884C30.3106 36.6206 30.5379 36.5986 30.9926 36.5546C31.7992 36.4758 32.2044 36.4354 32.4281 36.3089C32.6738 36.1704 32.8589 35.9451 32.9471 35.6771C33.0353 35.4092 33.0202 35.118 32.9047 34.8606C32.8021 34.6186 32.5051 34.3344 31.9111 33.7643L29.1996 31.1664L27.5019 29.4669"  stroke-width="1.5"/>
<path d="M31.7546 32.992C35.37 32.9535 37.3866 32.7262 38.7231 31.3879C40.3346 29.7782 40.3346 27.184 40.3346 21.9994V14.666C40.3346 9.48135 40.3346 6.88718 38.7231 5.27752C37.1135 3.66602 34.5193 3.66602 29.3346 3.66602H14.668C9.4833 3.66602 6.88913 3.66602 5.27947 5.27752C3.66797 6.88718 3.66797 9.48135 3.66797 14.666V21.9994C3.66797 27.184 3.66797 29.7782 5.27947 31.3879C6.68747 32.7977 8.84713 32.9737 12.8346 32.9957"  stroke-width="1.5"/>
<path d="M16.5026 11H27.5026M12.8359 17.4167H31.1693"  stroke-width="1.5" stroke-linecap="round"/>
</svg>
