<svg viewBox="0 0 40 40" fill="none" xmlns="http://www.w3.org/2000/svg">
<path d="M30.2983 13.4015L31.07 12.6282C31.6844 12.0135 32.5178 11.6681 33.3869 11.668C34.256 11.6678 35.0895 12.0129 35.7042 12.6273C36.3188 13.2417 36.6642 14.0752 36.6643 14.9442C36.6645 15.8133 36.3194 16.6468 35.705 17.2615L34.9333 18.0348M30.2983 13.4015C30.2983 13.4015 30.395 15.0415 31.8433 16.4898C33.2917 17.9381 34.9333 18.0348 34.9333 18.0348M30.2983 13.4015L23.1983 20.5015C22.715 20.9815 22.475 21.2231 22.2683 21.4881C22.025 21.8015 21.8167 22.1381 21.645 22.4981C21.5 22.8015 21.3933 23.1231 21.1783 23.7681L20.49 25.8348L20.2667 26.5031M34.9333 18.0348L27.8333 25.1348C27.35 25.6181 27.11 25.8581 26.845 26.0648C26.5317 26.3081 26.195 26.5165 25.835 26.6881C25.5317 26.8331 25.21 26.9398 24.565 27.1548L22.4983 27.8431L21.83 28.0665M20.2667 26.5031L20.045 27.1731C19.9934 27.3287 19.986 27.4955 20.0238 27.6549C20.0615 27.8144 20.1429 27.9602 20.2587 28.0761C20.3746 28.1919 20.5204 28.2733 20.6799 28.311C20.8393 28.3488 21.0061 28.3414 21.1617 28.2898L21.83 28.0665M20.2667 26.5031L21.83 28.0665" stroke="#294945" stroke-width="1.5"/>
<path d="M13.3333 21.6673H17.5M13.3333 15.0007H24.1667M13.3333 28.334H15.8333M33.0466 5.28732C31.095 3.33398 27.9517 3.33398 21.6667 3.33398H18.3333C12.0483 3.33398 8.905 3.33398 6.95333 5.28732C5 7.23899 5 10.3823 5 16.6673V23.334C5 29.619 5 32.7623 6.95333 34.714C8.905 36.6673 12.0483 36.6673 18.3333 36.6673H21.6667C27.9517 36.6673 31.095 36.6673 33.0466 34.714C34.62 33.1423 34.925 30.8007 34.985 26.6673" stroke="#294945" stroke-width="1.5" stroke-linecap="round"/>
</svg>
