<svg width="64" height="19" viewBox="0 0 64 19" fill="currentColor" stroke="currentColor" color="currentColor" xmlns="http://www.w3.org/2000/svg">
<path fill-rule="evenodd" clip-rule="evenodd" d="M64.0009 0H35.8406V19H64.0009V0ZM44.7335 5.23151V13.5006C44.7335 13.505 44.7335 13.5093 44.7336 13.5137C44.7337 13.5181 44.7338 13.5226 44.7339 13.527C44.7343 13.5445 44.7348 13.5618 44.7335 13.5786C44.7295 13.6264 44.7424 13.6547 44.7976 13.6469C44.8108 13.6456 44.8239 13.646 44.8371 13.6465C44.8407 13.6466 44.8442 13.6467 44.8478 13.6468C44.8508 13.6469 44.8538 13.6469 44.8568 13.6469C45.09 13.6469 45.3232 13.647 45.5566 13.6471C46.0235 13.6473 46.4907 13.6476 46.9578 13.6469C46.9658 13.6469 46.9732 13.647 46.9802 13.647C46.9862 13.6471 46.9918 13.6471 46.9971 13.6472C47.042 13.6478 47.0638 13.648 47.0742 13.6374C47.0841 13.6272 47.0837 13.6073 47.0828 13.5683C47.0825 13.5552 47.0822 13.5399 47.0822 13.5221V5.24321L47.0821 5.23427L47.0818 5.2237C47.0813 5.2107 47.0809 5.19769 47.0822 5.18469C47.0871 5.13592 47.0704 5.11056 47.0171 5.11642C47.0066 5.11771 46.9956 5.11728 46.9846 5.11685C46.979 5.11664 46.9733 5.11642 46.9677 5.11642C46.7323 5.11642 46.4968 5.11631 46.2612 5.1162H46.2604C45.7892 5.11598 45.3179 5.11577 44.847 5.11642C44.833 5.11642 44.8207 5.11623 44.81 5.11607C44.7712 5.1155 44.7516 5.11521 44.742 5.12471C44.7322 5.13432 44.7325 5.15393 44.7331 5.19338C44.7333 5.20445 44.7335 5.21709 44.7335 5.23151ZM56.4317 5.1167H52.9268C51.7599 5.1167 50.5929 5.1167 49.427 5.11573C49.4227 5.11573 49.4184 5.11575 49.4141 5.11579C49.4096 5.11583 49.405 5.11589 49.4005 5.11594C49.383 5.11616 49.3658 5.11637 49.348 5.11573C49.3086 5.11377 49.2947 5.13231 49.2977 5.16839C49.2984 5.17941 49.2981 5.18999 49.2979 5.20071C49.2978 5.20612 49.2977 5.21161 49.2977 5.21716V7.19714L49.2976 7.21767C49.2974 7.26018 49.2973 7.28111 49.3078 7.29132C49.318 7.30121 49.3382 7.30103 49.378 7.30068C49.3821 7.30065 49.3865 7.30061 49.391 7.30058C49.3955 7.30055 49.4003 7.30053 49.4053 7.30053H51.606C51.6777 7.30053 51.7132 7.30053 51.7308 7.31811C51.7481 7.33534 51.7481 7.36947 51.7481 7.43708V13.5419C51.7481 13.5536 51.7479 13.564 51.7478 13.5732C51.7473 13.6083 51.747 13.6266 51.7561 13.6361C51.7661 13.6466 51.7874 13.6465 51.8319 13.6463L51.8537 13.6462H53.9655C54.0317 13.6462 54.0645 13.6462 54.0808 13.63C54.0968 13.614 54.0968 13.5823 54.0968 13.5194V7.41465C54.0968 7.40151 54.0966 7.38989 54.0964 7.37961C54.0959 7.34187 54.0956 7.32199 54.1053 7.31185C54.1159 7.30088 54.1383 7.30104 54.1849 7.30137C54.1937 7.30144 54.2035 7.3015 54.2142 7.3015H56.4544C56.5511 7.3015 56.5511 7.30151 56.5521 7.2069V5.23667C56.5521 5.22314 56.5522 5.21111 56.5524 5.20043C56.5529 5.15751 56.5532 5.1362 56.5425 5.12578C56.5321 5.11552 56.511 5.11581 56.4693 5.11638C56.4583 5.11653 56.4458 5.1167 56.4317 5.1167Z" fill="currentColor"/>
<path d="M18.3959 8.43723C18.7953 7.70864 19.4335 7.35946 20.0529 7.3458C21.3095 7.34288 22.1311 8.04221 22.355 9.01172C22.4908 9.59596 22.4303 10.1636 22.14 10.6942C21.7981 11.3175 21.2649 11.6803 20.5474 11.7613C19.8537 11.8403 19.2482 11.6462 18.7537 11.1526C18.4365 10.8366 18.2453 10.4513 18.164 10.0163C18.0609 9.46526 18.1244 8.93174 18.3959 8.43723Z" fill="currentColor"/>
<path fill-rule="evenodd" clip-rule="evenodd" d="M28.16 0H0V19H28.16L35.84 9.5L28.16 0ZM12.4506 8.1116C12.4933 8.14586 12.5362 8.18034 12.5798 8.21489C12.6087 8.1975 12.6266 8.17369 12.6434 8.15126C12.6473 8.14604 12.6512 8.14086 12.6551 8.13589C12.8077 7.95642 12.9593 7.77598 13.111 7.59554C13.4152 7.23563 13.7185 6.87572 14.0217 6.51484C14.0822 6.44266 14.0802 6.4095 14.0108 6.35098C13.9563 6.30416 13.9008 6.25832 13.8443 6.21248C13.3627 5.82234 12.8335 5.51802 12.2339 5.34148C11.8335 5.22444 11.4243 5.16007 11.008 5.13178C10.465 5.09569 9.92683 5.11325 9.39366 5.23517C7.52658 5.66043 6.13321 7.18979 5.9697 9.15026C5.92609 9.67891 5.96771 10.2027 6.10447 10.7167C6.41565 11.8803 7.09153 12.7718 8.1648 13.3589C8.7495 13.6789 9.38276 13.8476 10.0487 13.9003C10.6126 13.9451 11.1706 13.911 11.7216 13.7881C12.6531 13.5803 13.4767 13.1609 14.209 12.5611C14.2675 12.5133 14.2913 12.4655 14.2913 12.3894C14.2889 11.4563 14.289 10.5226 14.2892 9.58918L14.2893 8.88887C14.2893 8.87674 14.2884 8.86443 14.2876 8.85213C14.2857 8.82486 14.2838 8.79767 14.2913 8.7728C14.3 8.74392 14.2842 8.72736 14.2689 8.71122C14.2563 8.69791 14.2439 8.6849 14.2457 8.66551C14.2496 8.63332 14.2278 8.62845 14.2021 8.62845H10.2687C10.2612 8.62845 10.2535 8.62866 10.2458 8.62887C10.2303 8.62931 10.2146 8.62975 10.1994 8.62845C10.1597 8.62454 10.1468 8.64405 10.1498 8.68014C10.1511 8.69513 10.1507 8.71056 10.1502 8.72584C10.15 8.73341 10.1498 8.74098 10.1498 8.74841C10.1498 8.95324 10.1497 9.15807 10.1496 9.36289C10.1494 9.77254 10.1491 10.1822 10.1498 10.5918C10.1498 10.6088 10.1495 10.6234 10.1492 10.6359C10.1484 10.6734 10.148 10.6927 10.1575 10.7025C10.1676 10.7128 10.1889 10.7126 10.2326 10.7121C10.2435 10.712 10.2558 10.7118 10.2697 10.7118H11.8256C11.8393 10.7118 11.8515 10.7117 11.8623 10.7115C11.9054 10.711 11.9263 10.7108 11.9363 10.721C11.9458 10.7307 11.9455 10.7497 11.9449 10.7866C11.9447 10.7996 11.9444 10.8149 11.9445 10.8328C11.9452 10.9218 11.945 11.0104 11.9448 11.0992C11.9446 11.1436 11.9445 11.1881 11.9445 11.2327V11.2359C11.9445 11.419 11.9445 11.4204 11.7771 11.4999C11.2865 11.732 10.7682 11.7984 10.2331 11.732C9.63844 11.6589 9.16275 11.3809 8.81392 10.9001C8.58697 10.587 8.46309 10.2339 8.41652 9.8535C8.35805 9.36777 8.41751 8.90057 8.64049 8.45971C8.90905 7.93009 9.31537 7.5497 9.89908 7.37511C10.3084 7.25221 10.7226 7.2844 11.1329 7.37316C11.5045 7.45314 11.8286 7.6326 12.1269 7.85791C12.2362 7.93967 12.3426 8.02498 12.4506 8.1116ZM23.458 6.34216C22.5413 5.517 21.4492 5.12394 20.3205 5.11516C19.7992 5.11613 19.4097 5.15807 18.9965 5.26439C17.7973 5.57358 16.8588 6.23682 16.2355 7.29606C15.5953 8.38261 15.4655 9.54816 15.8232 10.7469C16.2236 12.087 17.0769 13.0624 18.3969 13.6057C19.4107 14.0221 20.4612 14.0777 21.5206 13.8027C22.7514 13.4837 23.6949 12.7786 24.3133 11.6783C24.8345 10.7508 24.9743 9.75591 24.78 8.71716C24.6056 7.78374 24.1696 6.98394 23.458 6.34216Z" fill="currentColor"/>
</svg>
