<svg viewBox="0 0 64 64" fill="none" xmlns="http://www.w3.org/2000/svg">
<path d="M44.5 11C39.14 11 34.52 13.5475 32 17.7675C29.48 13.5475 24.86 11 19.5 11C15.6558 11.0046 11.9703 12.5338 9.25207 15.2521C6.53379 17.9703 5.00463 21.6558 5 25.5C5 32.6475 9.5 40.1175 18.35 47.6975C22.4363 51.1748 26.8484 54.2498 31.525 56.88C31.6709 56.9588 31.8342 57 32 57C32.1658 57 32.3291 56.9588 32.475 56.88C37.1516 54.2498 41.5637 51.1748 45.65 47.6975C54.5 40.1175 59 32.6475 59 25.5C58.9954 21.6558 57.4662 17.9703 54.7479 15.2521C52.0297 12.5338 48.3442 11.0046 44.5 11ZM32 54.855C28.5 52.855 7 40.0175 7 25.5C7.00397 22.186 8.3222 19.0089 10.6655 16.6656C13.0089 14.3222 16.186 13.004 19.5 13C24.7775 13 29.2125 15.8275 31.075 20.3775C31.1503 20.5609 31.2785 20.7178 31.4432 20.8282C31.6079 20.9386 31.8017 20.9975 32 20.9975C32.1983 20.9975 32.3921 20.9386 32.5568 20.8282C32.7215 20.7178 32.8497 20.5609 32.925 20.3775C34.7875 15.8275 39.2225 13 44.5 13C47.814 13.004 50.9911 14.3222 53.3344 16.6656C55.6778 19.0089 56.996 22.186 57 25.5C57 40 35.5 52.865 32 54.855Z" />
</svg>
