<svg width="40" height="40" viewBox="0 0 40 40" fill="none" xmlns="http://www.w3.org/2000/svg">
<path d="M19.9985 20.0007L15.0685 24.8823C10.1985 29.7057 7.76353 32.1173 8.4452 34.199C8.50353 34.3773 8.5752 34.5507 8.66186 34.719C9.6652 36.6673 13.1102 36.6673 19.9985 36.6673C26.8869 36.6673 30.3319 36.6673 31.3352 34.7173C31.4219 34.5507 31.4935 34.3773 31.5519 34.199C32.2352 32.1173 29.7985 29.7057 24.9285 24.8823L19.9985 20.0007ZM19.9985 20.0007L24.9285 15.119C29.7985 10.2957 32.2335 7.88399 31.5519 5.80232C31.4936 5.6235 31.4212 5.44961 31.3352 5.28232C30.3319 3.33398 26.8869 3.33398 19.9985 3.33398C13.1102 3.33398 9.6652 3.33398 8.66186 5.28399C8.5752 5.45065 8.50353 5.62399 8.4452 5.80232C7.76186 7.88399 10.1985 10.2957 15.0685 15.119L19.9985 20.0007Z"  stroke-width="1.5"/>
</svg>
