<svg  viewBox="0 0 31 40" fill="none" xmlns="http://www.w3.org/2000/svg">
<path d="M24.8009 21.7331C25.6216 21.5663 26.4697 21.3276 26.9761 20.6685C27.5662 19.9009 27.4367 18.8846 27.3231 17.9876C27.25 17.4111 27.1743 16.8195 27.3081 16.4257C27.4314 16.0661 27.8498 15.6431 28.2531 15.2334C28.918 14.5609 29.671 13.7983 29.671 12.8137C29.671 11.8292 28.918 11.0615 28.2531 10.3899C27.8498 9.98103 27.4314 9.55551 27.3081 9.19756C27.1743 8.80791 27.25 8.21217 27.3231 7.63645C27.4367 6.73617 27.5653 5.71991 26.9761 4.95479C26.387 4.18967 25.3152 3.98275 24.3737 3.80836C23.7784 3.69572 23.1619 3.58142 22.8202 3.34612C22.4785 3.11083 22.1852 2.6002 21.8946 2.10208C21.427 1.30192 20.8977 0.394957 19.9228 0.0945842C18.9857 -0.193273 18.0143 0.23309 17.1583 0.608556C16.5938 0.858867 16.0134 1.10918 15.5625 1.10918C15.1116 1.10918 14.5313 0.853027 13.9667 0.608556C13.1107 0.23309 12.1393 -0.193273 11.2023 0.0945842C10.2274 0.394957 9.69809 1.30192 9.23044 2.10208C8.93982 2.6027 8.63863 3.11584 8.30485 3.34612C7.97107 3.57641 7.34667 3.69572 6.75045 3.80586C5.81253 3.98025 4.74427 4.17716 4.14893 4.95479C3.55359 5.73242 3.68833 6.73867 3.80194 7.63562C3.87504 8.21134 3.95077 8.80374 3.81691 9.19673C3.69362 9.55717 3.27529 9.9802 2.87194 10.3899C2.20703 11.0624 1.45405 11.825 1.45405 12.8095C1.45405 13.7941 2.20703 14.5617 2.87194 15.2292C3.27529 15.6389 3.69362 16.0636 3.81691 16.4215C3.95077 16.812 3.87504 17.4078 3.80194 17.9835C3.68833 18.8804 3.55887 19.8967 4.14893 20.6643C4.63154 21.2926 5.42503 21.5412 6.20972 21.7056L0.0581728 35.1874C-0.000316924 35.3151 -0.0151587 35.457 0.0157266 35.5932C0.0466118 35.7294 0.121677 35.8529 0.230408 35.9467C0.339139 36.0404 0.47609 36.0996 0.622079 36.1159C0.768068 36.1322 0.915783 36.1048 1.04453 36.0376L7.62497 32.6L9.4876 39.4977C9.52391 39.6327 9.60388 39.7536 9.71633 39.8433C9.82878 39.9331 9.96806 39.9873 10.1146 39.9983H10.1701C10.3075 39.9983 10.4419 39.9602 10.5568 39.8888C10.6716 39.8173 10.7619 39.7156 10.8165 39.5962L15.5 29.3351L20.1835 39.5978C20.2381 39.7173 20.3284 39.819 20.4432 39.8905C20.5581 39.9619 20.6925 40 20.8299 40H20.8854C21.0319 39.989 21.1712 39.9348 21.2837 39.845C21.3961 39.7552 21.4761 39.6344 21.5124 39.4994L23.375 32.6033L29.9555 36.0409C30.0842 36.1081 30.2319 36.1355 30.3779 36.1192C30.5239 36.1029 30.6609 36.0437 30.7696 35.95C30.8783 35.8563 30.9534 35.7327 30.9843 35.5965C31.0152 35.4604 31.0003 35.3185 30.9418 35.1907L24.8009 21.7331ZM5.28412 19.8825C5.01992 19.5396 5.10799 18.8312 5.19605 18.147C5.28412 17.4278 5.38188 16.6835 5.1529 16.0135C4.93185 15.3711 4.4052 14.8379 3.89617 14.3214C3.38714 13.805 2.85873 13.271 2.85873 12.8104C2.85873 12.3498 3.38714 11.8158 3.89617 11.2993C4.4052 10.7829 4.93185 10.2497 5.1529 9.6064C5.38188 8.93891 5.28765 8.19298 5.19605 7.47375C5.10799 6.78957 5.01992 6.08119 5.28412 5.73826C5.54833 5.39534 6.29778 5.24932 7.0173 5.11582C7.76411 4.97815 8.53647 4.83464 9.13093 4.42496C9.72539 4.01529 10.0953 3.37366 10.4599 2.74872C10.8245 2.12377 11.1917 1.50217 11.6373 1.367C11.7092 1.34594 11.7841 1.3358 11.8593 1.33696C12.2688 1.33696 12.828 1.58727 13.374 1.82256C14.0786 2.13128 14.8034 2.45001 15.5625 2.45001C16.3217 2.45001 17.0482 2.13128 17.7501 1.82256C18.4027 1.53638 19.0764 1.23851 19.4877 1.367C19.9333 1.50467 20.3041 2.13796 20.6617 2.75122C21.0192 3.36448 21.4006 4.0203 21.9906 4.42496C22.5807 4.82963 23.3574 4.97815 24.1042 5.11582C24.8238 5.24932 25.5679 5.38699 25.8374 5.73826C26.1069 6.08953 26.0135 6.78873 25.9255 7.47375C25.8374 8.19298 25.7397 8.93724 25.9686 9.6064C26.1888 10.2497 26.7155 10.7829 27.2254 11.2985C27.7353 11.8141 28.2628 12.3498 28.2628 12.8104C28.2628 13.271 27.7344 13.805 27.2254 14.3214C26.7163 14.8379 26.1888 15.3711 25.9686 16.0135C25.7397 16.681 25.8339 17.427 25.9255 18.147C26.0135 18.8312 26.1016 19.5387 25.8374 19.8825C25.5732 20.2263 24.8238 20.3714 24.1042 20.5041C23.3574 20.6426 22.5851 20.7853 21.9906 21.195C21.3961 21.6046 21.0263 22.2463 20.6617 22.8721C20.3041 23.4845 19.9333 24.1186 19.4877 24.2554C19.0764 24.3823 18.4027 24.0886 17.7501 23.8007C17.0456 23.492 16.3208 23.1724 15.5625 23.1724C14.8043 23.1724 14.0768 23.492 13.374 23.8007C12.7223 24.0869 12.0486 24.3848 11.6373 24.2554C11.1917 24.1186 10.821 23.4845 10.4634 22.8721C10.0988 22.2463 9.72098 21.5996 9.13445 21.195C8.54792 20.7903 7.76764 20.6426 7.02082 20.5041C6.30131 20.3714 5.55713 20.2338 5.28412 19.8825ZM10.3383 37.2733L8.76104 31.4327C8.73413 31.3342 8.68379 31.2428 8.61387 31.1655C8.54395 31.0882 8.45631 31.0271 8.35765 30.9869C8.25898 30.9466 8.15191 30.9283 8.04461 30.9332C7.93731 30.9382 7.83263 30.9663 7.73857 31.0155L2.16916 33.9249L7.6144 21.9935C7.85975 22.0485 8.09329 22.143 8.30485 22.273C8.63863 22.5033 8.93982 23.0181 9.23044 23.5162C9.69809 24.3172 10.2274 25.2241 11.2023 25.5237C11.4125 25.5879 11.6322 25.62 11.8531 25.6188C12.4476 25.6188 13.042 25.4052 13.5995 25.1691L14.7329 27.6522L10.3383 37.2733ZM23.2544 31.0155C23.1603 30.9663 23.0556 30.9382 22.9483 30.9332C22.841 30.9283 22.734 30.9466 22.6353 30.9869C22.5366 31.0271 22.449 31.0882 22.3791 31.1655C22.3092 31.2428 22.2588 31.3342 22.2319 31.4327L20.6546 37.2733L14.8914 24.6384C15.1062 24.5607 15.3328 24.5164 15.5625 24.5074C16.0108 24.5074 16.5938 24.7636 17.1583 25.008C18.0143 25.3843 18.9857 25.8107 19.9228 25.522C20.8977 25.2225 21.427 24.3155 21.8946 23.5145C22.1852 23.0139 22.4864 22.5016 22.8202 22.2713C22.998 22.1591 23.1937 22.0746 23.3997 22.021L28.8308 33.9199L23.2544 31.0155Z" />
</svg>
