<svg viewBox="0 0 18 24" fill="none" xmlns="http://www.w3.org/2000/svg">
<path d="M14.513 12.9749C14.9747 12.881 15.4517 12.7468 15.7366 12.376C16.0685 11.9442 15.9957 11.3726 15.9318 10.8681C15.8906 10.5437 15.848 10.211 15.9233 9.98946C15.9927 9.78718 16.228 9.54923 16.4549 9.31878C16.8289 8.9405 17.2524 8.51153 17.2524 7.95772C17.2524 7.40391 16.8289 6.97212 16.4549 6.59431C16.228 6.36433 15.9927 6.12497 15.9233 5.92363C15.848 5.70445 15.8906 5.36935 15.9318 5.04551C15.9957 4.5391 16.068 3.96745 15.7366 3.53707C15.4052 3.10669 14.8023 2.9903 14.2727 2.89221C13.9378 2.82885 13.5911 2.76455 13.3989 2.63219C13.2067 2.49984 13.0417 2.21261 12.8782 1.93242C12.6152 1.48233 12.3174 0.972164 11.7691 0.803204C11.242 0.641284 10.6956 0.881113 10.2141 1.09231C9.89651 1.23311 9.57006 1.37391 9.31642 1.37391C9.06279 1.37391 8.73633 1.22983 8.41879 1.09231C7.93728 0.881113 7.39087 0.641284 6.86379 0.803204C6.3154 0.972164 6.01767 1.48233 5.75463 1.93242C5.59115 2.21402 5.42173 2.50266 5.23398 2.63219C5.04623 2.76173 4.695 2.82885 4.35963 2.8908C3.83205 2.98889 3.23115 3.09965 2.89627 3.53707C2.56139 3.97449 2.63719 4.5405 2.70109 5.04504C2.74221 5.36888 2.78481 5.7021 2.70951 5.92316C2.64016 6.12591 2.40485 6.36386 2.17797 6.59431C1.80395 6.97259 1.3804 7.40156 1.3804 7.95537C1.3804 8.50918 1.80395 8.94097 2.17797 9.31644C2.40485 9.54688 2.64016 9.78577 2.70951 9.98711C2.78481 10.2068 2.74221 10.5419 2.70109 10.8657C2.63719 11.3702 2.56437 11.9419 2.89627 12.3737C3.16774 12.7271 3.61408 12.8669 4.05547 12.9594L0.595222 20.5429C0.562322 20.6148 0.553973 20.6946 0.571346 20.7712C0.588719 20.8478 0.630943 20.9173 0.692105 20.97C0.753266 21.0227 0.830301 21.056 0.912419 21.0652C0.994538 21.0743 1.07763 21.0589 1.15005 21.0211L4.85154 19.0875L5.89928 22.9675C5.9197 23.0434 5.96469 23.1114 6.02794 23.1619C6.09119 23.2124 6.16953 23.2429 6.25199 23.2491H6.2832C6.36049 23.2491 6.43609 23.2276 6.50069 23.1874C6.5653 23.1472 6.61609 23.09 6.64681 23.0228L9.28125 17.251L11.9157 23.0238C11.9464 23.091 11.9972 23.1482 12.0618 23.1884C12.1264 23.2286 12.202 23.25 12.2793 23.25H12.3105C12.393 23.2438 12.4713 23.2133 12.5346 23.1628C12.5978 23.1123 12.6428 23.0443 12.6632 22.9684L13.711 19.0894L17.4125 21.023C17.4849 21.0608 17.568 21.0762 17.6501 21.067C17.7322 21.0579 17.8092 21.0246 17.8704 20.9719C17.9316 20.9192 17.9738 20.8496 17.9912 20.773C18.0085 20.6965 18.0002 20.6166 17.9673 20.5448L14.513 12.9749ZM3.53482 11.9339C3.3862 11.741 3.43574 11.3425 3.48528 10.9577C3.53482 10.5531 3.58981 10.1345 3.46101 9.75761C3.33667 9.39622 3.04043 9.09632 2.7541 8.8058C2.46777 8.51529 2.17054 8.21491 2.17054 7.95584C2.17054 7.69677 2.46777 7.3964 2.7541 7.10588C3.04043 6.81536 3.33667 6.51546 3.46101 6.1536C3.58981 5.77813 3.5368 5.35855 3.48528 4.95399C3.43574 4.56913 3.3862 4.17067 3.53482 3.97777C3.68343 3.78488 4.105 3.70274 4.50973 3.62765C4.92981 3.55021 5.36426 3.46949 5.69865 3.23904C6.03303 3.0086 6.24109 2.64768 6.44618 2.29615C6.65127 1.94462 6.85784 1.59497 7.1085 1.51894C7.14891 1.50709 7.19105 1.50139 7.23334 1.50204C7.46369 1.50204 7.77826 1.64284 8.0854 1.77519C8.4817 1.94885 8.8894 2.12813 9.31642 2.12813C9.74344 2.12813 10.1521 1.94885 10.547 1.77519C10.914 1.61421 11.293 1.44666 11.5243 1.51894C11.775 1.59638 11.9836 1.9526 12.1847 2.29756C12.3858 2.64252 12.6003 3.01142 12.9322 3.23904C13.2641 3.46667 13.701 3.55021 14.1211 3.62765C14.5259 3.70274 14.9445 3.78018 15.096 3.97777C15.2476 4.17536 15.1951 4.56866 15.1456 4.95399C15.096 5.35855 15.0411 5.7772 15.1699 6.1536C15.2937 6.51546 15.5899 6.81536 15.8768 7.10541C16.1636 7.39546 16.4603 7.69677 16.4603 7.95584C16.4603 8.21491 16.1631 8.51529 15.8768 8.8058C15.5904 9.09632 15.2937 9.39622 15.1699 9.75761C15.0411 10.1331 15.0941 10.5527 15.1456 10.9577C15.1951 11.3425 15.2447 11.7405 15.096 11.9339C14.9474 12.1273 14.5259 12.2089 14.1211 12.2836C13.701 12.3615 13.2666 12.4417 12.9322 12.6722C12.5978 12.9026 12.3898 13.2635 12.1847 13.6155C11.9836 13.96 11.775 14.3167 11.5243 14.3937C11.293 14.465 10.914 14.2998 10.547 14.1379C10.1506 13.9642 9.74295 13.7845 9.31642 13.7845C8.8899 13.7845 8.48071 13.9642 8.0854 14.1379C7.71882 14.2989 7.33985 14.4664 7.1085 14.3937C6.85784 14.3167 6.64929 13.96 6.44816 13.6155C6.24307 13.2635 6.03055 12.8998 5.70063 12.6722C5.3707 12.4445 4.9318 12.3615 4.51171 12.2836C4.10699 12.2089 3.68839 12.1315 3.53482 11.9339ZM6.37782 21.7162L5.49059 18.4309C5.47545 18.3755 5.44713 18.3241 5.4078 18.2806C5.36847 18.2371 5.31918 18.2028 5.26368 18.1801C5.20818 18.1575 5.14795 18.1471 5.08759 18.1499C5.02724 18.1527 4.96835 18.1686 4.91545 18.1962L1.78265 19.8328L4.8456 13.1213C4.98361 13.1523 5.11498 13.2055 5.23398 13.2785C5.42173 13.4081 5.59115 13.6977 5.75463 13.9779C6.01767 14.4284 6.3154 14.9386 6.86379 15.1071C6.98204 15.1432 7.10562 15.1613 7.22987 15.1606C7.56426 15.1606 7.89864 15.0404 8.21222 14.9076L8.84977 16.3043L6.37782 21.7162ZM13.6431 18.1962C13.5902 18.1686 13.5313 18.1527 13.4709 18.1499C13.4106 18.1471 13.3504 18.1575 13.2949 18.1801C13.2394 18.2028 13.1901 18.2371 13.1507 18.2806C13.1114 18.3241 13.0831 18.3755 13.068 18.4309L12.1807 21.7162L8.93894 14.6091C9.05974 14.5654 9.18722 14.5405 9.31642 14.5354C9.56857 14.5354 9.89651 14.6795 10.2141 14.817C10.6956 15.0287 11.242 15.2685 11.7691 15.1061C12.3174 14.9376 12.6152 14.4275 12.8782 13.9769C13.0417 13.6953 13.2111 13.4071 13.3989 13.2776C13.4989 13.2145 13.6089 13.1669 13.7248 13.1368L16.7798 19.83L13.6431 18.1962Z" fill="#6A8EA8"/>
</svg>
