<svg  viewBox="0 0 64 64" fill="none" xmlns="http://www.w3.org/2000/svg">
<path d="M45.3307 16.0007C45.3307 10.9713 45.3307 8.45932 43.7681 6.89665C42.2054 5.33398 39.6934 5.33398 34.6641 5.33398H29.3307C24.3014 5.33398 21.7894 5.33398 20.2267 6.89665C18.6641 8.45932 18.6641 10.9713 18.6641 16.0007M29.7201 29.3953C30.7334 27.5767 31.2401 26.6673 31.9974 26.6673C32.7547 26.6673 33.2614 27.574 34.2747 29.3953L34.5361 29.8647C34.8241 30.382 34.9681 30.638 35.1921 30.8087C35.4187 30.9793 35.6987 31.0433 36.2587 31.1687L36.7654 31.286C38.7334 31.7313 39.7174 31.9527 39.9521 32.7047C40.1867 33.4593 39.5147 34.2433 38.1734 35.8113L37.8267 36.2167C37.4454 36.662 37.2534 36.8833 37.1681 37.1607C37.0827 37.438 37.1121 37.734 37.1681 38.3287L37.2214 38.87C37.4241 40.9633 37.5254 42.0113 36.9147 42.4753C36.3014 42.9393 35.3787 42.5153 33.5361 41.6673L33.0614 41.4487C32.5361 41.2087 32.2747 41.0887 31.9974 41.0887C31.7201 41.0887 31.4587 41.2087 30.9334 41.4487L30.4587 41.6673C28.6161 42.518 27.6934 42.9393 27.0801 42.4753C26.4667 42.0113 26.5707 40.9633 26.7734 38.87L26.8267 38.3287C26.8827 37.734 26.9121 37.438 26.8267 37.1607C26.7414 36.886 26.5494 36.662 26.1681 36.2167L25.8214 35.8113C24.4801 34.2433 23.8081 33.4593 24.0427 32.7047C24.2774 31.9527 25.2614 31.7313 27.2294 31.286L27.7361 31.1687C28.2961 31.0433 28.5761 30.982 28.8027 30.8087C29.0267 30.638 29.1707 30.382 29.4587 29.8647L29.7201 29.3953Z" stroke="#294945" />
<path d="M37.3307 16H26.6641C19.1227 16 15.3494 16 13.0081 18.344C10.6641 20.6853 10.6641 24.4587 10.6641 32V34.816C10.6641 41.2293 10.6641 44.4373 12.2561 47.016C13.8507 49.592 16.7201 51.0267 22.4561 53.896C27.1387 56.2373 29.4801 57.408 31.9974 57.408C34.5147 57.408 36.8561 56.2373 41.5387 53.896C47.2747 51.0267 50.1441 49.592 51.7387 47.016C53.3307 44.4373 53.3307 41.2293 53.3307 34.816V32C53.3307 24.4587 53.3307 20.6853 50.9867 18.344C48.6454 16 44.8721 16 37.3307 16Z" stroke="#294945" />
</svg>
