<svg width="70" height="67" viewBox="0 0 70 67" fill="none" xmlns="http://www.w3.org/2000/svg">
<path d="M15.3671 29.7273C18.3926 29.7273 21.3502 30.5857 23.8658 32.1939C26.3814 33.8022 28.3421 36.0881 29.4999 38.7625C30.6577 41.437 30.9606 44.3799 30.3704 47.219C29.7802 50.0582 28.3232 52.6662 26.1839 54.7131C24.0445 56.76 21.3188 58.154 18.3515 58.7188C15.3841 59.2835 12.3083 58.9937 9.51315 57.8859C6.71795 56.7781 4.32885 54.9021 2.64797 52.4952C0.967095 50.0882 0.0699301 47.2584 0.0699301 44.3636L0 42.2727C0 34.5091 3.22333 27.0635 8.96089 21.5738C14.6985 16.0841 22.4803 13 30.5944 13V21.3636C27.7233 21.3563 24.8792 21.8935 22.2265 22.9444C19.5738 23.9952 17.1652 25.5388 15.1399 27.4858C14.3527 28.2376 13.6265 29.0456 12.9677 29.9029C13.75 29.7858 14.5498 29.7231 15.3628 29.7231L15.3671 29.7273ZM54.7028 29.7273C57.7283 29.7273 60.6859 30.5857 63.2015 32.1939C65.7171 33.8022 67.6778 36.0881 68.8356 38.7625C69.9934 41.437 70.2963 44.3799 69.7061 47.219C69.1158 50.0582 67.6589 52.6662 65.5196 54.7131C63.3802 56.76 60.6545 58.154 57.6871 58.7188C54.7198 59.2835 51.644 58.9937 48.8488 57.8859C46.0536 56.7781 43.6645 54.9021 41.9836 52.4952C40.3028 50.0882 39.4056 47.2584 39.4056 44.3636L39.3357 42.2727C39.3357 34.5091 42.559 27.0635 48.2966 21.5738C54.0341 16.0841 61.8159 13 69.9301 13V21.3636C67.059 21.3563 64.2149 21.8935 61.5622 22.9444C58.9095 23.9952 56.5009 25.5388 54.4755 27.4858C53.6884 28.2376 52.9622 29.0456 52.3033 29.9029C53.0857 29.7858 53.8855 29.7273 54.7028 29.7273Z" fill="#6A8EA8"/>
</svg>
