<svg xmlns="http://www.w3.org/2000/svg" width="131" height="20" viewBox="0 0 131 20" fill="none">
  <path fill-rule="evenodd" clip-rule="evenodd" d="M5.78277 0C0.643195 0 -1.93264 6.0699 1.69896 9.62343L8.40926 16.1895H0.479691V19.0205H13.697C18.8388 19.0205 21.4136 12.9462 17.7777 9.39398L11.0601 2.83106H19.0116V0H5.78277ZM11.0587 2.83106H5.78277C3.22353 2.83106 1.94091 5.85355 3.74925 7.62301L10.4646 14.194L8.41942 16.1895H13.697C16.2574 16.1895 17.5395 13.1648 15.729 11.396L9.01067 4.83235L11.0587 2.83106Z" fill="currentColor" />
  <path d="M37.3039 3.94376C37.2388 3.94213 33.6377 3.94132 33.5718 3.94132C32.8962 3.94132 32.2903 4.00414 31.7541 4.12979C31.2179 4.25544 30.7568 4.44391 30.3707 4.69521C29.9847 4.93603 29.6898 5.23968 29.486 5.60616C29.2823 5.97263 29.1804 6.39146 29.1804 6.86264C29.1804 7.35476 29.2769 7.77359 29.4699 8.11912C29.6737 8.45418 29.9418 8.73689 30.2742 8.96725C30.6174 9.18713 30.9981 9.37561 31.4163 9.53267C31.8452 9.68973 32.2849 9.82585 32.7353 9.94102C33.1857 10.0562 33.62 10.1714 34.0383 10.2866C34.4672 10.4017 34.8479 10.5326 35.1803 10.6792C35.5235 10.8258 35.7916 11.009 35.9846 11.2289C36.1884 11.4488 36.2903 11.7263 36.2903 12.0613C36.2903 12.2812 36.242 12.4749 36.1455 12.6425C36.049 12.81 35.9149 12.9566 35.7433 13.0822C35.5718 13.1974 35.368 13.2969 35.1321 13.3806C34.9069 13.4539 34.6549 13.5115 34.3761 13.5534C34.0972 13.5848 33.8077 13.6005 33.5074 13.6005C33.4656 13.6005 29.5412 13.6001 29.5 13.5993V15.0917C29.5415 15.0923 33.4658 15.0926 33.5074 15.0926C34.3975 15.0926 35.1857 14.9827 35.872 14.7628C36.5691 14.5429 37.116 14.1921 37.5128 13.7105C37.9095 13.2183 38.1079 12.5849 38.1079 11.81C38.1079 11.3179 38.0061 10.9043 37.8023 10.5693C37.5986 10.2237 37.3251 9.93579 36.9819 9.70543C36.6495 9.47508 36.2688 9.28137 35.8399 9.12431C35.4216 8.96725 34.9873 8.83113 34.5369 8.71595C34.0972 8.5903 33.6629 8.47513 33.234 8.37042C32.8158 8.25524 32.4351 8.12959 32.0919 7.99347C31.7595 7.85736 31.4914 7.69506 31.2876 7.50659C31.0839 7.30764 30.982 7.05635 30.982 6.7527C30.982 6.48046 31.0785 6.2501 31.2715 6.06163C31.4753 5.86269 31.7702 5.71086 32.1562 5.60616C32.5423 5.49098 33.0195 5.43339 33.5879 5.43339C33.649 5.43339 37.2447 5.4344 37.3039 5.43641V3.94376Z"  fill="currentColor"/>
  <path fill-rule="evenodd" clip-rule="evenodd" d="M45.9247 15.0926C44.788 15.0926 43.8014 14.8884 42.9649 14.4801C42.1392 14.0717 41.5011 13.4539 41.0508 12.6268C40.6111 11.7996 40.3912 10.763 40.3912 9.51696C40.3912 8.26048 40.6111 7.22388 41.0508 6.40717C41.5011 5.57998 42.1392 4.96221 42.9649 4.55385C43.8014 4.1455 44.788 3.94132 45.9247 3.94132C47.0829 3.94132 48.0748 4.1455 48.9006 4.55385C49.7263 4.96221 50.359 5.57998 50.7987 6.40717C51.2491 7.22388 51.4743 8.26048 51.4743 9.51696C51.4743 10.763 51.2491 11.7996 50.7987 12.6268C50.359 13.4539 49.7263 14.0717 48.9006 14.4801C48.0748 14.8884 47.0829 15.0926 45.9247 15.0926ZM45.9247 13.6005C46.5145 13.6005 47.0346 13.522 47.485 13.3649C47.9461 13.2079 48.3322 12.9671 48.6432 12.6425C48.9649 12.3179 49.2062 11.9095 49.367 11.4174C49.5386 10.9253 49.6244 10.3546 49.6244 9.70543V9.3599C49.6244 8.68978 49.5386 8.10865 49.367 7.61653C49.2062 7.12441 48.9649 6.71605 48.6432 6.39146C48.3322 6.06687 47.9461 5.82604 47.485 5.66898C47.0346 5.51192 46.5145 5.43339 45.9247 5.43339C45.3456 5.43339 44.8255 5.51192 44.3644 5.66898C43.914 5.82604 43.5279 6.06687 43.2062 6.39146C42.8952 6.71605 42.6593 7.12441 42.4985 7.61653C42.3376 8.10865 42.2572 8.68978 42.2572 9.3599V9.70543C42.2572 10.3546 42.3376 10.9253 42.4985 11.4174C42.6593 11.9095 42.8952 12.3179 43.2062 12.6425C43.5279 12.9671 43.914 13.2079 44.3644 13.3649C44.8255 13.522 45.3456 13.6005 45.9247 13.6005Z"  fill="currentColor"/>
  <path d="M54.2754 5.70145V14.9041H56.077V10.3179H61.5783V8.82585H56.077V6.2662C56.077 5.91899 56.3652 5.63752 56.7208 5.63752H62.1573V4.12974H55.885C54.996 4.12974 54.2754 4.83342 54.2754 5.70145Z"  fill="currentColor"/>
  <path d="M67.5355 14.9041V5.63752H63.884V4.12974H73.0207V5.63752H69.3371V14.9041H67.5355Z" fill="currentColor"/>
  <path fill-rule="evenodd" clip-rule="evenodd" d="M75.4064 4.12974V14.9041H77.208V10.742H81.0364L83.1275 14.9041H85.09L82.7897 10.4436C83.401 10.1923 83.8728 9.79962 84.2053 9.26562C84.5377 8.73161 84.7039 8.10337 84.7039 7.38089C84.7039 6.73171 84.5752 6.16629 84.3179 5.68464C84.0605 5.19252 83.6744 4.81034 83.1597 4.5381C82.645 4.26586 81.9962 4.12974 81.2133 4.12974H75.4064ZM81.0686 9.26562H77.208V5.63752H81.0686C81.4653 5.63752 81.7978 5.70558 82.0659 5.8417C82.334 5.97782 82.5377 6.17676 82.6771 6.43853C82.8165 6.68983 82.8862 6.99871 82.8862 7.36519C82.8862 7.96202 82.7254 8.42796 82.4037 8.76302C82.0927 9.09809 81.6476 9.26562 81.0686 9.26562Z"  fill="currentColor"/>
  <path d="M90.5617 14.9041V10.475L86.2668 4.12974H88.3258L91.4786 8.90438H91.559L94.6796 4.12974H96.6582L92.3633 10.475V14.9041H90.5617Z"  fill="currentColor"/>
  <path d="M98.042 14.0403V14.9041H107.163V13.3963H100.68L107.018 4.99358V4.12974H98.4602V5.63752H104.348L98.042 14.0403Z"  fill="currentColor"/>
  <path d="M111.39 14.9041C110.501 14.9041 109.781 14.2004 109.781 13.3324V5.70145C109.781 4.83342 110.501 4.12974 111.39 4.12974H118.338V5.63752H112.226C111.871 5.63752 111.582 5.91899 111.582 6.2662V8.63738H117.631V10.1452H111.582V12.7676C111.582 13.1148 111.871 13.3963 112.226 13.3963H118.435V14.9041H111.39Z" fill="currentColor" />
  <path d="M121.344 14.9041V4.12974H123.081L128.727 11.7786H128.807V4.12974H130.545V14.9041H128.872L123.161 7.1453H123.081V14.9041H121.344Z"  fill="currentColor"/>
</svg>