<svg viewBox="0 0 176 238" fill="none" xmlns="http://www.w3.org/2000/svg">
<g clip-path="url(#clip0_1_9803)">
<path d="M156.605 12.6619C155.99 9.54411 152.94 7.44971 150.055 6.66431C147.122 5.85511 143.409 5.87891 141.021 7.99711C139.153 9.66311 138.538 11.9479 138.514 14.3279C138.396 14.1851 138.278 14.0661 138.159 13.9233C137.213 12.9713 135.747 12.9475 134.517 13.0665C129.551 13.5901 124.845 15.8273 120.896 18.8737C119.453 19.9923 118.082 21.2299 116.923 22.6579C115.031 25.0141 114.038 26.9657 115.717 29.7741C116.119 30.4405 116.521 31.1069 116.899 31.7733C117.301 32.4635 118.413 33.7011 117.893 34.4865C117.703 34.7721 117.396 34.9625 117.088 35.1053C115.528 35.8193 113.707 35.4861 112.004 35.1529C109.45 34.6769 106.896 34.2485 104.318 33.9153C103.349 33.7963 102.379 33.6773 101.386 33.6535C100.558 33.6535 99.7303 33.6773 98.9026 33.7725C98.1931 33.8439 97.3182 34.1057 96.6324 33.9867C95.923 33.8677 95.1661 33.3917 94.4566 33.1775C93.7945 32.9633 92.9905 32.9157 92.352 32.6539C92.2101 32.5825 92.0209 32.5587 91.8317 32.5587C91.2641 32.5111 90.7439 32.8919 90.9804 33.1775C91.0277 34.3437 91.7844 35.5099 92.4466 36.4619C93.0851 37.4139 93.8655 38.2707 94.7169 39.0323C95.4263 39.6511 96.2303 40.3651 97.2472 40.0081C97.7201 39.8415 97.7912 39.4845 97.9094 39.0085C98.0276 38.5325 98.1459 38.0565 98.2642 37.5805C100.795 37.4139 103.301 38.1041 105.761 38.6277C108.244 39.1513 110.632 39.7225 112.903 40.8887C115.055 41.9835 117.112 43.3163 119.335 44.2683C121.534 45.1965 123.852 45.7915 126.217 46.0533C126.501 46.4103 126.761 46.7673 127.045 47.1243C128.865 49.4567 132.2 48.1477 134.494 47.1957C136.528 46.3627 138.491 45.3393 140.359 44.1493C142.18 42.9831 143.906 41.6741 145.514 40.1985C146.768 39.0561 149.109 37.2949 149.416 35.5099C149.416 35.4623 149.416 35.4385 149.416 35.3909C149.463 34.8673 149.274 34.2247 149.014 33.5821C150.551 29.9883 152.538 26.6801 154.359 23.2291C155.21 21.6107 155.849 19.8971 156.227 18.1121C156.605 16.3747 156.913 14.3755 156.558 12.5905L156.605 12.6619ZM151.97 23.9907C151.095 25.6805 150.173 27.3227 149.274 28.9887C148.872 29.7265 148.399 30.4881 147.974 31.2497C147.595 30.4405 147.17 29.6551 146.744 28.8697C145.041 25.6805 143.338 22.4675 141.518 19.3497C141.281 17.9217 141.139 16.5413 141.163 15.0657C141.163 14.1137 141.234 13.1379 141.565 12.2335C142.132 10.6389 143.504 9.42511 145.088 8.85391C146.673 8.28271 148.423 8.35411 150.031 8.80631C150.551 8.94911 151.048 9.13951 151.497 9.42511C152.301 9.92491 152.916 10.7103 153.389 11.5433C155.707 15.6607 153.98 20.1351 151.97 23.9907Z" fill="#E2B8AF"/>
<path d="M126.005 45.0758C124.066 42.4578 122.221 39.7684 120.519 37.0076C120.046 36.2222 119.549 35.4606 119.1 34.6514C118.982 34.461 118.319 34.5324 118.461 34.7466C120.117 37.555 121.89 40.2921 123.782 42.9339C124.302 43.6717 124.846 44.4094 125.39 45.1472C125.485 45.2662 125.674 45.29 125.816 45.2662C125.887 45.2662 126.147 45.171 126.053 45.052L126.005 45.0758Z" fill="#A6673E"/>
<path d="M140.948 17.2542C140.38 16.207 139.671 15.2312 138.843 14.3506C138.748 14.2316 138.512 14.2554 138.394 14.2792C138.276 14.303 138.157 14.3982 138.276 14.5172C139.08 15.3502 139.765 16.3022 140.333 17.3256C140.451 17.5398 141.113 17.4684 140.972 17.2304L140.948 17.2542Z" fill="#A6673E"/>
<path d="M148.376 33.5605C144.9 33.6795 141.542 34.7029 138.444 36.2737C136.883 37.0591 135.417 37.9873 133.974 38.9869C132.532 40.0103 131.113 41.0813 129.954 42.3903C128.677 43.8421 127.731 45.6271 127.684 47.6025C127.684 47.8405 128.346 47.8405 128.346 47.6025C128.417 44.0325 131.325 41.5097 133.974 39.5581C136.67 37.5827 139.65 35.8929 142.842 34.8695C144.616 34.2983 146.461 33.9651 148.329 33.8937C148.423 33.8937 148.66 33.8699 148.66 33.7271C148.66 33.5843 148.423 33.5605 148.329 33.5605H148.376Z" fill="#A6673E"/>
<path d="M77.9023 44.8145C77.9023 44.8145 77.784 44.8145 77.7367 44.7669C77.5712 44.6717 77.5239 44.4576 77.6185 44.291C78.1388 43.4104 78.73 42.5297 79.4159 41.6253C80.1963 40.6019 80.953 39.6975 81.7334 38.8883C81.8516 38.7455 82.0645 38.7455 82.2064 38.8883C82.3483 39.0073 82.3483 39.2454 82.2064 39.3644C81.4496 40.1498 80.7165 41.0303 79.9597 42.0299C79.2976 42.9105 78.7064 43.7673 78.2097 44.6241C78.1388 44.7193 78.0442 44.7907 77.926 44.7907L77.9023 44.8145Z" fill="#BEE2EA"/>
<path d="M84.2645 37.4584C84.2645 37.4584 84.0517 37.4108 84.0044 37.3156C83.8861 37.1728 83.9335 36.9586 84.0754 36.8396C85.9909 35.3878 88.1192 34.4358 90.2003 34.1026C90.3895 34.0788 90.5551 34.1978 90.5788 34.3882C90.6024 34.5786 90.484 34.7452 90.2948 34.769C88.332 35.0784 86.2983 35.9828 84.4774 37.387C84.4064 37.4346 84.3354 37.4584 84.2645 37.4584Z" fill="#BEE2EA"/>
<path d="M79.818 51.7865C79.818 51.7865 79.7707 51.7865 79.7471 51.7865C79.5579 51.7389 79.4397 51.5723 79.487 51.3819C79.9127 49.3113 80.6457 47.3121 81.639 45.4081C81.7336 45.2415 81.9227 45.1701 82.0883 45.2653C82.2538 45.3605 82.3248 45.5509 82.2302 45.7175C81.2606 47.5739 80.5511 49.5255 80.1254 51.5247C80.1018 51.6913 79.96 51.7865 79.7944 51.7865H79.818Z" fill="#BEE2EA"/>
<path d="M83.6991 42.9336C83.6991 42.9336 83.5573 42.9336 83.4863 42.8622C83.3444 42.7432 83.3207 42.529 83.439 42.3862C84.9288 40.4822 86.6788 38.8162 88.618 37.4834C88.7836 37.3882 88.9728 37.412 89.091 37.5786C89.1856 37.7214 89.1619 37.9356 88.9963 38.0546C87.1045 39.3636 85.4017 40.9582 83.9592 42.8146C83.8882 42.9098 83.7937 42.9336 83.6991 42.9336Z" fill="#BEE2EA"/>
<path d="M86.8868 44.9088C86.8868 44.9088 86.7685 44.9088 86.7212 44.8612C86.5557 44.766 86.5083 44.5518 86.6029 44.409C87.7144 42.4336 89.157 40.601 90.8597 38.935C91.0016 38.816 91.2144 38.816 91.3326 38.935C91.4508 39.0778 91.4508 39.292 91.3326 39.411C89.6772 41.0294 88.2819 42.8144 87.1941 44.7184C87.1231 44.8374 87.0286 44.885 86.9103 44.885L86.8868 44.9088Z" fill="#BEE2EA"/>
<path d="M90.1076 51.0006C90.1076 51.0006 90.0839 51.0006 90.0602 51.0006C89.871 50.9768 89.7528 50.8102 89.7764 50.6198C90.2731 46.9308 91.6446 43.3132 93.702 40.2192C93.7966 40.0526 94.0095 40.0288 94.1751 40.124C94.3406 40.2192 94.3643 40.4334 94.2697 40.6C92.2596 43.6226 90.9588 47.1212 90.4622 50.715C90.4622 50.8816 90.2968 51.0006 90.1312 51.0006H90.1076Z" fill="#BEE2EA"/>
<path d="M119.505 52.7888C119.481 52.5984 119.339 52.4556 119.174 52.3604C119.103 52.3366 119.032 52.3128 118.984 52.289C118.937 52.2652 118.866 52.2176 118.795 52.1938C118.086 51.9796 117.235 52.2176 116.667 52.765C116.407 53.0268 116.17 53.3838 116.099 53.7646C116.099 53.8598 116.076 53.955 116.099 54.0502C114.444 55.3116 112.883 56.692 111.37 58.1676C111.157 58.3818 110.92 58.6198 110.707 58.834C110.778 57.4298 110.826 56.0256 110.849 54.6214C110.944 54.5738 111.039 54.5262 111.11 54.4548C111.228 54.312 111.299 54.0978 111.346 53.9074C111.393 53.717 111.441 53.5266 111.464 53.3362C111.582 52.527 111.464 51.6702 111.11 50.9324C111.039 50.8134 110.849 50.742 110.66 50.7658C110.306 50.623 109.856 50.6944 109.62 51.0038C109.431 51.2894 109.407 51.7178 109.407 52.051C109.407 52.289 109.407 52.527 109.407 52.765C109.407 52.884 109.407 52.9792 109.407 53.0982C109.407 53.4314 109.407 53.7646 109.643 54.0026C109.691 54.1216 109.714 54.2406 109.785 54.3358C109.833 54.3834 109.88 54.431 109.927 54.4786C109.927 56.216 109.856 57.9534 109.738 59.6908C109.738 59.7384 109.738 59.7622 109.762 59.786C108.295 61.333 106.9 62.999 105.694 64.8316C104.819 66.1882 104.086 67.6638 103.589 69.2584C103.471 69.6392 104.37 69.6868 104.464 69.3774C105.316 66.569 106.947 64.189 108.721 62.0708C110.637 59.8098 112.718 57.7154 114.941 55.8352C115.414 55.4306 115.91 55.0498 116.383 54.669C116.596 54.788 116.88 54.8118 117.14 54.7642C117.164 54.7642 117.187 54.7642 117.211 54.7642C117.211 54.7642 117.258 54.7642 117.282 54.7642C117.305 54.7642 117.329 54.7642 117.376 54.7404C117.447 54.7166 117.542 54.6928 117.613 54.669C117.991 54.5262 118.322 54.312 118.63 54.0264C118.724 53.9312 118.843 53.836 118.937 53.7408C119.056 53.6218 119.174 53.5028 119.292 53.36C119.41 53.1934 119.528 53.003 119.505 52.7888Z" fill="#5EADB5"/>
<path d="M119.5 52.7883C119.477 52.5979 119.335 52.4551 119.169 52.3599C119.098 52.3361 119.027 52.3123 118.98 52.2885C118.933 52.2647 118.862 52.2171 118.791 52.1933C118.081 51.9791 117.23 52.2171 116.662 52.7645C116.284 53.1215 115.953 53.7403 116.118 54.2877C116.118 54.3591 116.166 54.4067 116.213 54.4781C116.449 54.7875 116.804 54.8589 117.159 54.7875C117.183 54.7875 117.206 54.7875 117.23 54.7875C117.23 54.7875 117.277 54.7875 117.301 54.7875C117.325 54.7875 117.348 54.7875 117.395 54.7637C117.466 54.7399 117.561 54.7161 117.632 54.6923C118.01 54.5495 118.341 54.3353 118.649 54.0497C118.743 53.9545 118.862 53.8593 118.956 53.7641C119.075 53.6451 119.193 53.5261 119.311 53.3833C119.429 53.2167 119.548 53.0263 119.524 52.8121L119.5 52.7883Z" fill="#4C6880"/>
<path d="M111.461 52.7904C111.461 52.1478 111.319 51.529 111.059 50.9578C110.988 50.8388 110.798 50.7674 110.609 50.7912C110.255 50.6484 109.805 50.7198 109.569 51.0292C109.38 51.3148 109.356 51.7432 109.356 52.0764C109.356 52.3144 109.356 52.5524 109.356 52.7904C109.356 52.9094 109.356 53.0046 109.356 53.1236C109.356 53.4568 109.356 53.79 109.592 54.028C109.687 54.3374 109.805 54.5992 110.136 54.6944C111.035 55.0038 111.295 54.028 111.39 53.3616C111.413 53.1712 111.437 52.9808 111.437 52.7904H111.461Z" fill="#4C6880"/>
<path d="M123.784 48.4569C123.784 48.4569 123.713 48.2903 123.666 48.2189C123.572 48.1237 123.453 48.0761 123.335 48.0761C123.288 48.0761 123.217 48.0761 123.169 48.0999C123.169 48.0999 123.122 48.1237 123.122 48.1475C123.098 48.1475 123.075 48.1475 123.051 48.1951C123.051 48.1951 123.051 48.2189 123.051 48.2427C123.051 48.2903 123.098 48.3379 123.122 48.3855C123.051 48.4093 122.98 48.4807 122.886 48.5521C122.696 48.7425 122.531 48.9329 122.342 49.0995C121.987 49.4565 121.609 49.8135 121.23 50.1467C120.473 50.8369 119.693 51.4795 118.913 52.0983C118.842 52.1459 118.936 52.2173 118.984 52.2173C119.055 52.2411 119.173 52.2173 119.22 52.1697C119.953 51.5985 120.639 51.0273 121.325 50.4085C121.656 50.0991 121.987 49.7897 122.318 49.4803C122.484 49.3375 122.626 49.1709 122.791 49.0281C122.933 48.8853 123.075 48.7187 123.24 48.5759H123.288C123.335 48.5759 123.359 48.6235 123.406 48.6473C123.453 48.6473 123.524 48.6711 123.571 48.6711C123.642 48.6711 123.713 48.6473 123.761 48.5759C123.784 48.5283 123.784 48.4807 123.761 48.4331L123.784 48.4569Z" fill="#020808"/>
<path d="M125.317 52.5496C125.317 52.5496 125.317 52.4782 125.317 52.4306C125.317 52.383 125.293 52.3354 125.246 52.3116C125.199 52.264 125.151 52.264 125.104 52.2402C124.986 52.2402 124.844 52.2402 124.749 52.3354C124.678 52.383 124.655 52.4782 124.655 52.5734C124.655 52.5734 124.655 52.5972 124.655 52.621C123.259 53.1684 121.746 53.3826 120.256 53.2398C120.09 53.2398 119.925 53.4064 120.161 53.4302C121.698 53.5968 123.236 53.3826 124.678 52.8352C124.702 52.8828 124.773 52.9304 124.82 52.9304C124.844 52.9304 124.891 52.9304 124.915 52.9304C125.009 52.9304 125.104 52.9304 125.198 52.8828C125.246 52.8828 125.269 52.8352 125.293 52.7876C125.317 52.74 125.293 52.6924 125.293 52.6686C125.293 52.621 125.293 52.5734 125.293 52.5258L125.317 52.5496Z" fill="#020808"/>
<path d="M110.137 50.816C108.789 49.0072 107.583 47.1032 106.542 45.104C106.542 45.104 106.542 45.104 106.542 45.0802C106.59 45.0326 106.637 44.9612 106.661 44.8898C106.661 44.8422 106.661 44.7946 106.661 44.7708C106.661 44.747 106.613 44.7232 106.566 44.6994V44.6518C106.542 44.5804 106.448 44.5566 106.377 44.5566C106.306 44.5566 106.235 44.5566 106.164 44.5804C106.093 44.6042 106.022 44.6518 105.975 44.7232C105.927 44.7708 105.904 44.8422 105.88 44.9136C105.88 44.9136 105.833 44.9612 105.833 44.985C105.786 45.0564 105.786 45.1516 105.833 45.1992C105.88 45.2706 105.998 45.3182 106.093 45.3182C106.14 45.3182 106.211 45.3182 106.258 45.3182C107.299 47.2698 108.458 49.15 109.782 50.9112C109.853 51.0064 110.208 50.935 110.137 50.8398V50.816Z" fill="#020808"/>
<path d="M111.296 44.1497C111.296 44.1497 111.131 44.0069 111.06 43.9831C110.894 43.9593 110.729 43.9831 110.61 44.0783C110.516 44.1259 110.421 44.1735 110.35 44.2449C110.327 44.2687 110.327 44.3163 110.35 44.3401C110.445 44.4115 110.563 44.4591 110.705 44.4591C110.705 44.4591 110.705 44.4591 110.729 44.4591C110.8 46.7201 110.658 48.9811 110.35 51.2421C110.35 51.3611 110.705 51.3611 110.705 51.2183C111.012 48.9573 111.154 46.6963 111.083 44.4115C111.083 44.4115 111.131 44.4115 111.154 44.3877C111.202 44.3639 111.272 44.3163 111.296 44.2449C111.296 44.2211 111.296 44.1735 111.296 44.1497Z" fill="#020808"/>
<path d="M104.889 50.1473C104.676 50.2663 104.581 50.4805 104.628 50.7899C104.699 51.2421 105.101 51.5753 105.503 51.7181C105.929 51.8847 106.378 51.8847 106.828 51.9085C107.774 51.9561 108.72 52.0989 109.642 52.2655C109.878 52.3131 110.138 52.3607 110.399 52.3131C110.943 52.1941 111.368 51.6943 111.818 51.4087C112.362 51.0517 112.953 50.7661 113.497 50.4091C114.348 49.8617 115.152 49.1001 115.341 48.1005C115.341 48.0291 115.365 47.9577 115.341 47.8863C115.318 47.7673 115.199 47.6959 115.105 47.6483C114.514 47.3865 113.828 47.6959 113.284 48.0291C112.716 48.3861 112.196 48.8145 111.723 49.2905C112.054 48.8383 112.361 48.3623 112.669 47.9101C113.189 47.1247 113.662 46.2441 113.639 45.2921C113.639 44.8161 113.284 44.4829 112.858 44.3639C112.314 44.1973 111.865 44.6257 111.557 45.0541C110.753 46.1727 110.588 47.6007 110.446 48.9811C110.517 48.3861 110.399 47.5769 110.328 46.9819C110.257 46.3869 110.091 45.7919 109.878 45.2445C109.736 44.8875 109.571 44.5305 109.287 44.2687C108.672 43.6975 107.774 44.0545 107.632 44.8875C107.561 45.2445 107.655 45.6015 107.75 45.9585C108.057 47.1009 108.436 48.2195 108.909 49.3143C108.318 48.7907 107.774 48.2195 107.253 47.6245C106.993 47.3151 106.71 46.9819 106.378 46.7201C106.047 46.4583 105.622 46.3155 105.22 46.3869C104.25 46.5535 104.368 47.5531 104.794 48.1957C105.456 49.2191 106.544 49.7903 107.514 50.4329C107.324 50.3853 107.135 50.3377 106.946 50.2901C106.355 50.1235 105.74 49.9807 105.149 50.0521C105.03 50.0521 104.936 50.0997 104.865 50.1235L104.889 50.1473Z" fill="#BEE2EA"/>
<path d="M118.504 47.4575C118.363 47.2671 118.126 47.2195 117.819 47.3147C117.393 47.4813 117.133 47.9097 117.062 48.3619C116.991 48.8141 117.062 49.2663 117.109 49.6947C117.227 50.6467 117.275 51.5987 117.251 52.5507C117.251 52.8125 117.251 53.0743 117.346 53.3123C117.558 53.8359 118.126 54.1691 118.504 54.5737C118.954 55.0497 119.332 55.5733 119.781 56.0493C120.467 56.7871 121.366 57.4535 122.359 57.4773C122.43 57.4773 122.501 57.4773 122.572 57.4535C122.667 57.4059 122.714 57.2869 122.761 57.1679C122.903 56.5253 122.501 55.9303 122.052 55.4543C121.602 54.9545 121.082 54.5023 120.538 54.1215C121.035 54.3595 121.555 54.5975 122.075 54.8117C122.95 55.1925 123.896 55.5019 124.819 55.3115C125.292 55.2163 125.528 54.8117 125.575 54.3595C125.646 53.7883 125.15 53.4075 124.677 53.1933C123.447 52.5983 122.004 52.6935 120.633 52.7887C121.224 52.7649 122.004 52.5031 122.548 52.3127C123.116 52.1223 123.66 51.8605 124.156 51.5511C124.487 51.3607 124.795 51.1227 125.008 50.7895C125.457 50.0755 124.937 49.2663 124.109 49.2663C123.754 49.2663 123.4 49.4091 123.092 49.5757C122.028 50.0755 121.011 50.6705 120.018 51.3131C120.443 50.6467 120.893 50.0041 121.389 49.3853C121.65 49.0521 121.933 48.7427 122.099 48.3619C122.288 47.9811 122.359 47.5289 122.217 47.1481C121.862 46.2199 120.917 46.5055 120.373 47.0529C119.498 47.8859 119.119 49.0521 118.67 50.1469C118.67 49.9565 118.694 49.7661 118.717 49.5757C118.764 48.9569 118.812 48.3381 118.623 47.7431C118.599 47.6479 118.552 47.5527 118.504 47.4813V47.4575Z" fill="#BEE2EA"/>
<path d="M96.3229 65.4982C96.2519 65.2364 96.039 65.046 95.8025 64.927C95.2349 64.6414 94.5019 64.808 93.958 65.1174C93.6506 65.284 93.414 65.522 93.1775 65.76C93.3667 64.7842 93.5559 63.8084 93.7214 62.8326C94.0998 60.5002 94.4309 58.144 94.5019 55.7878C94.5255 54.4788 94.4546 53.146 94.1944 51.8608C94.1235 51.5514 93.2485 51.718 93.2958 52.0512C93.7687 54.3598 93.6269 56.716 93.3668 59.0246C93.2722 59.7862 93.1776 60.524 93.083 61.2856C92.9884 60.9286 92.8464 60.5954 92.6572 60.286C92.2788 59.7148 91.6877 59.1674 91.0019 59.0722C90.6708 59.0246 90.2924 59.0722 90.0322 59.334C89.7957 59.572 89.7248 59.9528 89.7721 60.286C89.8904 61.0952 90.529 61.714 91.1675 62.1186C91.6877 62.4518 92.2553 62.8802 92.4681 63.5228C92.7283 64.3082 92.3971 65.2364 92.2552 65.998C91.9951 67.307 91.6876 68.616 91.3566 69.9012C91.262 70.2344 92.1606 70.1392 92.2315 69.8536C92.3971 69.211 92.539 68.5684 92.7045 67.9258C93.0829 67.426 93.6032 67.1166 94.2181 66.95C94.8093 66.7834 95.4714 66.6882 95.9681 66.2598C96.1809 66.0694 96.3701 65.8076 96.2992 65.522L96.3229 65.4982Z" fill="#5EADB5"/>
<path d="M91.3803 42.623C90.8837 42.8134 90.3871 43.0752 89.8904 43.2418C89.2992 43.4322 88.8026 43.7654 88.2587 44.051C87.5019 44.4318 87.1236 45.1934 86.5797 45.7884C85.8466 46.5738 84.9479 47.978 85.5155 49.0966C85.681 49.406 85.9647 49.644 86.1539 49.9534C86.8397 51.0482 86.1539 52.7142 87.0762 53.6186C87.2891 53.8328 87.5492 53.9518 87.833 54.0946C88.5188 54.4278 89.2284 54.761 89.9851 54.8086C90.6236 54.8562 91.1911 54.8562 91.7823 55.1656C92.3499 55.4512 92.8229 55.951 93.4851 56.0224C93.8398 56.07 94.1946 55.9748 94.5493 55.8558C94.8331 55.7606 95.1168 55.6892 95.3533 55.5226C95.9918 55.1418 96.3465 54.404 96.9614 54.0232C97.4343 53.7138 97.6 53.4758 97.9547 53.095C98.3331 52.6666 98.9243 52.5238 99.279 52.0478C99.7047 51.4528 99.7047 50.6674 99.681 49.9296L99.61 48.3112C99.61 47.8352 99.4445 47.4782 99.3262 47.026C99.208 46.5024 99.2317 45.955 99.0898 45.4314C98.9243 44.8602 98.6642 44.3128 98.2385 43.932C97.7892 43.5274 97.0796 43.0276 96.512 42.7658C95.8735 42.4802 95.1404 42.6944 94.4546 42.623C93.9816 42.5754 93.5561 42.3612 93.0831 42.3136C92.5155 42.2422 91.9479 42.4088 91.404 42.623H91.3803Z" fill="#B5696D"/>
<path d="M99.9898 45.3857C99.777 44.8859 99.4223 44.4813 98.8311 44.2671C97.6486 43.8387 96.6318 44.3147 95.8987 45.2905C96.2534 44.7193 96.5371 44.1005 96.7026 43.4579C96.8682 42.8153 96.8918 42.0299 96.3715 41.6491C96.206 41.5301 96.0168 41.4587 95.8276 41.3873C94.7398 41.0541 93.4628 41.0541 92.3514 41.2207C91.9257 41.2683 91.4763 41.3873 91.2398 41.7443C91.0033 42.1013 91.0743 42.5535 91.1216 42.9581C91.2635 43.8149 91.4053 44.6955 91.5472 45.5523C90.8851 44.6003 90.0337 43.6721 89.135 42.9343C88.9695 42.8153 88.804 42.6725 88.6148 42.6487C88.2837 42.5773 87.9526 42.7677 87.6688 42.9343C87.0303 43.3389 86.4391 43.7911 85.8952 44.2909C85.635 44.5289 85.375 44.7669 85.2094 45.0763C85.0439 45.3857 84.973 45.7427 85.0912 46.0759C85.2804 46.5995 85.8479 46.8375 86.3445 47.0755C86.8175 47.2897 87.2905 47.5277 87.7398 47.8133C86.7229 47.7419 85.6351 48.0513 84.9493 48.8129C84.027 49.7887 84.1215 51.2167 84.7127 52.3353C85.0675 53.0017 85.4223 53.3587 86.1081 53.7395C86.25 53.8109 86.4155 53.9061 86.5811 53.9061C86.7939 53.9061 86.9831 53.8585 87.1723 53.7633C87.6216 53.5491 87.9999 53.2159 88.3783 52.9065C88.8749 52.4781 89.3715 52.0497 89.8681 51.6213C89.4188 52.3353 88.9695 53.0493 88.5201 53.7633C88.26 54.1679 87.9999 54.5963 87.9526 55.0723C87.8817 55.7625 88.4729 56.3099 88.9695 56.6907C89.8681 57.3571 91.098 57.8093 92.2095 57.5237C92.6115 57.4285 92.9661 57.1905 93.1317 56.8097C93.2263 56.5955 93.2262 56.3575 93.2499 56.1195C93.3208 54.9771 93.3682 53.8585 93.4391 52.7161C93.5337 52.6447 93.6519 52.7637 93.7229 52.8589C94.3141 53.8109 94.858 54.8105 95.3783 55.8101C95.4256 55.9053 95.4729 56.0005 95.5675 56.0481C95.6621 56.0957 95.8041 56.0719 95.8987 56.0481C96.2297 55.9767 96.5134 55.8815 96.8208 55.7625C97.4121 55.5483 98.0507 55.1675 98.5473 54.7629C98.9966 54.3821 99.4459 53.9537 99.7297 53.4539C100.037 52.9541 100.203 52.3353 100.108 51.7403C100.084 51.5499 100.013 51.3595 99.9188 51.2167C99.8006 51.0501 99.6351 50.9073 99.446 50.7883C98.902 50.3837 98.3816 49.9791 97.8377 49.5745C98.1688 49.3127 98.6181 49.4079 99.0438 49.4317C99.2803 49.4317 99.5404 49.4317 99.7769 49.3841C99.8952 49.3841 100.013 49.3365 100.108 49.2889C100.699 48.9557 100.605 47.7419 100.486 47.1945C100.345 46.5995 100.25 45.9569 99.9898 45.4095V45.3857Z" fill="#F8B8B9"/>
<path d="M94.149 46.338C93.9125 46.1 93.5106 46.1238 93.2032 46.2428C92.9667 46.338 92.7774 46.5522 92.7065 46.814C92.6828 46.457 92.3518 46.1238 91.9734 46.1C91.3112 46.0762 90.9329 46.9092 91.1457 47.4566C91.0038 47.3376 90.8146 47.3138 90.6491 47.3376C90.3653 47.3852 90.1051 47.5756 90.0342 47.8612C89.9632 48.1468 90.1288 48.4324 90.389 48.5276C89.443 48.837 89.8923 50.1698 90.7436 50.2174C90.5308 50.5506 90.6491 51.0504 90.9565 51.2884C91.2876 51.5264 91.7843 51.455 92.0444 51.1694C92.0207 51.1932 92.3044 51.5264 92.3754 51.5502C92.5409 51.6454 92.7774 51.6454 92.9666 51.6216C93.345 51.5502 93.7233 51.2884 93.8416 50.9076C94.1963 51.098 94.693 51.0504 95.0005 50.7648C95.3079 50.4792 95.4261 50.027 95.2843 49.6224C95.5917 49.6224 95.8518 49.4082 96.041 49.1702C96.1829 48.9798 96.2774 48.7418 96.2301 48.5276C96.1355 48.1944 95.7572 48.0754 95.4261 48.004C95.5917 47.766 95.7572 47.4804 95.6862 47.2186C95.6153 46.9568 95.3551 46.7902 95.0713 46.7902C94.7876 46.7902 94.5511 46.9092 94.3382 47.0758C94.5274 46.933 94.2673 46.457 94.149 46.338Z" fill="white"/>
<path d="M90.3389 46.7196C89.9368 46.315 89.5111 45.9342 89.1091 45.5296C89.0145 45.4582 88.8727 45.4582 88.7544 45.5058C88.7071 45.5058 88.518 45.6248 88.6125 45.72C89.0146 46.1246 89.4403 46.5054 89.8423 46.91C89.9369 46.9814 90.0787 46.9814 90.197 46.9338C90.2443 46.9338 90.4334 46.8148 90.3389 46.7196Z" fill="#B5696D"/>
<path d="M89.5122 47.0269C89.1811 46.8841 88.8264 46.7651 88.4717 46.6699C88.4007 46.6699 88.3297 46.6699 88.2824 46.6699C88.2351 46.6699 88.1405 46.7175 88.0932 46.7413C88.0696 46.7651 88.0224 46.8127 88.046 46.8603C88.046 46.9079 88.0933 46.9317 88.1405 46.9317C88.3061 46.9793 88.4717 47.0269 88.6372 47.0745C88.7082 47.0983 88.8027 47.1221 88.8737 47.1459C88.9209 47.1459 88.9446 47.1697 88.9919 47.1935C88.9919 47.1935 89.0156 47.1935 89.0392 47.1935H89.0866C89.2048 47.2411 89.3466 47.2411 89.4649 47.1697C89.5122 47.1697 89.5594 47.1221 89.5594 47.0507C89.5594 47.0031 89.5595 46.9793 89.5122 46.9555V47.0269Z" fill="#B5696D"/>
<path d="M88.7108 49.455C88.2378 49.574 87.7413 49.7406 87.2919 49.931C87.221 49.9548 87.0555 50.05 87.1501 50.1452C87.221 50.2404 87.4101 50.2166 87.5047 50.169C87.7175 50.0738 87.9304 50.0024 88.1669 49.931C88.2852 49.8834 88.3798 49.8596 88.498 49.8358C88.498 49.8358 88.5453 49.8358 88.5689 49.8358H88.6163C88.6872 49.8358 88.7345 49.812 88.8055 49.7882C88.8764 49.7882 89.0656 49.7168 89.0419 49.5978C89.0419 49.4788 88.8291 49.5026 88.7581 49.5264L88.7108 49.455Z" fill="#B5696D"/>
<path d="M91.3071 52.1706C91.3071 52.1706 91.2125 52.123 91.1652 52.123C91.0943 52.123 91.0233 52.123 90.9523 52.1468C90.905 52.1468 90.8341 52.1944 90.8105 52.242C90.5976 52.6228 90.4084 53.0036 90.2192 53.3844C90.2192 53.432 90.2193 53.4558 90.2666 53.4796C90.3139 53.5034 90.3848 53.5034 90.4321 53.5034C90.5504 53.5034 90.6921 53.4558 90.7394 53.3368C90.905 52.956 91.0943 52.6228 91.2835 52.2658C91.2835 52.2182 91.3071 52.1944 91.2835 52.1468L91.3071 52.1706Z" fill="#B5696D"/>
<path d="M92.1365 52.622C92.1365 52.622 91.9237 52.5268 91.8527 52.5506C91.7818 52.5506 91.7108 52.5982 91.6635 52.622C91.6399 52.6458 91.5927 52.6934 91.6163 52.741C91.6636 52.9552 91.6872 53.1694 91.6872 53.3836C91.6872 53.455 91.6872 53.5502 91.6635 53.6216C91.6635 53.7406 91.8055 53.7644 91.8764 53.7406C91.9474 53.7406 92.0182 53.7406 92.0892 53.693C92.1365 53.693 92.1839 53.6454 92.1839 53.574C92.2312 53.2646 92.2311 52.9314 92.1365 52.622Z" fill="#B5696D"/>
<path d="M96.8673 52.3344C96.6545 51.9774 96.3943 51.668 96.0632 51.43C96.0159 51.4062 95.9451 51.4062 95.8978 51.4062C95.8268 51.4062 95.7558 51.4062 95.6849 51.4538C95.6376 51.4776 95.5903 51.5014 95.5903 51.5728C95.5903 51.6204 95.5902 51.6442 95.6375 51.668C95.6375 51.668 95.6376 51.668 95.6612 51.668C95.6612 51.668 95.6849 51.6918 95.7085 51.7156C95.7558 51.7394 95.7795 51.787 95.8268 51.8108C95.8977 51.8822 95.9687 51.9536 96.0397 52.025C96.1579 52.1678 96.276 52.3344 96.3706 52.501C96.3706 52.5486 96.4652 52.5486 96.5125 52.5486C96.5835 52.5486 96.6545 52.5486 96.7254 52.5248C96.7964 52.501 96.9383 52.4296 96.8673 52.3106V52.3344Z" fill="#B5696D"/>
<path d="M97.6277 50.7882C97.4148 50.693 97.202 50.5978 96.9891 50.4788C96.9418 50.455 96.8709 50.455 96.8236 50.455C96.7526 50.455 96.6817 50.455 96.6108 50.5026C96.5635 50.5026 96.5161 50.5502 96.5161 50.6216C96.5161 50.6692 96.5162 50.693 96.5635 50.7168C96.7763 50.812 96.9892 50.9072 97.202 51.0262C97.2493 51.05 97.3203 51.05 97.3676 51.05C97.4385 51.05 97.5094 51.05 97.5803 51.0024C97.6276 51.0024 97.675 50.9548 97.675 50.8834C97.675 50.8358 97.675 50.812 97.6277 50.7882Z" fill="#B5696D"/>
<path d="M97.5047 46.0761C97.0554 46.1475 96.6297 46.3141 96.2513 46.5521C96.204 46.5759 96.1567 46.5997 96.1567 46.6711C96.1567 46.7187 96.1566 46.7425 96.2039 46.7663C96.2985 46.8139 96.4878 46.7901 96.5824 46.7425C96.6533 46.6949 96.7479 46.6473 96.8188 46.5997C96.8425 46.5997 96.8662 46.5759 96.8898 46.5521C96.8898 46.5521 96.8899 46.5521 96.9135 46.5521C96.9608 46.5521 96.9844 46.5283 97.0317 46.5045C97.079 46.5045 97.1263 46.4807 97.1736 46.4569C97.1736 46.4569 97.2208 46.4569 97.2445 46.4569C97.2445 46.4569 97.2445 46.4569 97.2682 46.4569C97.3628 46.4331 97.4573 46.4093 97.5519 46.3855C97.6229 46.3855 97.8121 46.3141 97.7885 46.1951C97.7885 46.0761 97.5757 46.0999 97.5047 46.1237V46.0761Z" fill="#B5696D"/>
<path d="M94.4081 43.7187C94.4081 43.7187 94.1479 43.7663 94.1006 43.8853C93.9587 44.3375 93.8167 44.7897 93.7222 45.2419C93.6749 45.4561 94.2188 45.3847 94.2425 45.2181C94.3371 44.7659 94.4789 44.2899 94.6208 43.8615C94.6681 43.7425 94.479 43.7187 94.4081 43.7425V43.7187Z" fill="#B5696D"/>
<path d="M94.05 47.2674C93.9081 47.1008 93.648 47.1008 93.4825 47.1722C93.4352 47.1722 93.4115 47.196 93.3642 47.2436C93.3406 47.2436 93.3169 47.2912 93.3169 47.315V47.3864C93.3169 47.3864 93.3169 47.4102 93.3169 47.434V47.4816C93.3169 47.4816 93.3169 47.4816 93.3169 47.5054C93.3169 47.5768 93.3169 47.6482 93.3642 47.7196C93.3879 47.791 93.4352 47.8148 93.4825 47.8624C93.577 47.9338 93.6953 47.91 93.8136 47.91C93.9791 47.8862 94.1445 47.7672 94.1445 47.6006C94.1445 47.4816 94.1446 47.3626 94.05 47.2674Z" fill="#020808"/>
<path d="M92.0441 47.8384C92.0441 47.8384 91.9967 47.767 91.9494 47.7194C91.9021 47.6956 91.8548 47.6718 91.8075 47.6718C91.7129 47.6718 91.642 47.6718 91.5474 47.6956C91.5001 47.6956 91.4765 47.7194 91.4292 47.7432C91.4292 47.7432 91.4292 47.7432 91.4055 47.7432C91.3583 47.767 91.311 47.7908 91.311 47.8622C91.2637 47.9812 91.24 48.124 91.2637 48.2668C91.2637 48.3382 91.3109 48.4096 91.3819 48.4334C91.5001 48.481 91.6656 48.481 91.7839 48.4334C91.8785 48.4096 91.9731 48.362 92.0204 48.2668C92.0677 48.2192 92.0677 48.1478 92.0913 48.0764C92.0913 48.005 92.0913 47.9574 92.0913 47.886C92.0913 47.8622 92.0913 47.8384 92.0913 47.8146L92.0441 47.8384Z" fill="#020808"/>
<path d="M91.9958 49.4322C91.9958 49.4322 91.9485 49.337 91.9012 49.3132C91.8539 49.2894 91.8066 49.2656 91.7357 49.2656C91.6411 49.2656 91.5464 49.2656 91.4754 49.3132C91.3572 49.3608 91.239 49.4322 91.2153 49.5512C91.2153 49.6226 91.2153 49.694 91.2153 49.7654C91.2153 49.8606 91.2627 49.9558 91.31 50.0272C91.381 50.0986 91.4755 50.1462 91.5701 50.17C91.6647 50.17 91.7356 50.17 91.8302 50.1224C91.9012 50.0986 91.9722 50.051 92.0194 50.0034C92.0667 49.932 92.0667 49.8368 92.0194 49.7654C92.0194 49.694 91.9958 49.6226 91.9721 49.5274C91.9721 49.5036 91.9721 49.4798 91.9721 49.456L91.9958 49.4322Z" fill="#020808"/>
<path d="M93.4606 48.6694C93.4606 48.6694 93.3423 48.5742 93.2477 48.5504C93.1295 48.5028 92.9876 48.5504 92.8457 48.5504C92.7984 48.5504 92.7748 48.5742 92.7275 48.6218C92.7039 48.6218 92.6802 48.6694 92.6802 48.6932C92.6802 48.7646 92.6802 48.8598 92.6802 48.9312C92.6802 48.9312 92.6802 48.955 92.7038 48.9788C92.7038 49.0502 92.7512 49.1216 92.7985 49.1692C92.8458 49.2168 92.8931 49.2644 92.9404 49.2882C93.0823 49.3596 93.2951 49.3596 93.4369 49.2882C93.5079 49.2406 93.5789 49.193 93.6025 49.1216C93.6025 49.074 93.6025 49.0026 93.6025 48.955C93.5789 48.8598 93.5079 48.7646 93.4369 48.6932L93.4606 48.6694Z" fill="#020808"/>
<path d="M94.9997 48.9552C94.9997 48.9552 94.8577 48.8362 94.7631 48.8124C94.6685 48.8124 94.5503 48.8124 94.4557 48.8362C94.3847 48.86 94.3139 48.9076 94.2666 48.979C94.2666 49.0028 94.2429 49.0266 94.2429 49.0504C94.2429 49.0504 94.2429 49.0504 94.2429 49.0742C94.2429 49.098 94.2429 49.1218 94.2192 49.1456C94.2192 49.217 94.2192 49.2884 94.2192 49.3598C94.2192 49.4312 94.2192 49.5026 94.2901 49.5502C94.3611 49.6692 94.5503 49.6692 94.6686 49.6454C94.7632 49.6454 94.8341 49.5978 94.905 49.5502C94.9523 49.5264 94.976 49.4788 94.9997 49.455C94.9997 49.4074 95.0469 49.3836 95.0469 49.336C95.0469 49.2884 95.0469 49.2408 95.0469 49.1932C95.0469 49.1456 95.0469 49.1218 95.0469 49.0742C95.0469 49.0266 95.047 48.979 94.9997 48.9314V48.9552Z" fill="#020808"/>
<path d="M93.4849 50.2884C93.4849 50.2884 93.3429 50.1694 93.272 50.1456C93.2011 50.1218 93.1065 50.098 93.0119 50.0742C92.8464 50.0742 92.6808 50.098 92.5626 50.217L92.5152 50.2646C92.5152 50.2646 92.4917 50.2884 92.468 50.3122C92.468 50.3122 92.4444 50.3598 92.468 50.3836C92.468 50.3836 92.468 50.3836 92.468 50.4074C92.468 50.4312 92.4681 50.4788 92.4917 50.5026C92.5154 50.5502 92.5626 50.574 92.6099 50.574C92.6809 50.6216 92.7282 50.6454 92.7991 50.6692C92.9174 50.693 93.0355 50.693 93.1538 50.6692C93.272 50.6692 93.414 50.5978 93.4849 50.4788C93.5322 50.4074 93.5559 50.3122 93.4849 50.2408V50.2884Z" fill="#020808"/>
<path d="M116.57 60.8845C116.641 60.5989 116.712 60.3132 116.759 60.0038C115.742 60.1228 114.701 60.7417 113.826 61.2653C111.509 62.6695 109.522 65.0018 108.435 67.477C108.222 67.953 107.536 69.0954 108.293 69.3096C109.026 69.5 109.948 68.6194 110.492 68.2624C113.07 66.5012 115.695 64.0023 116.57 60.8845Z" fill="#4C6880"/>
<path d="M72.7211 54.4796C72.4846 53.9084 72.2246 53.3372 71.9408 52.766C71.3496 51.5998 70.6874 50.4812 69.9543 49.4102C69.6232 48.9342 69.2922 48.4344 68.8428 48.0536C68.4172 47.6728 67.684 47.2444 67.1401 47.6728C66.8799 47.887 66.8799 48.244 66.8563 48.5534C66.8563 48.9104 66.9036 49.2436 66.9982 49.5768C67.0218 49.6958 67.0691 49.8148 67.1164 49.9338C66.5961 49.6482 65.9814 49.4816 65.4374 49.7434C64.4678 50.1956 64.8698 51.4332 65.3427 52.1948C64.988 52.2424 64.6806 52.3852 64.4678 52.6708C63.9948 53.3134 64.6097 54.075 65.059 54.5272C65.6029 55.0746 66.2415 55.4554 66.9273 55.6934C67.8733 56.1932 69.0319 56.2408 70.0725 56.217C70.4982 56.217 70.9474 56.1694 71.3731 56.098C71.6569 56.098 71.9645 56.0742 72.2246 55.9076C72.2246 55.9076 72.2246 55.9076 72.2483 55.9076C72.2719 55.9076 72.3192 55.9076 72.3428 55.8838C72.4374 55.86 72.5556 55.7886 72.5556 55.6934C72.6502 55.5982 72.7449 55.503 72.8158 55.384C73.005 55.0984 72.7922 54.7652 72.6739 54.5034L72.7211 54.4796Z" fill="#FCB040"/>
<path d="M73.0296 54.503C72.6039 53.8128 71.9418 53.3368 71.4925 52.6942C70.9486 51.9326 70.381 51.2186 69.7425 50.5522C69.5297 50.338 69.3167 50.1 69.0329 49.9572C68.7728 49.8144 68.4417 49.743 68.1579 49.8382C68.0161 49.8858 67.8979 49.981 67.8033 50.1C67.6851 50.2666 67.6851 50.457 67.6614 50.6474C67.6614 51.409 67.8978 52.1706 68.3472 52.7656C67.9215 52.7656 67.4721 52.8608 67.1174 53.075C67.0465 53.1226 66.9519 53.1702 66.9046 53.2654C66.8337 53.3844 66.8573 53.5272 66.9046 53.67C67.1175 54.3126 67.6377 54.8124 68.229 55.1456C68.8202 55.455 69.4823 55.6216 70.1445 55.7882C70.5938 55.9072 70.9721 55.8834 71.4215 55.9072C71.7525 55.9072 72.0836 56.0976 72.4383 56.0262C72.7221 55.9786 73.1715 55.5978 73.2425 55.2884C73.2898 55.1218 73.2424 55.0028 73.1714 54.86C73.1241 54.7648 73.0532 54.6458 73.0059 54.5506L73.0296 54.503Z" fill="#F4802A"/>
<path d="M76.7391 63.5507C76.5026 62.6463 76.0532 61.7657 75.533 61.0041C75.06 60.2901 74.4452 59.3857 73.5702 59.1477C73.0973 59.0049 72.4114 59.1001 72.1986 59.6237C72.104 59.8617 72.1276 60.0759 72.1986 60.3139C72.1276 60.3139 72.0803 60.3139 72.0093 60.3139C71.56 60.3139 71.0398 60.5043 70.9216 60.9803C70.8033 61.3849 71.0161 61.7895 71.2289 62.1227C71.3944 62.3607 71.56 62.5749 71.7492 62.7891C71.4182 62.8367 71.1107 62.9319 70.8742 63.1937C70.4486 63.6697 70.7797 64.2409 71.2054 64.5741C71.631 64.9073 72.1985 65.0977 72.7188 65.1691C73.2863 65.2643 73.9013 65.2881 74.4689 65.2643C74.6344 65.2643 74.8235 65.2643 74.9891 65.2167C75.131 65.2167 75.2492 65.2167 75.3911 65.2167C75.7931 65.1691 76.2661 65.0501 76.5498 64.7169C76.81 64.4075 76.7863 64.0029 76.6917 63.6221L76.7391 63.5507Z" fill="#FCB040"/>
<path d="M75.8921 62.6451C75.8212 62.4309 75.7503 62.2405 75.632 62.0263C75.4665 61.6693 75.2536 61.3361 74.9461 61.0981C74.6387 60.8601 74.2604 60.7173 73.882 60.7649C73.7875 60.7649 73.7164 60.8125 73.6455 60.8601C73.5272 60.9791 73.5273 61.1695 73.5509 61.3361C73.6455 61.8835 73.8583 62.4071 74.1893 62.8355C73.8819 62.8355 73.5746 62.8355 73.2908 62.9069C73.007 63.0021 72.7231 63.2401 72.7231 63.5495C72.7231 64.1683 73.6218 64.3111 74.0711 64.4539C74.4968 64.5967 74.9461 64.7633 75.3955 64.7633C75.7265 64.7633 76.1522 64.5967 76.1522 64.2159C76.1522 63.6685 76.0576 63.1211 75.8685 62.5975L75.8921 62.6451Z" fill="#F4802A"/>
<path d="M82.9116 47.3892C82.9116 47.3892 82.8171 47.294 82.7462 47.2464C82.3441 46.9608 81.7529 47.056 81.3508 47.3178C80.9252 47.5796 80.6414 48.008 80.3576 48.4126C80.4049 47.889 80.4522 47.3654 80.3103 46.8894C80.1448 46.3896 79.7427 45.9612 79.2224 45.9374C78.7258 45.9374 78.2765 46.3182 78.0873 46.7942C77.8981 47.2702 77.8981 47.77 77.8981 48.2936C77.9454 47.77 77.4252 47.3178 76.9049 47.3654C76.3846 47.413 75.9589 47.8414 75.817 48.3412C75.6278 49.0314 75.888 49.9834 76.0299 50.6736C76.2427 51.6494 76.5502 52.5776 76.9522 53.482C77.4015 54.5054 77.9927 55.4812 78.6785 56.3856C78.7968 56.5284 79.0333 56.576 79.1989 56.5284C79.2225 56.5284 79.2698 56.5284 79.3408 56.4808C79.5063 56.4808 79.6955 56.4808 79.7664 56.3856C80.1448 55.9572 80.2156 55.4336 80.4048 54.9576C80.665 54.3626 81.0906 53.839 81.4217 53.2678C82.1312 52.054 82.6751 50.7212 83.0535 49.3646C83.2427 48.6982 83.3137 47.8652 82.8644 47.3892H82.9116Z" fill="#FCB040"/>
<path d="M80.5942 49.1483C80.5469 49.0055 80.4996 48.8627 80.4286 48.7437C79.8374 47.5299 78.797 47.6965 78.4422 49.2673C78.3476 49.6957 78.253 50.1717 78.253 50.6001C78.0402 50.3621 77.7563 50.1003 77.4489 50.1955C77.1178 50.2907 77.0232 50.7429 77.0469 51.0761C77.0942 52.1947 77.4962 53.2419 77.9219 54.2891C78.1584 54.8841 78.3949 55.4791 78.7497 56.0027C78.8443 56.1455 78.9861 56.2883 79.1517 56.3121C79.1517 56.3121 79.1989 56.3121 79.2225 56.3121C79.3171 56.3597 79.4118 56.3597 79.5536 56.2645C79.7192 56.2883 79.8847 56.2645 79.9556 56.0979C80.4996 54.9555 80.8306 52.7183 80.8543 51.2189C80.8543 50.5049 80.807 49.7671 80.5942 49.1483Z" fill="#F4802A"/>
<path d="M85.2318 69.9979C83.9074 67.4513 82.323 65.0475 80.5257 62.8341C80.2892 62.5485 80.0527 62.2391 79.7926 61.9535C79.8399 61.9297 79.8635 61.8821 79.8635 61.8345C79.8635 60.2637 79.8635 58.6929 79.7926 57.1221C79.7926 57.1935 80.1709 56.8127 80.1946 56.7651C80.3128 56.6223 80.4547 56.4795 80.5729 56.3129C80.833 55.9797 80.9986 55.5751 81.0459 55.1467C81.0696 54.9563 81.0695 54.7421 80.9986 54.5517C80.8094 54.1947 80.4546 54.2185 80.2655 54.5279C80.0763 54.8373 79.9581 55.0753 79.627 55.2895C79.5088 55.3847 79.3433 55.4561 79.2014 55.3847C79.1304 55.3609 79.0831 55.3133 79.0358 55.2657C78.7284 54.9801 78.1845 54.1709 77.7115 54.6231C77.5223 54.7897 77.5696 55.1229 77.6642 55.3609C77.8297 55.8131 78.0899 56.2653 78.4209 56.6223C78.5392 56.7413 78.752 56.8365 78.8466 56.9793C78.9885 57.1459 78.9411 57.4553 78.9411 57.6933C78.9648 58.8119 78.9885 59.9305 78.9885 61.0491C77.5932 59.5021 76.0796 58.0503 74.4952 56.7413C74.1878 56.4795 73.8804 56.2415 73.573 56.0035C73.4784 55.9321 73.1473 55.7655 73.1 55.6227C73.0763 55.5275 73.1945 55.3133 73.1945 55.2181C73.3128 54.5279 73.1 53.7901 72.698 53.2427C72.6034 53.0999 72.4614 52.9809 72.2959 52.9571C71.7047 52.9095 71.7993 53.6949 71.8939 54.0281C72.0358 54.5993 72.0357 55.1229 71.3735 55.2895C71.0188 55.3847 70.5932 55.2895 70.2858 55.4085C69.9074 55.5751 69.5526 56.0987 70.0492 56.3605C70.1911 56.4319 70.3567 56.4557 70.5222 56.4557C71.1844 56.4795 71.9411 56.3843 72.5796 56.1701C72.6269 56.1701 72.6507 56.1463 72.698 56.1225C74.046 57.1697 75.3465 58.2883 76.5526 59.5021C78.5627 61.4775 80.3838 63.6671 81.9682 66.0233C82.0865 66.1899 82.2046 66.3803 82.3229 66.5469C81.1168 66.4041 79.9344 65.9995 78.8229 65.5235C78.5391 65.4045 78.2554 65.2617 77.9953 65.1189C77.7824 64.9999 77.333 64.8809 77.1675 64.6905C77.0256 64.5239 77.0966 64.4287 77.0493 64.1907C77.002 63.8813 76.8837 63.5481 76.7418 63.2625C76.5763 62.8579 76.2688 62.5009 75.8432 62.4295C75.7013 62.4057 75.5358 62.4295 75.4412 62.5247C75.4412 62.6913 75.323 62.8341 75.3466 63.0245C75.3703 63.2149 75.4884 63.4053 75.5357 63.5957C75.583 63.7385 75.6067 63.9051 75.5594 64.0479C75.5121 64.1907 75.3938 64.2859 75.252 64.3335C74.9918 64.4525 74.8027 64.4525 74.5662 64.6191C74.4716 64.6905 74.377 64.7857 74.3061 64.9047C74.2588 65.0237 74.2587 65.1665 74.3296 65.2617C74.4479 65.4045 74.6371 65.4045 74.8263 65.3807C75.181 65.3569 75.5121 65.3093 75.8668 65.2379C76.0087 65.2379 76.6236 64.9999 76.7418 65.0475C78.5864 66.0233 80.5019 66.7849 82.6067 66.9753C83.2452 67.9749 83.8364 69.0221 84.404 70.0693C84.5459 70.3311 85.3737 70.2359 85.2318 69.9503V69.9979Z" fill="#5EADB5"/>
<path d="M107.063 58.9092C106.803 58.576 106.378 58.4332 105.952 58.4094C105.077 58.3856 104.32 58.8616 103.682 59.4328C103.871 58.933 104.06 58.4094 104.226 57.8858C104.651 56.553 104.982 55.2202 105.172 53.8398C105.219 53.5542 104.32 53.5066 104.273 53.8398C103.918 56.2674 103.161 58.6236 102.168 60.8608C101.695 61.908 101.199 62.9789 100.655 64.0023C100.465 62.2887 100.182 60.5989 99.756 58.9329C99.685 58.5997 98.7865 58.6473 98.8574 58.9329C99.3777 61.0511 99.7324 63.2169 99.8743 65.4065C99.5196 66.0253 99.1176 66.6442 98.7156 67.2154C98.3135 67.8104 97.8641 68.3816 97.3911 68.9052C97.6039 68.0246 97.7458 67.144 97.8404 66.2634C97.9587 65.24 98.1715 63.812 97.2729 63.0504C96.8945 62.741 96.3979 62.5982 95.9486 62.6934C95.4756 62.7886 95.1682 63.1218 94.979 63.5502C94.7662 64.05 94.6715 64.6449 94.6006 65.1923C94.5296 65.7873 94.5296 66.3824 94.6006 66.9536C94.6715 67.5962 94.8134 68.2626 95.0499 68.8576C95.2627 69.4526 95.5466 70.0952 96.0433 70.5236C96.1378 70.595 96.3033 70.6188 96.4216 70.5712C96.4689 70.5712 96.5398 70.4997 96.5635 70.4521C96.7053 70.4521 96.8473 70.4283 96.9419 70.3331C97.4385 69.9047 97.8878 69.4525 98.3134 68.9765C98.6918 68.8813 99.0938 68.9052 99.4722 68.9528C99.9452 69.0004 100.418 69.048 100.868 69.0004C101.388 68.9528 101.884 68.81 102.381 68.6196C102.807 68.453 103.232 68.2626 103.564 67.977C103.895 67.6914 104.155 67.2868 104.107 66.8346C104.06 66.4776 103.847 66.1919 103.54 66.0015C102.807 65.5493 101.837 65.6921 101.08 66.0015C100.702 66.1443 100.347 66.3586 100.016 66.6204C100.229 66.2872 100.442 65.9301 100.655 65.5731C100.726 65.5255 100.749 65.4779 100.749 65.4065C100.891 65.1685 101.033 64.9306 101.151 64.6926C101.624 63.8358 102.074 62.979 102.499 62.0984C103.398 61.8842 104.297 61.67 105.172 61.3844C105.905 61.1464 106.709 60.7418 107.087 60.0278C107.276 59.647 107.3 59.2185 107.016 58.8615L107.063 58.9092Z" fill="#4C6880"/>
<path d="M102.878 67.4059C102.878 67.4059 102.594 67.3345 102.499 67.3583C101.435 67.7153 100.347 68.0247 99.2593 68.2865C99.1647 68.2865 99.0701 68.3817 99.1647 68.4769C99.2592 68.5721 99.4249 68.5483 99.5431 68.5245C100.631 68.2627 101.719 67.9295 102.783 67.5963C102.878 67.5725 102.972 67.5011 102.878 67.4059Z" fill="#4C6880"/>
<path d="M101.437 58.386C101.248 58.386 101.035 58.3384 100.846 58.3146C101.248 58.029 101.579 57.6482 101.862 57.2436C101.957 57.1246 102.028 56.958 101.957 56.8152C101.91 56.72 101.791 56.6962 101.697 56.6724C101.342 56.6248 100.987 56.7676 100.68 56.958C100.373 57.1484 100.089 57.3626 99.7577 57.5292C99.9705 57.1484 100.113 56.72 100.183 56.2916C100.231 56.0298 100.231 55.6966 100.018 55.5538C99.876 55.4586 99.7105 55.4586 99.5686 55.5538C99.4267 55.6252 99.3084 55.7442 99.1901 55.8632C98.7881 56.3392 98.5753 56.958 98.5989 57.5768C98.5516 57.0056 98.3625 56.4582 98.055 55.9822C98.0077 55.9108 97.9604 55.8394 97.8895 55.7918C97.7476 55.6966 97.5347 55.7204 97.3928 55.8156C97.2509 55.9108 97.1563 56.0774 97.109 56.2678C96.9198 56.839 97.0381 57.5292 97.4402 57.9814C97.2273 57.8624 96.9435 57.8624 96.707 57.9338C96.4706 58.0052 96.2578 58.1242 96.045 58.267C95.9267 58.3384 95.8085 58.4336 95.7612 58.5526C95.7139 58.6954 95.7847 58.8858 95.9266 58.981C96.0448 59.0762 96.2104 59.1238 96.3759 59.1476C96.7307 59.219 97.1091 59.2428 97.4875 59.219C97.3456 59.5284 96.9909 59.695 96.7781 59.9568C96.5652 60.1948 96.4942 60.5518 96.5652 60.8612C96.5652 60.9088 96.5889 60.9564 96.6125 60.9802C96.6835 61.0516 96.8017 61.004 96.8726 60.9802C97.3692 60.7422 97.8423 60.4566 98.2679 60.0996C98.1497 60.5518 98.1732 61.0278 98.3151 61.48C98.3624 61.6466 98.457 61.837 98.5752 61.956C98.6935 62.0988 98.8827 62.194 99.0482 62.194C99.1192 62.194 99.1902 62.194 99.2375 62.1464C99.3321 62.0988 99.3794 62.0036 99.4267 61.8846C99.5449 61.599 99.5923 61.3372 99.5923 61.0278C99.5923 60.8374 99.6869 60.409 99.5923 60.2424C99.7814 60.5994 100.018 60.9088 100.278 61.1944C100.42 61.3372 100.562 61.48 100.727 61.5514C100.893 61.6228 101.129 61.6228 101.271 61.5276C101.389 61.4324 101.46 61.2658 101.508 61.123C101.626 60.5756 101.413 59.9806 100.987 59.6236C101.484 59.7188 102.028 59.4332 102.241 58.9572C102.265 58.8858 102.288 58.8382 102.288 58.7668C102.288 58.5526 102.004 58.4574 101.768 58.4336C101.65 58.4336 101.531 58.4098 101.437 58.386Z" fill="#FCB040"/>
<path d="M107.109 52.839C107.393 52.5534 107.653 52.3868 107.558 51.9822C107.487 51.6014 107.227 51.4348 106.848 51.5776C106.305 51.768 106.115 52.2202 105.713 52.5534C105.879 52.1964 105.926 51.768 105.808 51.3872C105.784 51.3158 105.737 51.2206 105.69 51.173C105.571 51.1016 105.406 51.173 105.288 51.292C104.98 51.5776 104.744 51.9584 104.626 52.363C104.697 52.1012 104.034 51.6014 103.869 51.53C103.656 51.4348 103.419 51.3872 103.207 51.3872C103.088 51.3872 102.947 51.3872 102.852 51.4586C102.71 51.5538 102.686 51.7442 102.734 51.9108C102.781 52.0774 102.899 52.1964 102.994 52.3154C103.183 52.5296 103.372 52.7438 103.561 52.9342C103.561 52.9342 103.561 52.9342 103.585 52.958C103.656 53.0294 103.703 53.077 103.774 53.1484C103.561 53.1246 103.349 53.1246 103.136 53.077C103.018 53.0532 102.923 52.958 102.805 52.9342C102.568 52.8866 102.332 53.0056 102.237 53.2436C102.119 53.6244 102.426 54.2194 102.805 54.2908C103.088 54.3384 103.396 54.267 103.703 54.2908C103.443 54.4336 103.183 54.6002 102.97 54.8382C102.781 55.0762 102.639 55.3856 102.734 55.6712C102.734 55.7426 102.781 55.814 102.828 55.8378C102.97 55.9568 103.159 55.8854 103.301 55.7902C103.609 55.6236 103.892 55.3856 104.129 55.1476C104.058 55.4808 104.058 55.8378 104.129 56.1472C104.2 56.4328 104.413 56.766 104.72 56.7184C104.862 56.7184 104.957 56.6232 105.075 56.528C105.43 56.171 105.642 55.6712 105.595 55.1476C105.761 55.457 106.021 55.7188 106.328 55.8854C106.541 56.0044 106.825 56.052 106.991 55.8854C107.085 55.7902 107.109 55.6474 107.132 55.5046C107.18 55.0286 106.99 54.5526 106.636 54.2194C106.896 54.3146 107.18 54.3622 107.44 54.2432C107.7 54.148 107.913 53.8862 107.913 53.6006C107.913 53.5054 107.913 53.3864 107.818 53.315C107.771 53.2674 107.7 53.2436 107.629 53.2198C107.298 53.1246 106.943 53.1008 106.612 53.1484C106.754 53.0294 106.919 52.9104 107.038 52.7676L107.109 52.839Z" fill="#FCB040"/>
<path d="M99.9691 58.8833C99.9691 58.8833 99.8745 58.7167 99.7799 58.6453C99.6853 58.5739 99.5907 58.5501 99.4961 58.5263H99.4489C99.2124 58.4549 98.9287 58.4073 98.7158 58.5739C98.503 58.7405 98.4792 59.1689 98.6211 59.3831C98.8103 59.6925 99.2361 59.7877 99.5671 59.6925C99.8982 59.5973 100.064 59.1927 99.9455 58.8833H99.9691Z" fill="white"/>
<path d="M105.693 53.6972C105.669 53.5782 105.598 53.4592 105.503 53.364C105.409 53.2926 105.314 53.245 105.196 53.2212C105.03 53.1736 104.818 53.1736 104.652 53.2212C104.51 53.2688 104.392 53.3402 104.345 53.4592C104.321 53.5068 104.297 53.5544 104.297 53.6258C104.297 53.6734 104.297 53.6972 104.297 53.7448C104.297 53.84 104.297 53.9352 104.345 54.0304C104.368 54.1494 104.439 54.2684 104.534 54.3398C104.699 54.4826 104.912 54.5302 105.101 54.5302C105.314 54.5302 105.551 54.4588 105.693 54.2684C105.74 54.1732 105.764 54.078 105.787 53.959C105.787 53.8638 105.787 53.7686 105.787 53.6972H105.693Z" fill="white"/>
<path d="M89.1373 65.6676C89.161 65.382 89.1374 65.0964 89.0901 64.8346C89.0428 64.6204 88.9245 64.4062 88.759 64.311C88.4279 64.1206 87.9785 64.311 87.6711 64.549C87.2218 64.906 86.867 65.382 86.6306 65.9056C86.4414 66.3578 86.2522 67.0242 86.3468 67.524C86.2049 66.7862 85.9684 66.0722 85.7556 65.3582C85.6373 64.9774 85.4482 64.549 85.4009 64.1682C85.3536 63.8112 85.5901 63.478 85.7792 63.1924C86.2995 62.4308 87.0799 61.6216 87.2691 60.6934C87.3637 60.2412 87.2691 59.7176 86.9143 59.4082C86.5123 59.075 85.8739 59.1464 85.4955 59.5034C85.2826 59.7176 85.1407 60.027 85.0461 60.3126C84.8097 60.979 84.7151 61.693 84.7387 62.407C84.5495 61.8834 84.4076 61.3598 84.1712 60.86C84.1475 60.7886 84.1003 60.7172 84.0766 60.6458C84.1239 60.5982 84.1476 60.5268 84.0766 60.4792C84.0293 60.4316 83.9819 60.4078 83.9583 60.3602C84.4549 59.7176 84.2893 58.4086 84.1001 57.647C83.911 56.9092 83.4853 56.1714 82.8232 55.8382C82.1374 55.4812 81.2151 55.6002 80.7657 56.219C80.1036 57.0996 80.6948 58.1468 81.357 58.837C81.9482 59.4558 82.5867 60.0032 83.2725 60.5268C83.438 60.6696 83.5562 61.1456 83.6508 61.336C83.7691 61.6216 83.911 61.9072 84.0529 62.169C83.3908 61.6454 82.5395 61.4312 81.7117 61.336C81.0969 61.2646 80.4347 61.2646 79.8908 61.5502C79.7962 61.5978 79.6779 61.6692 79.607 61.7644C79.5124 61.9072 79.4888 62.0738 79.4888 62.2404C79.5361 62.5498 79.7015 62.8592 79.9853 63.0258C80.1981 63.1686 80.4819 63.2162 80.7421 63.2638C81.4042 63.3828 82.09 63.4304 82.7758 63.4066C83.367 63.4066 83.911 63.5018 84.4786 63.5732C84.5968 63.5732 84.9278 65.0012 84.9751 65.1678C85.117 65.6676 85.2117 66.1674 85.3536 66.6672C84.7387 66.0008 83.9346 65.501 83.0596 65.2154C82.6103 65.0726 82.0664 65.025 81.7589 65.3582C81.4752 65.6676 81.5225 66.1674 81.6881 66.5482C82.0428 67.286 82.8232 67.7144 83.6036 67.9524C84.2185 68.1428 84.8806 68.2618 85.4718 68.4998C85.7556 68.6188 85.8265 68.6664 85.8738 68.952C85.9447 69.309 86.0157 69.6898 86.0867 70.0468C86.134 70.3086 86.8434 70.2848 86.8198 70.0468C86.7488 69.6898 86.7015 69.3566 86.6306 69.0234C87.411 68.2856 88.286 67.4764 88.8299 66.5482C88.9718 66.2864 89.0665 66.0008 89.0901 65.7152L89.1373 65.6676Z" fill="#4C6880"/>
<path d="M135.508 236.217C134.515 230.862 133.522 225.507 132.055 220.295C129.714 211.941 125.978 204.587 122.028 196.971C121.91 196.757 121.532 196.709 121.201 196.757C118.505 195.829 115.691 195.376 112.853 195.186C107.059 194.781 101.194 195.186 95.4 195.353C94.5959 195.353 93.7918 195.4 92.9877 195.4C87.2884 195.257 81.5418 194.877 75.8661 195.257C73.0283 195.448 70.2142 195.9 67.5183 196.828C67.1872 196.781 66.8087 196.828 66.6905 197.042C62.7411 204.658 59.0047 211.989 56.6635 220.366C55.2209 225.579 54.204 230.91 53.2344 236.217H135.484H135.508Z" fill="#CAE8D5"/>
<path d="M69.0781 203.515C67.4227 207.395 65.9565 211.346 64.7267 215.368C63.4733 219.366 62.4329 223.436 61.6052 227.553C61.1323 229.862 60.7302 232.194 60.3991 234.527C60.3755 234.717 60.9667 234.741 60.9903 234.527C61.5816 230.386 62.3855 226.268 63.4024 222.222C64.4193 218.152 65.6491 214.13 67.0681 210.179C67.8721 207.966 68.7234 205.776 69.6694 203.611C69.764 203.396 69.1728 203.349 69.1018 203.539L69.0781 203.515Z" fill="#A6673E"/>
<path d="M69.3386 217.726C69.0784 219.106 68.6292 220.415 68.0379 221.701C67.9433 221.915 68.5109 221.962 68.6055 221.772C69.1967 220.487 69.646 219.13 69.9298 217.726C69.9771 217.536 69.3859 217.512 69.3386 217.726Z" fill="#A6673E"/>
<path d="M99.6528 224.267C99.5819 220.912 99.511 217.556 99.44 214.2C99.3927 212.32 99.369 210.416 99.3217 208.536C99.3217 208.321 98.7305 208.321 98.7305 208.536C98.8014 211.891 98.8724 215.247 98.9434 218.603C99.0143 221.959 99.0852 225.315 99.1561 228.67C99.2034 230.551 99.2272 232.455 99.2745 234.335C99.2745 234.549 99.8657 234.549 99.8657 234.335C99.7948 230.979 99.7237 227.623 99.6528 224.267Z" fill="#A6673E"/>
<path d="M127.987 228.432C127.136 225.457 126.238 222.506 125.244 219.554C124.251 216.627 123.21 213.7 122.099 210.82C121.46 209.201 120.822 207.583 120.16 205.988C120.089 205.798 119.498 205.846 119.592 206.06C120.775 208.916 121.91 211.796 122.974 214.699C124.038 217.603 125.031 220.53 125.954 223.481C126.474 225.147 126.971 226.813 127.444 228.479C127.491 228.67 128.082 228.622 128.011 228.408L127.987 228.432Z" fill="#A6673E"/>
<path d="M85.6082 208.039C85.0643 211.537 84.6623 215.06 84.4258 218.582C84.4258 218.796 84.9933 218.796 85.017 218.582C85.2535 215.06 85.6555 211.537 86.1994 208.039C86.2231 207.848 85.6555 207.824 85.6082 208.039Z" fill="#A6673E"/>
<path d="M113.633 224.294C113.586 224.08 112.994 224.104 113.042 224.294C113.822 227.412 114.508 230.578 115.076 233.767C115.123 233.981 115.69 233.957 115.667 233.767C115.099 230.578 114.437 227.436 113.633 224.294Z" fill="#A6673E"/>
<path d="M125.505 118.166C125.15 119.499 124.11 120.427 122.951 121.022C121.579 121.736 120.042 122.093 118.552 122.45C116.802 122.855 115.005 123.212 113.184 123.14C109.566 122.997 106.941 120.903 104.742 118.166C102.566 115.453 101.029 112.287 100.012 108.955C98.6875 104.648 98.2854 100.149 98.2854 95.6512C98.2854 93.3426 98.3801 91.0102 98.5219 88.7016C98.6402 86.7976 98.309 84.9412 98.5691 83.061C98.8293 81.0618 99.4206 79.1102 100.296 77.3014C97.174 77.468 94.0523 77.3728 90.978 76.8016C87.7145 76.1828 84.4983 75.0166 81.7078 73.2316C81.1166 72.8508 80.5253 72.4224 79.9813 71.994C79.3901 71.518 78.799 70.9944 78.3024 70.4232C78.0659 70.1376 77.853 69.852 77.6638 69.5426C77.5219 69.3046 76.8834 67.7338 76.8125 66.877H113.113C113.657 67.5434 113.965 68.5906 114.225 69.1856C115.549 72.1606 116.116 75.4212 116.471 78.6342C116.755 81.3712 116.802 84.132 116.921 86.8928C116.968 88.059 117.015 89.249 117.299 90.4152C117.819 92.5572 119.073 94.4374 120.018 96.4128C121.177 98.8166 121.863 101.387 122.265 104.029C122.62 106.385 122.502 108.646 123.329 110.859C123.637 111.669 124.062 112.43 124.441 113.192C125.221 114.715 125.978 116.452 125.505 118.214V118.166Z" fill="#020808"/>
<path d="M131.041 143.986C130.498 149.246 129.528 154.482 128.535 159.623C127.707 163.883 126.714 168.143 126.193 172.451C125.65 176.949 125.65 181.519 126.146 186.017C126.643 190.325 127.399 194.323 125.957 198.631C125.153 201.035 123.687 201.154 121.677 202.177C119.099 203.486 116.545 204.771 113.66 205.295C107.18 206.461 100.322 204.248 93.842 203.605C87.0785 202.939 80.2914 202.629 73.5042 202.701C71.6123 202.701 69.6968 202.772 67.8758 202.201C65.3691 201.439 63.43 199.297 63.2408 196.632C63.0753 194.228 63.8082 191.777 63.9974 189.397C64.2103 186.755 64.2103 184.042 63.5718 181.447C62.6258 177.592 61.8691 173.665 60.9705 169.809C59.386 163.002 58.4401 155.91 57.1157 149.032C56.761 147.175 56.8083 145.557 57.234 144.034C57.0211 140.369 56.9739 136.68 57.1631 132.991C57.3286 129.492 57.4941 125.827 58.3927 122.423C59.5988 117.854 62.7913 116.14 67.2373 115.355C69.1292 115.022 71.0684 114.855 72.9367 114.45C73.7171 114.284 74.4738 114.093 75.2305 113.832C75.2542 113.832 75.3016 113.832 75.3252 113.808C75.4435 113.76 75.5616 113.713 75.7035 113.665C77.3589 113.022 78.8961 112.142 80.5988 111.618C82.7036 110.976 84.7846 110.381 86.9366 109.952C91.1698 109.143 95.4974 108.881 99.7778 109.191C101.835 109.333 103.94 109.643 105.785 110.642C108.055 111.88 110.349 112.903 112.808 113.57C113.825 113.855 114.842 114.07 115.906 114.212C115.977 114.212 116.048 114.212 116.119 114.236C119.217 114.641 122.67 113.974 125.508 115.617C128.014 117.045 129.457 119.686 130.19 122.423C131.089 125.827 131.254 129.492 131.42 132.991C131.585 136.632 131.42 140.321 131.041 144.01V143.986Z" fill="#6A8EA8"/>
<path d="M115.927 114.189C115.501 115.45 114.91 116.664 114.295 117.687C109.896 125.232 104.386 131.801 97.93 137.608C97.055 138.393 96.3928 139.75 95.0448 139.631C93.8151 139.512 92.751 137.965 91.8996 137.203C88.1631 133.919 84.8049 130.23 81.7306 126.327C79.9806 124.089 78.3488 121.733 76.6934 119.401C75.9603 118.354 74.2577 116.402 72.957 114.45C73.7374 114.284 74.4941 114.093 75.2509 113.832C75.2745 113.832 75.3219 113.832 75.3456 113.808C75.4638 113.76 75.582 113.713 75.7239 113.665C77.3793 113.022 78.9165 112.142 80.6192 111.618C82.7239 110.976 84.805 110.381 86.957 109.952C91.1901 109.143 95.5178 108.881 99.7982 109.191C101.856 109.333 103.96 109.643 105.805 110.642C108.075 111.88 110.369 112.903 112.829 113.57C113.846 113.855 114.862 114.07 115.927 114.212V114.189Z" fill="white"/>
<path d="M112.831 113.548C112.831 113.548 112.831 113.691 112.807 113.739C112.547 115.452 111.766 117.19 110.986 118.57C107.32 124.877 102.709 130.351 97.3171 135.206C96.584 135.849 96.04 136.991 94.9049 136.896C93.888 136.801 92.9894 135.492 92.2799 134.873C89.1583 132.136 86.3441 129.066 83.79 125.782C82.3238 123.901 80.9522 121.95 79.5806 119.998C78.7056 118.761 76.1515 115.952 75.3711 113.786C75.4893 113.739 75.6077 113.691 75.7496 113.644C77.405 113.001 78.9421 112.12 80.6448 111.597C82.7496 110.954 84.8306 110.359 86.9827 109.931C91.2158 109.122 95.5435 108.86 99.8239 109.169C101.881 109.312 103.986 109.621 105.831 110.621C108.101 111.859 110.395 112.882 112.854 113.548H112.831Z" fill="#FFA87D"/>
<path d="M41.1701 154.414C41.1228 153.986 41.0282 153.558 40.91 153.153C40.6735 152.272 40.3187 151.439 39.964 150.606C39.6329 149.773 39.2781 148.917 38.8998 148.107C38.5687 147.441 38.1193 146.822 37.3862 146.584C36.7241 146.37 35.9673 146.513 35.518 147.108C35.0687 147.727 35.0687 148.583 35.2343 149.274C35.4471 150.083 35.8964 150.797 36.5349 151.32C36.6058 151.368 36.6769 151.392 36.7715 151.392C37.5755 152.606 38.4505 153.772 39.3728 154.914C39.6093 155.2 39.822 155.557 40.2004 155.652C40.5078 155.723 40.8627 155.652 41.0282 155.366C41.1937 155.081 41.17 154.724 41.1227 154.414H41.1701Z" fill="#354E60"/>
<path d="M25.1129 151.248C26.4609 151.605 27.8325 151.891 29.2515 152.081C32.0656 152.415 34.8799 152.51 37.694 152.462C39.1366 152.462 41.1941 152.438 42.4711 151.629C43.559 150.939 43.6299 149.416 43.488 148.273C43.3225 146.964 42.9915 145.703 42.684 144.418C41.9509 141.609 41.2178 138.777 40.1299 136.088C39.7279 135.112 39.2786 134.16 38.6874 133.303C37.8124 132.066 36.63 131.114 35.4475 130.162C34.6671 129.519 33.8631 128.876 32.9171 128.472C30.8124 127.591 28.7076 128.781 26.6975 129.519C22.2279 131.209 17.8292 133.16 13.9035 135.874C12.6265 136.754 11.4204 137.706 10.2143 138.658C9.19743 139.467 7.77861 140.491 7.35293 141.8C6.80901 143.537 8.93735 144.918 10.1198 145.703C11.8698 146.893 13.8089 147.821 15.7954 148.583C17.6873 149.297 19.6266 149.654 21.5421 150.225C22.7482 150.582 23.9305 150.939 25.1129 151.248Z" fill="#EDAF8C"/>
<path d="M69.7131 115.855C64.2975 114.975 59.0712 116.95 54.1995 119.14C49.0678 121.448 43.9124 123.495 38.4023 124.78C36.4631 125.232 34.5001 125.613 32.5136 125.899C31.4967 126.042 30.5036 126.184 29.4867 126.28C27.9732 126.446 27.713 127.398 28.2806 128.707C28.99 130.302 29.936 131.777 30.8583 133.253C32.632 136.109 34.382 138.989 36.0137 141.94C37.5745 144.772 39.3481 147.795 40.2468 150.913C40.4833 151.769 40.6488 152.65 40.6961 153.531C40.7434 154.126 40.7197 154.721 40.5306 155.268C40.4833 155.387 40.436 155.53 40.436 155.649C40.4833 155.887 44.8583 155.268 45.3313 155.244C47.1759 155.101 49.0441 155.006 50.8887 154.792C55.0745 154.34 59.1421 153.221 62.6185 150.722C65.5036 148.652 67.1826 145.819 68.0339 142.392C69.0035 138.441 69.5001 134.324 69.7603 130.278C70.0677 125.685 69.9968 121.067 69.5475 116.498C70.0914 116.474 70.5171 115.95 69.7131 115.831V115.855Z" fill="#6A8EA8"/>
<path d="M42.8285 152.889C42.7339 151.509 42.3319 150.128 41.9299 148.795C41.1022 145.939 39.7778 143.488 38.2879 140.941C35.4501 136.015 31.9028 131.469 29.467 126.328C28.0008 126.495 27.717 127.447 28.3082 128.756C29.0177 130.35 29.9636 131.826 30.8859 133.302C32.6595 136.158 34.4096 139.037 36.0414 141.989C37.6022 144.821 39.3758 147.843 40.2744 150.961C40.5109 151.818 40.6765 152.699 40.7238 153.579C40.7711 154.174 40.7474 154.769 40.5582 155.317C40.5109 155.436 40.4637 155.578 40.4637 155.697C40.4637 155.816 41.646 155.697 42.8521 155.578C42.8757 154.674 42.8994 153.793 42.8521 152.889H42.8285Z" fill="white"/>
<path d="M39.3501 86.7509C39.3501 86.7509 39.3501 86.7509 39.3501 86.7271C39.1136 85.4895 37.6 84.3947 36.5122 83.8235C36.2521 83.6569 35.9683 83.5379 35.6846 83.4189C34.8569 83.1095 34.0765 83.0381 33.3197 83.1333C32.9886 83.1333 32.6576 83.2047 32.3265 83.2761C30.0562 83.7759 28.6609 85.5133 27.6913 87.4887C26.2724 90.3685 24.286 93.0341 22.7251 95.8663C21.117 98.7699 19.6271 101.721 18.2082 104.72C16.7893 107.719 15.4886 110.765 14.2826 113.835C13.1001 116.834 12.2015 119.785 11.3502 122.879C9.76569 128.591 7.32981 134.184 7.14062 140.206C7.14062 140.991 7.14069 141.776 7.35353 142.514C7.85015 144.18 9.36366 145.442 11.0427 145.894C12.7218 146.346 14.519 146.132 16.1508 145.561C17.1676 145.204 18.1608 144.728 19.0595 144.133C19.9108 143.561 20.6441 142.657 21.5427 142.205C22.4177 141.776 23.2217 141.705 24.0258 140.991C24.8535 140.253 25.4683 139.301 26.0595 138.373C27.1237 136.707 28.188 135.041 28.9211 133.208C29.4886 131.78 29.8197 130.257 30.1035 128.758C31.8299 119.738 31.1676 110.432 33.8399 101.554C34.9041 98.0559 36.5832 94.8191 38.144 91.5347C38.8061 90.1305 39.6102 88.3931 39.3264 86.7985L39.3501 86.7509Z" fill="#EDAF8C"/>
<path d="M60.6787 81.3468C60.0638 81.0374 59.2597 81.0136 58.5739 80.966C57.8171 80.8946 57.0604 81.2992 56.3983 80.7518C56.1618 80.5376 55.9726 80.2758 55.8307 79.9902C54.8848 78.3242 54.0806 76.5392 52.7563 75.1588C52.5907 74.9922 52.4488 74.8018 52.307 74.5876C52.236 74.4924 53.9861 72.4218 54.1516 72.1838C54.7665 71.3032 55.3814 70.4226 55.9489 69.5182C57.0604 67.7332 57.959 65.8292 58.9759 63.9966C59.3543 63.3302 59.7091 62.64 59.8037 61.8784C59.8746 61.3072 59.7327 60.7122 59.3307 60.3076C58.5976 59.5936 57.7698 60.141 57.3441 60.8312C55.1921 64.2584 52.378 67.2096 49.5874 70.1608C48.807 70.97 48.0265 71.7792 47.1279 72.4456C46.8441 72.1838 46.5131 71.9458 46.1584 71.7792C45.4489 71.446 44.5976 71.4936 43.8408 71.7316C43.0841 71.9696 42.4218 72.4218 41.8069 72.9216C41.7124 72.993 41.6414 73.0644 41.5232 73.0882C41.3813 73.1358 41.2394 73.0882 41.0975 73.0882C40.2462 72.9216 39.3239 72.993 38.5199 73.35C37.7395 73.6832 37.172 74.54 36.628 75.1826C35.3983 76.6106 34.2867 78.11 33.2461 79.6808C32.5367 80.7756 31.8746 81.8942 31.2597 83.0366C30.976 83.5602 30.7868 83.941 30.4084 84.3694C29.6044 85.2976 29.628 86.7732 30.1955 87.8442C30.4793 88.3916 30.9049 88.8438 31.3306 89.296C31.9455 89.9386 32.6076 90.605 33.388 91.0334C34.4522 91.5808 35.682 91.6284 36.8408 91.438C37.9523 91.2476 38.9455 90.7478 40.0806 90.724C42.1617 90.724 44.2192 90.2242 46.182 89.5578C47.1989 89.2008 48.1922 88.82 49.1618 88.3916C49.6348 88.2012 50.1787 88.0346 50.628 87.749C50.8881 87.5824 51.1956 87.1302 51.5503 87.2254C51.6686 87.2492 51.7867 87.3682 51.8813 87.4634C52.1414 87.7252 52.3779 87.987 52.6381 88.2488C53.4185 89.058 54.6009 89.772 55.7124 89.058C56.0907 88.7962 56.1144 88.5344 56.1854 88.1298C56.1854 88.0822 56.1854 88.0346 56.2327 88.0108C56.3037 87.9632 56.3982 88.0108 56.4928 88.0822C56.682 88.225 56.8949 88.2964 57.1314 88.3202C57.7226 88.3202 58.2192 87.8442 58.4083 87.273C58.5739 86.7018 58.4793 86.083 58.2901 85.5356C58.2192 85.3452 58.1483 85.131 58.1719 84.9168C58.2429 84.3932 59.6144 84.2266 60.0401 84.1076C60.3712 84.0124 60.6787 83.8934 60.9624 83.7268C61.2462 83.5364 61.4827 83.2746 61.5537 82.9414C61.601 82.6796 61.5537 82.394 61.4118 82.156C61.2226 81.7752 60.9624 81.5372 60.6313 81.3944L60.6787 81.3468Z" fill="#EDAF8C"/>
<path d="M51.5979 86.9625C51.1959 86.5103 50.8175 86.0342 50.4865 85.5344C50.4628 85.4868 50.4155 85.4631 50.3683 85.4393C50.5101 85.2489 50.6047 85.0109 50.581 84.7015C50.581 84.2493 50.3445 83.8685 50.1317 83.4877C49.8952 83.0593 49.6587 82.6309 49.4222 82.2263C48.9729 81.4171 48.5237 80.5603 48.0034 79.7749C47.4358 78.9181 46.7026 78.2754 45.9458 77.5852C45.1654 76.8712 44.4088 76.1335 43.723 75.3481C43.6047 75.2053 43.0371 75.3005 43.2026 75.4909C43.7702 76.1573 44.3851 76.776 45.0236 77.371C45.6385 77.9422 46.3006 78.4659 46.8682 79.1085C47.4357 79.7511 47.8378 80.5127 48.2635 81.2505C48.7128 82.0359 49.1622 82.8451 49.6115 83.6305C49.8243 83.9875 50.0135 84.3683 50.0135 84.7967C50.0135 85.1775 49.777 85.5345 49.3986 85.6297C49.0202 85.7249 48.6181 85.5345 48.3107 85.3679C47.9796 85.2013 47.6486 85.0108 47.3412 84.7729C46.0878 83.8684 45.1655 82.6547 44.1013 81.5599C43.8175 81.2505 43.4865 80.9649 43.1318 80.7507C42.7297 80.5365 42.3041 80.3699 41.9493 80.1081C41.2162 79.5369 40.6722 78.7515 40.2466 77.9185C40.152 77.7281 39.5844 77.7995 39.679 77.9899C40.0574 78.7277 40.5541 79.4654 41.1926 80.0128C41.1926 80.0128 41.1452 80.0129 41.1215 80.0367C40.6249 80.3699 40.081 80.5365 39.4898 80.5841C39.4188 80.5841 39.2297 80.6554 39.277 80.7744C39.3243 80.8934 39.5371 80.8935 39.6317 80.8697C40.2702 80.8221 40.9324 80.6079 41.4763 80.2509C41.7365 80.4413 41.9965 80.5841 42.2803 80.7031C42.6823 80.8935 43.0371 81.1076 43.3445 81.417C43.9357 81.9882 44.4561 82.6547 45.0236 83.2497C45.5676 83.8447 46.1588 84.4158 46.821 84.8918C47.4595 85.3678 48.2399 85.8201 49.0439 85.8915C49.3987 85.9153 49.7534 85.8439 50.0608 85.6773C50.3919 86.1533 50.7465 86.6055 51.1249 87.0577C51.1722 87.1053 51.2431 87.1291 51.2904 87.1291C51.3614 87.1291 51.4561 87.1291 51.527 87.1291C51.6216 87.1053 51.7162 87.0339 51.6216 86.9149L51.5979 86.9625Z" fill="#E26E61"/>
<path d="M56.6109 87.701C56.4454 87.225 56.1853 86.7966 55.9252 86.3682C55.6414 85.8922 55.3576 85.44 55.0739 84.964C54.5063 84.012 53.9386 83.06 53.3474 82.108C52.8271 81.2274 52.307 80.2992 51.6921 79.49C51.0536 78.657 50.2494 77.9668 49.5163 77.2528C48.6177 76.396 47.7191 75.5154 46.7968 74.6586C46.6549 74.5396 46.0873 74.6348 46.2765 74.8014C47.0805 75.563 47.861 76.3246 48.665 77.0862C49.4218 77.824 50.2495 78.5142 50.9117 79.3234C51.5738 80.1088 52.0705 81.037 52.5908 81.9176C53.1583 82.8458 53.7258 83.7978 54.2934 84.726C54.6008 85.2496 54.932 85.7732 55.2394 86.3206C55.5232 86.7966 55.8305 87.2726 56.0197 87.7962C56.0907 87.9866 56.6582 87.939 56.5873 87.7248L56.6109 87.701Z" fill="#E26E61"/>
<path d="M58.4092 84.5609C58.1491 83.9421 57.8889 83.2995 57.6288 82.6807C57.4869 82.3475 57.345 82.0381 57.2031 81.7049C57.0849 81.4193 56.9903 81.1575 56.7538 80.9671C56.7065 80.9195 56.6355 80.8957 56.5882 80.9195C56.5173 80.9433 56.4937 81.0147 56.4937 81.0861C56.4464 81.4193 56.5884 81.6335 56.7066 81.9191C56.8485 82.2285 56.9667 82.5141 57.1086 82.8235C57.3687 83.4185 57.6052 84.0135 57.8654 84.6085C57.9363 84.7989 58.5275 84.7513 58.4329 84.5371L58.4092 84.5609Z" fill="#E26E61"/>
<path d="M52.2625 74.4942C50.7253 73.7564 49.1171 73.209 47.5799 72.4474C47.4617 72.3998 47.2725 72.376 47.1543 72.4474C47.0597 72.495 47.036 72.614 47.1543 72.6616C48.6914 73.4232 50.2996 73.9468 51.8368 74.7084C51.9551 74.756 52.1442 74.7798 52.2625 74.7084C52.3571 74.6608 52.3807 74.5418 52.2625 74.4942Z" fill="#E26E61"/>
<path d="M39.4899 84.535C39.3007 85.844 38.8987 87.1292 38.3312 88.3192C38.0474 88.8904 37.74 89.4854 37.2906 89.9376C36.9122 90.3184 36.4629 90.5802 35.9426 90.6992C35.3751 90.842 34.7839 90.7944 34.2637 90.5564C34.1454 90.5088 33.9798 90.485 33.8379 90.5564C33.7433 90.604 33.7196 90.723 33.8379 90.7706C34.9494 91.2466 36.2737 91.1514 37.2906 90.485C37.8582 90.1042 38.2365 89.5806 38.5676 88.9856C38.9223 88.343 39.2298 87.6528 39.4663 86.9388C39.75 86.1534 39.9392 85.3204 40.0575 84.5112C40.0811 84.3208 39.4899 84.297 39.4663 84.5112L39.4899 84.535Z" fill="#E26E61"/>
<path d="M29.111 132.371C27.6212 135.275 25.9895 138.155 23.7666 140.535C23.128 141.201 22.4658 141.844 21.7563 142.415C21.6381 142.51 21.7801 142.605 21.851 142.629C21.9693 142.677 22.1584 142.653 22.253 142.582C24.8307 140.535 26.7463 137.774 28.3544 134.918C28.8037 134.109 29.253 133.276 29.6787 132.467C29.7733 132.276 29.2056 132.205 29.111 132.395V132.371Z" fill="#E26E61"/>
<path d="M155.683 118.478C155.541 117.43 155.139 116.36 154.335 115.622C153.508 114.884 152.349 114.598 151.285 114.693C150.221 114.789 149.298 115.336 148.754 116.264C148.187 117.24 148.116 118.406 148.187 119.501C148.258 120.524 148.447 121.548 148.778 122.548C149.511 124.761 150.883 126.736 152.68 128.188C152.775 128.283 152.964 128.283 153.082 128.236C153.153 128.236 153.224 128.164 153.224 128.093C154.146 127.736 154.737 126.903 155.045 125.975C155.423 124.808 155.589 123.523 155.683 122.309C155.802 121.048 155.873 119.739 155.683 118.501V118.478Z" fill="#354E60"/>
<path d="M154.07 37.5076C153.053 37.6504 152.013 38.0312 151.256 38.293C149.766 38.7928 149.104 40.2208 149.435 41.7202C150.239 45.4092 151.067 49.0744 151.493 52.811C152.297 59.832 153.077 66.853 153.668 73.9216C153.952 77.4678 154.236 81.0378 154.354 84.6078C154.449 87.2972 154.33 90.0104 154.354 92.7236C154.354 93.1758 154.354 93.6518 154.52 94.0802C154.685 94.6038 155.04 95.0322 155.442 95.3892C156.814 96.6744 158.469 97.079 160.124 97.8168C161.756 98.5546 163.222 99.1972 165.091 99.0544C166.368 98.9592 167.574 98.5546 168.78 98.1024C170.293 97.5312 172.469 96.5078 173.391 95.1036C174.408 93.5566 173.911 90.5816 173.675 88.8918C173.273 85.8454 172.753 82.799 172.091 79.8002C170.624 73.1362 168.118 66.6626 165.753 60.2604C163.341 53.7392 160.763 47.3132 158.138 40.8872C157.712 39.8876 157.594 38.6024 156.648 37.9122C155.962 37.4124 155.016 37.3648 154.047 37.5076H154.07Z" fill="#EDAF8C"/>
<path d="M161.051 85.6812C159.798 86.062 158.639 86.7522 157.669 87.6328C156.345 88.8228 155.328 90.4412 154.288 91.8692C153.2 93.3686 151.734 94.4158 150.244 95.5344C146.625 98.2 143.173 101.08 139.767 104.007C138.94 104.721 138.112 105.435 137.402 106.292C134.896 109.267 134.233 113.361 133.831 117.24C133.619 119.287 133.477 121.334 133.76 123.357C134.044 125.38 134.825 127.403 136.244 128.854C137 129.616 137.899 130.211 138.845 130.663C139.886 131.163 141.588 131.925 142.794 131.615C143.764 131.377 144.757 130.306 145.538 129.711C148.234 127.617 150.693 125.451 153.2 123.095C157.196 119.334 159.467 114.122 162.825 109.814C164.149 108.125 165.639 106.53 166.987 104.888C168.477 103.079 169.706 101.008 171.031 99.1044C172.402 97.129 174.247 94.749 173.632 92.1786C173.183 90.227 171.409 88.9418 169.73 87.8946C167.578 86.538 165.19 85.2529 162.636 85.3957C162.068 85.4195 161.524 85.5384 161.004 85.705L161.051 85.6812Z" fill="#EDAF8C"/>
<path d="M153.838 127.66C153.341 128.351 152.773 128.969 152.159 129.493C150.952 130.516 149.557 131.302 148.162 132.064C145.702 133.373 143.361 134.824 141.162 136.562C137.189 139.703 133.713 143.416 130.26 147.105C128.817 148.628 127.28 150.366 125.033 149.223C123.165 148.271 121.652 146.558 120.517 144.82C117.939 140.798 116.686 135.753 115.952 131.088C115.172 126.042 115.172 120.901 115.952 115.856C115.952 115.737 116 115.618 116.023 115.499C116.047 115.332 116.071 115.165 116.094 114.999C116.094 114.927 116.142 114.856 116.213 114.809C116.875 113 118.554 111.714 120.351 111C123.142 109.882 126.192 109.763 128.936 108.478C131.679 107.193 134.327 105.622 137 104.146C139.317 102.861 141.588 101.504 143.55 99.7431C143.692 99.6241 143.834 99.4813 143.976 99.3623C143.976 99.2433 144.118 99.1481 144.26 99.1005C144.615 98.8387 145.821 99.0529 145.395 99.4813C145.371 99.5051 145.348 99.5289 145.324 99.5527C144.946 109.216 144.875 120.996 153.507 127.327C153.79 127.375 154.027 127.518 153.885 127.708L153.838 127.66Z" fill="#6A8EA8"/>
<path d="M153.837 127.663C153.34 128.353 152.772 128.972 152.157 129.496C151.495 128.806 150.88 128.092 150.289 127.378C148.705 125.45 147.38 123.26 146.363 120.975C144.259 116.12 143.762 110.765 143.502 105.529C143.407 103.601 143.384 101.65 143.502 99.6982C143.644 99.5792 143.786 99.4364 143.928 99.3174C143.928 99.1984 144.07 99.1032 144.212 99.0556C144.566 98.7938 145.772 99.008 145.347 99.4364C145.323 99.4602 145.299 99.484 145.276 99.5078C144.897 109.171 144.826 120.952 153.458 127.282C153.742 127.33 153.978 127.473 153.837 127.663Z" fill="white"/>
<path d="M159.468 18.5646C159.232 18.2076 158.972 17.8506 158.664 17.4936C157.789 16.4226 156.891 15.3516 155.826 14.4472C154.762 13.5428 153.556 12.805 152.185 12.5194C151.522 12.3766 150.718 12.4242 150.647 13.2572C150.624 13.5428 150.695 13.8284 150.789 14.0902C150.056 13.9712 149.299 14.2092 148.779 14.7566C148.093 15.4944 148.093 16.6606 148.543 17.5174C147.691 17.7316 146.982 18.4456 146.745 19.3024C146.509 20.1592 146.745 21.135 147.36 21.7776C146.698 22.1346 146.13 22.6582 145.823 23.3484C145.279 24.586 145.87 25.776 146.934 26.49C147.502 26.8708 148.141 27.085 148.803 27.2516C148.945 27.2754 149.063 27.323 149.157 27.442C149.276 27.5848 149.252 27.8228 149.205 27.9894C148.543 30.7026 147.407 33.4158 147.691 36.2004C147.833 37.676 148.377 39.0802 148.921 40.4606C149.11 40.9366 149.299 41.4126 149.654 41.7934C149.867 42.0314 150.127 42.198 150.387 42.3884C151.239 42.9358 152.184 43.3642 153.201 43.5308C154.218 43.6974 155.282 43.5784 156.157 43.0786C156.749 42.7454 157.293 42.1266 157.718 41.6268C158.215 41.0318 158.239 40.294 158.073 39.5562C157.695 37.6998 157.505 35.8196 157.695 33.9394C157.789 33.0112 157.955 32.083 158.144 31.1548C158.262 30.536 158.38 29.8934 158.522 29.2746C158.782 27.9418 159.043 26.609 159.421 25.3238C159.752 24.1814 160.201 23.039 160.343 21.849C160.485 20.5638 160.13 19.5642 159.492 18.5884L159.468 18.5646Z" fill="#EDAF8C"/>
<path d="M152.609 22.7312C151.072 21.9934 149.393 21.6126 147.69 21.6602C147.596 21.6602 147.406 21.684 147.406 21.803C147.406 21.922 147.619 21.9458 147.69 21.9458C149.251 21.922 150.788 22.2552 152.207 22.9454C152.325 22.993 152.515 23.0168 152.633 22.9454C152.727 22.8978 152.751 22.7788 152.633 22.7312H152.609Z" fill="#E26E61"/>
<path d="M155 19.4673C153.203 18.0869 151.003 17.3253 148.733 17.2539C148.639 17.2539 148.449 17.2777 148.449 17.3967C148.449 17.5157 148.662 17.5395 148.733 17.5395C150.814 17.6109 152.848 18.3487 154.48 19.6101C154.598 19.6815 154.764 19.7053 154.882 19.6577C154.953 19.6339 155.095 19.5387 154.976 19.4435L155 19.4673Z" fill="#E26E61"/>
<path d="M155.447 16.9219C154.808 16.2793 154.193 15.5891 153.46 15.0655C152.822 14.5895 152.089 14.2325 151.332 13.9707C151.214 13.9231 151.025 13.9231 150.93 14.0183C150.835 14.1135 150.93 14.1849 151.025 14.2325C151.758 14.4705 152.443 14.8275 153.058 15.3035C153.744 15.8271 154.335 16.4697 154.95 17.0885C155.092 17.2313 155.66 17.1361 155.471 16.9457L155.447 16.9219Z" fill="#E26E61"/>
<path d="M150.835 28.0601C150.835 28.0601 150.787 28.0601 150.74 28.0363C150.74 28.0363 150.716 28.0363 150.693 28.0363C150.645 28.0363 150.574 27.9887 150.527 27.9649C150.409 27.9173 150.314 27.8459 150.196 27.7983C149.983 27.6793 149.818 27.5365 149.628 27.3699C149.534 27.2747 149.345 27.2747 149.226 27.3223C149.132 27.3461 149.013 27.4413 149.132 27.5365C149.557 27.9173 150.03 28.1791 150.551 28.3695C150.669 28.4171 150.858 28.3933 150.953 28.3219C151.047 28.2267 150.953 28.1553 150.858 28.1077L150.835 28.0601Z" fill="#E26E61"/>
<path d="M130.256 115.286C130.256 114.262 130.303 113.239 130.374 112.215C130.374 112.001 129.806 112.001 129.783 112.215C129.57 115.809 129.641 119.427 130.019 123.021C130.137 124.044 130.256 125.067 130.421 126.067C130.445 126.281 131.036 126.257 131.012 126.067C130.468 122.497 130.232 118.903 130.279 115.286H130.256Z" fill="#354E60"/>
<path d="M136.547 109.123C135.648 112.074 134.868 115.073 134.182 118.095C133.496 121.118 132.905 124.188 132.432 127.258C132.172 128.972 131.935 130.709 131.723 132.447C131.723 132.637 132.29 132.661 132.314 132.447C132.669 129.376 133.142 126.33 133.709 123.307C134.277 120.285 134.939 117.262 135.719 114.287C136.169 112.574 136.642 110.884 137.138 109.218C137.209 108.98 136.618 108.956 136.571 109.146L136.547 109.123Z" fill="#354E60"/>
<path d="M131.178 139.633C131.178 139.419 130.587 139.419 130.587 139.633C130.634 141.228 130.61 142.799 130.516 144.393C130.516 144.608 131.083 144.608 131.107 144.393C131.201 142.799 131.225 141.228 131.178 139.633Z" fill="#354E60"/>
<path d="M118.127 116.835C117.843 116.144 117.488 115.478 117.039 114.883C116.968 114.764 116.802 114.764 116.684 114.788C116.613 114.788 116.4 114.859 116.471 114.978C116.921 115.573 117.275 116.24 117.559 116.93C117.63 117.12 118.221 117.073 118.127 116.858V116.835Z" fill="#354E60"/>
<path d="M57.2539 142.3C57.2303 141.396 57.2303 140.467 57.2539 139.563C57.2539 139.349 56.6627 139.349 56.6627 139.563C56.6154 142.8 56.8283 146.037 57.2776 149.25C57.3958 150.154 57.5614 151.058 57.7269 151.963C57.7742 152.177 58.3418 152.153 58.3182 151.963C57.7269 148.774 57.3722 145.561 57.2776 142.324L57.2539 142.3Z" fill="#354E60"/>
<path d="M55.3143 147.773C53.3042 145.703 51.2704 143.608 49.3548 141.443C47.4393 139.277 45.6185 137.016 44.0103 134.588C43.1117 133.232 42.2839 131.827 41.5508 130.376C41.4562 130.185 40.8887 130.257 40.9832 130.447C42.3076 133.041 43.9157 135.469 45.713 137.777C47.4866 140.062 49.4259 142.228 51.4124 144.346C52.5475 145.536 53.6825 146.726 54.8413 147.916C54.9832 148.059 55.5509 147.964 55.3617 147.773H55.3143Z" fill="#354E60"/>
<path d="M51.1298 147.749C50.1366 146.963 49.1435 146.178 48.1266 145.416C47.1806 144.726 46.1873 144.06 45.0995 143.608C44.9812 143.56 44.8157 143.536 44.6738 143.608C44.5792 143.655 44.5556 143.774 44.6738 143.822C45.7616 144.274 46.7313 144.917 47.6772 145.607C48.6705 146.345 49.6401 147.13 50.6333 147.892C50.7516 147.987 50.9171 147.987 51.0353 147.939C51.1062 147.915 51.2481 147.82 51.1298 147.725V147.749Z" fill="#354E60"/>
<path d="M93.7924 201.394C91.664 199.68 89.7012 197.776 87.8802 195.729C86.0593 193.682 84.4275 191.469 82.9849 189.137C82.1809 187.828 81.4241 186.471 80.7383 185.091C80.6437 184.9 80.0762 184.972 80.1707 185.162C81.4005 187.613 82.8194 189.97 84.4275 192.207C86.0356 194.42 87.8329 196.515 89.7958 198.442C90.9073 199.537 92.066 200.561 93.272 201.536C93.3666 201.632 93.5559 201.632 93.6742 201.584C93.7451 201.56 93.887 201.465 93.7687 201.37L93.7924 201.394Z" fill="#354E60"/>
<path d="M118.954 198.063C117.133 196.85 115.478 195.422 113.988 193.803C113.869 193.66 113.302 193.756 113.468 193.946C114.957 195.541 116.636 196.969 118.434 198.206C118.552 198.278 118.694 198.301 118.836 198.254C118.907 198.254 119.049 198.135 118.93 198.04L118.954 198.063Z" fill="#354E60"/>
<path d="M125.127 177.644L124.062 186.807C124.062 186.997 124.63 187.021 124.654 186.807L125.718 177.644C125.718 177.454 125.15 177.43 125.127 177.644Z" fill="#354E60"/>
<path d="M110.305 113.452C109.855 112.334 108.72 111.667 107.798 110.882C105.835 109.168 104.771 106.598 104.511 104.028C104.322 102.243 104.463 100.434 104.794 98.6726C104.913 98.0538 105.362 97.0542 105.22 96.4354C105.055 95.7452 104.227 96.0546 103.73 96.1498C102.359 96.3878 100.987 96.7448 99.6865 97.2446C97.8419 97.9348 96.0919 98.863 94.5074 100.005C92.8993 98.863 91.1493 97.9348 89.3283 97.2446C88.0277 96.7448 86.656 96.3878 85.2844 96.1498C84.7877 96.0546 83.96 95.769 83.7945 96.4354C83.6526 97.0542 84.102 98.0538 84.2203 98.6726C84.5514 100.434 84.6932 102.243 84.5041 104.028C84.2203 106.622 83.1561 109.192 81.2169 110.882C80.3182 111.667 79.1831 112.334 78.7101 113.452C78.6628 113.595 78.6154 113.762 78.6391 113.905C78.6864 114.071 78.8046 114.19 78.9229 114.309C80.1053 115.285 81.7844 115.237 83.298 115.404C85.0007 115.594 86.6561 116.118 88.3588 116.38C90.3926 116.689 92.4973 116.618 94.5074 116.166C96.5175 116.618 98.6222 116.713 100.656 116.38C102.359 116.118 104.014 115.571 105.717 115.404C107.23 115.237 108.933 115.309 110.092 114.309C110.234 114.19 110.352 114.071 110.376 113.905C110.399 113.762 110.376 113.595 110.305 113.452Z" fill="#EDAF8C"/>
<path d="M103.135 98.7687C103.135 98.7687 103.135 98.7211 103.135 98.6973C103.135 97.1741 102.591 96.2697 101.692 95.5795C100.817 94.6751 99.6114 94.0325 98.3816 93.7231C98.2871 93.6993 98.1925 93.6755 98.0979 93.6517C96.9154 93.3899 95.6856 93.3661 94.4796 93.4613C93.2735 93.3661 92.0438 93.3899 90.8614 93.6517C90.7668 93.6517 90.6722 93.6993 90.5776 93.7231C89.3479 94.0325 88.1418 94.6751 87.2668 95.5795C86.3681 96.2697 85.8242 97.1741 85.8242 98.6973C85.8242 98.6973 85.8242 98.7449 85.8242 98.7687C85.8242 99.4589 85.9661 100.149 86.2499 100.744C87.5269 103.672 91.358 105.385 94.4087 105.219C94.4087 105.219 94.4322 105.219 94.4559 105.219C94.4559 105.219 94.4796 105.219 94.5032 105.219C97.5539 105.385 101.385 103.672 102.662 100.744C102.969 100.125 103.111 99.4589 103.088 98.7687H103.135Z" fill="#E26E61"/>
<path d="M78.0206 67.2099C77.926 67.0909 77.7131 67.0195 77.5003 67.0195C77.5949 66.9005 77.6894 66.7577 77.784 66.6387H76.5307C72.3686 72.1603 72.676 79.9905 71.9429 86.5593C71.8246 87.5589 71.7063 88.5823 71.3989 89.5343C71.0914 90.5339 70.6185 91.4383 70.1219 92.3665C69.0341 94.3895 67.5678 96.3649 66.9766 98.6021C66.1252 101.744 66.0544 105.004 65.7233 108.217C65.4159 111.097 65.3685 114.334 63.8549 116.857C63.0745 118.142 62.1522 119.308 61.4901 120.665C60.0948 123.473 59.6928 126.948 60.2131 130.018C60.3786 130.946 60.6152 131.874 60.7098 132.826C60.8517 134.611 60.426 136.373 59.953 138.086C59.3381 140.3 58.3922 143.132 59.3855 145.369C60.2605 147.368 62.1996 148.891 64.3516 149.177C64.8482 149.248 65.3212 149.248 65.8178 149.344C67.3077 149.653 68.4664 150.795 69.7671 151.557C72.2029 152.961 76.105 153.271 78.4226 151.486C80.5746 149.82 81.8753 146.892 81.828 144.179C81.828 142.442 81.2605 140.799 80.953 139.11C80.6456 137.515 80.8111 136.063 81.0239 134.469C81.3786 131.97 82.4664 129.661 83.3651 127.329C84.3583 124.782 84.8314 122.592 84.6185 119.832C84.4057 117.142 83.8382 114.5 83.9091 111.811C83.9564 109.55 84.855 107.456 85.0205 105.242C85.1861 103.005 84.9496 100.72 84.2874 98.5783C84.0273 97.7215 83.7199 96.8885 83.6253 96.0079C83.4834 94.7941 83.7908 93.5803 84.0036 92.3665C84.5003 89.6771 84.6421 87.1067 84.2874 84.3935C83.4834 78.3245 81.3551 72.4459 78.0206 67.3051V67.2099Z" fill="#020808"/>
<path d="M100.96 72.0889C97.9562 71.4939 94.9293 71.6605 91.9022 71.3035C88.8752 70.9465 86.8414 69.0187 85.0914 66.6387H84.784C84.2637 66.7101 83.8143 66.8529 83.4123 67.0671C82.5846 70.1611 80.267 72.7553 78.8008 75.6113C78.8008 76.4919 78.8482 77.3963 78.8955 78.3245C78.8955 78.3721 78.8955 78.4435 78.8955 78.4911C79.0137 80.3475 79.0372 82.2753 79.3683 84.1079C79.6521 85.6787 79.5339 87.2971 79.8413 88.8679C80.4089 91.9857 81.7333 94.9607 83.5779 97.5073C85.4224 100.054 88.4022 101.601 91.0981 103.1C91.6657 103.41 92.2806 103.671 92.9428 103.814C93.5576 103.933 94.1961 103.886 94.8346 103.909C95.8988 103.957 96.9393 103.624 97.8616 103.1C100.558 101.601 103.537 100.078 105.382 97.5073C107.226 94.9369 108.551 91.9857 109.118 88.8679C109.402 87.2733 109.308 85.6787 109.591 84.1079C109.828 82.7275 109.922 81.2757 109.993 79.8477C110.017 79.3479 110.041 78.8481 110.064 78.3483C110.064 78.3245 110.064 78.2769 110.064 78.2531C109.355 77.3249 108.598 76.4205 107.747 75.6113C105.831 73.7549 103.561 72.6363 100.96 72.1365V72.0889Z" fill="#EDAF8C"/>
<path d="M112.953 81.2995C112.811 81.8231 111.605 82.2515 111.226 81.7041C110.824 81.0853 110.399 80.4903 109.973 79.8715C109.736 79.5383 109.5 79.2051 109.263 78.8957C108.365 77.7057 107.395 76.5871 106.26 75.6113C103.942 73.6121 101.223 72.8981 98.1959 72.5887C96.5878 72.4221 95.0034 72.3507 93.3953 72.2793C92.0001 72.2317 90.6047 72.1127 89.2804 71.6367C87.2939 70.9227 85.7568 69.4709 84.4798 67.8763C83.8885 69.6851 82.7771 71.3511 81.6892 73.0171C80.5068 74.8021 79.3716 76.5871 78.9222 78.5625C78.733 79.4193 78.6622 80.2999 78.7568 81.2519C78.8278 81.8945 77.6926 81.3709 77.527 81.2519C76.8412 80.6807 76.6994 79.8715 76.6521 79.0385C76.5338 76.0159 77.1014 72.9933 78.2838 70.2087C78.3311 70.0897 78.3784 69.9707 78.4257 69.8517C78.946 68.6855 79.5845 67.5431 80.4831 66.6387H99.5913H99.6385C101.743 67.2813 103.848 68.0191 105.669 69.2329C107.939 70.7561 109.642 72.9695 110.919 75.3495C111.747 76.8965 112.385 78.5387 112.834 80.2285C112.929 80.5617 113 80.9187 112.905 81.2757L112.953 81.2995Z" fill="#020808"/>
<path d="M107.319 88.8662C107.106 87.9856 107.201 87.0812 107.414 86.2006C107.603 85.4628 108.005 84.8678 108.147 84.13C108.431 82.7496 108.738 81.2026 109.968 80.3458C110.559 79.9412 111.34 79.7746 112.002 80.084C112.546 80.3458 112.924 80.8932 113.16 81.4644C113.823 83.059 113.633 84.963 112.782 86.4624C111.931 87.9618 110.464 89.0566 108.833 89.604C108.454 89.723 107.981 89.8182 107.674 89.5564C107.485 89.3898 107.39 89.1518 107.319 88.89V88.8662Z" fill="#EDAF8C"/>
<path d="M81.6378 88.8662C81.8506 87.9856 81.7561 87.0812 81.5432 86.2006C81.3541 85.4628 80.952 84.8678 80.8101 84.13C80.5264 82.7496 80.2189 81.2026 78.9891 80.3458C78.3979 79.9412 77.6176 79.7746 76.9554 80.084C76.4115 80.3458 76.0331 80.8932 75.7966 81.4644C75.1345 83.059 75.3236 84.963 76.175 86.4624C77.0263 87.9618 78.4925 89.0566 80.1242 89.604C80.5026 89.723 80.9756 89.8182 81.283 89.5564C81.4722 89.3898 81.5668 89.1518 81.6378 88.89V88.8662Z" fill="#EDAF8C"/>
<path d="M90.3407 77.1796C90.2225 76.5608 89.5603 76.4894 88.9691 76.3228C88.1414 76.0848 87.2664 75.942 86.3914 75.9896C85.3273 76.0372 84.3576 76.3704 83.3643 76.7512C83.2225 76.7988 83.0569 76.8702 82.915 76.9416C82.7968 76.9892 82.6786 77.0606 82.584 77.132C82.2766 77.3224 81.6854 77.5842 81.5198 77.9174C81.3306 78.2982 81.709 78.1316 81.9692 78.0364C82.4658 77.8698 82.9387 77.727 83.4354 77.5604C83.9793 77.3938 84.5232 77.2034 85.0908 77.132C86.084 77.013 87.0773 77.2034 88.0232 77.5128C88.4252 77.6556 89.9388 78.2506 90.2699 77.7984C90.3172 77.727 90.3408 77.608 90.3644 77.5128C90.3644 77.3938 90.3644 77.2748 90.3644 77.1796H90.3407Z" fill="#020808"/>
<path d="M98.5237 77.1796C98.6419 76.5608 99.3041 76.4894 99.8953 76.3228C100.723 76.0848 101.598 75.942 102.473 75.9896C103.537 76.0372 104.507 76.3704 105.5 76.7512C105.642 76.7988 105.807 76.8702 105.949 76.9416C106.068 76.9892 106.186 77.0606 106.28 77.132C106.588 77.3224 107.179 77.5842 107.345 77.9174C107.534 78.2982 107.155 78.1316 106.895 78.0364C106.399 77.8698 105.926 77.727 105.429 77.5604C104.885 77.3938 104.341 77.2034 103.774 77.132C102.78 77.013 101.787 77.2034 100.841 77.5128C100.439 77.6556 98.9256 78.2506 98.5945 77.7984C98.5472 77.727 98.5236 77.608 98.5 77.5128C98.5 77.3938 98.5 77.2748 98.5 77.1796H98.5237Z" fill="#020808"/>
<path d="M87.288 80.9615C86.6967 80.5331 85.7271 80.6521 85.3724 81.4375C84.994 82.2943 85.0887 83.7461 85.8454 84.2459C86.2238 84.4839 86.7203 84.5077 87.0987 84.2697C87.3825 84.1269 87.5953 83.8889 87.6899 83.4843C87.8791 82.6513 87.9264 81.4851 87.2406 80.9615H87.288Z" fill="#020808"/>
<path d="M103.132 80.9615C102.541 80.5331 101.571 80.6521 101.216 81.4375C100.838 82.2943 100.932 83.7461 101.689 84.2459C102.067 84.4839 102.564 84.5077 102.943 84.2697C103.226 84.1269 103.439 83.8889 103.534 83.4843C103.723 82.6513 103.77 81.4851 103.084 80.9615H103.132Z" fill="#020808"/>
<path d="M93.8641 90.7722C93.462 90.439 93.0127 90.1772 92.5397 89.963C92.4215 89.9154 92.256 89.8916 92.1141 89.963C92.0668 89.963 92.0195 90.0106 92.0195 90.0582C92.0195 90.1058 92.0668 90.1534 92.1141 90.1772C92.3506 90.2724 92.5635 90.3914 92.7763 90.5104C92.9891 90.6294 93.1547 90.7484 93.3438 90.915C93.4384 91.0102 93.6276 91.0102 93.7458 90.9626C93.8168 90.9388 93.9586 90.8436 93.8404 90.7484L93.8641 90.7722Z" fill="#E26E61"/>
<path d="M96.6531 90.0801C96.2984 90.0801 95.991 90.1991 95.6836 90.3181C95.3998 90.4371 95.1396 90.5799 94.9031 90.7227C94.8558 90.7465 94.8086 90.7703 94.8086 90.8179C94.8086 90.8655 94.8558 90.9131 94.9031 90.9369C95.0214 90.9845 95.2106 91.0083 95.3288 90.9369C95.5653 90.7941 95.8019 90.6751 96.0384 90.5561C96.1566 90.5085 96.2511 90.4609 96.3693 90.4133C96.393 90.4133 96.4404 90.4133 96.464 90.3895H96.5112C96.5112 90.3895 96.5113 90.3895 96.5349 90.3895H96.5822C96.5113 90.3895 96.6295 90.3895 96.6531 90.3895C96.7477 90.3895 96.937 90.3657 96.937 90.2467C96.937 90.1277 96.7241 90.1039 96.6531 90.1039V90.0801Z" fill="#E26E61"/>
<path d="M92.9439 78.6546C92.7783 78.5594 92.2343 78.6784 92.5181 78.8688C93.7478 79.6542 93.8661 81.2964 93.7242 82.5816C93.6532 83.367 93.5113 84.1524 93.4167 84.9616C93.3221 85.7708 93.2276 86.58 93.1566 87.3892C93.1566 87.5796 93.7242 87.6034 93.7479 87.3892C93.8188 86.5324 93.9134 85.6756 94.0316 84.8426C94.1262 84.0096 94.2918 83.1766 94.3391 82.3436C94.4573 80.9632 94.1736 79.44 92.9439 78.6546Z" fill="#E26E61"/>
<path d="M98.4783 94.0293H90.4142C90.2723 94.0293 88.9716 94.0293 89.35 94.3625C90.225 95.1003 91.0291 96.0285 92.046 96.6235C92.3297 96.7901 92.6135 96.9091 92.921 97.0043C93.1101 97.0757 93.323 97.0995 93.5358 97.1471C93.8433 97.1947 94.1506 97.2185 94.458 97.1947C94.7655 97.1947 95.0729 97.1947 95.3804 97.1471C95.5932 97.1233 95.7824 97.0757 95.9952 97.0043C96.279 96.9091 96.5628 96.7901 96.8702 96.6235C97.8871 96.0285 98.6912 95.1241 99.5662 94.3625C99.9682 94.0293 98.6439 94.0293 98.502 94.0293H98.4783Z" fill="white"/>
<path d="M71.3994 96.1056C70.2879 97.4384 69.6731 99.0806 69.2001 100.747C68.7035 102.484 68.2306 104.293 68.2306 106.125C68.2306 107.125 68.3961 108.125 68.7745 109.077C68.8454 109.267 69.4366 109.219 69.342 109.005C68.6798 107.339 68.7508 105.507 69.0582 103.769C69.2238 102.889 69.4603 102.008 69.6968 101.127C69.9333 100.318 70.1698 99.509 70.4772 98.7474C70.832 97.8668 71.3049 97.01 71.9198 96.296C72.109 96.0818 71.5413 95.9866 71.3994 96.1532V96.1056Z" fill="#354E60"/>
<path d="M72.4408 106.767C71.9914 105.268 71.9205 103.673 72.1807 102.126C72.2043 101.936 71.6367 101.912 71.5894 102.126C71.3057 103.697 71.4002 105.316 71.8732 106.839C71.9205 107.029 72.5117 106.982 72.4408 106.767Z" fill="#354E60"/>
<path d="M66.2456 122.904C65.0395 125.475 64.9213 128.497 65.8436 131.187C65.9145 131.377 66.4821 131.329 66.4111 131.115C65.4888 128.497 65.6307 125.522 66.8131 122.999C66.9077 122.785 66.3402 122.738 66.2456 122.928V122.904Z" fill="#354E60"/>
<path d="M69.1997 126.808C69.2233 126.618 68.6321 126.594 68.6085 126.808C68.4902 127.808 68.443 128.807 68.5139 129.807C68.5139 130.021 69.1052 130.021 69.1052 129.807C69.0342 128.807 69.0815 127.808 69.1997 126.808Z" fill="#354E60"/>
<path d="M78.3056 143.324C78.2583 143.11 77.6908 143.133 77.7144 143.324C77.9036 144.3 78.0928 145.394 77.6908 146.346C77.3124 147.227 76.4611 147.751 75.657 148.203C75.5624 148.274 75.5624 148.346 75.657 148.417C75.7752 148.488 75.9644 148.488 76.0827 148.417C76.9104 147.917 77.809 147.394 78.2346 146.489C78.7076 145.513 78.5185 144.371 78.3056 143.324Z" fill="#354E60"/>
<path d="M116.879 97.6743C116.737 97.5315 116.169 97.6267 116.359 97.8171C117.967 99.3879 118.818 101.673 118.653 103.934C118.653 104.124 119.22 104.148 119.244 103.934C119.433 101.625 118.534 99.2689 116.879 97.6505V97.6743Z" fill="#354E60"/>
<path d="M94.0801 70.4247C92.0699 70.3771 90.107 69.6631 88.5225 68.4493C88.4043 68.3779 88.2388 68.3541 88.1206 68.4017C88.0496 68.4255 87.9078 68.5207 88.026 68.6159C89.776 69.9487 91.9044 70.6865 94.1037 70.7341C94.1983 70.7341 94.3875 70.7103 94.3875 70.5913C94.3875 70.4723 94.1747 70.4485 94.1037 70.4485L94.0801 70.4247Z" fill="#354E60"/>
<path d="M111.602 68.9985C111.46 68.8557 110.892 68.9509 111.081 69.1413C112.666 70.6883 113.612 72.8065 113.754 75.0199C113.754 75.2341 114.345 75.2341 114.345 75.0199C114.203 72.7589 113.21 70.5931 111.602 68.9985Z" fill="#354E60"/>
<path d="M110.136 74.3535C109.876 73.1159 109.261 71.9735 108.41 71.0454C108.292 70.9026 107.724 70.9977 107.89 71.1881C108.717 72.0687 109.285 73.1635 109.545 74.3535C109.592 74.5677 110.183 74.5439 110.136 74.3535Z" fill="#354E60"/>
</g>
<defs>
<clipPath id="clip0_1_9803">
<rect width="175" height="238" fill="white" transform="translate(0.5)"/>
</clipPath>
</defs>
</svg>
