<svg width="266" height="195" viewBox="0 0 266 195" fill="none" xmlns="http://www.w3.org/2000/svg">
<path d="M72.4251 35.2305C75.485 36.724 78.9091 37.1065 82.2786 37.234C89.6915 37.4889 97.1227 37.3068 104.536 37.1793C112.021 37.07 119.489 36.9243 126.975 37.0336C134.406 37.1429 141.837 37.489 149.214 38.3268C150.124 38.4361 151.035 38.5454 151.946 38.6546C152.164 38.6911 152.638 38.6729 152.802 38.4543C153.038 38.4907 153.312 38.4543 153.476 38.345C156.08 36.9425 158.739 35.4126 160.688 33.1541C162.51 31.0596 163.766 28.2182 163.293 25.3951C162.382 20.0403 156.463 17.4358 151.6 17.0897C149.086 16.9076 146.554 17.2355 144.168 18.0186C144.132 17.9094 144.005 17.8365 143.859 17.7819C142.893 14.813 141.619 11.9899 139.032 10.0593C136.883 8.4565 134.424 7.80082 131.783 7.67332C130.982 7.63689 125.572 7.94652 126.119 9.80431C124.643 4.85021 120.163 0.952501 115.063 0.151104C111.876 -0.340663 108.543 0.387896 105.774 2.04533C104.827 2.60995 99.2719 7.12691 100.856 8.63864C97.6145 5.52412 92.9335 3.68456 88.5441 4.61345C84.1546 5.56056 80.4027 9.69504 80.6759 14.1756C79.5649 12.2996 76.9603 11.9717 74.7928 12.2632C71.8058 12.6821 68.8735 13.9206 66.7607 16.0698C60.2949 22.6813 65.3947 31.7152 72.4251 35.1576V35.2305Z" fill="#BEE2EA"/>
<path d="M42.3 112.292C41.4804 110.361 40.0233 108.522 38.8758 106.755C37.6555 104.897 36.417 103.076 35.2149 101.218C32.7925 97.448 30.2972 93.7143 27.7655 90.0169C26.873 88.7237 25.9624 87.4306 25.0699 86.1374C26.3449 86.5563 27.6198 86.957 28.913 87.3577C31.4629 88.1591 33.8671 88.833 36.5445 89.088C36.5809 89.088 36.5991 89.088 36.6355 89.088C36.6901 89.0516 36.6719 88.9605 36.6355 88.9059C33.2296 80.7644 28.9859 72.7868 24.4325 65.21C24.1957 64.7547 23.9589 64.3176 23.7404 63.8622C23.6675 63.7165 23.54 63.589 23.3943 63.4979C23.3761 63.4615 23.3578 63.4433 23.3396 63.4069C27.638 65.2464 32.0275 66.8492 36.4899 68.2335C36.7449 68.3063 37.9651 68.5067 37.783 67.8874C35.6155 60.347 33.2478 52.8794 30.6615 45.4847C30.534 45.1387 29.8965 44.9201 29.3865 44.9201C29.0223 44.7744 28.6944 44.6833 28.5487 44.6287C27.3648 44.1915 26.1627 43.8273 24.9242 43.4994C24.651 42.8984 22.8115 42.7527 23.0482 43.4083C25.5253 50.3113 28.312 57.1232 31.3719 63.7893C27.4924 62.5508 23.5946 61.3305 19.7151 60.092C19.3691 59.9827 18.0759 59.8734 18.4948 60.5838C23.1029 68.3245 27.7109 76.1017 31.4811 84.2978C27.5652 83.0047 23.5582 81.9665 19.5148 81.1833C19.2416 81.1287 18.0941 81.1833 18.5312 81.7479C24.7967 89.7619 30.534 98.1584 36.8359 106.118C37.8559 107.393 38.894 108.668 39.9686 109.906C40.6243 110.653 41.4075 111.855 42.3 112.31V112.292Z" fill="#C9F2F2"/>
<path d="M50.7147 95.4553C50.8604 95.6374 51.0061 95.8195 51.17 96.0016C49.5672 91.339 48.2012 86.6035 47.0902 81.8133C48.4562 82.305 49.8586 83.0336 51.261 83.3797C52.6635 83.7257 54.0295 84.1082 55.4866 84.2539C55.5048 84.2539 55.5412 84.2539 55.5594 84.2539C55.5958 84.2357 55.5776 84.1628 55.5594 84.1264C53.0277 78.0795 49.8768 72.1601 46.5073 66.5321C46.3434 66.2042 46.1612 65.8582 45.9973 65.5303C45.9426 65.4211 45.8516 65.33 45.7423 65.2571C45.7423 65.2389 45.7059 65.2207 45.7059 65.1843C48.8933 66.5503 52.1535 67.7524 55.4684 68.7541C55.6505 68.8088 56.5612 68.9545 56.4337 68.4992C54.831 62.9076 53.0642 57.3707 51.1518 51.8702C51.0607 51.6152 50.5871 51.4512 50.2046 51.4512C49.9314 51.342 49.6947 51.2691 49.5854 51.2327C48.7112 50.9048 47.8004 50.6316 46.908 50.3949C46.7076 49.9395 45.3416 49.8302 45.5237 50.322C47.3633 55.4582 49.4215 60.5034 51.6981 65.4575C48.8204 64.5468 45.9244 63.6361 43.0467 62.7072C42.7917 62.6344 41.8264 62.5433 42.136 63.0715C45.5602 68.827 48.9661 74.5825 51.7892 80.6658C48.875 79.7187 45.9062 78.9355 42.901 78.3527C41.3528 78.0613 43.2653 80.939 43.502 81.3944C44.2852 82.9425 45.0684 84.4907 45.8515 86.0206C47.4361 89.1351 48.6018 92.6321 50.7692 95.437L50.7147 95.4553Z" fill="#C9F2F2"/>
<path d="M116.775 36.2686C116.466 33.6458 115.245 31.0959 113.242 29.3656C109.289 25.9415 102.969 25.8504 98.6709 28.8374C98.9988 24.5572 96.3943 20.186 92.4601 18.4557C89.9831 17.3629 87.0871 17.3447 84.5554 18.2554C83.9908 18.4557 78.3628 21.5156 78.6724 22.1713C77.1789 18.9475 73.9187 16.6161 70.3853 16.2701C66.4511 15.8694 63.9923 17.8729 61.1327 20.0949C58.8378 16.434 56.9254 13.0098 52.026 12.682C45.0684 12.2084 41.0797 18.5468 40.9522 24.7758C37.528 21.3152 31.4993 21.3881 27.5834 24.2658C23.6674 27.1436 21.755 32.1888 21.755 37.0518C17.7298 35.0483 12.8304 34.939 8.71412 36.7422C3.90574 38.8549 -2.72407 45.7396 2.04789 50.9852C5.05313 54.3 10.1348 53.5715 14.0871 53.1526C19.3691 52.6062 24.6328 52.0233 29.8601 51.0762C32.6832 53.0797 36.0526 54.3 39.4768 54.7918C44.613 55.5203 49.8222 54.5186 54.5941 52.5698C56.8344 51.6591 57.4901 50.803 59.4571 51.6408C61.2056 52.3876 62.4259 53.9358 64.4294 54.5186C68.145 55.5932 72.4252 54.9739 75.4305 52.4787C77.1426 54.1543 79.656 54.719 82.042 54.9557C87.0872 55.4657 92.2415 54.81 96.9953 53.0979C101.166 51.5862 105.774 49.5827 109.727 47.561C111.712 46.5593 113.624 45.2843 114.972 43.5176C116.538 41.4595 117.103 38.8185 116.812 36.2686H116.775Z" fill="#6A8EA8"/>
<path d="M49.1847 130.142C49.0572 129.632 48.784 129.14 48.4925 128.684C47.1629 126.59 45.633 124.605 43.9391 122.765C43.7206 122.528 43.4109 122.273 43.1195 122.383C43.2106 125.206 43.3199 128.357 44.3399 131.016C44.6677 131.872 45.2323 132.71 46.1248 133.037C47.9279 133.711 49.2211 132.436 49.2394 130.652C49.2394 130.469 49.2393 130.305 49.1847 130.142Z" fill="#6A8EA8"/>
<path d="M80.1477 133.784C80.0202 133.274 79.747 132.783 79.4555 132.327C78.126 130.233 76.596 128.247 74.9022 126.408C74.6836 126.171 74.3739 125.916 74.0825 126.025C74.1736 128.848 74.2829 131.999 75.3029 134.659C75.6308 135.515 76.1953 136.352 77.0878 136.68C78.8909 137.354 80.1842 136.079 80.2024 134.294C80.2024 134.112 80.2023 133.948 80.1477 133.784Z" fill="#6A8EA8"/>
<path d="M103.825 168.39C103.698 167.88 103.425 167.388 103.133 166.933C101.804 164.838 100.274 162.853 98.5799 161.014C98.3613 160.777 98.0517 160.522 97.7603 160.631C97.8513 163.454 97.9607 166.605 98.9806 169.264C99.3085 170.12 99.8731 170.958 100.766 171.286C102.569 171.96 103.862 170.685 103.88 168.9C103.88 168.718 103.88 168.554 103.825 168.39Z" fill="#6A8EA8"/>
<path d="M72.8623 157.462C72.7348 156.952 72.4616 156.46 72.1701 156.005C70.8406 153.91 69.3106 151.925 67.6168 150.085C67.3982 149.849 67.0885 149.594 66.7971 149.703C66.8882 152.526 66.9975 155.677 68.0175 158.336C68.3454 159.192 68.9099 160.03 69.8024 160.358C71.6055 161.032 72.8988 159.757 72.917 157.972C72.917 157.79 72.9169 157.626 72.8623 157.462Z" fill="#6A8EA8"/>
<path d="M41.8993 150.176C41.7718 149.667 41.4986 149.175 41.2071 148.719C39.8775 146.625 38.3476 144.64 36.6537 142.8C36.4352 142.563 36.1255 142.308 35.8341 142.417C35.9252 145.241 36.0345 148.392 37.0545 151.051C37.3823 151.907 37.9469 152.745 38.8394 153.072C40.6425 153.746 41.9357 152.471 41.954 150.686C41.954 150.504 41.9539 150.34 41.8993 150.176Z" fill="#6A8EA8"/>
<path d="M79.237 187.514C79.1095 187.004 78.8363 186.513 78.5449 186.057C77.2153 183.963 75.6854 181.977 73.9915 180.138C73.7729 179.901 73.4633 179.646 73.1719 179.755C73.2629 182.578 73.3723 185.729 74.3923 188.389C74.7201 189.245 75.2847 190.082 76.1772 190.41C77.9803 191.084 79.2735 189.809 79.2917 188.024C79.2917 187.842 79.2917 187.678 79.237 187.514Z" fill="#6A8EA8"/>
<path d="M24.4143 111.327C24.2868 110.817 24.0136 110.325 23.7221 109.87C22.3926 107.775 20.8626 105.79 19.1688 103.95C18.9502 103.713 18.6405 103.458 18.3491 103.568C18.4402 106.391 18.5494 109.542 19.5694 112.201C19.8972 113.057 20.4619 113.895 21.3544 114.223C23.1576 114.897 24.4506 113.622 24.4689 111.837C24.4689 111.655 24.4689 111.491 24.4143 111.327Z" fill="#6A8EA8"/>
<path d="M10.408 81.092C10.2806 80.5821 10.0073 80.0903 9.71592 79.635C8.38633 77.5404 6.85639 75.5551 5.16253 73.7156C4.94397 73.4788 4.63431 73.2238 4.3429 73.3331C4.43396 76.1562 4.54321 79.3071 5.56317 81.9663C5.89102 82.8224 6.45572 83.6602 7.34818 83.988C9.15133 84.6619 10.4444 83.387 10.4626 81.602C10.4626 81.4199 10.4627 81.256 10.408 81.092Z" fill="#6A8EA8"/>
<path d="M60.7502 109.888C60.6227 109.378 60.3495 108.886 60.0581 108.431C58.7285 106.336 57.1986 104.351 55.5047 102.511C55.2861 102.275 54.9765 102.02 54.6851 102.129C54.7761 104.952 54.8854 108.103 55.9053 110.762C56.2332 111.618 56.7978 112.456 57.6902 112.784C59.4934 113.458 60.7866 112.183 60.8048 110.398C60.8048 110.216 60.8049 110.052 60.7502 109.888Z" fill="#6A8EA8"/>
<path d="M68.1997 65.9751C68.0722 65.4651 67.799 64.9734 67.5075 64.518C66.178 62.4235 64.648 60.4382 62.9542 58.5986C62.7356 58.3618 62.4259 58.1068 62.1345 58.2161C62.2256 61.0392 62.335 64.1902 63.3549 66.8494C63.6828 67.7054 64.2473 68.5432 65.1398 68.8711C66.943 69.545 68.2362 68.27 68.2544 66.4851C68.2544 66.303 68.2543 66.139 68.1997 65.9751Z" fill="#6A8EA8"/>
<path d="M65.1034 87.6309C64.9759 87.1209 64.7027 86.6291 64.4112 86.1738C63.0817 84.0792 61.5517 82.094 59.8579 80.2544C59.6393 80.0176 59.3297 79.7626 59.0383 79.8719C59.1294 82.695 59.2386 85.846 60.2586 88.5051C60.5865 89.3612 61.151 90.199 62.0435 90.5268C63.8466 91.2007 65.1399 89.9258 65.1581 88.1409C65.1581 87.9587 65.158 87.7948 65.1034 87.6309Z" fill="#6A8EA8"/>
<path d="M209.592 101.728C209.482 101.965 209.391 102.202 209.282 102.438C206.514 108.686 202.689 114.696 197.953 120.233C197.789 120.433 197.607 120.634 197.443 120.816C188.5 131.107 176.406 139.776 161.981 145.423C161.745 145.514 161.508 145.605 161.253 145.696C160.834 145.86 160.397 146.024 159.978 146.169C147.738 150.668 135.317 152.471 123.624 151.925C123.369 151.925 123.095 151.907 122.84 151.888C108.579 151.087 95.4289 146.734 85.0654 139.412C84.8468 139.266 84.6283 139.102 84.4098 138.938C75.8676 132.728 69.2925 124.477 65.6316 114.478C63.7191 109.287 62.7174 103.95 62.5535 98.5772C62.5535 98.304 62.5534 98.0126 62.5352 97.7394C62.3167 85.0263 66.7243 72.1675 74.7747 60.8022C74.9568 60.5472 75.1391 60.2922 75.3212 60.0373C83.2441 49.1273 94.5183 39.638 108.306 32.9719C108.561 32.8444 108.816 32.7169 109.089 32.6076C111.675 31.3873 114.335 30.2763 117.103 29.2563C131.055 24.1383 145.261 22.4809 158.339 23.8833C158.685 23.9197 159.031 23.9562 159.395 23.9926C170.633 25.3222 181.033 28.9102 189.684 34.4472C189.976 34.6293 190.249 34.8115 190.54 35.0118C200.121 41.3501 207.497 50.1473 211.468 60.9479C211.796 61.8404 212.105 62.7511 212.378 63.6618C212.451 63.935 212.542 64.19 212.615 64.4632C216.13 76.7027 214.819 89.6343 209.628 101.692L209.592 101.728Z" fill="#CAE8D5"/>
<path d="M138.85 79.052C138.741 79.0885 138.613 79.1431 138.504 79.1795L138.796 79.9081C154.332 73.8247 170.542 69.2896 186.97 66.4118C194.657 65.064 203.545 63.8437 212.561 64.4994C212.488 64.2262 212.415 63.9712 212.324 63.698C203.326 63.0787 194.493 64.299 186.825 65.6468C170.888 68.4517 155.151 72.8048 140.034 78.5967C145.717 69.3806 152.747 60.8385 161.508 52.4966C163.311 50.7663 164.859 49.3457 166.48 47.9614C173.474 42.0602 181.689 37.6344 190.467 35.048C190.176 34.8659 189.903 34.6655 189.611 34.4834C180.978 37.1244 172.873 41.5321 165.97 47.3604C164.331 48.7447 162.783 50.1835 160.961 51.932C151.873 60.5835 144.624 69.4717 138.832 79.0702L138.85 79.052ZM138.522 81.2377V81.3834C138.304 81.2377 138.103 81.0737 137.921 80.928C138.049 80.8552 138.194 80.7823 138.322 80.7095L137.94 80.0356C137.739 80.1448 137.539 80.2723 137.32 80.3816L137.102 80.3088C137.102 80.3088 136.938 80.1813 136.865 80.1266L136.792 80.2177L136.61 80.1631C136.555 80.3088 136.519 80.4727 136.464 80.6184L136.373 80.7277C136.373 80.7277 136.41 80.7459 136.41 80.7641C136.41 80.8188 136.373 80.8552 136.355 80.9098C128.432 85.5361 121.31 91.4191 115.318 96.6464C101.093 109.05 90.9302 122.619 85.1383 136.971C84.8651 137.645 84.6101 138.301 84.3551 138.975C84.5737 139.139 84.7922 139.284 85.0108 139.448C85.284 138.72 85.5755 137.991 85.8669 137.263C91.6224 123.038 101.713 109.56 115.846 97.2292C121.62 92.2022 128.45 86.5378 136.027 82.0209C131.401 96.8103 128.377 108.485 126.246 119.632C124.043 131.161 122.913 141.798 122.822 151.925C123.077 151.925 123.35 151.961 123.605 151.961C123.842 127.191 130.363 102.711 136.992 81.5837C146.791 102.256 154.259 124.185 161.253 145.732C161.49 145.641 161.745 145.55 161.981 145.459C155.078 124.185 147.72 102.511 138.085 82.0573C146.445 88.4867 155.752 93.7868 164.75 98.9413C167.482 100.508 170.323 102.129 173.074 103.75C181.069 108.449 189.775 113.986 197.443 120.87C197.607 120.67 197.789 120.47 197.953 120.288C190.249 113.366 181.488 107.811 173.474 103.094C170.706 101.473 167.883 99.8519 165.132 98.2856C156.499 93.3497 147.575 88.2499 139.506 82.1848C151.527 83.6419 164.349 85.4814 176.971 88.9056C189.284 92.2387 200.139 96.8103 209.264 102.493C209.373 102.256 209.482 102.019 209.573 101.783C200.394 96.0817 189.502 91.4919 177.172 88.1588C164.112 84.6254 150.889 82.7676 138.522 81.2923V81.2377ZM99.5635 86.5196C111.53 83.6783 123.897 80.7277 136.391 80.0356V79.7442C136.701 79.9081 137.011 80.0902 137.338 80.2541L137.63 79.7077H138.012C138.959 55.2651 144.751 38.5086 156.208 26.943C157.209 25.923 158.266 24.9577 159.341 24.0288C158.994 23.9924 158.648 23.956 158.284 23.9195C157.373 24.7209 156.499 25.5406 155.643 26.4148C149.287 32.826 144.515 41.1678 141.491 51.2035C139.069 59.2175 137.685 68.4153 137.229 79.3435C136.938 79.1795 136.628 79.0156 136.337 78.8517L135.808 77.6496C131.747 68.3789 127.703 59.3449 122.877 50.8756C118.925 43.9363 114.863 37.3429 109.016 32.6438C108.761 32.7713 108.488 32.8988 108.233 33.0081C114.134 37.6526 118.232 44.2823 122.203 51.2581C127.011 59.7092 130.891 68.3424 135.098 77.9592L135.226 78.2506C126.629 73.7337 117.613 69.9999 108.342 67.1221C106.211 66.4664 104.044 65.829 101.931 65.2279C100.365 64.7726 98.7985 64.2444 97.1229 63.698C92.9519 62.3138 88.6354 60.8749 84.5191 60.6563C83.0438 60.5835 81.5503 60.4742 80.1114 60.3649C78.4722 60.2556 76.8511 60.1281 75.2483 60.0553C75.0662 60.3103 74.8841 60.5653 74.7019 60.8203C76.4687 60.8931 78.2354 61.0206 80.0385 61.1481C81.4774 61.2574 82.9709 61.3484 84.4644 61.4395C88.4896 61.6399 92.7516 63.0787 96.8678 64.4447C98.5435 65.0094 100.128 65.5376 101.713 65.9929C103.807 66.594 105.975 67.2132 108.106 67.8871C117.559 70.8195 126.775 74.6626 135.535 79.307C123.241 80.072 111.111 82.9679 99.3631 85.7546C95.4472 86.6835 91.3856 87.6489 87.4332 88.7417C78.9093 91.0912 70.5492 94.1147 62.4806 97.7574C62.4806 98.0306 62.4806 98.322 62.4988 98.5952C70.6221 94.9161 79.0549 91.8562 87.6335 89.4884C91.5859 88.3956 95.6294 87.4303 99.5453 86.5014L99.5635 86.5196Z" fill="#415552"/>
<path d="M145.917 194.982H210.193C210.193 186.84 210.211 178.699 210.229 170.558V165.294C212.032 168.19 214.655 170.649 217.843 171.869C219.828 172.616 222.323 172.78 223.926 171.159C225.492 169.574 226.002 167.006 226.148 164.875C226.312 162.489 225.966 160.067 225.328 157.662C224.072 152.909 221.758 148.191 220.283 143.802C218.699 139.084 217.515 134.24 216.021 129.486C215.274 127.082 214.437 124.714 213.435 122.401C212.561 120.397 212.069 118.193 210.757 116.39C210.011 115.352 209.045 114.551 207.934 113.932C205.603 112.638 202.907 112.165 200.43 111.236C197.553 110.161 194.821 108.722 192.07 107.338C189.32 105.954 186.552 104.661 183.637 103.604C180.432 102.439 177.135 101.546 173.784 100.963C171.89 100.636 169.777 100.453 167.919 101.055C167.901 100.708 166.826 100.636 166.644 100.982C166.462 101.328 166.243 101.674 166.043 102.02C165.952 102.093 165.861 102.166 165.77 102.238C165.661 102.329 165.661 102.421 165.733 102.493C163.147 106.391 159.195 109.16 155.024 111.254C152.401 112.565 149.651 113.585 146.919 114.678C144.296 115.716 141.509 116.791 139.506 118.886C137.757 120.725 136.719 123.093 135.972 125.497C135.044 128.448 134.333 131.471 133.532 134.458L128.396 153.71C127.467 157.189 126.483 160.649 125.664 164.146C124.862 167.589 124.298 171.086 124.498 174.637C124.407 174.728 124.37 174.838 124.498 174.947C124.498 174.947 124.498 174.965 124.498 174.983C124.498 175.166 124.735 175.275 124.971 175.311C128.104 177.57 132.129 178.353 135.936 177.807C139.542 177.297 142.875 175.621 145.68 173.326C145.862 180.539 145.935 187.769 145.881 194.982H145.917Z" fill="#4C6880"/>
<path d="M168.101 120.069C170.196 124.932 170.469 130.36 170.706 135.642C171.198 146.534 171.689 157.407 172.181 168.299C172.436 173.799 172.673 179.3 172.928 184.782C173.074 188.188 173.146 191.576 173.256 194.982H198.318C199.338 177.223 196.751 159.411 196.86 141.616C196.897 137.044 197.097 132.473 196.769 127.919C196.551 124.969 196.096 122 194.912 119.286C192.999 114.897 188.828 112.183 186.898 107.957C186.497 107.101 186.114 106.445 185.532 105.699C185.022 105.043 184.493 104.387 183.783 103.95C182.982 103.458 181.998 103.331 181.069 103.203L173.456 102.238C170.141 101.819 167.974 101.601 166.225 104.715C164.823 107.229 164.349 110.289 165.06 113.093C165.679 115.57 167.1 117.756 168.101 120.087V120.069Z" fill="#BEE2EA"/>
<path d="M167.737 113.02C171.197 115.898 176.261 116.864 180.614 116.026C182.891 115.589 185.204 114.733 186.97 113.203C187.681 112.583 188.318 111.891 188.883 111.163C188.828 111.072 188.755 110.962 188.701 110.871C188.701 110.507 187.99 109.724 187.79 109.396C187.499 108.922 187.134 108.467 186.916 107.957C186.515 107.101 186.133 106.445 185.55 105.699C185.04 105.043 184.512 104.387 183.801 103.95C183 103.458 182.016 103.331 181.087 103.203L173.474 102.238C171.999 102.056 170.487 101.856 169.03 102.147C166.662 102.602 164.732 104.824 163.985 107.065C163.912 107.283 163.839 107.502 163.784 107.739C164.841 109.706 166.007 111.6 167.755 113.057L167.737 113.02Z" fill="#FFA87D"/>
<path d="M166.608 102.165C166.662 102.02 166.571 101.91 166.444 101.837C165.278 101.291 163.876 101.309 162.765 101.965C162.546 102.092 162.564 102.256 162.728 102.402C161.927 102.93 161.052 103.112 160.306 103.732C159.359 104.497 158.557 105.553 157.865 106.536C156.353 108.631 155.261 110.999 154.66 113.494C153.676 117.592 154.058 122.018 155.734 125.898C156.299 127.209 157.282 128.611 158.703 128.593C159.286 128.593 159.832 128.302 160.36 128.047C161.289 127.573 162.218 127.1 163.147 126.644C164.568 125.934 166.243 125.205 167.682 125.916C168.101 126.116 168.465 126.444 168.921 126.517C172.855 127.172 169.995 119.523 169.285 118.248C168.046 116.062 166.462 114.04 165.733 111.636C164.768 108.467 165.351 105.134 166.626 102.165H166.608Z" fill="white"/>
<path d="M203.29 120.816C203.29 120.816 203.253 120.652 203.235 120.58C202.616 117.793 201.377 115.152 199.647 112.893C197.461 110.016 195.257 107.211 192.525 104.807C191.597 103.987 190.285 103.459 189.174 102.876C187.79 102.147 186.223 101.656 184.639 101.765C183.783 101.82 183.109 101.983 183.328 102.876C184.038 105.681 186.278 108.03 188.045 110.216C190.649 113.422 192.052 116.427 193.126 120.343C193.4 121.344 193.709 122.364 194.383 123.166C195.64 124.659 198.481 124.86 200.266 124.933C200.958 124.951 201.687 124.951 202.288 124.605C202.925 124.24 203.308 123.512 203.417 122.783C203.508 122.128 203.417 121.472 203.29 120.835V120.816Z" fill="white"/>
<path d="M199.647 104.296C200.193 103.969 200.667 103.513 201.049 102.93C201.159 102.748 201.268 102.566 201.286 102.347C201.286 101.965 200.995 101.674 200.74 101.4C199.265 99.743 198.919 97.3752 198.955 95.1531C198.991 92.9311 199.356 90.709 199.01 88.5052C198.536 85.4817 196.769 82.8408 195.804 79.9448C194.82 77.0306 194.638 73.8068 193.072 71.1658C192.125 69.5813 190.813 68.5613 189.283 67.596C187.863 66.7035 186.479 66.5942 184.912 66.0478C183.674 65.6289 182.891 64.7365 181.634 64.4268C180.414 64.1172 179.193 63.8076 177.936 63.6983C170.287 63.0608 162.892 67.7053 159.723 74.6811C158.958 76.3567 158.43 78.1599 158.302 79.9994C158.175 81.7479 158.412 83.4964 158.393 85.2449C158.393 86.9388 158.157 88.6327 157.719 90.2719C157.045 92.7854 155.88 95.1531 155.206 97.6666C154.878 98.8687 154.277 99.8158 154.35 101.109C154.423 102.42 154.878 103.714 155.661 104.77C155.916 105.116 156.353 105.48 156.754 105.28C157.319 104.988 156.918 103.969 157.41 103.531C157.446 103.495 157.501 103.459 157.574 103.459C157.665 103.459 157.719 103.55 157.756 103.641C158.193 104.387 159.031 104.825 159.869 104.97C161.326 105.225 162.856 104.825 164.313 104.788C166.498 104.733 168.666 104.697 170.851 104.642C174.603 104.57 178.355 104.478 182.107 104.387C182.982 104.369 183.728 104.315 184.548 104.57C185.531 104.861 186.406 105.262 187.462 105.262C189.302 105.262 191.178 104.114 192.872 104.843C193.163 104.97 193.436 105.134 193.728 105.243C194.839 105.608 195.986 104.988 197.115 104.988C198.044 104.988 198.918 104.77 199.683 104.296H199.647Z" fill="black"/>
<path d="M186.315 99.9069C186.315 99.9069 186.315 99.9251 186.315 99.9433C186.023 101.255 185.586 102.53 185.459 103.877C185.441 104.096 185.422 104.296 185.422 104.515C185.386 106.172 185.768 107.793 185.914 109.433C186.042 110.853 186.351 112.474 185.04 113.44C184.439 113.877 183.71 114.095 182.982 114.277C182.727 114.332 182.472 114.405 182.199 114.46C177.773 115.407 172.746 115.352 168.793 113.021C168.083 112.602 167.391 112.11 166.899 111.436C166.225 110.525 165.989 109.341 166.025 108.212C166.08 106.118 167.045 104.424 167.482 102.439C167.956 100.344 168.192 98.1948 168.192 96.0274C168.192 95.5538 168.192 95.0438 168.338 94.5885C168.611 93.7507 169.631 93.1132 170.469 93.0039C171.362 92.8946 172.382 93.095 173.219 93.4046C174.112 93.7325 174.931 94.2971 175.878 94.461C177.099 94.6796 178.574 94.6613 179.831 94.7524C180.76 94.8253 181.634 94.4246 182.545 94.2971C183.383 94.1878 184.038 94.461 184.821 94.716C185.768 95.0438 186.351 95.4445 186.515 96.4099C186.552 96.6466 186.588 96.9016 186.606 97.1384C186.679 98.0673 186.57 98.9598 186.369 99.8887L186.315 99.9069Z" fill="#EDAF8C"/>
<path d="M186.315 99.9069C186.315 99.9069 186.315 99.9251 186.315 99.9434C186.023 101.255 185.586 102.53 185.459 103.877C185.44 104.096 185.422 104.296 185.422 104.515C182.745 106.373 178.829 106.1 176.079 104.296C174.986 103.586 174.039 102.603 173.474 101.437C172.855 100.18 172.327 97.5574 173.911 96.7378C175.022 96.1549 176.279 95.8271 177.481 95.5357C178.537 95.2989 179.667 95.0621 180.741 95.0621H180.778C181.597 95.0075 182.435 95.0986 183.255 95.226C183.929 95.3353 184.147 95.7542 184.766 95.9364C185.477 96.1185 186.096 96.5738 186.57 97.1567C186.642 98.0856 186.533 98.978 186.333 99.9069H186.315Z" fill="#E26E61"/>
<path d="M191.651 93.5321C190.832 96.9199 189.52 100.253 186.606 102.384C183.364 104.77 179.029 104.26 175.805 102.184C172.163 99.8523 169.813 96.3552 168.265 92.33C167.281 89.8166 166.68 87.1028 166.48 84.4071C166.043 78.342 166.189 70.5648 172.6 67.5778C176.133 65.9203 180.322 66.5214 184.038 67.6871C184.949 67.9603 185.841 68.2881 186.661 68.7617C189.794 70.6013 191.378 74.7721 192.015 78.1599C192.872 82.6222 192.908 87.3213 192.015 91.7654C191.906 92.3483 191.779 92.9493 191.633 93.5321H191.651Z" fill="#EDAF8C"/>
<path d="M194.511 82.4763C194.147 80.3635 193.764 78.2325 192.89 76.2837C191.997 74.3348 191.105 71.9306 189.812 70.2003C189.702 70.0546 189.593 69.9271 189.484 69.7814C186.406 66.0841 180.614 64.1352 175.933 65.1187C174.166 65.483 172.509 66.248 170.888 67.0494C169.649 67.6686 168.265 68.1786 167.227 69.0711C166.043 70.1093 164.823 71.3114 163.784 72.477C162.692 73.6973 162.291 75.7373 161.89 77.2854C160.907 81.1285 160.634 85.1172 160.579 89.0696C160.506 93.4044 160.67 97.7393 161.071 102.056C161.162 103.094 160.998 103.987 162.036 104.66C162.71 105.098 163.511 105.207 164.294 105.334C165.078 105.444 165.861 105.553 166.626 105.662C167.664 105.808 168.866 105.899 169.576 105.134C170.906 103.695 170.177 100.908 169.941 99.2146C169.595 96.865 169.157 94.5337 168.939 92.1477C168.484 87.139 168.975 81.5656 173.966 79.0703C175.204 78.4511 176.461 77.8318 177.7 77.2126C179.047 76.5387 180.395 75.8648 181.525 74.8812C182.217 74.2802 182.818 73.5516 183.2 72.7138C183.583 71.9124 183.564 70.856 184.093 70.1457C185.094 68.7797 185.878 70.9471 186.278 71.5845C187.007 72.7866 187.59 74.0798 188.391 75.2273C189.52 76.8665 190.577 78.0139 190.886 80.0174C191.123 81.511 191.323 83.0227 191.651 84.498C192.252 87.23 193.4 90.5267 196.35 91.4374C196.223 90.1078 195.604 89.0332 195.349 87.7582C195.003 86.0097 194.802 84.2066 194.493 82.4581L194.511 82.4763Z" fill="black"/>
<path d="M174.021 85.0812C174.021 84.4983 174.13 83.7698 174.822 83.5148C175.277 83.3509 175.842 83.4601 176.133 83.8244C176.279 84.0065 176.352 84.2251 176.425 84.4255C176.571 84.9537 176.662 85.6276 176.225 86.1011C175.97 86.3743 175.532 86.5383 175.168 86.429C174.403 86.2286 174.039 85.8461 174.021 85.0994V85.0812Z" fill="black"/>
<path d="M173.784 80.6007C173.784 80.6007 173.766 80.6007 173.747 80.6007C173.183 80.7646 172.545 80.9285 172.035 81.2382C171.598 81.4932 171.289 81.9667 170.979 82.3674C170.779 82.6224 170.578 82.9138 170.669 83.2234C170.578 82.8592 172.181 82.3674 172.436 82.2764C173.365 81.9667 174.348 81.9121 175.314 81.8757C176.352 81.8392 177.372 81.821 178.41 81.821C178.683 81.821 178.793 81.3839 178.793 81.1471C178.793 80.8375 178.611 80.5825 178.337 80.4368C178.082 80.2911 177.773 80.2546 177.463 80.2364C176.224 80.1453 174.986 80.2729 173.802 80.6007H173.784Z" fill="black"/>
<path d="M191.324 81.5476C190.923 81.5112 190.504 81.3473 190.103 81.2744C189.521 81.1651 188.92 81.0741 188.337 81.0376C187.171 80.9648 185.987 81.0376 184.858 81.2744C184.821 81.2744 184.785 80.5277 184.785 80.4548C184.803 80.1452 184.84 80.0177 185.095 79.8902C185.568 79.617 186.37 79.5988 186.898 79.5805C188.1 79.5259 189.32 79.7991 190.377 80.3819C190.887 80.6551 191.397 81.0376 191.67 81.5476C191.561 81.5476 191.469 81.5476 191.36 81.5476H191.324Z" fill="black"/>
<path d="M189.703 84.2434C189.575 83.6788 189.265 82.9867 188.537 82.9138C188.045 82.8592 187.535 83.1142 187.335 83.5331C187.244 83.7334 187.207 83.9702 187.207 84.1888C187.207 84.7352 187.28 85.4091 187.808 85.7551C188.118 85.9555 188.573 86.0101 188.919 85.8098C189.611 85.4273 189.866 84.972 189.703 84.2434Z" fill="black"/>
<path d="M178.847 95.6629C178.975 95.8268 179.139 95.9908 179.321 96.1365C180.213 96.9015 181.47 97.4843 182.818 97.4479C184.202 97.3932 185.477 96.5554 186.242 95.5354C186.406 95.3169 186.57 95.0619 186.552 94.8069C186.552 94.224 185.951 94.3151 185.459 94.3151C184.767 94.3333 184.056 94.3698 183.364 94.388C181.962 94.4426 180.578 94.479 179.175 94.5337C178.975 94.5337 178.756 94.5337 178.592 94.6612C178.21 94.9162 178.647 95.4626 178.829 95.6812L178.847 95.6629Z" fill="white"/>
<path d="M181.579 92.3846C182.034 92.3117 182.508 92.2388 182.963 92.166C183.309 92.1113 183.692 92.0567 183.947 91.8199C184.639 91.2007 183.947 89.9986 183.692 89.3247C183.036 87.558 182.526 85.7366 182.144 83.897C182.089 83.6603 182.872 83.642 182.927 83.9334C183.364 86.028 184.001 88.0497 184.766 90.0532C185.058 90.8 185.222 91.7107 184.42 92.2024C184.074 92.4028 183.692 92.4938 183.309 92.5485C182.799 92.6395 182.289 92.7124 181.779 92.8035C181.652 92.8217 181.361 92.8035 181.306 92.6396C181.251 92.4756 181.488 92.421 181.597 92.4028L181.579 92.3846Z" fill="#E26E61"/>
<path d="M192.944 93.3318C192.835 93.1679 192.78 92.9494 192.635 92.8036C192.598 92.7672 192.143 92.5122 192.143 92.6033C192.052 93.4047 192.708 94.115 193.181 94.6978C193.8 95.481 194.565 96.1185 195.166 96.9199C195.713 97.6485 196.077 98.5227 196.241 99.4152C196.423 100.453 196.35 101.528 195.986 102.53C195.895 102.766 196.551 102.803 196.642 102.584C197.243 100.89 197.097 98.978 196.205 97.4117C195.713 96.5374 194.966 95.8635 194.31 95.135C193.8 94.5886 193.345 93.9875 192.963 93.3318H192.944Z" fill="#354E60"/>
<path d="M194.492 98.0491C194.401 97.8487 193.746 97.9398 193.855 98.1766C194.474 99.5608 194.073 101.291 192.926 102.256C192.799 102.366 192.962 102.457 193.054 102.475C193.199 102.511 193.381 102.475 193.509 102.384C194.747 101.346 195.166 99.5061 194.492 98.0491Z" fill="#354E60"/>
<path d="M196.988 86.2288C196.86 86.0467 196.223 86.156 196.35 86.3563C196.915 87.1941 197.206 88.1959 197.17 89.1977C197.17 89.4162 197.826 89.398 197.844 89.1612C197.88 88.1231 197.571 87.0849 197.006 86.2288H196.988Z" fill="#354E60"/>
<path d="M170.797 70.9657C170.105 71.8217 169.504 72.7688 169.048 73.7888C168.575 74.8452 168.301 75.9562 167.955 77.049C167.391 78.8522 166.316 81.2564 164.149 81.4931C164.058 81.4931 163.821 81.5296 163.821 81.6753C163.821 81.8028 164.076 81.8392 164.167 81.821C166.353 81.566 167.682 79.69 168.374 77.7593C168.793 76.5937 169.066 75.3916 169.522 74.2441C169.977 73.0967 170.615 72.0403 171.38 71.075C171.58 70.8382 170.924 70.7653 170.797 70.9293V70.9657Z" fill="#354E60"/>
<path d="M165.624 76.4117C165.351 78.2877 163.894 79.9998 162.036 80.4551C161.945 80.4733 161.745 80.5462 161.818 80.6737C161.872 80.8012 162.127 80.8012 162.236 80.7647C164.313 80.2365 165.97 78.5063 166.298 76.3571C166.334 76.1567 165.661 76.1385 165.624 76.3935V76.4117Z" fill="#354E60"/>
<path d="M158.466 101.874C156.645 100.107 157.228 97.3206 157.81 95.1714C157.883 94.9164 157.228 94.8982 157.155 95.1167C156.535 97.4116 155.971 100.235 157.883 102.093C158.029 102.238 158.666 102.093 158.448 101.892L158.466 101.874Z" fill="#354E60"/>
<path d="M162.072 101.838C161.253 101.546 160.597 100.799 160.397 99.9434C160.36 99.7977 160.178 99.7795 160.051 99.7977C159.978 99.7977 159.705 99.8523 159.723 99.9798C159.941 100.945 160.67 101.765 161.599 102.093C161.745 102.147 161.927 102.147 162.072 102.074C162.182 102.002 162.2 101.874 162.072 101.838Z" fill="#354E60"/>
<path d="M190.012 69.2354C189.812 69.1443 189.21 69.3264 189.557 69.5086C191.56 70.5285 192.871 72.696 192.871 74.9362C192.871 75.173 193.545 75.1366 193.545 74.8998C193.545 72.532 192.143 70.31 190.03 69.2354H190.012Z" fill="#354E60"/>
<path d="M238.715 147.663C238.66 147.171 238.569 146.68 238.496 146.224C238.26 144.931 237.859 143.656 237.313 142.454C237.076 141.944 236.803 141.434 236.438 140.997C236.274 140.797 236.074 140.614 235.837 140.523C235.637 140.432 235.4 140.432 235.182 140.432C234.617 140.432 234.034 140.432 233.488 140.596C232.941 140.742 232.413 141.033 232.067 141.489C231.703 141.962 231.539 142.563 231.448 143.164C231.102 145.35 231.502 147.335 232.14 149.412C232.522 150.632 233.451 151.779 234.726 152.089C235.455 152.271 236.074 152.107 236.766 151.889C237.458 151.67 237.804 151.397 238.241 150.778C238.405 150.541 238.551 150.268 238.642 149.976C238.843 149.266 238.824 148.464 238.733 147.681L238.715 147.663Z" fill="#354E60"/>
<path d="M245.563 121.909C244.507 123.712 242.54 124.222 240.609 124.477C239.717 124.587 238.842 124.714 237.95 124.823C235.291 125.169 232.741 125.679 231.266 128.12C229.918 130.342 229.353 132.965 228.169 135.278C227.896 135.824 227.586 136.334 227.331 136.881C226.967 137.664 226.749 138.52 226.548 139.358C226.093 141.179 225.71 143.037 225.71 144.931C225.71 146.57 225.802 148.574 226.731 149.976C227.368 150.942 228.26 151.834 229.371 152.162C230.683 152.544 232.012 152.781 233.36 152.854C233.87 152.872 234.417 152.872 234.817 152.581C235.236 152.271 235.418 151.725 235.546 151.215C236.948 145.969 237.021 140.469 238.241 135.169C238.369 134.64 238.515 134.094 238.861 133.693C239.152 133.347 239.571 133.129 239.972 132.928C242.922 131.435 245.873 129.978 248.86 128.557C249.716 128.156 250.554 127.737 251.428 127.373C252.576 126.881 253.741 126.444 254.852 125.88C257.056 124.787 259.005 123.239 260.936 121.727C261.609 121.199 262.302 120.652 262.884 120.015C263.704 119.122 264.305 118.048 265.088 117.119C265.325 116.846 265.58 116.554 265.598 116.19C265.708 114.66 262.047 116.39 261.537 116.773C260.826 117.338 260.28 118.084 259.515 118.558C259.096 118.813 258.604 118.977 258.131 119.013C258.495 117.228 259.096 115.498 259.916 113.895C260.389 112.966 260.954 112.056 261.172 111.036C261.245 110.744 261.263 110.453 261.172 110.18C260.772 109.141 259.187 110.234 258.732 110.69C258.058 111.363 257.621 112.22 257.165 113.039C256.2 114.842 255.217 116.645 254.251 118.43C253.577 117.083 253.067 115.662 252.703 114.205C252.503 113.385 252.339 112.529 251.883 111.837C250.955 112.438 250.19 113.422 250.026 114.533C249.862 115.68 250.135 116.809 250.445 117.902C250.754 118.995 251.046 120.106 250.663 121.217C250.317 122.219 249.916 123.257 249.06 123.967C249.716 122.383 249.898 120.616 249.607 118.94C249.461 118.157 249.224 117.392 248.987 116.645C248.623 115.553 248.241 114.46 247.858 113.385C245.673 113.549 245.982 116.354 246.201 117.829C246.419 119.25 246.274 120.598 245.527 121.873L245.563 121.909Z" fill="#EDAF8C"/>
<path d="M228.88 134.968C228.77 134.804 228.679 134.622 228.57 134.458C228.442 134.731 228.315 135.005 228.169 135.278C227.896 135.824 227.586 136.334 227.331 136.881C226.967 137.664 226.749 138.52 226.548 139.358C226.093 141.179 225.71 143.037 225.71 144.931C225.71 146.57 225.802 148.574 226.731 149.976C227.368 150.942 228.26 151.834 229.371 152.162C230.683 152.544 232.012 152.781 233.36 152.854C233.87 152.872 234.417 152.872 234.817 152.581C235.236 152.271 235.418 151.725 235.546 151.215C236.074 149.211 236.42 147.171 236.712 145.113C233.36 142.345 230.756 138.866 228.861 134.95L228.88 134.968Z" fill="#BEE2EA"/>
<path d="M238.733 149.284C238.733 149.284 238.697 149.211 238.679 149.175C238.369 149.375 238.169 149.703 237.895 149.958C237.385 150.432 236.639 150.559 235.965 150.45C235.291 150.341 234.672 149.976 234.125 149.557C232.668 148.428 231.63 146.844 230.756 145.223C229.444 142.782 228.388 140.214 227.623 137.555C227.55 137.281 227.313 136.935 227.076 137.081C227.004 137.118 226.949 137.209 226.913 137.3C226.567 137.992 226.275 138.648 225.965 139.34C225.437 140.505 224.873 141.635 224.272 142.764C223.106 144.968 221.813 147.117 220.41 149.175C219.208 150.942 217.624 152.581 216.604 154.439C215.857 155.805 215.183 157.244 214.728 158.737C214.327 160.012 213.671 161.105 213.489 162.453C213.107 165.221 213.89 168.172 215.693 170.321C216.094 170.813 216.549 171.25 217.095 171.596C217.751 172.015 218.516 172.252 219.263 172.47C220.155 172.743 221.084 173.126 222.013 173.217C222.869 173.308 223.689 172.853 224.399 172.397C226.475 171.013 227.841 168.809 229.754 167.206C230.537 166.551 231.393 165.986 232.031 165.203C232.613 164.474 232.978 163.582 233.287 162.689C233.688 161.56 234.016 160.413 234.289 159.247C234.489 158.355 234.526 157.735 235.109 157.043C235.801 156.224 236.602 155.495 237.258 154.657C238.059 153.655 238.588 152.435 238.77 151.178C238.879 150.505 239.006 149.94 238.733 149.321V149.284Z" fill="#4C6880"/>
<path d="M257.894 119.159C257.165 120.707 256.346 122.219 255.417 123.676C255.344 123.785 255.726 123.84 255.799 123.73C256.71 122.273 257.548 120.762 258.276 119.213C258.331 119.086 257.949 119.05 257.894 119.159Z" fill="#E26E61"/>
<path d="M254.433 118.54C254.433 118.394 254.033 118.412 254.051 118.54C254.106 119.123 254.178 119.706 254.124 120.307C254.087 120.926 253.869 121.49 253.65 122.055C253.213 123.203 252.758 124.35 252.266 125.479C252.211 125.625 252.594 125.661 252.648 125.534C253.14 124.386 253.614 123.221 254.051 122.055C254.27 121.509 254.47 120.962 254.524 120.361C254.579 119.76 254.524 119.141 254.452 118.54H254.433Z" fill="#E26E61"/>
<path d="M249.042 124.168C249.042 124.168 248.86 124.168 248.806 124.241C248.387 124.86 248.004 125.497 247.494 126.044C247.367 126.171 247.749 126.244 247.822 126.135C248.35 125.588 248.751 124.914 249.17 124.295C249.224 124.222 249.079 124.186 249.042 124.168Z" fill="#E26E61"/>
<path d="M238.824 133.639C238.824 133.639 238.624 133.62 238.551 133.675C237.968 134.221 237.349 134.75 236.693 135.223C236.62 135.278 236.693 135.351 236.766 135.351C236.857 135.369 236.966 135.369 237.039 135.314C237.695 134.841 238.314 134.312 238.897 133.766C238.97 133.711 238.897 133.657 238.824 133.639Z" fill="#E26E61"/>
<path d="M211.322 152.326C211.103 148.464 210.612 144.603 209.883 140.796C209.482 138.665 208.991 136.553 208.426 134.458C208.371 134.258 207.734 134.294 207.807 134.549C208.809 138.301 209.574 142.108 210.084 145.951C210.575 149.776 210.83 153.619 210.83 157.48C210.83 159.648 210.739 161.833 210.575 164.001C210.575 164.219 211.213 164.237 211.231 164.001C211.522 160.121 211.559 156.205 211.34 152.326H211.322Z" fill="#354E60"/>
<path d="M221.649 147.863C221.503 147.827 221.339 147.827 221.212 147.918C220.775 148.227 220.538 148.701 220.301 149.175C220.046 149.666 219.791 150.14 219.5 150.613C218.917 151.56 218.298 152.471 217.66 153.382C216.403 155.24 215.22 157.17 214.782 159.374C214.509 160.758 214.527 162.179 214.819 163.563C214.873 163.8 215.511 163.764 215.475 163.563C215.22 162.361 215.183 161.104 215.347 159.884C215.511 158.755 215.875 157.662 216.385 156.642C217.332 154.675 218.698 152.945 219.864 151.105C220.192 150.595 220.502 150.067 220.775 149.539C221.048 149.011 221.266 148.428 221.758 148.082C221.886 147.991 221.722 147.881 221.649 147.863Z" fill="#354E60"/>
<path d="M218.899 164.766C218.334 162.744 218.097 160.649 218.189 158.555C218.189 158.336 217.551 158.318 217.533 158.555C217.442 160.686 217.697 162.799 218.28 164.857C218.334 165.057 218.972 165.021 218.899 164.766Z" fill="#354E60"/>
<path d="M232.869 156.169C230.392 155.003 228.406 152.909 227.277 150.413C226.949 149.703 226.712 148.956 226.549 148.21C226.494 147.973 225.856 148.009 225.893 148.21C226.494 150.96 228.115 153.455 230.373 155.167C231.011 155.641 231.685 156.06 232.413 156.406C232.541 156.46 232.741 156.479 232.869 156.406C232.978 156.351 232.996 156.224 232.869 156.169Z" fill="#354E60"/>
<path d="M169.431 127.701C169.522 128.976 169.613 130.251 169.686 131.526C169.85 134.057 170.014 136.589 170.159 139.121C170.451 144.184 170.706 149.248 170.924 154.329C171.361 164.492 171.58 174.674 171.744 184.837C171.799 188.225 171.89 191.612 172.072 194.982H173.365C172.91 187.114 173.001 179.209 172.8 171.341C172.545 161.105 172.126 150.887 171.543 140.669C171.38 137.791 171.197 134.913 171.015 132.036C170.924 130.597 170.833 129.14 170.724 127.701C170.633 126.481 170.505 125.279 170.014 124.149C169.85 123.749 168.557 123.858 168.757 124.331C169.212 125.406 169.34 126.553 169.413 127.719L169.431 127.701Z" fill="white"/>
<path d="M197.862 183.744C198.026 187.496 198.172 191.248 198.336 195H199.629L198.591 170.43C198.154 160.212 197.735 149.994 197.297 139.776L196.587 122.692C196.569 122.218 195.276 122.237 195.294 122.692L196.569 153.109C197.006 163.326 197.425 173.544 197.862 183.762V183.744Z" fill="white"/>
<path d="M140.052 78.7061C140.544 80.0721 139.579 81.6749 137.885 82.3124C136.191 82.9317 134.406 82.3306 133.896 80.9646C133.386 79.5986 134.37 77.9958 136.063 77.3583C137.757 76.7391 139.542 77.3401 140.052 78.7061Z" fill="#B5696D"/>
<path d="M160.178 180.356C157.118 180.356 154.368 178.152 153.785 175.056L136.118 80.0172C136.027 79.5619 136.337 79.1248 136.792 79.0337C137.247 78.9426 137.684 79.2523 137.775 79.7076L155.443 174.746C155.916 177.314 158.411 179.044 160.998 178.607C162.437 178.352 163.675 177.478 164.385 176.185L167.045 171.358C167.263 170.958 167.773 170.794 168.192 171.03C168.593 171.249 168.757 171.759 168.52 172.178L165.861 177.005C164.914 178.735 163.238 179.937 161.289 180.265C160.925 180.338 160.542 180.356 160.178 180.356Z" fill="black"/>
<path d="M168.72 170.065C167.773 169.555 166.589 169.883 166.079 170.83L163.42 175.657C162.874 176.64 161.927 177.333 160.816 177.515C158.83 177.861 156.9 176.531 156.535 174.546L153.876 160.248C152.674 160.868 151.454 161.45 150.252 162.088L152.692 175.256C153.366 178.899 156.572 181.467 160.16 181.467C160.597 181.467 161.016 181.431 161.453 181.358C163.73 180.957 165.679 179.573 166.808 177.533L169.467 172.706C169.977 171.759 169.649 170.575 168.702 170.065H168.72Z" fill="black"/>
<path d="M138.632 90.8544C138.632 90.8544 138.595 90.8544 138.577 90.8544C138.395 90.818 138.285 90.6541 138.322 90.472C138.632 88.7963 138.595 87.0114 138.559 85.445C138.468 80.2723 138.304 75.0268 138.067 69.836C138.067 69.6538 138.194 69.5081 138.377 69.4899C138.559 69.4899 138.704 69.6174 138.723 69.7995C138.941 74.9904 139.105 80.2359 139.214 85.4268C139.251 87.0296 139.269 88.8327 138.959 90.5812C138.923 90.7451 138.795 90.8544 138.65 90.8544H138.632Z" fill="black"/>
<path d="M138.723 90.5996C138.723 90.5996 138.577 90.5813 138.504 90.5085C132.621 85.2812 127.576 79.5257 123.514 73.4059C123.423 73.2602 123.459 73.0599 123.605 72.9506C123.751 72.8595 123.951 72.896 124.061 73.0417C128.104 79.1068 133.113 84.8259 138.941 90.0167C139.069 90.1442 139.087 90.3446 138.959 90.4721C138.886 90.5449 138.814 90.5813 138.723 90.5813V90.5996Z" fill="black"/>
<path d="M138.631 90.4357C138.631 90.4357 138.559 90.4358 138.522 90.4175L133.422 88.5415C132.111 88.0498 130.763 87.558 129.452 87.0298C125.827 85.5545 122.494 83.806 119.525 81.8207C119.38 81.7297 119.343 81.5111 119.434 81.3654C119.525 81.2197 119.744 81.1833 119.89 81.2743C122.822 83.2232 126.119 84.9534 129.689 86.4105C130.982 86.9387 132.329 87.4305 133.641 87.9223L138.741 89.7983C138.905 89.8529 138.996 90.0533 138.941 90.2172C138.886 90.3447 138.777 90.4357 138.631 90.4357Z" fill="black"/>
<path d="M138.431 87.1024C138.303 87.1024 138.176 87.0295 138.121 86.9021C138.121 86.9021 138.121 86.9021 138.121 86.8839C138.103 86.8474 138.085 86.8292 138.085 86.7928C135.772 81.5837 133.768 76.2835 132.129 71.0198C132.075 70.8559 132.166 70.6738 132.348 70.6191C132.512 70.5645 132.694 70.6556 132.748 70.8377C134.369 76.065 136.373 81.3469 138.668 86.5196C138.741 86.5924 138.777 86.6835 138.777 86.7928C138.777 86.9567 138.668 87.1024 138.522 87.1388C138.504 87.1388 138.467 87.1388 138.449 87.1388L138.431 87.1024Z" fill="black"/>
<path d="M138.65 89.98C136.956 89.9436 135.207 89.9254 133.495 89.7614C130.782 89.5065 128.177 88.9236 125.955 88.0676C125.791 87.9947 125.7 87.8126 125.773 87.6487C125.846 87.4847 126.028 87.3937 126.192 87.4665C128.359 88.3043 130.909 88.869 133.55 89.124C135.226 89.2879 136.974 89.3061 138.65 89.3425C138.832 89.3425 138.978 89.4882 138.959 89.6704C138.959 89.8525 138.814 89.98 138.631 89.98H138.65Z" fill="black"/>
<path d="M138.668 90.0349C138.668 90.0349 138.577 90.0349 138.54 89.9985C138.377 89.9256 138.304 89.7253 138.377 89.5614L138.54 89.2153C139.943 86.1919 141.291 83.3323 142.056 80.1085C142.493 78.3236 142.821 76.484 143.167 74.6991C143.349 73.752 143.531 72.7685 143.713 71.8031C143.75 71.621 143.913 71.5117 144.096 71.5481C144.278 71.5846 144.387 71.7485 144.351 71.9306C144.15 72.8959 143.968 73.8795 143.804 74.8266C143.476 76.6115 143.13 78.4693 142.693 80.2724C141.892 83.5691 140.544 86.4469 139.123 89.5067L138.959 89.8528C138.905 89.9621 138.796 90.0349 138.668 90.0349Z" fill="black"/>
<path d="M138.468 90.2898C138.468 90.2898 138.304 90.2534 138.231 90.1805C138.103 90.0531 138.121 89.8527 138.231 89.7252C142.256 85.9186 145.935 81.2012 149.122 75.6643C149.214 75.5004 149.414 75.464 149.56 75.555C149.723 75.6461 149.76 75.8465 149.669 75.9922C146.445 81.5655 142.729 86.3375 138.65 90.1988C138.595 90.2534 138.504 90.2898 138.431 90.2898H138.468Z" fill="black"/>
<path d="M138.759 90.29C138.631 90.29 138.504 90.2171 138.449 90.0896C138.376 89.9257 138.449 89.7436 138.631 89.6707C142.529 88.159 146.281 86.2283 149.796 83.9334C149.942 83.8424 150.142 83.8788 150.252 84.0245C150.343 84.1702 150.306 84.3706 150.161 84.4798C146.627 86.793 142.82 88.7418 138.886 90.2718C138.85 90.2718 138.813 90.29 138.777 90.29H138.759Z" fill="black"/>
<path d="M138.813 89.8346C138.704 89.8346 138.595 89.78 138.54 89.6707C138.449 89.525 138.504 89.3246 138.65 89.2336C143.84 86.1555 148.448 81.9482 152 77.0669C152.109 76.9212 152.31 76.8848 152.455 76.994C152.601 77.1033 152.638 77.3037 152.528 77.4494C148.94 82.4035 144.241 86.6837 138.977 89.7982C138.923 89.8346 138.868 89.8346 138.813 89.8346Z" fill="black"/>
<path d="M146.245 163.673C145.48 162.544 144.569 161.524 143.567 160.595C142.802 159.884 141.327 158.628 140.18 159.028C139.797 159.156 139.469 159.429 139.141 159.684C136.446 161.833 133.568 163.764 130.526 165.421C129.616 165.913 128.705 166.387 127.849 166.988C125.937 168.317 124.425 170.302 123.46 172.397C122.476 174.51 123.114 177.624 124.133 179.61C125.609 182.451 128.523 184.491 131.747 184.582C135.353 184.673 138.832 182.943 141.4 180.502C143.494 178.535 145.316 176.113 146.427 173.417C147.465 170.904 148.102 167.443 146.937 164.838C146.755 164.438 146.482 164.037 146.227 163.673H146.245Z" fill="#4C6880"/>
<path d="M147.155 171.996C146.737 173.708 144.788 175.548 142.966 175.238C142.511 175.165 142.074 174.947 141.673 174.582C140.781 173.763 140.253 172.415 139.852 171.286C139.433 170.047 139.178 168.754 139.05 167.461C138.923 166.058 138.923 164.656 139.032 163.253C139.087 162.434 139.233 161.578 139.633 160.886C139.779 160.631 139.961 160.412 140.18 160.194C140.289 160.103 140.398 160.011 140.526 159.92C140.763 159.775 141.054 159.72 141.327 159.775C142.165 159.593 143.294 159.902 143.859 160.157C145.152 160.74 145.68 162.088 146.099 163.345C146.737 165.257 147.356 167.461 147.374 169.592C147.374 170.393 147.319 171.195 147.119 171.96L147.155 171.996Z" fill="#354E60"/>
<path d="M158.029 160.813C158.903 162.325 158.666 164.274 156.809 164.802C156.262 164.966 155.679 164.966 155.097 164.966C154.022 164.966 152.656 165.203 151.618 164.893C151.527 165.075 151.454 165.257 151.363 165.439C150.707 166.641 149.906 168.026 148.722 168.772C148.358 169.009 147.975 169.191 147.611 169.446C147.538 169.501 147.447 169.556 147.374 169.628C146.627 170.248 146.117 171.104 145.589 171.923C144.806 173.107 143.914 174.218 142.948 175.238C142.493 175.165 142.056 174.947 141.655 174.583C140.763 173.763 140.234 172.415 139.834 171.286C139.415 170.047 139.16 168.754 139.032 167.461C138.905 166.059 138.905 164.656 139.014 163.254C139.069 162.434 139.214 161.578 139.615 160.886C139.797 160.649 139.979 160.431 140.161 160.194C140.161 160.176 140.198 160.157 140.198 160.139C141.254 158.828 142.037 157.334 142.529 155.732C143.021 154.111 143.859 152.526 144.624 151.014C145.553 149.156 147.083 147.408 149.159 147.353C149.359 147.353 150.215 146.078 150.416 145.878C150.871 145.404 151.381 144.967 151.946 144.621C152.838 144.075 154.641 143.401 155.37 144.548C155.661 145.022 155.679 145.623 155.516 146.151C155.315 146.807 154.933 147.317 154.441 147.754C155.643 148.027 156.881 148.373 157.756 149.229C158.12 149.594 158.339 149.994 158.229 150.504C158.175 150.759 157.847 151.597 157.537 151.615C158.047 151.561 158.703 151.925 158.994 152.307C159.195 152.562 159.304 152.89 159.359 153.218C159.559 154.274 159.049 155.513 158.357 156.314C158.976 156.679 159.413 157.316 159.413 158.136C159.413 159.229 158.776 160.085 157.993 160.777L158.029 160.813Z" fill="#EDAF8C"/>
<path d="M154.368 147.572C152.747 147.608 151.163 147.007 149.523 147.262C149.469 147.262 149.359 147.299 149.396 147.39C149.432 147.463 149.578 147.463 149.633 147.463C151.217 147.208 152.784 147.827 154.368 147.79C154.423 147.79 154.568 147.79 154.568 147.699C154.568 147.608 154.423 147.59 154.368 147.608V147.572Z" fill="#E26E61"/>
<path d="M157.137 151.433C154.805 151.306 152.474 151.287 150.142 151.378C150.088 151.378 149.942 151.378 149.942 151.469C149.942 151.561 150.088 151.579 150.142 151.561C152.474 151.469 154.805 151.488 157.137 151.615C157.191 151.615 157.337 151.597 157.337 151.524C157.337 151.433 157.191 151.433 157.137 151.433Z" fill="#E26E61"/>
<path d="M158.138 156.314C157.082 156.26 156.025 156.205 154.969 156.15C153.913 156.096 152.874 156.041 151.818 156.059C151.763 156.059 151.618 156.059 151.618 156.15C151.618 156.242 151.763 156.26 151.818 156.242C152.874 156.223 153.913 156.278 154.969 156.333C156.025 156.387 157.082 156.442 158.138 156.497C158.193 156.497 158.338 156.478 158.338 156.405C158.338 156.333 158.193 156.314 158.138 156.314Z" fill="#E26E61"/>
<path d="M157.519 160.558C155.916 160.412 154.313 160.358 152.692 160.412C152.638 160.412 152.492 160.412 152.492 160.503C152.492 160.594 152.638 160.613 152.692 160.594C154.259 160.558 155.843 160.594 157.41 160.74C157.482 160.74 157.61 160.74 157.646 160.667C157.683 160.594 157.574 160.558 157.519 160.54V160.558Z" fill="#E26E61"/>
<path d="M146.609 169.974C146.609 169.974 146.427 169.92 146.336 169.938C146.227 169.974 146.136 169.974 146.008 169.938C145.899 169.92 145.771 169.865 145.68 169.792C145.553 169.701 145.462 169.592 145.371 169.464C145.28 169.355 145.189 169.228 145.225 169.082C145.225 169.009 145.079 168.991 145.025 168.991C144.952 168.991 144.842 168.991 144.824 169.082C144.788 169.264 144.915 169.428 145.025 169.555C145.152 169.701 145.28 169.847 145.444 169.938C145.771 170.138 146.172 170.193 146.536 170.102C146.591 170.102 146.664 170.029 146.609 169.974Z" fill="#E26E61"/>
<path d="M151.417 164.856L151.108 164.346C151.108 164.346 150.944 164.255 150.871 164.274C150.835 164.274 150.78 164.274 150.762 164.328C150.744 164.346 150.725 164.383 150.744 164.401C150.853 164.565 150.944 164.747 151.053 164.911C151.09 164.984 151.217 165.002 151.29 164.984C151.326 164.984 151.381 164.984 151.399 164.929C151.417 164.911 151.436 164.875 151.417 164.856Z" fill="#E26E61"/>
<path d="M142.365 156.46C141.655 158.537 140.963 160.631 140.252 162.707C140.198 162.853 140.58 162.89 140.635 162.762C141.345 160.686 142.037 158.591 142.748 156.515C142.802 156.369 142.42 156.333 142.365 156.46Z" fill="#E26E61"/>
<path d="M139.561 159.575C139.506 159.447 139.269 159.447 139.16 159.465C136.956 159.848 135.572 161.706 134.005 163.126C132.148 164.802 129.743 165.603 127.703 166.988C126.629 167.716 125.627 168.609 125.008 169.774C124.899 169.993 125.518 170.066 125.627 169.865C126.756 167.771 128.978 166.678 131 165.622C132.111 165.039 133.204 164.438 134.169 163.636C134.989 162.962 135.699 162.161 136.464 161.451C137.284 160.704 138.213 159.975 139.324 159.793C139.415 159.793 139.597 159.72 139.542 159.593L139.561 159.575Z" fill="#354E60"/>
<path d="M137.757 177.278C135.044 175.22 133.914 171.814 133.678 168.554C133.605 167.516 133.605 166.459 133.641 165.403C133.641 165.184 133.004 165.166 132.985 165.403C132.84 168.9 133.204 172.615 135.335 175.53C135.863 176.258 136.482 176.914 137.211 177.442C137.338 177.533 137.521 177.551 137.648 177.497C137.739 177.478 137.885 177.369 137.757 177.278Z" fill="#354E60"/>
</svg>
