<svg width="32" height="32" viewBox="0 0 32 32" fill="none" xmlns="http://www.w3.org/2000/svg">
<path opacity="0.5" d="M13.0417 5.18702C13.7937 4.54702 14.1697 4.22702 14.5617 4.03902C15.0107 3.82433 15.502 3.71289 15.9997 3.71289C16.4974 3.71289 16.9887 3.82433 17.4377 4.03902C17.831 4.22569 18.207 4.54569 18.9577 5.18702C19.2577 5.44302 19.407 5.56969 19.567 5.67635C19.9334 5.92192 20.3449 6.09232 20.7777 6.17769C20.9657 6.21502 21.1617 6.23102 21.5537 6.26302C22.539 6.34035 23.031 6.38035 23.4417 6.52569C23.9107 6.69122 24.3368 6.95963 24.6887 7.31124C25.0405 7.66284 25.3092 8.08874 25.475 8.55769C25.6204 8.96969 25.659 9.46169 25.7377 10.4457C25.7684 10.8377 25.7844 11.0337 25.8217 11.223C25.907 11.655 26.0777 12.067 26.323 12.4324C26.4297 12.5924 26.5577 12.7417 26.8124 13.0417C27.4524 13.7937 27.7737 14.1697 27.9617 14.5617C28.1764 15.0107 28.2878 15.502 28.2878 15.9997C28.2878 16.4974 28.1764 16.9887 27.9617 17.4377C27.775 17.8297 27.4537 18.2057 26.8124 18.9577C26.638 19.1515 26.4747 19.355 26.323 19.567C26.0775 19.933 25.9071 20.344 25.8217 20.7764C25.7844 20.9657 25.7684 21.1617 25.7377 21.5537C25.659 22.5377 25.6204 23.031 25.475 23.4417C25.3092 23.9106 25.0405 24.3365 24.6887 24.6881C24.3368 25.0397 23.9107 25.3082 23.4417 25.4737C23.031 25.6204 22.539 25.659 21.5537 25.7364C21.1617 25.7684 20.967 25.7844 20.7777 25.8217C20.3449 25.907 19.9334 26.0775 19.567 26.323C19.3554 26.4747 19.1524 26.6381 18.959 26.8124C18.207 27.4524 17.831 27.7724 17.439 27.9604C16.99 28.175 16.4987 28.2865 16.001 28.2865C15.5034 28.2865 15.012 28.175 14.563 27.9604C14.1697 27.7737 13.7937 27.4537 13.043 26.8124C12.8492 26.6381 12.6457 26.4747 12.4337 26.323C12.0673 26.0775 11.6558 25.907 11.223 25.8217C10.9661 25.7789 10.7071 25.7504 10.447 25.7364C9.46169 25.659 8.96969 25.619 8.55902 25.4737C8.08996 25.3082 7.66389 25.0397 7.31205 24.6881C6.96022 24.3365 6.69153 23.9106 6.52569 23.4417C6.38035 23.031 6.34169 22.5377 6.26302 21.5537C6.2497 21.2932 6.22166 21.0337 6.17902 20.7764C6.09349 20.3441 5.92309 19.933 5.67769 19.567C5.57102 19.407 5.44302 19.2577 5.18835 18.9577C4.54835 18.2057 4.22702 17.8297 4.03902 17.4377C3.82433 16.9887 3.71289 16.4974 3.71289 15.9997C3.71289 15.502 3.82433 15.0107 4.03902 14.5617C4.22702 14.1697 4.54702 13.7937 5.18835 13.0417C5.44302 12.7417 5.57102 12.5924 5.67769 12.4324C5.92309 12.0663 6.09349 11.6553 6.17902 11.223C6.21635 11.0337 6.23235 10.8377 6.26302 10.4457C6.34169 9.46169 6.38035 8.96969 6.52569 8.55769C6.69167 8.0886 6.96056 7.66262 7.31264 7.311C7.66471 6.95938 8.09105 6.69105 8.56036 6.52569C8.97102 6.38035 9.46302 6.34035 10.4484 6.26302C10.8404 6.23102 11.035 6.21502 11.2244 6.17769C11.6571 6.09232 12.0686 5.92192 12.435 5.67635C12.595 5.56969 12.743 5.44302 13.0417 5.18702Z" stroke="#6A8EA8" stroke-width="2.5"/>
<path d="M11.334 16.667L14.0007 19.3337L20.6673 12.667" stroke="#6A8EA8" stroke-width="1.5" stroke-linecap="round" stroke-linejoin="round"/>
</svg>
