<svg viewBox="0 0 64 64" fill="none" xmlns="http://www.w3.org/2000/svg">
<path opacity="0.5" d="M26.0834 10.374C27.5874 9.09404 28.3394 8.45404 29.1234 8.07804C30.0213 7.64865 31.004 7.42578 31.9994 7.42578C32.9947 7.42578 33.9774 7.64865 34.8754 8.07804C35.662 8.45138 36.414 9.09138 37.9154 10.374C38.5154 10.886 38.814 11.1394 39.134 11.3527C39.8669 11.8438 40.6899 12.1846 41.5554 12.3554C41.9314 12.43 42.3234 12.462 43.1074 12.526C45.078 12.6807 46.062 12.7607 46.8834 13.0514C47.8215 13.3824 48.6736 13.9193 49.3773 14.6225C50.081 15.3257 50.6184 16.1775 50.95 17.1154C51.2407 17.9394 51.318 18.9234 51.4754 20.8914C51.5367 21.6754 51.5687 22.0674 51.6434 22.446C51.814 23.31 52.1554 24.134 52.646 24.8647C52.8594 25.1847 53.1154 25.4834 53.6247 26.0834C54.9047 27.5874 55.5474 28.3394 55.9234 29.1234C56.3528 30.0213 56.5756 31.004 56.5756 31.9994C56.5756 32.9947 56.3528 33.9774 55.9234 34.8754C55.55 35.6594 54.9074 36.4114 53.6247 37.9154C53.276 38.3031 52.9493 38.7099 52.646 39.134C52.155 39.866 51.8142 40.6881 51.6434 41.5527C51.5687 41.9314 51.5367 42.3234 51.4754 43.1074C51.318 45.0754 51.2407 46.062 50.95 46.8834C50.6184 47.8213 50.081 48.6731 49.3773 49.3763C48.6736 50.0795 47.8215 50.6163 46.8834 50.9474C46.062 51.2407 45.078 51.318 43.1074 51.4727C42.3234 51.5367 41.934 51.5687 41.5554 51.6434C40.6899 51.8141 39.8669 52.1549 39.134 52.646C38.7108 52.9494 38.3049 53.2761 37.918 53.6247C36.414 54.9047 35.662 55.5447 34.878 55.9207C33.9801 56.3501 32.9974 56.573 32.002 56.573C31.0067 56.573 30.024 56.3501 29.126 55.9207C28.3394 55.5474 27.5874 54.9074 26.086 53.6247C25.6983 53.2761 25.2915 52.9494 24.8674 52.646C24.1346 52.1549 23.3115 51.8141 22.446 51.6434C21.9323 51.5578 21.4141 51.5008 20.894 51.4727C18.9234 51.318 17.9394 51.238 17.118 50.9474C16.1799 50.6163 15.3278 50.0795 14.6241 49.3763C13.9204 48.6731 13.3831 47.8213 13.0514 46.8834C12.7607 46.062 12.6834 45.0754 12.526 43.1074C12.4994 42.5864 12.4433 42.0673 12.358 41.5527C12.187 40.6881 11.8462 39.8661 11.3554 39.134C11.142 38.814 10.886 38.5154 10.3767 37.9154C9.09671 36.4114 8.45404 35.6594 8.07804 34.8754C7.64865 33.9774 7.42578 32.9947 7.42578 31.9994C7.42578 31.004 7.64865 30.0213 8.07804 29.1234C8.45404 28.3394 9.09404 27.5874 10.3767 26.0834C10.886 25.4834 11.142 25.1847 11.3554 24.8647C11.8462 24.1327 12.187 23.3106 12.358 22.446C12.4327 22.0674 12.4647 21.6754 12.526 20.8914C12.6834 18.9234 12.7607 17.9394 13.0514 17.1154C13.3833 16.1772 13.9211 15.3252 14.6253 14.622C15.3294 13.9188 16.1821 13.3821 17.1207 13.0514C17.942 12.7607 18.926 12.6807 20.8967 12.526C21.6807 12.462 22.07 12.43 22.4487 12.3554C23.3142 12.1846 24.1372 11.8438 24.87 11.3527C25.19 11.1394 25.486 10.886 26.0834 10.374Z" stroke="#6A8EA8" stroke-width="2.5"/>
<path d="M22.668 33.334L28.0013 38.6673L41.3346 25.334" stroke="#6A8EA8" stroke-width="1.5" stroke-linecap="round" stroke-linejoin="round"/>
</svg>
