<svg  viewBox="0 0 116 160" fill="none" xmlns="http://www.w3.org/2000/svg">
<path d="M30.7859 132.715C30.321 134.055 29.5571 134.98 28.5275 135.603H14.1798C12.4361 134.716 10.8087 133.432 9.33074 132.016C6.74018 129.543 3.61821 126.484 3.98355 122.237C4.133 120.443 4.89689 118.763 5.89326 117.366C7.68673 114.817 10.2773 113.023 13.1003 112.363C14.4288 112.061 15.8072 112.004 17.1689 111.985C20.0251 111.966 22.898 112.155 25.6712 112.929C26.7008 113.212 27.747 113.609 28.6105 114.307C30.321 115.667 30.6199 117.498 30.9022 119.669C31.0516 120.745 31.3838 121.783 31.5 122.897C31.6329 124.257 31.6495 125.635 31.5664 126.994C31.4502 128.939 31.4336 130.883 30.7859 132.733V132.715Z" fill="#6A8EA8"/>
<path d="M39.3222 41.207C37.6948 42.9062 36.0176 44.5487 34.0082 45.4926C32.9621 45.9835 31.8494 46.2667 30.8365 46.8142C28.1795 48.2679 26.4358 51.4585 26.0207 54.7812C25.7383 56.8391 26.2532 58.5949 26.3694 60.5772C26.4856 62.5218 25.9874 64.7118 25.7882 66.6375C25.3398 70.8475 24.8416 75.0387 24.2936 79.2299C23.5463 84.856 22.6994 90.7085 24.1774 96.1458C24.742 98.2036 25.7217 100.28 27.399 101.281C29.7737 102.697 32.4473 101.205 34.6891 103.282C36.7316 105.189 38.3425 107.322 39.9533 109.701C41.2485 111.627 42.7929 113.401 44.7192 114.402C46.6455 115.403 49.0202 115.554 50.8469 114.308C52.4743 113.194 53.1552 111.193 54.7494 110.173C57.6388 108.304 59.8309 108.04 61.0929 104.132C62.1225 100.941 62.1391 97.4485 62.2221 94.0879C62.3384 89.5947 62.6539 85.1203 63.1687 80.6836C63.6171 76.7379 64.63 72.7732 64.9622 68.8274C65.2279 65.5047 64.8293 61.7666 63.3846 58.8214C62.7203 57.4621 61.8236 56.1594 61.6741 54.6113C61.5413 53.1576 62.1059 51.7417 62.3052 50.288C62.5709 48.3434 62.1059 45.8702 61.0099 44.341C59.6482 42.4153 58.054 40.3763 56.4598 38.715C53.836 35.9775 50.0498 34.486 46.6123 35.5432C43.7395 36.4306 41.5807 38.866 39.3388 41.1882L39.3222 41.207Z" fill="#1E2123"/>
<path d="M46.8721 61.2386C51.1565 64.6557 55.4243 68.0729 59.7087 71.49C60.1571 71.8487 60.6387 72.2452 60.8213 72.8305C60.9874 73.3591 60.8878 73.9443 60.7881 74.4918C60.5722 75.6057 60.3564 76.7007 60.1239 77.7957C59.9412 78.6453 59.7419 79.5515 59.2271 80.2123C58.5131 81.1373 57.3673 81.4205 56.3045 81.5338C51.5883 82.0247 46.8887 80.2123 42.6708 77.758C37.1741 74.5674 32.0926 70.1307 28.8544 64.1837C28.0573 62.7112 27.3599 61.1253 27.0776 59.4073C26.6458 56.7453 27.3599 53.9512 29.2696 52.252C30.9302 50.7794 32.2421 51.1948 34.0355 52.101C38.6355 54.4043 42.8036 57.9913 46.9053 61.2574L46.8721 61.2386Z" fill="#6A8EA8"/>
<path d="M30.4728 54.3646C30.5226 55.875 30.4396 57.4042 30.9212 58.839C31.1537 59.5187 31.5024 60.1606 31.8843 60.7458C32.0836 61.0479 33.1298 62.0485 33.1298 62.3694C33.4619 62.7659 33.8106 63.1624 34.2424 63.37C34.9067 63.691 35.6705 63.5399 36.3846 63.4267C36.7499 63.37 37.1319 63.3134 37.5138 63.2756C38.2113 63.2001 38.9253 63.1812 39.6228 63.1812C39.7889 63.1812 39.9549 63.1812 40.1376 63.219C40.9181 63.3134 41.8314 63.5022 42.4957 63.1246C42.8112 62.9547 43.0437 62.6715 43.2762 62.3694C43.3094 62.3317 43.326 62.2939 43.3592 62.275C43.3924 62.2184 43.4256 62.1806 43.4588 62.124C43.6083 61.9163 43.7744 61.7087 43.9404 61.501C44.2061 61.18 44.4718 60.8402 44.6877 60.5193C45.0198 60.0095 44.97 59.2921 44.97 58.688C44.9866 56.5168 44.2393 54.2136 43.0935 52.4767C42.7614 51.9669 42.2466 50.9286 41.6322 50.9663C40.4863 51.023 39.4401 51.4572 38.2777 51.495C36.9658 51.5516 35.6539 51.4194 34.342 51.2684C33.6612 51.1929 32.9637 51.1174 32.2995 51.2684C31.6352 51.4194 30.971 51.8537 30.6721 52.5522C30.423 53.1186 30.4396 53.7982 30.4562 54.4212L30.4728 54.3646Z" fill="#EDAF8C"/>
<path d="M37.514 63.2757C38.2115 63.2001 38.9255 63.1813 39.623 63.1813C39.789 63.1813 39.9551 63.1813 40.1378 63.219C40.9183 63.3134 41.8316 63.5022 42.4959 63.1246C42.8114 62.9547 43.0439 62.6715 43.2764 62.3695C43.3096 62.3317 43.3262 62.2939 43.3594 62.2751C43.3594 62.1995 43.3594 62.1052 43.3594 62.0296C43.3428 61.0479 43.1103 60.0851 42.6785 59.2355C42.3464 58.5936 41.8814 57.9895 41.2836 57.7063C40.2872 57.2154 39.1414 57.8573 38.5934 58.839C37.8959 60.0851 37.5306 61.8408 37.5306 63.2945L37.514 63.2757Z" fill="#ED7D6B"/>
<path d="M44.3176 44.1877C45.1977 43.3003 46.2273 42.6207 47.3399 42.1676C49.067 41.4691 50.9767 41.3747 52.7702 41.8089C53.8496 42.0732 55.0784 42.5829 55.7593 43.6213C56.5066 44.7541 57.2704 45.9623 57.8683 47.2461C58.8314 49.3417 59.4957 51.7394 59.0971 54.0615C58.8314 55.6474 58.1174 56.9312 56.8553 57.7241C56.2907 58.0828 55.7095 58.3849 55.1116 58.6681C54.1817 59.1023 53.1521 59.4799 52.5377 60.3861C52.1889 60.9147 52.0063 61.5566 51.8402 62.1797C51.6576 62.8782 51.4583 63.5578 51.2756 64.2564C51.0431 65.1248 50.5615 66.0877 49.6316 65.729C49.3825 65.6346 49.1666 65.4458 48.9507 65.2947C48.3197 64.8605 47.7053 64.6528 47.0078 64.9549C46.41 65.2192 45.8122 65.4835 45.2144 65.7667C44.135 66.2764 42.7732 66.8806 41.6772 66.1065C41.1957 65.7667 40.8303 65.2192 40.5812 64.6528C39.6679 62.5572 39.369 59.5932 39.7011 57.3088C39.834 56.3459 40.1163 55.4209 40.3487 54.4769C41.0794 51.5317 41.478 48.3789 43.0223 45.8679C43.4043 45.2449 43.8527 44.6974 44.3342 44.1877H44.3176Z" fill="#EDAF8C"/>
<path d="M51.2604 56.0247C51.1939 55.9114 50.895 55.3262 51.2271 55.3262C51.36 55.3262 51.5095 55.5905 51.5759 55.6849C52.1073 56.3834 52.8878 56.7988 53.6849 56.9876C53.934 57.0442 54.183 57.1008 54.3823 57.2519C54.5816 57.4029 54.7809 57.856 54.6314 58.1014C54.4986 58.3091 54.1498 58.2147 53.9672 58.1769C53.6018 58.1014 53.2365 57.9504 52.9044 57.7427C52.2401 57.3463 51.6589 56.7421 51.277 56.0058L51.2604 56.0247Z" fill="#1E2123"/>
<path d="M51.7918 58.7246C52.0575 58.4603 52.1239 58.0072 51.8582 57.724C51.5095 57.3087 50.7788 57.7807 50.4965 58.1016C50.0814 58.347 50.1478 58.9889 50.5463 59.1777C50.9615 59.3476 51.4763 59.0833 51.7752 58.7435L51.7918 58.7246Z" fill="black"/>
<path d="M28.593 49.266C28.4601 49.436 28.3439 49.6436 28.3605 49.8702C28.3937 50.2666 28.8089 50.4554 29.1576 50.5687C29.7388 50.7575 30.3034 51.0029 30.8348 51.305C31.5655 51.7204 32.2962 51.9658 33.0933 52.1168C34.3387 52.3434 35.6174 52.3434 36.8795 52.3434C39.1213 52.3434 41.3631 52.3056 43.605 52.3056C44.3689 52.3056 45.249 52.1546 45.9963 52.249C47.6569 52.4378 49.1847 53.3629 50.8287 53.6649C51.3767 53.7593 51.9413 53.8348 52.5059 53.8159C54.5485 53.7593 56.4416 52.6266 58.2018 51.4183C58.8827 50.9463 59.6133 50.3988 59.879 49.5492C60.1447 48.7563 59.9455 47.8501 59.6632 47.0572C59.3809 46.2831 59.0819 45.5279 58.8162 44.7539C58.6004 44.1309 58.5007 43.4323 58.0191 42.9981C57.3217 42.3751 56.5744 41.9786 55.7441 41.6199C53.0373 40.4305 50.0482 40.3361 47.2251 40.9403C43.9703 41.6577 40.9148 43.3002 38.0751 45.2636C36.73 46.1887 35.169 46.6041 33.6579 47.0572C32.0637 47.5291 29.7222 47.7935 28.593 49.2849V49.266Z" fill="#1E2123"/>
<path d="M44.9132 54.4588C45.9096 54.5532 47.1883 54.0812 47.9189 53.7225C48.4503 53.4582 48.9984 53.0806 49.1976 52.4764C49.5464 51.4381 49.098 50.0788 48.2345 49.5313C47.9189 49.3236 47.537 49.2481 47.1717 49.2103C46.5905 49.1537 45.9594 49.1914 45.4612 49.5501C44.963 49.9088 44.6641 50.5319 44.3984 51.1171C43.867 52.2688 43.2028 54.2888 44.9298 54.4588H44.9132Z" fill="#EDAF8C"/>
<path d="M42.0619 61.6687C42.776 61.5176 43.5399 61.7064 44.1377 62.1784C44.6857 62.6126 45.0345 63.2923 45.1507 64.0286C45.1839 64.1985 44.7023 64.2362 44.6857 64.0286C44.4865 62.6881 43.3904 61.6875 42.1948 61.933C42.1118 61.933 41.9457 61.933 41.8959 61.8386C41.8461 61.7253 41.9955 61.6875 42.0619 61.6687Z" fill="#ED7D6B"/>
<path d="M50.4482 51.3052C50.5479 51.2486 50.6807 51.2486 50.7804 51.3052C51.8099 51.8527 52.9724 51.815 54.0352 51.4185C55.0814 51.022 56.0113 50.2669 56.7918 49.3984C57.2402 48.8887 57.6553 48.3412 58.0207 47.7748C58.0871 47.6804 58.2199 47.6615 58.3196 47.6804C58.3694 47.6804 58.5521 47.7559 58.4856 47.8503C57.7716 48.9453 56.9413 49.9648 55.9449 50.72C54.9153 51.494 53.7363 51.9849 52.4908 52.0038C51.7933 52.0038 51.0959 51.8527 50.4482 51.5129C50.3652 51.4563 50.3652 51.3619 50.4482 51.3241V51.3052Z" fill="#4C6880"/>
<path d="M51.1929 48.9493C52.538 48.7983 53.8167 48.1941 54.8629 47.2313C54.9459 47.1558 55.0788 47.1369 55.1784 47.1746C55.2448 47.1935 55.3444 47.2879 55.2614 47.3634C54.1322 48.4018 52.7539 49.0437 51.3091 49.1947C51.2261 49.1947 51.06 49.1947 51.0102 49.1003C50.9604 48.9871 51.1099 48.9304 51.1763 48.9304L51.1929 48.9493Z" fill="#4C6880"/>
<path d="M41.451 41.3934C42.9456 39.0524 44.9549 36.8624 47.6285 36.5981C48.3592 36.5226 49.1065 36.5981 49.8039 36.8624C49.887 36.9001 49.9534 36.9568 49.8869 37.0512C49.8205 37.1267 49.6545 37.1267 49.5714 37.1078C48.4422 36.6925 47.2134 36.8246 46.1173 37.3155C45.0047 37.8252 44.0416 38.6748 43.2113 39.6565C42.7463 40.2229 42.3145 40.827 41.8994 41.4689C41.8329 41.5633 41.7001 41.5822 41.6005 41.5633C41.5506 41.5633 41.368 41.4878 41.4344 41.3934H41.451Z" fill="#4C6880"/>
<path d="M6.17134 71.9437C6.78577 69.8859 7.45002 67.9035 8.42979 65.9023C9.75828 63.1648 11.3027 60.5784 13.0463 58.1618C13.6773 57.2934 14.325 56.4627 15.0889 55.7453C15.8528 55.0467 16.7163 54.4992 17.5632 53.9328C19.5559 52.6491 21.5985 51.3653 23.8237 50.7611C25.5342 50.308 27.311 50.2703 29.0547 50.4591C29.968 50.5535 30.9644 50.7611 31.612 51.4974C32.0604 52.0072 32.2929 52.7246 32.5088 53.4042C34.0698 58.5772 34.4019 63.6368 34.7838 69.0363C34.8835 70.3578 34.9665 71.3584 35.4149 72.529C35.8798 73.7372 36.0459 75.0021 36.0625 76.3048C36.0625 77.4564 35.913 78.6081 35.6473 79.722C35.2156 81.591 34.5347 83.3845 33.638 85.0082C32.8907 86.3675 32.16 87.7834 31.4294 89.1239C30.7817 90.3132 29.5197 91.0495 28.9883 92.3333C28.706 93.013 28.706 93.8059 28.706 94.5611C28.6893 99.2054 28.1912 103.85 27.2612 108.381C26.9457 109.91 26.5638 111.439 25.8165 112.761C25.119 113.988 24.1392 114.951 23.1761 115.914C21.8476 117.216 20.5025 118.538 18.9581 119.482C17.2809 120.501 15.6535 120.558 13.8102 120.841C11.8839 121.143 10.107 122.2 8.62907 123.616C7.71572 124.504 5.90565 127.808 4.52733 126.014C4.12878 125.504 3.94611 124.825 3.78004 124.164C2.61761 119.765 1.72088 115.442 1.35554 110.873C1.00681 106.398 0.342571 102.113 0.741119 97.5818C1.42197 89.6525 3.38151 81.7609 5.4905 74.1903C5.70638 73.4163 5.92225 72.68 6.13814 71.9437H6.17134Z" fill="#E2B8AF"/>
<path d="M82.9956 94.8052C82.431 95.1261 81.7667 95.2016 81.1357 95.0884C80.2722 94.9373 79.4751 94.4465 78.7278 93.8989C75.4066 91.5202 72.6831 88.1219 69.2124 86.0263C68.8471 85.7997 68.2659 85.4977 68.3157 84.969C68.3821 84.346 68.8471 83.5909 69.1128 83.0622C69.3453 82.5902 69.611 82.1371 69.8933 81.7029C70.159 81.2876 70.4081 80.759 70.9229 80.7778C71.4543 80.7778 72.1185 81.2309 72.6167 81.4575C73.7958 81.9861 74.9582 82.5902 76.0874 83.2699C76.9177 83.7608 77.7148 84.2894 78.5119 84.8558C79.226 85.3655 79.8404 85.9508 80.5047 86.5549C81.3682 87.329 82.1487 88.2163 82.9292 89.1225C83.6432 89.9532 84.1912 90.8971 84.2743 92.0865C84.3241 92.8983 84.1082 93.7479 83.61 94.3332C83.4273 94.5409 83.2281 94.6919 83.0122 94.824L82.9956 94.8052Z" fill="#EDAF8C"/>
<path d="M84.9207 130.579C86.1828 130.22 89.2549 130.069 88.5907 127.672C88.242 126.426 87.5113 125.255 86.9965 124.103C86.4153 122.82 85.8507 121.517 85.2694 120.252C84.107 117.703 82.8449 115.211 81.2175 113.002C80.3872 111.889 79.4573 110.831 78.2948 110.189C77.066 109.51 75.6046 109.378 74.2928 109.793C72.682 110.284 71.0047 110.945 71.4697 113.286C71.7022 114.418 72.217 115.457 72.765 116.457C74.2595 119.195 75.9534 121.762 77.5974 124.387C78.2616 125.463 78.9425 126.577 79.2746 127.86C79.5569 128.955 79.3742 129.975 80.1547 130.843C80.5533 131.278 81.7655 131.013 82.2803 130.994C83.1771 130.957 84.0738 130.824 84.9539 130.579H84.9207Z" fill="#EDAF8C"/>
<path d="M100.08 135.255C100.08 135.255 100.03 135.331 99.9965 135.35L77.1464 134.972C77.1298 134.783 77.1132 134.595 77.0966 134.425C77.0634 134.009 77.0634 133.594 77.0966 133.179C77.1464 131.593 77.5117 130.045 78.2424 128.648C78.3919 128.346 78.6077 128.025 78.9233 127.968C79.272 127.892 79.5875 128.138 79.8864 128.346C81.0156 129.12 82.6596 129.554 83.9217 129.044C84.752 128.704 85.4661 128.1 86.0473 127.402C86.3296 127.043 86.5289 126.628 86.8278 126.288C87.0437 126.023 87.3426 125.816 87.6581 125.778C88.2061 125.721 88.6877 126.156 89.0862 126.571C89.7505 127.251 90.3649 127.911 91.1786 128.402C92.3244 129.138 93.5201 129.78 94.7655 130.309C95.8117 130.762 96.8745 131.14 97.8709 131.706C98.4853 132.065 99.5315 132.726 100.03 133.537C100.362 134.066 100.461 134.651 100.096 135.236L100.08 135.255Z" fill="#E29E9C"/>
<path d="M100.08 135.255C100.08 135.255 100.03 135.33 99.9965 135.349L77.1464 134.972C77.1298 134.783 77.1132 134.594 77.0966 134.424C77.0634 134.009 77.0634 133.594 77.0966 133.178L100.03 133.556C100.362 134.084 100.461 134.67 100.096 135.255H100.08Z" fill="#824A2B"/>
<path d="M94.9462 131.273C94.8466 130.99 94.5145 130.895 94.282 130.782C92.9701 130.159 91.708 129.423 90.5124 128.592C89.8315 128.12 89.1672 127.629 88.5196 127.082C88.42 126.987 88.2705 126.968 88.1543 127.025C88.0878 127.044 87.955 127.157 88.0546 127.252C89.2669 128.252 90.5622 129.177 91.9073 129.951C92.5715 130.329 93.2358 130.688 93.9332 131.009C94.0661 131.065 94.2986 131.122 94.3982 131.254C94.5145 131.405 94.3982 131.632 94.3152 131.783C94.1823 132.028 93.4517 132.878 93.6177 133.18C93.9 133.652 94.3816 132.764 94.4646 132.576C94.5311 132.406 94.6141 132.236 94.7137 132.085C94.8466 131.858 95.0625 131.556 94.9628 131.273H94.9462Z" fill="#A6673E"/>
<path d="M90.3664 127.286C90.3664 127.286 90.2335 127.249 90.1671 127.267C90.1173 127.267 90.0509 127.286 90.001 127.343C89.7187 127.664 89.4198 128.004 89.1375 128.325C89.0545 128.419 89.1375 128.514 89.2372 128.551C89.3036 128.57 89.37 128.589 89.4364 128.57C89.4863 128.57 89.5527 128.551 89.6025 128.495C89.8848 128.174 90.1837 127.834 90.466 127.513C90.549 127.419 90.466 127.324 90.3664 127.286Z" fill="#333333"/>
<path d="M91.5627 128.12C91.4464 128.083 91.2804 128.083 91.1973 128.177C90.915 128.46 90.6659 128.762 90.4168 129.083C90.3836 129.121 90.367 129.159 90.3836 129.215C90.4002 129.272 90.4667 129.291 90.4999 129.31C90.5663 129.329 90.6327 129.347 90.6992 129.329C90.749 129.329 90.832 129.31 90.8652 129.253C91.0977 128.932 91.3634 128.63 91.6457 128.347C91.7287 128.252 91.6457 128.158 91.5461 128.12H91.5627Z" fill="#333333"/>
<path d="M92.973 128.952C92.973 128.952 92.8899 128.876 92.8567 128.857C92.7903 128.838 92.7239 128.82 92.6575 128.838C92.6076 128.838 92.5246 128.857 92.4914 128.914C92.2921 129.197 92.0762 129.48 91.877 129.763C91.8438 129.801 91.8271 129.839 91.8438 129.896C91.8604 129.952 91.9268 129.971 91.96 129.99C92.0264 130.009 92.0928 130.028 92.1759 130.009C92.2257 130.009 92.3087 129.99 92.3419 129.933C92.5412 129.65 92.7571 129.367 92.9564 129.084C92.9896 129.046 93.0062 129.008 92.9896 128.952H92.973Z" fill="#333333"/>
<path d="M94.3508 129.535C94.2345 129.497 94.0684 129.497 93.9854 129.591C93.6865 129.894 93.4042 130.233 93.1883 130.63C93.1717 130.668 93.1883 130.724 93.2215 130.762C93.2547 130.8 93.3212 130.837 93.3876 130.837C93.5038 130.837 93.6533 130.837 93.7197 130.724C93.7695 130.63 93.8193 130.554 93.8858 130.46C93.919 130.422 93.9356 130.366 93.9688 130.328C93.9688 130.328 93.9688 130.328 93.9688 130.309L93.9854 130.29C93.9854 130.271 94.0186 130.252 94.0352 130.233C94.1681 130.063 94.3009 129.912 94.4504 129.78C94.5334 129.686 94.4504 129.591 94.3508 129.554V129.535Z" fill="#333333"/>
<path d="M75.0595 121.799C75.6075 122.838 76.0393 123.631 77.3512 123.461C78.6298 123.291 79.8421 122.611 81.0543 122.139C81.6854 121.894 82.3164 121.611 82.7648 121.063C83.8442 119.798 82.8976 119.119 82.2168 118.118C81.3034 116.777 80.523 115.286 79.676 113.889C77.9324 111.019 76.1555 108.169 74.3122 105.374C70.7253 99.9371 66.8561 94.7265 62.4554 90.101C61.0273 88.5907 59.5493 87.1559 57.8223 86.1175C56.444 85.2868 53.7704 85.6644 54.418 88.1376C55.5473 92.4987 58.5198 95.8403 60.9443 99.4652C63.4352 103.203 65.7933 106.998 68.2344 110.774C70.3766 114.097 72.4689 117.438 74.5281 120.837C74.7274 121.157 74.8935 121.478 75.0429 121.78L75.0595 121.799Z" fill="#6A8EA8"/>
<path d="M84.2202 110.641C82.7589 110.377 81.1813 110.641 80.0022 111.566C79.1885 112.189 78.4745 113.001 78.6904 114.285C78.8896 115.512 79.5705 116.588 80.1849 117.57C81.613 119.854 83.1408 122.044 84.7682 124.14C86.2296 126.028 87.9566 127.708 88.8533 130.049C88.953 130.332 89.0526 130.615 89.2519 130.823C89.6504 131.257 90.8627 130.993 91.3775 130.974C92.2742 130.936 93.1709 130.804 94.0345 130.559C95.3131 130.2 98.2192 130.106 97.555 127.84C97.3723 127.236 97.007 126.726 96.6583 126.217C94.2836 122.762 92.7558 118.646 90.4309 115.153C88.8367 112.774 86.8772 111.094 84.2368 110.641H84.2202Z" fill="#EDAF8C"/>
<path d="M109.177 135.258C109.177 135.258 109.127 135.333 109.094 135.352L86.244 134.975C86.2274 134.786 86.2108 134.597 86.1942 134.427C86.161 134.012 86.161 133.596 86.1942 133.181C86.244 131.595 86.6094 130.047 87.34 128.65C87.4895 128.348 87.7054 128.027 88.0209 127.97C88.3696 127.895 88.6851 128.14 88.9841 128.348C90.1133 129.122 91.7573 129.556 93.0194 129.047C93.8497 128.707 94.5637 128.103 95.145 127.404C95.4273 127.045 95.6265 126.63 95.9254 126.29C96.1413 126.026 96.4402 125.818 96.7557 125.78C97.3038 125.724 97.7853 126.158 98.1839 126.573C98.8481 127.253 99.4626 127.914 100.276 128.405C101.422 129.141 102.618 129.783 103.863 130.311C104.909 130.765 105.972 131.142 106.969 131.708C107.583 132.067 108.629 132.728 109.127 133.54C109.459 134.068 109.559 134.654 109.194 135.239L109.177 135.258Z" fill="#E29E9C"/>
<path d="M109.177 135.257C109.177 135.257 109.127 135.333 109.094 135.352L86.244 134.974C86.2274 134.785 86.2108 134.597 86.1942 134.427C86.161 134.011 86.161 133.596 86.1942 133.181L109.127 133.558C109.459 134.087 109.559 134.672 109.194 135.257H109.177Z" fill="#824A2B"/>
<path d="M104.063 131.275C103.964 130.992 103.632 130.898 103.399 130.784C102.087 130.161 100.825 129.425 99.6295 128.594C98.9487 128.122 98.2844 127.632 97.6368 127.084C97.5372 126.99 97.3877 126.971 97.2715 127.027C97.205 127.046 97.0722 127.16 97.1718 127.254C98.3841 128.255 99.6794 129.18 101.024 129.954C101.689 130.331 102.353 130.69 103.05 131.011C103.183 131.068 103.416 131.124 103.515 131.256C103.632 131.407 103.515 131.634 103.432 131.785C103.3 132.03 102.569 132.88 102.735 133.182C103.017 133.654 103.499 132.767 103.582 132.578C103.648 132.408 103.731 132.238 103.831 132.087C103.964 131.861 104.18 131.558 104.08 131.275H104.063Z" fill="#824A2B"/>
<path d="M99.4758 127.289C99.4758 127.289 99.3429 127.251 99.2765 127.27C99.2267 127.27 99.1602 127.289 99.1104 127.345C98.8281 127.666 98.5292 128.006 98.2469 128.327C98.1639 128.422 98.2469 128.516 98.3465 128.554C98.413 128.573 98.4794 128.591 98.5458 128.573C98.5956 128.573 98.662 128.554 98.7119 128.497C98.9942 128.176 99.2931 127.836 99.5754 127.515C99.6584 127.421 99.5754 127.327 99.4758 127.289Z" fill="#333333"/>
<path d="M100.66 128.123C100.544 128.085 100.378 128.085 100.295 128.179C100.013 128.463 99.7636 128.765 99.5145 129.086C99.4813 129.123 99.4647 129.161 99.4813 129.218C99.4979 129.274 99.5643 129.293 99.5975 129.312C99.6639 129.331 99.7304 129.35 99.7968 129.331C99.8466 129.331 99.9296 129.312 99.9629 129.255C100.195 128.935 100.461 128.632 100.743 128.349C100.826 128.255 100.743 128.16 100.644 128.123H100.66Z" fill="#333333"/>
<path d="M102.071 128.952C102.071 128.952 101.988 128.877 101.954 128.858C101.888 128.839 101.822 128.82 101.755 128.839C101.705 128.839 101.622 128.858 101.589 128.914C101.39 129.198 101.174 129.481 100.975 129.764C100.941 129.802 100.925 129.839 100.941 129.896C100.958 129.953 101.024 129.972 101.058 129.991C101.124 130.009 101.191 130.028 101.274 130.009C101.323 130.009 101.406 129.991 101.44 129.934C101.639 129.651 101.855 129.367 102.054 129.084C102.087 129.047 102.104 129.009 102.087 128.952H102.071Z" fill="#333333"/>
<path d="M103.464 129.537C103.348 129.5 103.182 129.5 103.099 129.594C102.8 129.896 102.517 130.236 102.302 130.632C102.285 130.67 102.302 130.727 102.335 130.764C102.368 130.802 102.434 130.84 102.501 130.84C102.617 130.84 102.767 130.84 102.833 130.727C102.883 130.632 102.933 130.557 102.999 130.462C103.032 130.425 103.049 130.368 103.082 130.33C103.082 130.33 103.082 130.33 103.082 130.311L103.099 130.292C103.099 130.274 103.132 130.255 103.149 130.236C103.281 130.066 103.414 129.915 103.564 129.783C103.647 129.688 103.564 129.594 103.464 129.556V129.537Z" fill="#333333"/>
<path d="M58.6819 79.7558C57.7187 83.5506 56.5563 87.2698 55.261 90.9702C54.3144 93.6888 53.3347 96.3885 52.3715 99.0883C51.1593 102.487 49.9304 105.885 48.7182 109.283C47.8546 111.681 46.9911 114.097 45.9781 116.419C44.1681 120.573 41.893 124.462 39.2028 127.936C37.8577 129.673 36.4296 131.334 34.9018 132.863C33.4239 134.355 32.2282 134.808 30.4015 135.544C30.3683 135.544 30.3185 135.582 30.2853 135.601H18.0963C17.731 135.261 17.3823 134.883 17.0501 134.43C15.0242 131.674 14.5924 127.936 15.1736 124.5C15.4061 123.159 15.5556 120.969 16.1202 119.818C18.2956 115.457 21.2515 111.567 23.3605 107.244C25.5525 102.732 28.1265 98.3897 30.8665 94.3118C31.5308 93.3301 32.1784 92.3483 32.8426 91.3666C35.8151 86.8734 38.7544 82.3801 41.7602 77.9057C44.4836 73.8466 47.3232 69.9197 50.8604 66.7102C52.0394 65.6341 53.3015 64.6335 54.713 64.0483C56.1411 63.463 57.7519 63.3497 59.1302 64.0483C61.1064 65.03 61.04 67.1256 60.741 69.2401C60.2429 72.8271 59.5454 76.3198 58.6653 79.7558H58.6819Z" fill="#6A8EA8"/>
<path d="M92.8903 117.685C92.7741 117.572 92.6246 117.44 92.5084 117.232C91.3791 115.552 90.5654 113.513 89.5026 111.738C87.3936 108.208 85.102 104.791 83.1591 101.147C81.3656 97.7674 79.9043 94.2559 78.0278 90.952C75.9188 87.2139 73.8264 83.4758 71.7174 79.7377C69.2265 75.32 67.2669 70.0715 63.6136 66.711C62.0028 65.2384 59.6779 63.1239 57.4859 63.577C55.9747 63.8791 54.8787 65.3894 54.1148 66.8998C53.1517 68.7877 52.421 70.8456 52.0225 72.9789C51.5907 75.2633 51.956 77.3778 52.6867 79.53C55.1112 86.6286 58.6982 93.1986 63.1984 98.8247C64.8258 100.845 66.5529 102.752 68.2467 104.696C70.8041 107.641 73.2452 110.719 75.5534 113.909C77.513 116.609 79.6386 119.026 81.6811 121.65C83.0594 123.406 86.663 120.951 88.3568 120.309C89.3034 119.951 90.2665 119.573 91.2131 119.214C91.6614 119.044 92.5582 119.026 92.8903 118.591C93.2556 118.119 93.1228 117.949 92.8903 117.685Z" fill="#6A8EA8"/>
<path d="M87.3074 128.333C86.3276 130.316 85.8626 132.619 86.0287 134.884C86.0287 135.073 86.5103 135.073 86.4937 134.884C86.3442 132.638 86.776 130.372 87.7557 128.409C87.8388 128.239 87.3738 128.182 87.3074 128.333Z" fill="#824A2B"/>
<path d="M83.5391 122.292C84.8012 123.896 86.0632 125.501 87.3253 127.087C87.4748 127.276 87.0264 127.351 86.9101 127.219C85.6481 125.614 84.386 124.01 83.1239 122.424C82.9745 122.235 83.4228 122.159 83.5391 122.292Z" fill="#E26E61"/>
<path d="M61.2268 95.7087L65.4116 100.693C66.8065 102.354 68.218 104.035 69.613 105.696C70.2938 106.508 70.9581 107.301 71.6057 108.131C72.2534 108.962 72.8512 109.83 73.449 110.699C74.6613 112.436 75.9067 114.135 77.1854 115.796C78.4641 117.458 79.7594 119.1 81.0878 120.705C81.2539 120.913 81.42 121.12 81.6026 121.309C81.7521 121.498 81.3037 121.573 81.1875 121.441C79.859 119.836 78.5471 118.213 77.2684 116.551C75.9897 114.89 74.7443 113.21 73.5154 111.492C72.901 110.623 72.3032 109.755 71.6721 108.905C71.0411 108.056 70.3769 107.225 69.696 106.413C68.3177 104.752 66.9228 103.109 65.5278 101.448L61.3431 96.4639C61.1604 96.2562 60.9944 96.0486 60.8117 95.8409C60.6622 95.671 61.1106 95.5766 61.2268 95.7087Z" fill="#4C6880"/>
<path d="M9.09477 123.237C9.22762 123.954 9.50993 124.634 9.94169 125.182C10.6558 126.107 11.951 126.522 12.2832 127.768C12.2998 127.825 12.3994 127.862 12.4492 127.862C12.8312 127.938 13.1965 127.806 13.5452 127.674C13.7113 127.598 13.9272 127.485 14.1098 127.485C14.2925 127.485 14.3755 127.693 14.4087 127.881C14.4752 128.146 14.4752 128.41 14.5748 128.655C14.6578 128.882 14.7741 129.071 14.9069 129.26C15.5712 130.128 16.634 130.355 17.5971 130.317C18.6101 130.26 19.6397 130.015 20.6195 129.713C21.5826 129.411 22.5126 129.014 23.4259 128.561C27.1291 126.654 30.2511 123.52 32.7752 119.933C35.5983 115.931 37.7238 111.381 39.7996 106.85C42.0913 101.828 44.3663 96.806 46.6414 91.7841C47.7872 89.2732 48.9164 86.7622 50.0622 84.2513C50.5936 83.0808 51.1084 81.8725 51.6897 80.7209C52.2211 79.6448 52.8189 78.6253 53.616 77.7757C53.699 77.7002 53.616 77.6247 53.5163 77.6058C53.5495 77.5491 53.5828 77.4925 53.616 77.4359C53.9979 76.6996 54.2138 75.8878 54.5293 75.1137C54.6788 74.7173 54.8614 74.3397 55.1105 74.0187C55.2268 73.8488 55.3762 73.6978 55.5257 73.5656C55.6917 73.4146 55.8246 73.3202 56.0073 73.4901C56.2564 73.7355 56.4058 74.0942 56.7047 74.2641C57.1033 74.5096 57.5516 74.3585 57.9668 74.2641C58.4484 74.1509 58.8967 74.3774 59.3119 74.6606C59.7104 74.9249 60.0592 75.2836 60.3581 75.6612C61.0223 76.4542 61.5703 77.3603 62.1183 78.2477C62.6663 79.1539 63.1977 80.079 63.6959 81.0041C64.7089 82.9109 65.6388 84.8932 66.519 86.8755C68.2958 90.859 69.9731 94.8992 72.0654 98.694C74.191 102.545 76.6654 106.132 79.1895 109.663C81.7302 113.212 84.3042 116.705 86.6623 120.424C86.7619 120.575 87.2103 120.5 87.1107 120.349C86.8283 119.895 86.5294 119.442 86.2305 118.989C83.7894 115.251 81.1324 111.702 78.5585 108.077C76.0011 104.452 73.5268 100.733 71.4842 96.6928C69.4749 92.747 67.8143 88.5747 65.9378 84.5534C64.9912 82.5522 63.9948 80.5887 62.8822 78.7008C62.3342 77.7946 61.7862 76.9073 61.1718 76.0577C60.5906 75.2648 59.9097 74.5096 59.0462 74.132C58.5978 73.9432 58.1827 73.9054 57.7177 74.0187C57.4852 74.0754 57.2029 74.2075 56.987 74.0187C56.8542 73.9054 56.7379 73.7544 56.6383 73.6034C56.4058 73.3013 56.1733 73.0559 55.7914 73.0748C55.3928 73.0748 55.0441 73.4146 54.795 73.7355C53.7488 75.0382 53.7156 77.0394 52.5366 78.2288C52.4701 78.3043 52.5033 78.3421 52.5864 78.3798C52.4535 78.5497 52.3207 78.7385 52.2044 78.9085C51.5734 79.8524 51.0752 80.9097 50.6102 81.9669C50.0456 83.1941 49.4976 84.4212 48.933 85.6484C47.7872 88.1593 46.6414 90.6703 45.5121 93.1812C43.2703 98.0898 41.0617 103.017 38.8032 107.926C36.7441 112.419 34.5521 116.894 31.6626 120.745C29.072 124.181 25.867 127.164 22.1306 128.806C21.2173 129.203 20.2707 129.524 19.3076 129.75C18.2946 129.977 17.0824 130.26 16.1026 129.75C15.6874 129.524 15.3055 129.184 15.1062 128.712C14.9069 128.297 14.99 127.674 14.6246 127.372C14.3423 127.145 13.977 127.202 13.6615 127.315C13.3626 127.409 13.047 127.636 12.7315 127.636C12.3662 126.484 11.2204 126.031 10.5063 125.238C9.95829 124.615 9.62617 123.785 9.52654 122.897C9.37708 123.01 9.24423 123.124 9.11138 123.256L9.09477 123.237Z" fill="#4C6880"/>
<path d="M89.2885 116.861C89.1225 116.314 89.0394 115.672 88.9896 115.294C88.9066 115.615 88.4748 115.634 88.2589 115.407C88.043 115.181 88.0098 114.803 87.96 114.482C87.8604 113.557 87.8936 112.5 87.5615 111.65C87.412 111.292 87.329 110.876 87.1131 110.555C86.9138 110.234 86.6315 110.008 86.399 109.725C85.7182 108.894 85.1536 107.95 84.5724 107.025C83.9413 106.043 83.2605 105.099 82.5298 104.212C81.9154 103.457 81.3508 102.532 80.5703 102.041C79.6901 101.493 78.8266 100.946 77.9133 100.436C76.5184 99.662 75.0736 99.039 73.6123 98.3971C69.8759 96.7735 65.907 95.6785 62.6024 93.092C61.058 91.8838 59.497 90.2413 59.3808 88.1079C59.2645 85.7669 61.058 83.709 63.0507 83.1615C65.0601 82.5952 67.1691 83.1993 69.0788 84.0677C73.2635 85.9557 76.9003 89.2218 80.3046 92.5068C83.6424 95.754 86.7976 99.2656 89.5376 103.192C90.3845 104.401 91.165 105.647 91.9455 106.912C92.3108 107.497 92.5599 107.969 92.6928 108.705C92.8256 109.479 92.8422 110.272 92.8588 111.046C92.8588 111.556 92.9917 112.009 93.0083 112.519C93.0415 113.198 92.9585 113.878 92.8256 114.539C92.7924 114.728 92.726 114.935 92.5931 115.049C92.4603 115.162 92.2112 115.124 92.178 114.935C92.3108 115.577 92.1448 116.106 91.8957 116.672C91.8459 116.786 91.7794 116.918 91.6964 116.993C91.6134 117.069 91.4805 117.125 91.3643 117.069C91.2813 117.031 91.2148 116.937 91.165 116.842C91.082 116.691 90.9989 116.559 90.9159 116.408C90.9159 117.05 90.9159 117.937 90.1354 117.881C89.7037 117.843 89.4546 117.39 89.2885 116.842V116.861Z" fill="#EDAF8C"/>
<path d="M15.4746 62.3402C15.707 60.7166 16.255 59.1496 17.0189 57.7148C18.1315 55.6192 21.1373 54.1277 23.1466 53.5424C25.3386 52.9194 27.7299 53.0516 29.7891 54.1466C31.3169 54.9584 32.6121 56.2422 33.8576 57.5449C38.8229 62.7744 43.7051 68.0417 48.8862 73.007C49.8494 73.9321 50.8624 74.8194 51.9252 75.6312C54.4327 76.8584 56.9236 78.0855 59.4312 79.3127C61.0087 80.0867 62.5863 80.8608 64.1805 81.6348C65.6917 82.3711 67.2195 83.0697 68.8469 83.4095C70.0757 83.6738 71.4042 83.8437 72.3674 84.8254C73.5298 86.0148 72.8656 87.3741 72.4006 88.8467L69.5111 97.8333C69.4115 98.1353 69.3118 98.4374 69.1292 98.6828C68.6476 99.2681 68.1328 98.6828 67.618 98.5129C66.7047 98.192 65.7913 97.871 64.878 97.569L63.4498 97.0781C63.1177 96.9648 62.769 96.8515 62.4535 96.6816C61.9719 96.4173 61.4737 95.9453 61.59 95.3035C56.8904 93.3211 52.2739 91.0745 47.6906 88.7712C45.5484 87.6951 43.3564 86.6756 41.2806 85.4673C39.2214 84.2779 37.3947 82.6921 35.402 81.3894C34.306 80.672 33.1602 80.0867 32.0143 79.5015C28.361 77.6702 24.6744 75.9333 21.0875 73.9698C18.1648 72.3651 16.006 69.4766 15.4912 65.7385C15.3251 64.5868 15.3417 63.4352 15.5078 62.3213L15.4746 62.3402Z" fill="#E2B8AF"/>
<path d="M89.1903 115.354C89.1903 115.354 89.0907 115.297 89.0741 115.241C88.9578 114.976 89.0077 114.769 89.0077 114.504C89.0077 114.146 89.0076 113.806 88.991 113.447C88.9578 112.201 88.8416 110.936 88.5593 109.728C88.5261 109.577 88.8748 109.539 88.908 109.671C89.1903 110.861 89.3066 112.088 89.3564 113.315C89.3564 113.692 89.3564 114.07 89.373 114.429C89.3896 114.712 89.456 115.052 89.2733 115.297C89.2567 115.316 89.2235 115.354 89.2069 115.354H89.1903Z" fill="#E26E61"/>
<path d="M92.1247 115.293C92.1247 115.293 92.0416 115.293 92.0084 115.237C91.8424 115.029 91.9254 114.557 91.9254 114.311C91.9254 113.877 91.9088 113.462 91.8922 113.028C91.8424 111.763 91.7759 110.517 91.6265 109.252C91.6265 109.12 91.9586 109.101 91.9752 109.252C92.1247 110.517 92.2077 111.801 92.2409 113.084C92.2575 113.764 92.3405 114.463 92.2243 115.123C92.2243 115.18 92.2077 115.218 92.1745 115.255C92.1745 115.255 92.1413 115.274 92.1247 115.274V115.293Z" fill="#E26E61"/>
<path d="M90.3352 109.426C90.3186 109.293 90.6673 109.275 90.6839 109.426C90.8832 110.653 91.016 111.899 91.0991 113.164C91.1489 113.806 91.1655 114.429 91.1821 115.071C91.1821 115.524 91.3316 116.373 91.0825 116.77C91.0825 116.789 91.0492 116.826 91.016 116.807C90.9994 116.807 90.9828 116.77 90.9662 116.751C90.7669 116.222 90.8334 115.637 90.8168 115.052C90.8168 114.41 90.7669 113.787 90.7337 113.145C90.6507 111.899 90.5012 110.653 90.3186 109.407L90.3352 109.426Z" fill="#E26E61"/>
<path d="M80.305 92.0317C80.3216 91.8618 80.3548 91.6919 80.3548 91.5031C80.388 90.6347 80.4711 89.9173 81.2682 89.5397C81.7331 89.3131 82.2645 89.3131 82.7461 89.4641C83.2443 89.6341 83.6595 89.9739 84.0414 90.3326C85.4695 91.6919 86.5822 93.4666 87.2962 95.4111C87.9937 97.3368 88.3092 99.4702 88.0767 101.566C87.9605 102.623 87.7114 103.831 86.8312 104.398C86.1504 104.832 85.4695 104.454 85.154 103.661C84.988 103.208 84.9547 102.717 84.9215 102.227C84.523 102.283 84.2739 101.773 84.1909 101.32C83.975 100.263 84.0248 99.1492 83.9252 98.0731C83.8587 97.3368 83.7425 96.0153 82.9952 95.7321C83.0616 96.2418 83.1115 96.7704 83.1613 97.2802C83.2111 97.8088 83.2609 98.3374 83.2775 98.866C83.2775 99.187 83.2443 99.5834 82.9952 99.7722C82.2479 100.376 81.9158 98.9604 81.6833 98.4318C81.318 97.6011 80.936 96.7516 80.5707 95.9209C80.3548 95.4489 80.1389 94.958 80.0725 94.4294C79.9397 93.5987 80.2054 92.8058 80.3216 92.0128L80.305 92.0317Z" fill="#EDAF8C"/>
<path d="M77.3833 89.7104C77.6988 89.6349 78.4129 90.5223 78.6952 90.7677C79.0273 91.0698 79.3761 91.3718 79.7082 91.6739C80.0071 91.9382 80.2894 92.2214 80.4887 92.5801C80.5219 92.6556 80.4555 92.7123 80.3558 92.7311C80.2064 93.4486 80.2064 94.2037 80.389 94.9211C80.5717 95.6952 80.9703 96.4126 81.2858 97.13C81.6345 97.8852 81.9666 98.6404 82.3154 99.3955C82.3652 99.5088 82.4482 99.7165 82.5645 99.7542C82.6807 99.792 82.8302 99.6221 82.88 99.5088C83.046 99.169 82.963 98.7348 82.9298 98.3572L82.6641 95.5064C82.6641 95.3931 82.9298 95.3554 82.9962 95.4498C83.0294 95.4498 83.0626 95.4686 83.0959 95.4875C84.0258 96.1861 84.1088 97.5831 84.1753 98.7348C84.2251 99.4144 84.2417 100.113 84.3247 100.793C84.3911 101.359 84.607 101.85 85.0388 102.133C85.2713 101.85 85.3543 101.453 85.4041 101.076C85.4539 100.623 85.4871 100.17 85.5038 99.7165C85.537 98.7725 85.5038 97.8286 85.3709 96.9035C85.3543 96.7713 85.703 96.7524 85.7196 96.9035C85.8525 97.8852 85.8857 98.8669 85.8525 99.8486C85.8359 100.302 85.8027 100.774 85.7362 101.227C85.6698 101.604 85.5702 101.982 85.3211 102.246C85.3045 102.265 85.2713 102.284 85.2215 102.284C85.2215 102.284 85.2215 102.284 85.2215 102.303C85.3045 102.869 85.4539 103.398 85.703 103.908C85.7528 104.021 85.8193 104.134 85.9023 104.229C85.9355 104.266 85.9687 104.304 86.0185 104.285C86.0684 104.285 86.1348 104.191 86.168 104.153C86.3175 103.983 86.4005 103.757 86.4669 103.53C86.6164 102.983 86.6662 102.397 86.7326 101.831C86.7824 101.227 86.8156 100.623 86.8156 100.019C86.8156 99.32 86.7658 98.6404 86.6828 97.9418C86.6828 97.8097 87.0149 97.7908 87.0315 97.9418C87.1976 99.3389 87.2142 100.774 87.0481 102.171C86.9817 102.756 86.9319 103.417 86.6828 103.927C86.5998 104.096 86.4835 104.248 86.3507 104.361C86.4669 104.493 86.633 104.455 86.7658 104.361C86.9651 104.248 87.1478 104.078 87.2972 103.889C87.5131 103.606 87.6293 103.285 87.7124 102.926C87.8286 102.473 87.9117 102.001 87.9449 101.529C87.9449 101.378 87.9449 101.265 88.0943 101.227C88.1774 101.227 88.36 101.227 88.36 101.359C88.3932 101.85 88.3102 102.36 88.1275 102.813C88.1275 102.813 88.1275 102.832 88.0943 102.85C87.9615 103.322 87.7788 103.776 87.4467 104.115C87.2474 104.323 86.9983 104.512 86.7326 104.568C86.5001 104.625 86.2012 104.625 86.0185 104.436C85.8193 104.455 85.6366 104.38 85.5204 104.191C85.3377 103.927 85.2048 103.606 85.1052 103.304C84.989 102.964 84.9059 102.605 84.8561 102.246C84.524 102.076 84.2583 101.793 84.1088 101.416C83.9262 100.963 83.9262 100.434 83.893 99.943C83.8597 99.3767 83.8265 98.8103 83.7767 98.2439C83.7435 97.7153 83.6937 97.1867 83.5442 96.6769C83.428 96.3182 83.2619 95.9973 83.046 95.7518C83.1291 96.5825 83.1955 97.4132 83.2785 98.2628C83.3117 98.6592 83.4114 99.1501 83.1955 99.5088C83.046 99.7731 82.7471 99.9242 82.4648 99.8675C82.1161 99.792 81.9832 99.3955 81.8504 99.0746C81.6677 98.6592 81.4684 98.2439 81.2858 97.8285C81.0865 97.3943 80.8872 96.9601 80.688 96.5259C80.5053 96.1294 80.3226 95.7329 80.1732 95.3176C79.8743 94.4492 79.841 93.4863 80.0403 92.5801C79.841 92.2214 79.5587 91.976 79.2764 91.7117C78.9443 91.4096 78.5956 91.1075 78.2634 90.8054C77.9313 90.5034 77.4497 90.1824 77.3999 89.6538L77.3833 89.7104Z" fill="#E26E61"/>
<path d="M17.1663 120.067C17.2161 119.898 17.681 119.935 17.6146 120.143C16.9836 122.484 16.6349 124.938 16.585 127.393C16.585 127.581 16.1034 127.581 16.1201 127.393C16.1699 124.919 16.5352 122.446 17.1663 120.067Z" fill="#4C6880"/>
<path d="M13.6467 124.936C14.2778 123.614 15.0251 122.368 15.8886 121.235C15.9882 121.103 16.4366 121.179 16.3037 121.368C15.4568 122.481 14.7261 123.709 14.1117 125.011C14.0287 125.181 13.5637 125.125 13.6634 124.936H13.6467Z" fill="#4C6880"/>
<path d="M25.2328 54.066C27.541 53.1975 29.9323 54.217 31.8586 55.6896C32.4066 56.1049 32.938 56.5769 33.4528 57.0489C33.5359 57.1244 33.4362 57.2188 33.3698 57.2377C33.2701 57.2754 33.1373 57.2566 33.0543 57.181C31.3937 55.6518 29.5006 54.1415 27.2919 54.0282C26.6775 53.9904 26.0797 54.0848 25.4818 54.2925C25.3822 54.3303 25.2328 54.3303 25.1663 54.2359C25.0833 54.1415 25.1663 54.0848 25.2494 54.0471L25.2328 54.066Z" fill="#6A8EA8"/>
<path d="M42.9839 74.5533C42.9839 74.5533 43.2164 74.4778 43.2995 74.4967C45.9398 75.2141 48.6134 75.856 51.287 76.4224C52.0509 76.5734 52.8148 76.7244 53.5787 76.8755C53.6451 76.8755 53.778 76.9321 53.7448 77.0454C53.7115 77.1398 53.5289 77.1587 53.4458 77.1398C50.7224 76.63 48.0156 76.0259 45.3254 75.3462C44.5615 75.1575 43.8142 74.9498 43.0504 74.7421C42.9673 74.7232 42.9009 74.6288 42.9673 74.5533H42.9839Z" fill="#6A8EA8"/>
<path d="M32.6362 78.8927C32.6362 78.8927 32.8687 78.8172 32.9517 78.836C35.2766 79.6478 37.6513 80.2709 40.0592 80.724C40.1256 80.724 40.2584 80.7806 40.2252 80.8939C40.192 80.9883 40.0093 81.0072 39.9263 80.9883C38.0332 80.6296 36.1567 80.1765 34.2968 79.5912C33.7654 79.4213 33.234 79.2514 32.7026 79.0626C32.6196 79.0437 32.5532 78.9682 32.6196 78.8738L32.6362 78.8927Z" fill="#6A8EA8"/>
<path d="M19.2893 73.2086C19.2893 73.2086 19.5218 73.1331 19.6048 73.152C21.6806 73.8882 23.6899 74.8511 25.6162 76.0216C26.596 76.6257 27.5592 77.2488 28.5555 77.834C29.5519 78.4004 30.5649 78.9479 31.5945 79.4576C32.7403 80.024 33.9027 80.5715 35.0485 81.119C35.1482 81.1568 35.1316 81.2701 35.0485 81.3078C34.9489 81.3645 34.8161 81.3456 34.7164 81.3078C32.6739 80.345 30.6313 79.3632 28.6386 78.2682C27.6422 77.7207 26.679 77.0977 25.7159 76.4936C24.7527 75.8895 23.7729 75.342 22.7766 74.8511C21.664 74.3036 20.5181 73.8127 19.3557 73.3974C19.2727 73.3785 19.2062 73.303 19.2727 73.2086H19.2893Z" fill="#6A8EA8"/>
<path d="M46.5071 86.8919C46.5404 86.7786 46.723 86.7786 46.8061 86.7975C48.749 87.0807 50.7085 87.2506 52.668 87.2695C54.6276 87.2884 56.5871 87.194 58.5466 86.9485C59.6592 86.8164 60.7553 86.6465 61.8513 86.4199C61.9343 86.4199 62.1004 86.4199 62.1502 86.5143C62.2 86.6276 62.0505 86.6654 61.9841 86.6842C60.0246 87.0807 58.0318 87.3261 56.0391 87.4583C54.0464 87.5904 52.0536 87.5716 50.0609 87.4205C48.9316 87.345 47.8024 87.2129 46.6732 87.0429C46.6068 87.0429 46.4739 86.9863 46.5071 86.873V86.8919Z" fill="#6A8EA8"/>
<path d="M61.6169 94.9191C62.3642 93.1822 63.2443 91.5397 64.2241 89.9727C64.7057 89.1987 65.2205 88.4624 65.7519 87.7261C66.2833 87.0087 66.8479 86.3102 67.3128 85.5172C67.4457 85.3096 67.5619 85.083 67.6616 84.8564C67.7612 84.6488 67.8442 84.4222 67.9937 84.2523C68.2594 83.8936 68.6912 83.7992 68.9735 83.4783C69.0731 83.3461 69.5381 83.4405 69.3886 83.6104C69.1395 83.9125 68.7742 83.988 68.5085 84.2712C68.3756 84.4222 68.2926 84.611 68.2096 84.7809C68.1099 84.9886 68.0103 85.1963 67.8941 85.4039C67.4623 86.1969 66.9143 86.8954 66.3829 87.6128C66.2334 87.8205 66.084 88.0282 65.9179 88.2358C65.9345 88.2547 65.9511 88.2736 65.9511 88.3114C65.6356 90.5391 65.702 92.8235 66.1338 95.0324C66.167 95.2023 65.702 95.2401 65.6688 95.0324C65.2703 93.0501 65.1872 91.0111 65.4031 88.991C64.7057 90.0105 64.058 91.0866 63.4602 92.1816C62.962 93.1067 62.5137 94.0507 62.0985 95.0135C62.0321 95.1834 61.5671 95.1268 61.6501 94.938L61.6169 94.9191Z" fill="#6A8EA8"/>
<path d="M20.7308 98.961C22.873 97.3563 24.9488 95.6194 26.9415 93.7692C27.5061 93.2595 28.0541 92.7308 28.5855 92.1833C28.6686 92.1078 28.818 92.1078 28.901 92.1267C28.9675 92.1456 29.0671 92.24 28.9841 92.3155C27.0245 94.2412 24.9986 96.0536 22.873 97.7338C22.2752 98.2058 21.6607 98.6778 21.0463 99.1309C20.9135 99.2253 20.4817 99.112 20.7142 98.9421L20.7308 98.961Z" fill="#6A8EA8"/>
<path d="M66.1667 47.6875C68.1517 46.9879 68.7472 43.6032 71.0299 43.5653C71.5426 43.5653 72.0223 43.7544 72.4689 44.057C72.9321 44.3784 73.7426 45.3995 74.3216 45.097C74.9667 44.7566 75.1321 43.4519 75.2975 42.7711C75.5621 41.6933 75.8268 40.6155 76.108 39.5566C76.1742 39.3107 76.6539 39.3675 76.8027 39.4431C78.1922 40.3508 79.5817 41.2395 80.9711 42.1471C81.6162 42.5631 82.2448 42.9981 82.9064 43.3952C83.2373 43.6032 83.6012 43.8112 83.9816 43.8868C84.4944 43.9813 84.9741 43.6977 85.4372 43.4708C85.6688 43.3573 85.8839 43.2439 86.1154 43.1682C84.1636 41.3719 82.3771 39.3486 80.7561 37.1551C80.541 36.8525 81.0704 36.7769 81.2192 36.7958C83.5019 37.0795 85.123 39.0838 87.1244 40.1617C87.5711 40.3886 88.0508 40.5966 88.547 40.5966C88.8447 40.5966 89.1921 40.5588 89.4071 40.2751C89.6222 39.9915 89.7545 39.3864 89.8537 39.046C90.0522 38.4031 90.2011 37.7602 90.3004 37.0984C89.6222 37.2307 88.9274 37.174 88.2658 37.0038C86.2147 36.5122 84.2297 35.2074 82.526 33.846C78.6388 30.7259 75.6614 26.0554 74.8674 20.6473C74.8343 20.4582 75.1982 20.4015 75.2809 20.4015C77.1501 20.4015 79.0358 20.4204 80.9215 20.3826C81.7816 20.3637 82.4598 20.0989 82.8403 19.1724C83.138 18.4728 83.1546 17.6407 83.0718 16.8655C82.8734 15.0313 81.8478 13.3673 82.0463 11.4574C82.1786 10.1338 82.8899 9.09377 83.8493 8.37522C86.0658 6.73011 89.1921 6.57883 91.7394 6.74902C93.2943 6.84356 94.8657 7.22175 96.2221 8.1483C97.4131 8.98031 98.3725 10.1527 99.1168 11.4952C100.175 13.424 100.688 15.5796 100.936 17.792C102.276 17.1302 103.682 16.7898 105.154 17.1491C107.239 17.6597 109.538 19.7019 109.008 22.4248C108.959 22.6517 108.645 22.6895 108.479 22.6517C106.048 22.179 103.599 21.8008 101.135 21.5361C101.135 22.3681 101.135 23.2001 101.135 24.0132C101.366 24.0321 101.598 24.0699 101.83 24.1077C102.392 23.5404 103.153 23.3135 103.897 23.4459C104.906 23.635 105.7 24.4859 106.345 25.3368C106.494 25.5259 106.643 25.7339 106.775 25.9419C108.595 27.0386 110.233 28.5325 111.572 30.3667C112.912 32.2009 113.954 34.3187 114.533 36.6256C115.046 38.6867 115.641 41.8824 113.872 43.3952C113.078 44.0759 112.069 44.2082 111.126 44.4352C110.067 44.681 109.207 45.1348 108.578 46.1748C107.619 47.7821 107.354 49.8999 106.147 51.3181C104.575 53.1901 102.078 52.2069 100.209 51.6018C97.9093 50.8454 95.6597 49.8432 93.5094 48.633C91.0282 47.2337 88.6793 45.5319 86.5124 43.5653C85.9335 43.8301 85.3876 44.1893 84.7756 44.3217C83.32 44.6621 82.0628 43.6031 80.8719 42.8279C79.5155 41.9391 78.1426 41.0693 76.7862 40.1806C76.5546 41.145 76.3065 42.0904 76.0749 43.0548C75.8764 43.849 75.7276 44.8133 75.1155 45.3239C74.0569 46.2315 72.9652 45.2672 72.0885 44.5864C71.5261 44.1515 71.0133 43.9246 70.4178 44.3595C69.9547 44.6999 69.5742 45.2104 69.2269 45.6832C68.4825 46.6854 67.7547 47.7443 66.6133 48.1414C66.3156 48.2548 65.687 47.9145 66.1998 47.7254L66.1667 47.6875ZM90.168 40.3508C89.7876 41.1828 88.365 41.0882 87.6703 40.918C85.5034 40.3886 83.9485 38.1951 81.8643 37.4387C83.3696 39.4242 85.0072 41.2395 86.7936 42.8846C87.2899 42.7522 87.8026 42.6955 88.3485 42.7333C89.3079 42.7901 90.2507 43.0926 91.144 43.4708C93.0297 44.265 94.8988 45.5886 96.9334 45.7966C99.2988 46.0424 100.887 43.8301 101.003 41.2773C98.389 39.3107 95.577 37.7224 92.6161 36.5689C92.3515 36.4555 92.0868 36.3609 91.8056 36.2664C91.6237 36.4365 91.4252 36.5878 91.2101 36.7013C91.177 36.7013 91.1605 36.7202 91.1274 36.7391C90.962 37.9871 90.6643 39.254 90.1515 40.3508H90.168ZM106.048 26.131C104.84 25.4125 103.55 24.9019 102.21 24.6183C101.896 25.0532 101.664 25.6015 101.466 26.0175C101.036 26.9252 100.622 27.8328 99.8943 28.4568C99.2492 29.0241 98.5048 29.3645 97.7604 29.6859C98.571 30.7827 99.3649 31.8794 100.159 32.9761C100.324 33.222 99.5469 33.3543 99.3649 33.1085C98.604 32.0496 97.8432 31.0096 97.0657 29.9696C96.2221 30.3099 95.362 30.6692 94.6838 31.3689C94.6176 31.4445 94.5514 31.5201 94.4853 31.5958C96.5529 32.8249 98.6702 34.0918 100.192 36.1529C101.234 37.5711 101.879 39.3107 101.83 41.1071C102.177 41.3719 102.524 41.6366 102.855 41.9202C102.855 40.4642 103.533 39.1595 104.344 38.0249C105.402 36.5311 106.693 35.2074 107.47 33.4867C107.917 32.5034 108.132 31.4445 107.966 30.3478C107.768 28.9485 107.057 27.7194 106.329 26.6226C106.23 26.4903 106.13 26.3201 106.031 26.1499L106.048 26.131ZM87.8026 34.5078C88.6297 34.886 89.6056 34.9805 90.4823 35.2453C90.5154 34.7536 90.5485 34.2809 90.5485 33.7892C90.5816 32.4278 90.5485 31.0474 90.5154 29.667C90.4823 29.6292 90.4327 29.6103 90.3996 29.5725C89.5725 28.9107 88.1831 27.8896 88.3154 26.547C88.4312 25.4314 89.4898 24.6939 90.3004 24.259C90.4161 24.2023 90.5319 24.1455 90.6477 24.0699C90.6643 23.8808 90.6973 23.6728 90.7139 23.4837C90.7801 23.011 90.8628 22.5382 90.9951 22.1033C90.6643 21.8197 90.2838 21.6873 89.8703 21.8953C89.556 22.0655 89.2748 22.3492 88.9605 22.5193C88.6628 22.6706 88.365 22.7841 88.0508 22.8597C87.2237 23.0677 86.3801 22.9921 85.6027 22.6706C86.2478 24.4103 86.7109 26.2255 86.9756 28.0787C87.1244 29.1943 87.2237 30.3099 87.2237 31.4256C87.2237 32.39 86.8598 33.9972 87.8357 34.4511L87.8026 34.5078ZM91.8221 35.094C92.3846 34.1296 92.6988 33.014 93.2612 32.0685C93.3439 31.9361 93.4266 31.8038 93.5259 31.6714C92.765 31.2176 92.0206 30.7638 91.359 30.3099C91.4086 32.0496 91.4417 33.7892 91.2928 35.51C91.359 35.5289 91.4417 35.5667 91.5079 35.5856C91.6237 35.4344 91.7394 35.2831 91.8387 35.094H91.8221ZM90.4823 28.835C90.4492 27.4925 90.4492 26.131 90.565 24.7884C90.3334 24.9397 90.1019 25.1099 89.8868 25.299C89.4898 25.6583 89.1425 26.131 89.1259 26.7172C89.1094 27.5681 89.7876 28.1732 90.3004 28.6648C90.3665 28.7216 90.4161 28.7783 90.4823 28.835ZM91.4417 23.6917C91.6402 23.5972 91.8387 23.5026 92.0372 23.4081C91.9049 23.219 91.7394 23.011 91.5906 22.803C91.5244 23.0866 91.4913 23.3892 91.4582 23.6917H91.4417ZM92.6988 23.1055C93.1454 22.8975 93.5755 22.6706 94.0056 22.4248C94.7003 22.0088 95.3785 21.555 96.0402 21.0822C95.8747 21.0822 95.6928 21.0633 95.5274 21.0633C94.6838 21.0255 93.7575 20.8742 92.9139 21.0255C92.3846 21.12 92.0372 21.5171 91.8221 22.0655C92.1364 22.387 92.4342 22.7652 92.7154 23.1244L92.6988 23.1055ZM91.3921 24.3157C91.3755 24.6939 91.359 25.0343 91.3425 25.3179C91.2597 26.7172 91.2928 28.1165 91.3259 29.5347C92.1364 30.1587 93.0131 30.707 93.8733 31.2176C94.6672 30.3856 95.6928 29.9507 96.7349 29.5158C95.3123 27.6059 93.8733 25.7339 92.4011 23.8619C92.0703 24.0132 91.7229 24.1455 91.3921 24.2968V24.3157ZM94.1379 32.0307C93.6913 32.7303 93.3936 33.5623 93.0462 34.3187C92.8146 34.8482 92.5334 35.3776 92.1861 35.8125C92.5334 35.9449 92.8642 36.0584 93.2116 36.2096C94.9815 36.9093 96.7018 37.7602 98.3559 38.7435C99.2492 39.2729 100.126 39.8591 100.986 40.4642C100.804 36.2285 97.38 33.9783 94.1214 32.0307H94.1379ZM98.786 12.6109C98.174 11.2116 97.3304 9.90686 96.2387 8.94249C94.8657 7.7323 93.1951 7.24066 91.4913 7.14611C89.0432 7.01375 85.6688 7.1083 83.7831 9.18831C81.3681 11.8545 84.3455 15.2582 83.8162 18.3404C83.5515 19.872 82.5922 20.6662 81.2689 20.7419C79.4162 20.8742 77.5471 20.7986 75.6945 20.7797C76.4554 25.6394 79.0358 29.875 82.4267 32.8438C84.1636 34.3754 86.2478 35.8314 88.3981 36.4176C89.0929 36.6067 89.7545 36.6067 90.35 36.3798C90.3831 36.1718 90.3996 35.9449 90.4161 35.7369C90.2342 35.6802 90.0522 35.6234 89.8703 35.5667C89.0267 35.3209 88.1004 35.2074 87.2899 34.8482C86.4793 34.4889 86.3139 33.8082 86.347 32.8816C86.3801 31.766 86.3801 30.6314 86.2808 29.5158C86.0493 26.8874 85.4372 24.3535 84.4613 21.971C84.3124 21.5928 85.0899 21.6684 85.2222 21.7819C85.9335 22.3681 86.8102 22.6328 87.6703 22.4248C88.4312 22.2546 88.944 21.6495 89.6387 21.3659C90.2507 21.12 90.7801 21.2335 91.2432 21.5361C91.4913 21.0822 91.8718 20.7419 92.4342 20.5717C93.0627 20.4015 93.7409 20.4582 94.386 20.4771C95.1469 20.496 95.9078 20.5339 96.6522 20.5906C96.983 20.3448 97.3138 20.08 97.6612 19.8342C98.4386 19.248 99.2657 18.624 100.126 18.1324C99.9439 16.2226 99.5634 14.3505 98.8025 12.592L98.786 12.6109ZM97.595 20.6662C98.4883 20.723 99.3649 20.7986 100.258 20.8931C100.258 20.1746 100.209 19.456 100.159 18.7564C99.2492 19.3426 98.389 20.0611 97.595 20.6662ZM108.181 22.0277C108.463 19.5695 106.329 17.6786 104.327 17.4327C103.169 17.2815 102.028 17.6786 100.936 18.2837C101.019 19.1724 101.052 20.08 101.085 20.9877C103.467 21.2524 105.833 21.5928 108.181 22.0466V22.0277ZM98.0416 21.1768C97.6943 21.1579 97.3635 21.1201 97.0161 21.1011C95.8417 21.971 94.6342 22.7652 93.3605 23.4081C93.2612 23.4648 93.1785 23.5026 93.0793 23.5404C94.5514 25.3935 96.0071 27.2845 97.4296 29.1943C97.6612 29.0998 97.8928 28.9863 98.1078 28.8728C99.0507 28.3812 99.7454 27.7005 100.275 26.6794C100.655 25.9419 100.953 25.1099 101.433 24.4481C101.184 24.4103 100.936 24.3913 100.688 24.3724C100.572 24.3724 100.275 24.3346 100.275 24.1266C100.275 23.219 100.291 22.2924 100.275 21.3659C99.5304 21.2902 98.786 21.2146 98.0416 21.1768ZM103.401 23.8052C103.07 23.8052 102.806 23.9564 102.557 24.1834C103.517 24.3914 104.443 24.7128 105.336 25.1288C104.774 24.4292 104.112 23.8052 103.401 23.8241V23.8052ZM97.8928 50.089C98.9514 50.5428 100.043 50.9399 101.135 51.2614C102.26 51.6018 103.699 52.2258 104.79 51.5261C106.18 50.6374 106.593 48.4628 107.255 46.9501C107.586 46.1937 107.983 45.4374 108.578 44.9079C109.29 44.265 110.166 44.0192 111.043 43.8301C112.135 43.5842 113.276 43.3384 113.822 42.0904C114.302 41.0126 114.202 39.6889 114.054 38.5355C113.756 36.2853 112.995 34.1296 111.92 32.2009C110.795 30.2343 109.323 28.4947 107.619 27.171C108.479 28.627 109.091 30.291 108.76 32.0496C108.363 34.1107 106.99 35.6802 105.816 37.2118C104.642 38.7435 103.351 40.5209 103.781 42.6955C103.848 43.0359 103.12 42.9224 103.021 42.809C102.624 42.4686 102.21 42.1282 101.796 41.8068C101.747 42.166 101.681 42.5253 101.581 42.8657C100.969 45.0024 99.2492 46.2504 97.3138 46.2126C95.362 46.1937 93.5424 45.1159 91.7891 44.2839C90.7304 43.7733 89.6222 43.2817 88.4643 43.1493C88.0508 43.1115 87.6538 43.1304 87.2402 43.2061C88.6793 44.4919 90.1846 45.6832 91.7725 46.7232C93.7409 48.0279 95.792 49.1436 97.9259 50.0512L97.8928 50.089Z" fill="#333333"/>
</svg>
