<svg viewBox="0 0 114 160" fill="none" xmlns="http://www.w3.org/2000/svg">
<g clip-path="url(#clip0_1_14065)">
<path d="M98.5009 178.416H6.94141C6.94141 166.747 22.9272 157.02 44.0576 154.905C46.8665 154.623 49.7544 154.482 52.7211 154.482C78.0018 154.482 98.5009 165.196 98.5009 178.431V178.416Z" fill="#6A8EA8"/>
<path d="M81.1895 178.416H6.94141C6.94141 166.748 22.9273 157.021 44.0576 154.906C65.2037 157.021 81.1737 166.748 81.1737 178.416H81.1895Z" fill="#557571"/>
<path d="M75.223 134.4C75.223 140.117 72.8716 145.301 69.0843 149.045C68.311 149.797 67.4904 150.501 66.6225 151.128C64.5237 152.632 62.1408 153.775 59.5528 154.417C58.2903 154.73 56.9805 154.934 55.6234 155.012C55.2289 155.028 54.8186 155.044 54.4083 155.044C51.5835 155.044 48.9008 154.48 46.439 153.477C43.8825 152.428 41.5944 150.877 39.6691 148.966C35.9133 145.239 33.6094 140.085 33.6094 134.384C33.6094 130.547 34.6667 126.96 36.4972 123.89C36.8602 123.279 37.2547 122.684 37.6808 122.104C40.3004 118.58 44.0246 115.917 48.3485 114.617C49.4689 114.273 50.6367 114.038 51.836 113.881C52.6882 113.772 53.5404 113.725 54.4241 113.725C65.9124 113.725 75.2387 122.966 75.2387 134.384L75.223 134.4Z" fill="#E2B8AF"/>
<path d="M52.3401 127.948C52.5452 127.227 52.5137 126.287 52.3401 125.661C51.9456 124.298 50.9987 122.701 49.7205 121.98C49.0577 121.604 47.6374 121.479 47.2271 122.293C46.9273 122.857 47.3376 123.703 47.5428 124.251C48.0951 125.739 49.0103 127.4 50.2412 128.465C51.4406 129.498 52.0876 128.919 52.3558 127.963L52.3401 127.948Z" fill="#F4F4F4"/>
<path d="M63.6876 132.52C63.5298 131.972 63.2773 131.455 62.9774 130.97C62.3462 129.951 61.6203 128.824 60.5314 128.244C60.1054 128.009 58.9218 127.931 58.6851 128.495C58.6062 128.683 58.5588 128.855 58.5431 129.059C58.3695 129.184 58.2748 129.341 58.3695 129.544C58.8587 130.719 59.4899 131.831 60.2631 132.849C60.6103 133.303 61.0049 133.914 61.5256 134.18C62.1095 134.478 63.1352 134.509 63.6244 133.993C63.9874 133.601 63.798 132.974 63.6718 132.52H63.6876Z" fill="#F4F4F4"/>
<path d="M64.0033 119.41C63.735 118.878 63.4352 118.361 63.088 117.891C62.299 116.779 61.2575 115.573 59.7267 116.152C59.4269 116.262 59.0955 116.481 59.2218 116.763C59.0482 116.873 58.9693 117.045 59.0639 117.233C59.632 118.361 60.3107 119.395 61.1313 120.366C61.4942 120.804 61.8887 121.368 62.4726 121.556C63.0565 121.744 64.0822 121.728 64.4294 121.102C64.7135 120.616 64.24 119.849 64.0191 119.41H64.0033Z" fill="#F4F4F4"/>
<path d="M59.7918 143.704C59.5235 142.341 58.4978 141.229 57.6772 140.148C57.2511 139.569 56.7777 139.224 56.036 139.177C55.389 139.146 54.4895 139.334 54.379 140.07C54.3475 140.273 54.5053 140.414 54.7262 140.524C55.2312 141.699 55.894 142.795 56.7146 143.782C57.2353 144.424 57.693 144.894 58.5767 144.894C59.3499 144.894 59.9496 144.503 59.7918 143.704Z" fill="#F4F4F4"/>
<path d="M69.0829 149.045C68.3096 149.796 67.489 150.501 66.6211 151.128C65.8163 150.172 65.1693 149.107 64.6959 147.948C64.5538 147.838 64.4907 147.698 64.5223 147.51C64.4118 147.181 64.7275 146.961 65.122 146.867C65.5638 146.679 66.1161 146.664 66.4949 146.726C67.2839 146.836 67.7573 147.369 68.2465 147.932C68.5463 148.293 68.8146 148.653 69.0829 149.045Z" fill="#F4F4F4"/>
<path d="M72.8245 141.274C72.3984 139.849 71.6568 138.565 70.6783 137.421C70.2365 136.905 69.7631 136.388 69.0845 136.2C68.8162 136.121 68.4691 136.09 68.1219 136.121C67.3171 136.043 66.3544 136.356 66.5912 136.952C67.0961 138.22 67.7431 139.411 68.5637 140.507C69.4475 141.682 70.6783 142.59 72.2406 142.011C72.6036 141.885 72.9665 141.697 72.8403 141.274H72.8245Z" fill="#F4F4F4"/>
<path d="M41.2028 129.482C40.3665 129.357 39.7352 128.668 39.1829 128.088C38.1572 127.023 36.7211 125.598 36.5002 124.094C36.5002 124.031 36.5002 123.969 36.4844 123.906C36.8473 123.295 37.2418 122.7 37.6679 122.121C38.0624 122.042 38.4885 122.121 38.8515 122.277C39.3722 122.528 39.7983 122.935 40.177 123.374C40.7136 123.984 42.5284 126.538 42.7651 128.151C42.9071 129.059 42.5442 129.67 41.187 129.482H41.2028Z" fill="#F4F4F4"/>
<path d="M53.7172 119.864C52.7545 120.005 51.8392 119.504 51.1922 118.83C50.4821 118.094 49.8667 117.217 49.3301 116.293C49.0776 116.23 48.8883 116.121 48.7936 115.948C48.5884 115.557 48.3991 115.087 48.3359 114.648C49.4564 114.304 50.6241 114.069 51.8235 113.912C52.3284 114.366 52.7703 114.93 53.1648 115.447C53.7014 116.152 54.159 116.919 54.4115 117.781C54.664 118.658 54.8691 119.676 53.7014 119.848L53.7172 119.864Z" fill="#F4F4F4"/>
<path d="M49.0899 142.388C48.8532 141.699 48.3956 141.01 48.0799 140.446C47.7012 139.788 47.2751 139.177 46.8017 138.582C46.3756 138.065 45.8549 137.407 45.2394 137.094C44.5924 136.765 43.2353 136.75 42.9354 137.564C42.7145 138.128 43.1564 139.036 43.3457 139.585C43.8981 141.213 44.9869 142.545 46.06 143.908C46.2967 144.205 46.5335 144.518 46.8648 144.706C48.0326 145.395 48.9163 144.863 49.2162 143.61C49.3108 143.218 49.2477 142.795 49.1057 142.373L49.0899 142.388Z" fill="#F4F4F4"/>
<path d="M59.5548 154.417C58.2924 154.73 56.9825 154.934 55.6254 155.012C54.8048 154.135 54.1262 153.117 53.7002 151.989C53.4161 151.269 53.1163 150.407 53.2741 149.624C53.4477 148.763 54.2841 148.465 55.0889 148.528C55.9568 148.606 56.6038 149.264 57.1561 149.89C57.6611 150.438 58.1188 151.034 58.4817 151.692C58.8604 152.334 59.1445 153.023 59.3497 153.743C59.4128 153.947 59.4759 154.182 59.539 154.401L59.5548 154.417Z" fill="#F4F4F4"/>
<path d="M46.4378 153.492C43.8814 152.443 41.5932 150.892 39.668 148.981C39.6995 148.887 39.81 148.809 39.9362 148.746C39.9204 148.37 39.9362 147.994 40.0625 147.603C40.1572 147.305 40.741 147.227 40.9777 147.195C41.3249 147.164 41.8141 147.195 42.0824 147.462C43.1713 148.48 44.1497 149.623 44.9702 150.861C45.3805 151.487 45.7593 152.129 46.0907 152.803C46.1853 152.991 46.3274 153.241 46.4536 153.492H46.4378Z" fill="#F4F4F4"/>
<path d="M39.3702 137.218C39.244 136.733 39.0546 136.247 38.8967 135.887C38.2024 134.195 37.4449 132.425 35.9616 131.345C35.7091 131.157 35.425 131 35.1094 131C34.6675 131 34.2888 131.36 34.131 131.767C33.9732 132.175 33.9732 132.629 34.0048 133.068C34.1626 135.809 35.3777 137.234 37.0346 139.27C37.2871 139.583 37.7132 139.677 38.1077 139.677C39.7173 139.677 39.7173 138.424 39.3859 137.234L39.3702 137.218Z" fill="#F4F4F4"/>
<path d="M73.5209 128.274C73.3 127.569 72.9844 126.911 72.6056 126.285C71.8166 124.938 70.8698 123.34 69.055 123.638C68.7552 123.685 68.2817 123.81 68.2502 124.17C68.2186 124.452 68.2344 124.718 68.2975 125C68.3291 125.157 68.4395 125.282 68.5973 125.361C68.9287 126.551 69.4022 127.71 70.0492 128.775C70.4121 129.355 70.8382 130.185 71.4694 130.498C72.0849 130.796 73.3473 130.858 73.7576 130.169C74.0575 129.668 73.6945 128.775 73.5367 128.258L73.5209 128.274Z" fill="#F4F4F4"/>
<path d="M113.601 96.2617H-1.59766V113.742H113.601V96.2617Z" fill="#D3D0CE"/>
<path d="M92.6133 96.8267V113.085C92.6133 113.351 93.1341 113.351 93.1341 113.085V96.8267C93.1341 96.5604 92.6133 96.5604 92.6133 96.8267Z" fill="#D3D0CE"/>
<path d="M80.543 84.623C80.6219 90.3557 83.5571 94.9606 87.1709 94.9606C90.7846 94.9606 93.7198 90.3557 93.7987 84.623H80.543Z" fill="#E2B8AF"/>
<path d="M92.9144 92.9565C92.2358 92.9565 91.573 92.7529 91.0049 92.3457C89.49 91.2336 89.2532 88.9781 90.4841 87.3178C91.715 85.6576 93.9559 85.219 95.4708 86.3311C96.2125 86.8793 96.686 87.7094 96.7649 88.6649C96.8595 89.6046 96.5755 90.5601 95.9916 91.3589C95.2184 92.3927 94.0506 92.9565 92.9144 92.9565ZM91.6677 91.4529C92.6934 92.2047 94.2242 91.8601 95.0921 90.7011C95.5182 90.1215 95.7233 89.448 95.6602 88.7745C95.5971 88.1323 95.2973 87.5841 94.8081 87.2239C93.7823 86.472 92.2516 86.8166 91.3836 87.9757C90.5157 89.1347 90.6419 90.7011 91.6677 91.4372V91.4529Z" fill="#E2B8AF"/>
<path d="M88.6383 93.7695H79.6118C79.2173 93.7695 79.0279 94.2394 79.312 94.5214L80.9847 96.1033C81.0636 96.1817 81.1741 96.2286 81.2846 96.2286H93.0727C93.1832 96.2286 93.2936 96.1817 93.3725 96.1033L95.0453 94.5214C95.3293 94.2551 95.14 93.7695 94.7455 93.7695H88.6383Z" fill="#E2B8AF"/>
<path d="M89.8214 93.6289H84.3455C84.3455 93.6289 84.1719 93.6289 84.1719 93.7072C84.1719 93.7855 84.2981 93.7855 84.3455 93.7855H89.8214C89.8214 93.7855 89.9949 93.7855 89.9949 93.7072C89.9949 93.6289 89.8687 93.6289 89.8214 93.6289Z" fill="#B5696D"/>
<path d="M12.5588 145.678C12.5588 145.757 12.5746 145.835 12.5904 145.929C12.6535 146.634 12.3063 146.994 11.8645 147.495C10.9019 148.576 9.93919 149.657 8.91345 150.691C7.90349 151.724 6.8462 152.711 5.72577 153.635C4.71581 154.465 3.54803 155.483 2.15933 155.546C1.0389 155.609 -0.0341616 154.967 0.0605223 153.745C0.0605223 153.698 0.0605223 153.651 0.0605223 153.604C0.186768 152.335 0.691764 151.019 1.25987 149.892C1.92266 148.545 2.80637 147.323 3.62697 146.086C4.4949 144.754 5.3628 143.439 6.24651 142.107C6.2623 142.076 6.29387 142.06 6.30965 142.045C7.13025 141.073 8.51893 140.854 9.74982 141.058C10.4126 141.167 11.1228 141.371 11.5962 141.841C12.1169 142.342 12.2274 143.078 12.3063 143.767C12.3852 144.41 12.4799 145.052 12.543 145.694L12.5588 145.678Z" fill="#557571"/>
<path d="M13.0149 139.193C12.7466 138.52 11.9261 138.112 11.2633 137.909C10.3164 137.611 9.2118 137.643 8.3123 138.097C7.60217 138.457 7.47592 139.178 7.22343 139.851C6.89204 140.744 6.60796 141.652 6.40281 142.592C6.38703 142.67 6.37125 142.749 6.35547 142.827C7.00248 142.435 7.82308 142.451 8.43853 142.89C8.75414 143.109 9.00662 143.438 9.16442 143.782C9.25911 143.97 9.71678 145.02 9.59053 145.192C10.0797 144.534 10.7898 144.064 11.3737 143.501C12.4468 142.482 13.6304 140.744 13.0149 139.209V139.193Z" fill="#FDB082"/>
<path d="M12.5588 145.678C12.5588 145.756 12.5746 145.834 12.5904 145.928C12.6535 146.633 12.3063 146.993 11.8645 147.495C10.9019 148.575 9.93919 149.656 8.91345 150.69C7.90349 151.724 6.8462 152.71 5.72577 153.635C4.71581 154.465 3.54803 155.483 2.15933 155.545C1.0389 155.608 -0.0341616 154.966 0.0605223 153.744C0.0605223 153.697 0.0605223 153.65 0.0605223 153.603C0.707529 154.512 1.89107 154.966 2.96416 154.449C4.28973 153.807 5.52064 152.804 6.62528 151.833C8.77145 149.954 10.6336 147.792 12.543 145.678H12.5588Z" fill="#333333"/>
<path d="M8.81943 145.036C7.28871 146.915 5.66332 148.701 3.95901 150.424C3.86433 150.518 3.78543 150.612 3.86433 150.737C3.94323 150.847 4.08523 150.941 4.17991 151.035C4.38506 151.254 4.55865 151.504 4.66911 151.771C4.70067 151.849 4.98475 151.802 4.9374 151.708C4.84272 151.473 4.70068 151.254 4.52709 151.05C4.44819 150.972 4.36929 150.894 4.29039 150.815C4.24305 150.768 4.17992 150.737 4.13257 150.674C4.06945 150.596 4.13257 150.533 4.17991 150.471C4.59021 150.048 5.01629 149.625 5.4108 149.202C6.21562 148.356 7.00465 147.479 7.7779 146.602C8.21976 146.101 8.64589 145.584 9.05618 145.083C9.13509 144.989 8.86681 144.973 8.80369 145.036H8.81943Z" fill="#4C6880"/>
<path d="M6.13617 142.922C4.74747 144.473 4.11621 146.509 2.9011 148.169C2.56971 148.639 2.191 149.062 1.74914 149.438C1.7018 149.485 1.78067 149.516 1.81223 149.532C1.87535 149.532 1.9543 149.532 2.00164 149.485C3.59549 148.138 4.32136 146.118 5.36288 144.395C5.66271 143.893 5.99415 143.424 6.38866 142.985C6.46757 142.891 6.19929 142.875 6.13617 142.938V142.922Z" fill="#4C6880"/>
<path d="M8.51958 145.975C7.65164 145.051 6.46811 144.455 5.18988 144.314C5.09519 144.314 4.93737 144.314 4.87425 144.393C4.81112 144.471 4.89004 144.534 4.98472 144.549C6.15249 144.69 7.27291 145.239 8.07772 146.1C8.15662 146.178 8.28287 146.178 8.37756 146.147C8.4249 146.147 8.59848 146.053 8.51958 145.975Z" fill="#333333"/>
<path d="M7.52304 147.511C6.734 146.681 5.72403 146.07 4.6036 145.757C4.49314 145.726 4.36686 145.726 4.27218 145.788C4.19327 145.835 4.19329 145.929 4.28797 145.961C5.34528 146.258 6.30791 146.838 7.06539 147.621C7.14429 147.699 7.27054 147.699 7.36522 147.668C7.41256 147.668 7.58614 147.574 7.50724 147.495L7.52304 147.511Z" fill="#333333"/>
<path d="M6.29412 148.857C5.94695 148.465 5.58398 148.089 5.14212 147.792C4.6687 147.494 4.14793 147.322 3.61139 147.181C3.50093 147.149 3.3747 147.149 3.28001 147.212C3.20111 147.259 3.20108 147.353 3.29576 147.384C3.80074 147.525 4.30574 147.682 4.7476 147.964C5.17368 148.23 5.52082 148.59 5.85222 148.966C5.91534 149.045 6.05737 149.045 6.15205 149.013C6.1994 149.013 6.37303 148.919 6.29412 148.841V148.857Z" fill="#333333"/>
<path d="M5.00088 150.487C4.4959 149.5 3.48593 148.795 2.38128 148.639C2.2866 148.639 2.12877 148.639 2.06565 148.717C2.00253 148.795 2.08144 148.858 2.17613 148.874C3.20187 149.03 4.10139 149.688 4.55903 150.597C4.62215 150.738 5.09557 150.644 5.00088 150.487Z" fill="#333333"/>
<path d="M33.7531 130.483C33.6269 130.232 33.4848 129.966 33.3586 129.716C32.5538 128.196 33.8478 127.711 35.1102 127.272C35.5363 127.115 35.9624 127.1 36.3885 126.975C36.925 126.818 37.3669 126.52 37.935 126.426C39.3552 126.223 39.8918 127.162 40.4126 128.337C41.2647 130.279 42.0695 132.253 42.827 134.226C43.0953 134.916 43.3478 135.62 43.7581 136.231C44.1052 136.748 44.6102 137.077 44.9574 137.578C45.415 138.268 45.3204 138.91 44.5629 139.301C43.5529 139.803 42.6692 140.21 41.533 140.445C40.8071 140.586 40.1127 140.93 39.3552 140.868C38.6293 140.805 38.5504 140.523 38.3137 139.896C37.7614 138.518 37.0513 137.218 36.4043 135.887C35.5205 134.086 34.6999 132.269 33.7689 130.483H33.7531Z" fill="#FDB082"/>
<path d="M36.4682 150.749C36.4682 150.749 36.5314 150.749 36.5629 150.749L47.8776 138.109C47.7987 138.015 47.7198 137.921 47.6251 137.843C47.4358 137.64 47.2307 137.467 47.0255 137.279C46.2365 136.621 45.3054 136.136 44.2639 135.917C44.043 135.87 43.7747 135.838 43.5853 135.979C43.3801 136.136 43.3328 136.418 43.2855 136.668C43.0961 137.624 42.4649 138.705 41.5812 139.175C40.9973 139.488 40.3503 139.613 39.7191 139.613C39.435 139.613 39.151 139.613 38.8827 139.691C38.5828 139.785 38.3619 139.989 38.2199 140.271C37.8096 141.023 37.8254 142.041 37.636 142.871C37.4151 143.826 37.1152 144.751 36.7523 145.659C36.4524 146.427 36.0895 147.178 35.8686 147.977C35.7265 148.463 35.5372 149.324 35.6792 149.966C35.7739 150.374 35.9948 150.687 36.4682 150.749Z" fill="#557571"/>
<path d="M36.4689 150.75C36.4689 150.75 36.532 150.75 36.5636 150.75L47.8783 138.109C47.7994 138.015 47.7205 137.921 47.6258 137.843C47.4364 137.64 47.2313 137.467 47.0262 137.279L35.6641 149.966C35.7587 150.374 35.9797 150.687 36.4531 150.75H36.4689Z" fill="#333333"/>
<path d="M37.1172 146.208C37.0383 146.02 37.1488 145.8 37.2119 145.628C37.5749 144.641 37.8589 143.639 38.064 142.605C38.1745 142.026 38.2692 141.446 38.3323 140.867C38.3323 140.773 38.4112 140.679 38.4901 140.632C38.5375 140.6 38.6637 140.585 38.6479 140.679C38.5217 141.791 38.3165 142.887 38.0167 143.968C37.8747 144.5 37.7011 145.017 37.5117 145.534C37.4802 145.644 37.3855 145.785 37.4013 145.894C37.417 146.035 37.5906 146.051 37.7011 146.082C37.8905 146.114 38.6637 146.082 38.7268 146.317C38.8215 146.678 38.1429 146.552 38.0167 146.505C37.8904 146.474 37.78 146.443 37.6538 146.427C37.4802 146.396 37.2277 146.38 37.133 146.208H37.1172Z" fill="#4C6880"/>
<path d="M37.5072 141.946C37.5072 141.946 37.5545 141.852 37.6018 141.821C37.6334 141.789 37.6807 141.774 37.7123 141.758C38.0121 141.758 38.312 141.727 38.6276 141.711C38.7223 141.711 38.7223 141.789 38.6907 141.868C38.6749 141.915 38.6433 141.962 38.596 141.993C38.5644 142.024 38.5171 142.056 38.4856 142.056C38.1857 142.056 37.8859 142.087 37.5703 142.103C37.4756 142.103 37.4756 142.024 37.5072 141.962V141.946Z" fill="black"/>
<path d="M37.3039 142.966C37.3039 142.966 37.4302 142.794 37.5091 142.794C37.7931 142.762 38.0614 142.762 38.3454 142.778C38.377 142.778 38.4085 142.778 38.4243 142.809C38.4243 142.841 38.4243 142.888 38.4243 142.919C38.4085 142.966 38.377 143.013 38.3296 143.044C38.2981 143.075 38.2507 143.107 38.2192 143.107C37.9351 143.107 37.6668 143.107 37.3828 143.122C37.2881 143.122 37.2881 143.028 37.3197 142.966H37.3039Z" fill="black"/>
<path d="M37.0039 144.108C37.0039 144.108 37.0039 144.03 37.0039 143.999C37.0197 143.952 37.0512 143.905 37.0986 143.873C37.1301 143.842 37.1775 143.811 37.2091 143.811C37.4458 143.811 37.6983 143.826 37.935 143.842C37.9665 143.842 37.9981 143.842 38.0138 143.873C38.0138 143.905 38.0138 143.952 38.0138 143.983C37.9981 144.03 37.9665 144.077 37.9192 144.108C37.8876 144.139 37.8403 144.171 37.8087 144.171C37.572 144.171 37.3195 144.155 37.0828 144.139C37.0512 144.139 37.0197 144.139 37.0039 144.108Z" fill="black"/>
<path d="M36.5775 145.111C36.609 145.033 36.7037 144.939 36.7826 144.939C37.0825 144.907 37.3823 144.907 37.6821 144.97C37.7137 144.97 37.7295 145.017 37.7295 145.033C37.7295 145.08 37.7137 145.126 37.6821 145.158C37.6348 145.22 37.5559 145.299 37.4612 145.299C37.3981 145.299 37.3192 145.283 37.2561 145.267C37.2245 145.267 37.1929 145.267 37.1456 145.267C37.1456 145.267 37.1456 145.267 37.1298 145.267H37.1141C37.0983 145.267 37.0825 145.267 37.0667 145.267C36.9247 145.267 36.7826 145.267 36.6406 145.283C36.5459 145.283 36.5459 145.189 36.5775 145.142V145.111Z" fill="black"/>
<path d="M61.0712 75.7262C60.077 74.5514 58.562 73.9875 57.0787 73.7526C55.3428 73.4863 53.5122 73.5646 51.7606 73.7056C49.9616 73.8466 48.1784 74.1599 46.4267 74.5984C45.1169 74.9273 42.0239 75.1466 42.2448 76.9635C42.308 77.4961 42.4973 78.0599 42.2922 78.5612C42.0239 79.2503 41.2033 79.5166 40.4774 79.6889C38.4732 80.1745 36.4849 80.66 34.4807 81.1456C32.0979 81.7251 29.715 82.3046 27.3952 83.1348C24.6336 84.1372 22.014 85.4842 19.4891 86.9879C17.2956 88.2879 14.3446 89.6506 12.6718 91.5928C12.6561 91.5928 12.6245 91.6241 12.6088 91.6398C10.2101 94.2085 10.7151 97.4508 11.9933 100.38C15.6386 108.665 20.4517 116.372 25.249 124.031C27.6635 127.884 29.9517 131.831 32.524 135.575C32.9342 136.17 33.4392 136.796 34.1651 136.859C34.7174 136.906 35.2855 136.577 35.7905 136.781C35.9799 136.859 36.1377 137 36.2798 137.141C36.8005 137.658 37.2108 138.284 37.4948 138.958C39.5306 138.143 41.4085 136.906 42.9707 135.371C43.0654 135.277 43.1759 135.167 43.2232 135.026C43.3021 134.791 43.1917 134.556 43.0654 134.337C42.6551 133.538 42.0712 132.881 42.2133 131.941C42.3079 131.33 42.5446 130.75 42.5446 130.14C42.5446 129.184 41.9766 128.276 41.582 127.445C41.1086 126.443 40.651 125.425 40.1775 124.423C39.2623 122.449 38.3312 120.491 37.3844 118.518C36.6111 116.904 35.6958 115.307 35.0646 113.631C34.4176 111.892 33.7864 110.153 33.1552 108.415C32.2872 105.987 31.0879 102.964 32.0663 100.411C32.9027 98.2652 34.7806 96.605 36.7847 95.5399C38.3154 94.7254 39.9408 94.1615 41.582 93.6446C43.3495 93.0808 45.1011 92.5012 46.837 91.8591C48.6044 91.2169 50.3561 90.5434 52.1078 89.8699C53.6543 89.259 55.2008 88.6012 56.5737 87.6614C59.1617 85.9071 60.9449 83.0564 61.7182 80.0648C62.1127 78.5455 62.0653 76.9792 61.008 75.7262H61.0712Z" fill="#6A8EA8"/>
<path d="M69.6995 80.4717C69.5417 79.5632 69.4628 78.2005 68.7053 77.5427C67.9478 76.8848 66.6696 76.8065 65.7228 76.7595C63.04 76.5872 60.6414 77.48 58.369 78.8114C56.7594 79.7668 55.1655 80.7223 53.5559 81.6934C52.7826 82.1633 51.2835 82.1946 50.3997 82.4139C49.1846 82.7115 47.9695 83.0561 46.7544 83.4163C44.4347 84.1212 42.1464 84.92 39.8898 85.8284C35.7079 87.52 31.9837 89.3996 28.5593 92.2816C27.0444 93.5503 25.2769 94.5058 23.8882 95.9154C20.4007 99.4866 18.7437 104.467 17.1657 109.072C16.4555 111.171 15.777 113.27 15.0195 115.338C14.3409 117.201 13.2994 118.924 12.4788 120.757C11.3741 123.247 10.3168 125.753 9.32266 128.275C8.42316 130.546 7.2396 132.677 6.45056 134.995C6.22963 135.653 6.05606 136.451 6.5137 136.953C6.62416 137.078 6.76621 137.172 6.82933 137.328C6.90824 137.516 6.84508 137.72 6.79774 137.908C6.49791 138.91 5.67732 140.085 6.5137 140.978C6.81353 141.291 7.20807 141.51 7.61837 141.698C9.21221 142.388 11.2479 142.309 12.9522 142.153C13.1731 142.137 13.3941 142.106 13.5835 141.98C13.7413 141.886 13.8517 141.73 13.9464 141.573C14.12 141.291 14.2778 140.978 14.3882 140.665C14.546 140.21 14.6566 139.709 14.9722 139.349C15.3825 138.863 16.061 138.691 16.6449 138.409C17.7338 137.892 18.2861 136.906 19.0594 136.06C20.0535 134.963 20.7163 133.538 21.4738 132.269C23.1623 129.403 25.5452 127.022 27.2495 124.187C29.0327 121.196 30.1847 117.953 31.2894 114.664C31.747 113.301 32.2046 111.939 32.6623 110.592C32.9306 109.793 33.2777 109.057 33.6249 108.289C33.9563 107.522 34.0983 106.739 34.7611 106.143C35.124 105.799 35.5817 105.58 36.0393 105.376C43.5825 101.82 51.4729 98.9697 59.5526 96.9022C61.9828 96.2757 64.4919 95.6961 66.5907 94.3178C71.1671 91.3105 70.5359 85.2176 69.6837 80.503L69.6995 80.4717Z" fill="#6A8EA8"/>
<path d="M57.9302 81.2072C57.8987 81.1132 57.7093 81.1132 57.6462 81.1289C54.0955 81.5204 50.608 82.3036 47.1994 83.3687C43.7908 84.4337 40.4611 85.7808 37.2418 87.3314C35.6322 88.0989 34.0541 88.9134 32.4918 89.7748C30.898 90.652 29.2883 91.5448 27.8049 92.6099C25.1538 94.4738 23.0392 96.9485 21.3507 99.6895C19.6621 102.431 18.3997 105.407 17.295 108.43C17.1688 108.805 17.0267 109.166 16.9005 109.542C16.8374 109.714 17.2951 109.745 17.3424 109.604C18.3839 106.597 19.5674 103.621 21.1455 100.849C22.692 98.1076 24.6173 95.5702 27.079 93.581C28.4993 92.4219 30.0774 91.4821 31.6712 90.5893C33.2177 89.7122 34.7958 88.8821 36.3896 88.0832C39.5615 86.5013 42.8282 85.1073 46.1895 83.9952C49.535 82.8831 52.9751 82.0216 56.4784 81.5361C56.9203 81.4734 57.3464 81.4264 57.7882 81.3794C57.8671 81.3794 57.9776 81.3325 57.946 81.2385L57.9302 81.2072Z" fill="#D3D0CE"/>
<path d="M32.8201 109.306C32.11 111.514 31.3998 113.707 30.6266 115.9C29.8533 118.077 29.0012 120.223 28.0386 122.322C27.4863 123.496 26.9023 124.655 26.2711 125.783C26.1922 125.924 26.6341 125.987 26.713 125.846C27.8492 123.825 28.8276 121.742 29.6955 119.596C30.5635 117.45 31.3367 115.273 32.0626 113.08C32.4729 111.843 32.8674 110.606 33.2777 109.368C33.3409 109.196 32.8832 109.165 32.8359 109.306H32.8201Z" fill="#D3D0CE"/>
<path d="M41.8479 132.643C41.8164 132.549 41.6427 132.549 41.5638 132.564C40.7117 132.721 40.0173 133.207 39.4177 133.802C38.8022 134.397 38.2815 135.086 37.5871 135.587C37.1768 135.885 36.7034 136.089 36.1984 136.214C36.1195 136.23 36.0564 136.308 36.1195 136.371C36.1984 136.449 36.3404 136.433 36.4351 136.418C37.303 136.23 38.029 135.76 38.6602 135.149C39.2599 134.554 39.7806 133.896 40.4592 133.379C40.8222 133.097 41.2482 132.878 41.7058 132.799C41.769 132.799 41.911 132.752 41.8637 132.658L41.8479 132.643Z" fill="#D3D0CE"/>
<path d="M14.2944 138.831C14.2628 138.737 14.0893 138.737 14.0104 138.752C13.4422 138.846 12.8742 138.94 12.3061 139.034C11.7537 139.128 11.2014 139.238 10.6491 139.16C9.65488 139.019 8.78693 138.408 7.98212 137.86C7.88744 137.797 7.76122 137.781 7.66654 137.813C7.60341 137.828 7.49292 137.907 7.5876 137.969C8.28195 138.439 8.99211 138.925 9.78114 139.191C10.1914 139.332 10.6175 139.41 11.0436 139.41C11.5328 139.41 12.0062 139.316 12.4796 139.238L14.1366 138.972C14.1366 138.972 14.3417 138.925 14.2944 138.831Z" fill="#D3D0CE"/>
<path d="M46.3145 81.8176C45.778 81.0188 45.0994 80.3296 44.2946 79.7814C44.1999 79.7187 44.0895 79.7031 43.979 79.7344C43.9159 79.7501 43.8054 79.8284 43.9001 79.891C44.6734 80.4236 45.3362 81.0971 45.8727 81.8802C45.9358 81.9586 46.062 81.9742 46.1567 81.9586C46.2041 81.9586 46.3777 81.8959 46.3145 81.8176Z" fill="#D3D0CE"/>
<path d="M36.1976 46.97C35.3455 48.8496 34.6038 50.7761 33.72 52.64C33.1204 53.9087 32.284 55.0364 31.6686 56.2738C31.0058 57.5895 30.4061 58.9679 30.0116 60.3775C29.554 62.0065 29.3962 63.7607 29.7118 65.4367C29.8696 66.2825 30.1694 67.097 30.5955 67.8331C30.9427 68.4283 31.3687 69.4621 32.1893 69.4621C32.4891 69.4621 32.7574 69.3055 33.0257 69.1645C37.4916 66.5018 40.2375 61.8342 41.6893 56.9943C42.3205 54.8798 42.7624 52.687 42.8413 50.4785C42.8728 49.4134 42.7782 48.3953 42.6519 47.3459C42.5257 46.2651 42.8097 45.1844 42.6362 44.088C42.4784 43.0855 41.9418 42.0205 40.9476 41.7542C40.2848 41.5819 39.5589 41.8325 39.0224 42.2554C38.4858 42.6783 38.1071 43.2735 37.7599 43.8687C37.5863 44.1663 37.4128 44.4639 37.2549 44.7772C36.8762 45.4977 36.5132 46.2338 36.1818 46.9856L36.1976 46.97Z" fill="#E2B8AF"/>
<path d="M25.4036 53.7072C25.3563 52.9867 25.1827 52.2349 24.6935 51.7024C24.1412 51.0915 23.2417 50.9975 22.5315 51.3891C21.3006 52.0626 21.348 53.488 21.2849 54.694C21.206 56.182 21.2218 57.6857 21.3164 59.1736C21.3953 60.4424 22.7209 60.4893 23.5573 59.8002C24.0938 59.3616 24.4883 58.7037 24.7408 58.0616C25.0091 57.3881 25.1669 56.6832 25.2616 55.9627C25.3721 55.2266 25.451 54.4591 25.4036 53.7072Z" fill="#4C6880"/>
<path d="M26.5243 54.0353C26.5243 54.0353 26.5243 53.9883 26.5243 53.9569C26.4612 53.1738 26.0667 52.469 25.6564 51.8111C24.6464 50.1665 23.526 48.5689 22.6896 46.8303C22.1057 45.6085 21.9322 44.2929 21.08 43.1964C20.9064 42.9772 20.717 42.7579 20.4803 42.5856C19.9911 42.2253 19.3915 42.0844 18.8076 41.9277C18.3815 41.8024 17.9554 41.6615 17.5924 41.4109C17.2453 41.1759 16.9928 40.8627 16.551 40.7687C16.33 40.7217 16.0302 40.7687 15.8093 40.8783C15.5094 40.6121 15.2096 40.3614 14.8624 40.1578C14.5468 39.9699 14.1838 39.8446 13.8051 39.7976C13.6473 39.7819 13.4263 39.7819 13.2528 39.8446C13.0476 39.6723 12.8425 39.5313 12.6058 39.3903C12.2271 39.1554 11.7221 38.9048 11.2644 39.0144C11.0593 39.0614 10.8226 39.2024 10.8226 39.4373C10.8226 39.453 10.8226 39.4843 10.8226 39.5C10.6332 39.3433 10.428 39.218 10.2071 39.1084C9.7968 38.9048 9.26027 38.7638 8.78685 38.8891C8.28186 39.0144 8.47125 39.5626 8.70796 39.8602C8.81843 40.0012 8.94464 40.1422 9.07089 40.2831C8.96042 40.2518 8.83421 40.2361 8.70796 40.2361C8.48703 40.2361 7.98202 40.3458 7.93468 40.6277C7.87155 41.0193 8.42391 41.4422 8.66062 41.7085C8.97624 42.0531 9.29181 42.4133 9.60742 42.7422C10.1755 43.3374 10.7752 43.9326 11.5011 44.3712C12.6058 45.029 13.8524 45.2013 15.0833 45.5146C15.5883 45.6399 16.1091 45.6399 16.614 45.8435C17.5293 46.2194 18.129 46.9712 18.5709 47.817C19.5651 49.7123 20.2594 51.7485 20.938 53.7846C21.6166 55.8052 22.3425 57.7631 23.1946 59.7209C23.1946 59.7209 23.2104 59.7523 23.2262 59.7679C23.2577 59.8619 23.4313 59.8932 23.5102 59.8932C23.7469 59.8932 23.9205 59.8149 24.0783 59.6269C24.2203 59.4547 24.3466 59.2824 24.4886 59.0944C24.7411 58.7342 24.9936 58.3739 25.2145 58.0137C25.7826 57.1052 26.3192 56.1341 26.477 55.069C26.5243 54.7244 26.5717 54.3798 26.5559 54.0509L26.5243 54.0353Z" fill="#EAAC8B"/>
<path d="M12.6221 42.9302C11.9751 42.6013 11.3754 42.1941 10.8231 41.7085C10.5548 41.4736 10.3023 41.223 10.0498 40.9724C9.8131 40.7217 9.57639 40.4711 9.26078 40.3145C9.19765 40.2832 9.08718 40.2832 9.00828 40.3145C8.94516 40.3458 8.94516 40.4085 9.00828 40.4398C9.32389 40.5964 9.5606 40.8784 9.79731 41.1446C10.034 41.3953 10.3023 41.6459 10.5706 41.8808C11.1229 42.335 11.7226 42.7423 12.3538 43.0712C12.4169 43.1025 12.5274 43.1025 12.6063 43.0712C12.6694 43.0399 12.6694 42.9772 12.6063 42.9459L12.6221 42.9302Z" fill="#E26E61"/>
<path d="M20.1007 44.0904C19.8798 43.2289 18.996 42.7904 18.1597 42.7277C17.1339 42.6337 16.1082 42.9627 15.0824 43.0253C14.467 43.0566 13.8516 43.041 13.2361 43.0253C13.1888 43.0253 13.0625 43.041 13.0625 43.1193C13.0625 43.1976 13.1888 43.2133 13.2361 43.2133C14.2145 43.2446 15.1929 43.2603 16.1555 43.1036C17.055 42.9627 18.065 42.6964 18.9172 43.1349C19.3117 43.3386 19.6273 43.6832 19.7377 44.1061C19.7693 44.2314 20.1165 44.2157 20.0849 44.1061L20.1007 44.0904Z" fill="#E26E61"/>
<path d="M14.4505 42.4282C13.0302 41.8017 11.9729 40.6426 10.9472 39.5149C10.8683 39.4365 10.5369 39.4835 10.6473 39.6088C11.6731 40.7522 12.7619 41.927 14.198 42.5691C14.2769 42.6005 14.3716 42.6161 14.4505 42.5691C14.5136 42.5378 14.5136 42.4752 14.4505 42.4439V42.4282Z" fill="#E26E61"/>
<path d="M16.0312 42.3965C15.0528 41.7073 14.1533 40.8772 13.3958 39.9531C13.3485 39.8904 13.2538 39.8748 13.1749 39.8904C13.1433 39.8904 13.0013 39.9374 13.0486 40C13.8219 40.9398 14.7213 41.7856 15.7155 42.4905C15.7786 42.5375 15.8734 42.5531 15.9523 42.5218C15.9996 42.5218 16.0785 42.4435 16.0154 42.3965H16.0312Z" fill="#E26E61"/>
<path d="M17.8436 42.2564C17.1335 41.9902 16.5812 41.4263 16.0604 40.8938C15.9815 40.8154 15.6501 40.8624 15.7606 40.9877C16.3287 41.5516 16.9126 42.1311 17.6701 42.4131C17.7332 42.4444 17.8594 42.4287 17.9068 42.3817C17.9699 42.3191 17.9067 42.2878 17.8436 42.2564Z" fill="#E26E61"/>
<path d="M35.5992 64.5763C35.5676 64.1534 35.4729 63.7462 35.3309 63.3546C35.3782 63.3232 35.4098 63.2919 35.4098 63.2449C35.1573 62.2582 34.6523 61.381 34.0527 60.5509C33.4372 59.7051 32.7429 58.8906 32.0643 58.0918C31.37 57.2617 30.644 56.4629 29.855 55.7267C29.4605 55.3508 29.0344 54.9905 28.6083 54.6459C28.1507 54.2857 27.6773 53.8941 27.2986 53.4399C26.9514 53.017 26.7304 52.5158 26.4464 52.0459C26.257 51.7326 26.0518 51.435 25.8309 51.1374C25.6573 50.9338 25.4206 50.6988 25.1682 50.7928C24.8525 51.4193 24.8367 52.0145 24.7894 52.6881C24.742 53.3929 24.679 54.0977 24.5685 54.8026C24.3476 56.0869 23.8741 57.3243 23.022 58.3268C22.6117 58.8123 22.1225 59.2509 21.5859 59.6111C21.4281 59.6111 21.2861 59.6894 21.3335 59.7991C21.8069 60.9738 22.7379 61.8666 23.4638 62.869C24.1582 63.8245 24.6947 64.8895 25.326 65.892C25.973 66.9101 26.7462 67.8342 27.7878 68.4607C28.3401 68.7896 28.9397 69.0403 29.5552 69.2126C30.2022 69.4005 30.8808 69.5258 31.5436 69.5415C32.8376 69.5728 33.9895 68.7897 34.7154 67.7716C35.394 66.8474 35.7254 65.6884 35.6307 64.5606L35.5992 64.5763Z" fill="#E2B8AF"/>
<path d="M45.0502 33.3584C44.4032 30.3354 44.4348 27.2028 44.9398 24.1642C45.2554 22.1907 45.7761 20.2328 46.8019 18.5255C47.5278 17.3038 48.8534 16.1761 50.0527 15.4242C50.6997 15.017 51.4256 14.8917 52.1673 14.7351C52.4513 14.6724 52.6723 14.5158 52.9406 14.4375C53.3035 14.3435 53.7454 14.3592 54.1083 14.3592C56.1914 14.3278 58.2271 14.7194 60.0419 15.7532C61.8409 16.7713 63.3558 18.3846 64.0344 20.3424C65.0128 23.1461 64.4131 26.2474 64.4762 29.1451C64.5551 32.168 64.8865 35.2223 66.0858 38.026C66.4961 38.9971 67.0169 40.1248 66.5277 41.0646C66.0385 42.0044 64.8076 42.2237 63.7345 42.3177C62.1249 42.4586 60.5153 42.5369 58.9214 42.5682C58.4322 42.5682 58.0377 42.3803 57.5801 42.3333C56.9646 42.2707 56.3018 42.4116 55.6706 42.3646C54.3292 42.255 53.0195 41.9104 51.757 41.4562C50.6682 41.0646 49.5951 40.5947 48.6798 39.8899C46.6599 38.3549 45.571 35.8802 45.0344 33.4054V33.3741L45.0502 33.3584Z" fill="#333333"/>
<path d="M60.2008 39.5138C60.2008 39.5138 60.2009 39.5138 60.1851 39.5138C58.2756 40.9234 55.8927 41.7379 53.494 41.3777C52.9733 41.2994 52.421 41.0174 51.916 40.8295C51.3637 40.6258 50.7956 40.3909 50.401 39.921C49.8487 39.2475 49.7698 38.3077 49.6593 37.4149C49.5647 36.5691 49.4226 35.7233 49.249 34.8932C49.1386 34.392 49.0281 33.9064 48.8861 33.4208C48.8388 33.2329 48.7756 33.0136 48.7125 32.7943C48.7125 32.7317 48.681 32.6847 48.681 32.622C48.1129 29.928 51.7266 29.5207 53.6677 29.2545C54.5987 29.1292 55.5298 29.0039 56.4766 28.9569C58.0862 28.8942 58.4334 30.4605 58.5597 31.7606C58.7648 33.8751 59.3803 35.9426 60.3744 37.8378C60.5796 38.2294 60.8005 38.6836 60.5953 39.0752C60.5164 39.2475 60.3586 39.3571 60.2166 39.4668L60.2008 39.5138Z" fill="#EAAC8B"/>
<path d="M55.3232 34.2831C54.976 34.8783 54.4868 35.3325 53.9345 35.6458C52.7509 36.3193 51.4254 36.335 50.2734 35.7085C49.9104 35.5205 49.5317 35.3012 49.2792 34.9566C49.2792 34.9566 49.2792 34.941 49.2634 34.9253C49.1529 34.4241 49.0425 33.9385 48.9005 33.453C48.8531 33.265 48.79 33.0457 48.7269 32.8265C48.7269 32.7638 48.6953 32.7168 48.6953 32.6542C48.6953 32.4819 48.7111 32.3096 48.7269 32.153C48.7584 31.9023 48.8215 31.6361 48.932 31.4168C49.1056 31.0722 49.4212 30.8216 49.7526 30.6806C50.5416 30.336 51.5989 30.2577 52.4037 30.43H52.4195C52.9087 30.4927 53.4137 30.6963 53.8871 30.8842C54.4237 31.1192 54.976 31.3698 55.4494 31.7457C56.128 32.2783 55.7019 33.6409 55.339 34.2675L55.3232 34.2831Z" fill="#E26E61"/>
<path d="M46.375 28.4106C46.4381 30.2745 46.7853 32.1697 48.0951 33.6107C49.5469 35.2083 51.8982 35.412 53.8392 34.6601C56.0327 33.8143 57.6424 32.2323 58.9049 30.2901C59.6939 29.0684 60.3093 27.7057 60.7038 26.3117C61.5875 23.1635 62.345 19.0597 59.2836 16.7886C57.595 15.5356 55.3068 15.4103 53.208 15.6139C52.703 15.6609 52.1823 15.7392 51.7089 15.8958C49.8468 16.538 48.5685 18.5429 47.8584 20.2658C46.9273 22.5213 46.3907 24.996 46.3907 27.4238C46.3907 27.7527 46.3907 28.066 46.3907 28.3949L46.375 28.4106Z" fill="#EAAC8B"/>
<path d="M45.9515 22.9107C45.9041 22.5975 46.1408 22.3469 46.2986 22.0179C46.5985 21.4071 46.7247 20.7179 46.993 20.0914C47.5295 18.8227 48.2712 17.6166 49.2496 16.6142C49.3127 16.5515 49.3759 16.4889 49.4548 16.4106C51.3642 14.6563 54.6151 14.0141 57.0611 14.8599C57.9921 15.1732 58.8285 15.6901 59.6333 16.2383C60.2488 16.6455 60.9589 17.0214 61.4639 17.5696C62.032 18.1962 62.6001 18.9323 63.0735 19.6215C63.8941 20.8119 64.0519 22.7384 64.1782 24.1325C64.4149 26.8265 64.7778 29.7555 64.1308 32.3869C63.8941 33.3423 63.5154 34.3761 62.6316 34.8146C62.3949 34.9399 62.1109 35.0026 61.8426 34.9556C61.5112 34.9086 61.2429 34.705 60.9904 34.4857C60.2961 33.8435 59.9016 33.0447 59.5544 32.1989C59.2862 31.5411 58.8127 31.0085 58.7812 30.241C58.7496 29.6458 58.8916 29.0663 59.0021 28.4868C59.1599 27.5783 59.2073 26.6229 58.9548 25.7457C58.6549 24.7277 57.9764 23.8662 57.3767 22.9734C56.7297 22.0023 56.1931 20.9215 56.0353 19.7625C55.9091 18.807 56.0353 17.7419 55.4357 16.9901C54.6466 15.9564 53.1632 16.2383 52.2164 16.8805C51.3011 17.507 50.5436 18.5251 49.9913 19.4649C49.7388 19.8878 49.5337 20.3263 49.2496 20.7179C48.8551 21.2818 48.3344 21.7517 47.8136 22.2216C47.3402 22.6445 46.7879 23.177 46.1409 23.3023C46.0304 23.1614 45.983 23.036 45.9673 22.9107H45.9515Z" fill="#333333"/>
<path d="M57.0121 25.7425C57.0595 25.4292 57.0437 25.0376 56.6807 24.8497C56.444 24.7243 56.1442 24.7557 55.9548 24.928C55.8601 25.0063 55.8128 25.1159 55.7654 25.2256C55.655 25.4918 55.5603 25.8521 55.7654 26.134C55.8759 26.2907 56.0968 26.416 56.3178 26.3846C56.7439 26.322 56.9648 26.1497 57.0279 25.7581L57.0121 25.7425Z" fill="black"/>
<path d="M57.105 23.252C57.4048 23.3773 57.7205 23.5183 57.9729 23.7062C58.1939 23.8785 58.3201 24.1448 58.4621 24.3797C58.541 24.5207 58.6357 24.693 58.5726 24.8496C58.6515 24.6617 57.8151 24.2858 57.6889 24.2231C57.2154 24.0038 56.6947 23.8942 56.1739 23.8159C55.6216 23.7219 55.0693 23.6436 54.517 23.5809C54.375 23.5653 54.3434 23.3303 54.3592 23.1893C54.3749 23.017 54.5012 22.9074 54.659 22.8448C54.8168 22.7821 54.9746 22.7821 55.1324 22.7978C55.7952 22.8291 56.458 22.9857 57.0734 23.252H57.105Z" fill="#333333"/>
<path d="M47.2908 22.5483C47.5117 22.5483 47.7484 22.5013 47.9693 22.4856C48.2849 22.4699 48.6163 22.4699 48.932 22.4856C49.5632 22.5326 50.1944 22.6579 50.7941 22.8615C50.8098 22.8615 50.8887 22.47 50.8887 22.4386C50.8887 22.282 50.8888 22.2037 50.7625 22.1097C50.5258 21.9374 50.0997 21.8591 49.8157 21.8121C49.1687 21.7024 48.5059 21.7651 47.8904 22.0001C47.5906 22.1097 47.3066 22.282 47.1172 22.5326C47.1645 22.5326 47.2276 22.5483 47.2908 22.5483Z" fill="#333333"/>
<path d="M48.6657 24.3184C48.7762 24.0208 48.9814 23.6763 49.3917 23.6919C49.66 23.6919 49.9124 23.8642 49.9913 24.0992C50.0229 24.2245 50.0229 24.3341 50.0071 24.4594C49.9755 24.757 49.8809 25.1173 49.581 25.2582C49.4075 25.3365 49.155 25.3365 48.9814 25.2112C48.6342 24.9606 48.5237 24.6943 48.6657 24.3184Z" fill="black"/>
<path d="M53.1149 31.1461C53.036 31.2245 52.9255 31.3028 52.8308 31.3654C52.2943 31.71 51.5841 31.9293 50.8582 31.8196C50.1165 31.6943 49.4853 31.1618 49.1539 30.5666C49.075 30.4413 49.0119 30.2847 49.0435 30.1594C49.0908 29.8461 49.4064 29.9401 49.6589 29.9714C50.0376 30.0341 50.4006 30.0967 50.7793 30.1594C51.521 30.2847 52.2627 30.3943 53.0202 30.5196C53.1306 30.5353 53.2411 30.5509 53.32 30.6293C53.5094 30.7859 53.2411 31.0522 53.1307 31.1618L53.1149 31.1461Z" fill="#F4F4F4"/>
<path d="M51.5354 28.8756C51.2987 28.7973 51.0462 28.7346 50.8095 28.6563C50.6359 28.6093 50.4307 28.5467 50.3045 28.4057C49.9731 28.0298 50.4307 27.4346 50.6043 27.09C51.0777 26.1972 51.4722 25.2574 51.8194 24.302C51.8668 24.1767 51.4407 24.114 51.3933 24.2706C51.0146 25.3514 50.5254 26.3852 49.9888 27.4033C49.7837 27.7792 49.6259 28.2491 50.0204 28.5623C50.194 28.6876 50.3991 28.7659 50.5885 28.8286C50.8568 28.9069 51.1251 28.9852 51.3933 29.0635C51.4565 29.0792 51.6143 29.0949 51.6616 29.0165C51.709 28.9382 51.5827 28.8912 51.5196 28.8756H51.5354Z" fill="#E26E61"/>
<path d="M58.7009 26.2329C58.9691 26.0293 59.2848 25.9353 59.6004 25.8727C59.8686 25.8257 60.1684 25.8257 60.4209 25.951C60.8155 26.1546 61.0364 26.6401 61.1153 27.11C61.1626 27.3606 61.1784 27.6112 61.1468 27.8619C61.1153 28.1751 61.0206 28.4727 60.8943 28.7703C60.3894 29.9137 59.3794 30.8535 58.2117 30.9318C58.0539 30.9318 57.8803 30.9318 57.7225 30.8535C57.4858 30.7125 57.391 30.3993 57.3437 30.1173C57.249 29.3498 57.4542 28.5824 57.7382 27.8775C57.9591 27.3293 58.2432 26.5932 58.7009 26.2329Z" fill="#EAAC8B"/>
<path d="M60.4826 24.6655C58.652 23.3811 58.1155 21.0943 57.6263 19.0581C57.4685 18.4002 57.3106 17.758 57.0897 17.1159C57.0582 17.0062 56.711 17.0375 56.7583 17.1628C57.4685 19.293 57.6105 21.6738 58.9834 23.5534C59.3148 24.0076 59.7093 24.4305 60.1828 24.7594C60.2459 24.8064 60.3406 24.8221 60.4195 24.7908C60.4668 24.7908 60.5457 24.7124 60.4826 24.6655Z" fill="#4C6880"/>
<path d="M61.746 23.0668C60.2152 22.7536 59.4736 21.1716 59.1422 19.8089C59.1106 19.6836 58.7634 19.6993 58.795 19.8089C58.9844 20.6234 59.2684 21.4222 59.8049 22.0801C60.2784 22.6596 60.9096 23.0825 61.6513 23.2391C61.7144 23.2391 61.8406 23.2391 61.8722 23.1765C61.9038 23.0982 61.7933 23.0825 61.746 23.0668Z" fill="#4C6880"/>
<path d="M62.1112 18.6053C62.0323 18.527 61.7009 18.5896 61.8114 18.6993C62.8213 19.6077 63.3894 20.9391 63.3579 22.2861C63.3579 22.4114 63.705 22.4114 63.705 22.2861C63.7366 20.9078 63.137 19.5451 62.1112 18.6053Z" fill="#4C6880"/>
<path d="M62.1422 36.9303C61.148 35.6146 60.4221 34.1266 59.996 32.5446C59.9645 32.435 59.6172 32.4506 59.6646 32.5916C60.0907 34.1736 60.8166 35.6616 61.8108 36.9772C61.8897 37.0712 62.2211 37.0242 62.1422 36.9303Z" fill="#4C6880"/>
<path d="M63.2623 35.4569C62.9624 34.9243 62.6627 34.4074 62.3628 33.8749C62.2997 33.7653 61.9683 33.8123 62.0314 33.9219C62.3312 34.4544 62.6311 34.9713 62.9309 35.5038C62.994 35.6135 63.3254 35.5665 63.2623 35.4569Z" fill="#4C6880"/>
<path d="M48.586 19.2783C48.0968 20.0301 47.5287 20.7193 46.8817 21.3458C46.7712 21.4554 47.1026 21.5181 47.1815 21.4398C47.8443 20.8132 48.4282 20.0928 48.9174 19.3409C48.9805 19.2313 48.6492 19.1999 48.586 19.2939V19.2783Z" fill="#4C6880"/>
<path d="M69.4632 69.4772C69.2107 70.8713 69.6684 72.093 69.9366 73.4556C70.2522 75.0533 70.5205 76.6666 70.7257 78.2799C70.8519 79.251 71.4989 81.5534 70.9466 82.3992C70.8045 82.6029 70.631 82.7438 70.4258 82.8065C70.3154 82.8378 70.2207 82.8691 70.0944 82.8691C70.0629 82.8691 70.0155 82.8691 69.9682 82.8691C68.9582 82.8691 67.6011 82.0077 66.891 81.8197C65.5181 81.4438 64.1293 81.1149 62.7406 80.8016C60.9574 80.41 59.1742 80.0654 57.391 79.7522C56.3652 79.5642 55.3553 79.3919 54.3295 79.204C52.4043 78.8594 50.4633 78.5305 48.538 78.1859C47.4807 77.9979 46.3919 77.81 45.3346 78.0292C44.5298 78.2015 43.7723 78.5931 42.9675 78.7811C41.6419 79.0943 40.9318 78.7341 40.6477 77.528C40.3321 76.1654 40.0638 74.8027 39.8271 73.4087C39.3537 70.5736 39.0223 67.7073 38.4542 64.9036C38.0912 63.1494 37.602 61.4578 37.4442 59.6722C37.2864 57.777 37.318 55.8661 37.6336 53.9865C37.8387 52.7491 38.1386 51.5431 38.4858 50.3527C38.4226 49.1466 38.3595 47.9406 38.2964 46.7189C38.2648 46.014 38.2175 45.2935 38.1859 44.5887C38.1228 43.0694 38.8645 42.2706 40.1427 41.5501L40.4899 41.3464L41.1369 40.9862C41.5472 40.7512 41.9575 40.5476 42.3678 40.3597C43.3304 39.9211 44.3404 39.5609 45.3346 39.2006C45.3977 39.1849 45.4608 39.1536 45.5081 39.138C45.9342 38.9813 46.3603 38.809 46.7864 38.6367C46.8337 38.6211 46.8653 38.6054 46.9126 38.5897C47.607 38.2921 48.2855 37.9632 48.9641 37.6656C49.7374 37.321 50.5106 37.0078 51.3155 36.7885C53.6037 36.1463 56.2705 36.7102 58.5272 37.2427C59.8212 37.5403 61.0995 37.9319 62.3461 38.3548C62.8511 38.5271 63.3561 38.6994 63.8611 38.8873C64.082 38.9657 64.3187 39.0596 64.5396 39.138C64.8079 39.2319 65.0762 39.3416 65.3287 39.4355C65.9441 39.6705 66.5596 39.9211 67.175 40.1717C67.6642 40.3753 68.1534 40.5633 68.6269 40.7669C69.6368 41.1741 70.6783 41.597 71.4832 42.3489C73.0454 43.7899 73.6293 46.2646 73.9291 48.2852C74.2763 50.6816 73.8976 52.9841 73.1874 55.2865C72.4615 57.6047 71.6567 59.8758 71.1202 62.2409C70.8519 63.4626 70.8835 64.7157 70.489 65.9061C70.0787 67.0965 69.6526 68.2712 69.4474 69.5086L69.4632 69.4772Z" fill="#E2B8AF"/>
<path d="M69.9858 82.9001C68.9758 82.9001 67.6187 82.0386 66.9085 81.8507C65.5356 81.4748 64.147 81.1459 62.7583 80.8326C60.9751 80.441 59.1918 80.0964 57.4086 79.7832C56.7932 79.0627 56.2566 78.2795 55.799 77.465C55.3256 76.6192 54.9468 75.7108 54.6628 74.771C54.3472 73.7059 54.142 72.6095 53.8895 71.5288C53.637 70.4637 53.3056 69.3986 52.7533 68.4431C52.1694 67.4407 51.3015 66.6576 50.3862 65.9684C49.5025 65.3105 48.5714 64.6997 47.735 63.9635C46.9302 63.2587 46.2043 62.4755 45.5416 61.6454C44.2318 59.9538 43.2376 58.0116 42.6379 55.9754C42.3381 54.9729 42.1487 53.9548 42.0382 52.9211C41.9278 51.7307 41.9751 50.5403 42.054 49.3499C42.1487 48.0499 42.2592 46.7342 42.0382 45.4498C41.8331 44.2281 41.3439 43.0847 40.8231 41.957C40.7284 41.7533 40.6337 41.5654 40.5391 41.3618L41.1861 41.0015C41.5964 40.7666 42.0067 40.563 42.417 40.375C42.4643 40.6256 42.5274 40.8919 42.6221 41.1268C42.9377 42.0353 43.4743 42.8184 43.9477 43.6329C44.4369 44.4631 44.7841 45.3245 44.9734 46.28C45.1786 47.2511 45.2417 48.2535 45.3364 49.2403C45.5415 51.2921 45.8256 53.3753 46.3148 55.3958C46.5515 56.3356 46.8671 57.2597 47.4037 58.0899C47.8771 58.826 48.5083 59.4369 49.1869 59.9851C50.5282 61.0815 52.0116 61.9586 53.2109 63.2273C54.3314 64.4177 55.2151 65.7961 56.0672 67.1744C56.9194 68.5528 57.7716 69.9625 58.8131 71.2312C59.3339 71.8733 59.9177 72.4686 60.5647 72.9854C61.3222 73.5963 62.1586 74.0818 62.9792 74.5987C63.784 75.1156 64.5573 75.6795 65.2201 76.3686C65.8828 77.0578 66.4352 77.8096 66.9875 78.5928C68.0132 80.0338 69.0232 81.4748 70.0331 82.9158L69.9858 82.9001Z" fill="#E0FEEB"/>
<path d="M57.1253 58.5605C57.0148 58.4195 56.9043 58.2785 56.7781 58.1376C54.5057 55.3965 50.955 54.3941 49.6294 50.8699C48.6353 48.2385 48.5879 45.2782 48.0356 42.5528C47.7673 41.2215 47.3412 39.9058 46.8047 38.6527C46.852 38.6371 46.8836 38.6214 46.931 38.6058C47.6253 38.3082 48.3039 37.9792 48.9824 37.6816C49.0298 37.7286 49.0771 37.76 49.1087 37.8069C49.4716 38.1672 49.8503 38.4961 50.2449 38.7937C51.0181 39.3889 51.8229 39.9998 52.2648 40.8769C53.906 44.0722 50.8445 48.2385 54.3794 50.7916C54.8686 51.1518 55.4367 51.3711 55.9733 51.6531C56.6203 51.9976 57.2042 52.4362 57.7091 52.9531C58.2772 53.5326 58.7506 54.2218 58.9716 55.0049C59.1609 55.6628 59.161 56.352 59.2557 57.0098C59.4608 58.3882 60.0762 59.6569 60.5496 60.9569C60.6601 61.2388 60.6917 61.6461 60.4076 61.7401C60.2656 61.787 60.1078 61.7087 59.9658 61.6304C58.7506 60.8943 57.9616 59.6725 57.0779 58.5605H57.1253Z" fill="#E0FEEB"/>
<path d="M68.7528 44.2116C68.737 44.8224 68.5476 45.4333 68.3425 46.0128C68.0268 46.9996 67.6639 48.0333 66.938 48.7538C65.8018 49.8659 63.8292 49.9912 62.5667 49.0201C61.3201 48.0647 60.9256 46.373 60.0261 45.0887C59.1266 43.7886 57.5011 43.0995 56.6963 41.7211C56.4123 41.2356 56.0651 40.2801 56.5228 39.7946C57.1382 39.1524 58.5111 39.7319 59.0634 40.1705C59.884 40.8127 60.389 41.7525 60.9571 42.6139C61.5726 43.5537 62.2827 44.4152 63.0717 45.214C63.3242 45.4646 63.5925 45.7152 63.9397 45.8092C64.5394 45.9658 65.139 45.5899 65.6282 45.214C66.07 44.8851 66.5119 44.4778 66.6066 43.9296C66.7802 42.9429 65.7387 42.2067 65.3441 41.2826C65.1232 40.7657 65.0916 40.1548 64.7445 39.7006C64.2553 39.0584 63.3085 38.9958 62.6457 38.5415C62.551 38.4789 62.4721 38.4006 62.3932 38.3223C62.8981 38.4946 63.4031 38.6668 63.9081 38.8548C64.129 38.9331 64.3657 39.0271 64.5867 39.1054C64.8549 39.1994 65.1232 39.309 65.3757 39.403C65.9911 39.638 66.6066 39.8886 67.222 40.1392C67.3956 40.4368 67.5534 40.7344 67.7112 41.0163C68.1058 41.7525 68.5161 42.5356 68.6896 43.3501C68.7528 43.632 68.7844 43.8983 68.7686 44.1959L68.7528 44.2116Z" fill="#E0FEEB"/>
<path d="M64.5745 39.1223C64.5113 39.3729 64.4167 39.6078 64.2904 39.8271C63.8801 40.532 63.2647 41.1742 62.5545 41.7537C61.6866 42.4585 60.6766 43.038 59.7929 43.4766C58.4358 44.1501 57.0155 44.7453 55.5321 44.9959C52.2182 45.5598 47.4209 44.0718 45.969 40.7826C45.7797 40.344 45.6061 39.7488 45.543 39.138C45.969 38.9813 46.3951 38.809 46.8212 38.6367C46.8685 38.6211 46.9001 38.6054 46.9474 38.5897C47.6418 38.2921 48.3204 37.9632 48.9989 37.6656C49.7722 37.321 50.5454 37.0078 51.3502 36.7885C53.6384 36.1463 56.3054 36.7102 58.562 37.2427C60.3768 37.6656 62.16 38.2452 63.8959 38.8873C64.1168 38.9657 64.3535 39.0596 64.5745 39.138V39.1223Z" fill="#EAAC8B"/>
<path d="M77.0729 56.5861C76.8204 55.3174 76.3944 54.08 75.8263 52.921C75.6685 52.592 75.4791 52.2475 75.1793 52.0282C74.6901 51.6366 74.0115 51.6209 73.3803 51.6366C73.1436 51.6366 72.8911 51.6366 72.6859 51.7462C72.5123 51.8245 72.3703 51.9655 72.2599 52.1065C71.9127 52.5607 71.8338 53.1559 71.8495 53.7041C71.8495 54.2523 71.8338 54.7222 71.9916 55.2548C72.3861 56.4921 72.9068 57.7139 73.6643 58.7789C74.1377 59.4368 74.7532 60.079 75.558 60.2513C76.0472 60.3452 77.0098 60.2513 77.2623 59.75C77.5148 59.2488 77.3412 58.3247 77.2623 57.7922C77.215 57.4006 77.1518 57.009 77.0729 56.6174V56.5861Z" fill="#4C6880"/>
<path d="M75.6498 60.6569C75.7761 60.3906 75.8077 60.0931 75.8234 59.8111C75.9339 58.6521 76.139 57.493 76.3284 56.3339C76.5651 54.9556 76.8018 53.5616 77.0227 52.1832C77.149 51.4314 77.4488 50.7579 78.1905 50.4446C79.2794 49.9904 80.3683 49.5048 81.4256 49.0036C81.9621 48.753 82.4986 48.5024 83.0352 48.2518C83.477 48.0482 83.9347 47.9542 84.3765 47.7506C84.8973 47.5156 85.4023 47.2494 85.8757 46.9674C85.9073 46.9674 85.9546 46.9361 85.9862 46.9204C86.0493 46.8734 86.1282 46.8265 86.1913 46.7638C86.2386 46.7325 86.286 46.7012 86.3176 46.6855C86.3176 46.6855 86.3333 46.6698 86.3491 46.6542L88.4006 45.1975C88.7636 44.9312 89.1581 44.6806 89.4895 44.383C89.5684 44.3047 89.6631 44.2264 89.7262 44.1481C90.1207 43.7878 90.4679 43.3806 90.7993 42.9577C90.9571 42.7541 91.6356 42.0806 91.462 41.8143C91.4305 41.783 91.3989 41.7516 91.3674 41.7203C91.32 41.689 91.2727 41.6733 91.2411 41.6577C90.894 41.548 90.5152 41.548 90.1838 41.6733C89.3948 41.9709 88.9687 42.8167 88.227 43.224C87.943 43.3806 87.6116 43.4902 87.438 43.7565C87.9114 42.7228 88.2586 41.6263 88.6215 40.5456C88.732 40.2167 88.8109 39.8721 88.9372 39.5432C89.0161 39.3552 89.1265 39.1202 88.9372 38.948C88.874 38.8853 88.7636 38.8696 88.6689 38.854C88.2744 38.807 87.7694 38.9166 87.5485 39.2925C86.791 40.5456 86.3018 41.9396 85.4181 43.1143C84.9762 42.5661 84.8342 41.8456 84.6764 41.1564C84.5659 40.7022 84.3923 39.6528 83.6506 40.0757C83.3824 40.2323 83.2561 40.5299 83.1772 40.8119C82.972 41.6107 83.1772 42.4251 83.3035 43.2083C83.3666 43.5842 83.4613 44.0071 83.4455 44.3987C83.4139 44.759 83.1772 45.1035 82.9878 45.4168C83.0194 45.3228 83.0352 45.2132 83.051 45.1192C83.2245 44.1324 82.972 43.1143 82.6406 42.1902C82.546 41.9239 82.4355 41.6577 82.3251 41.3757C82.1673 41.0155 81.9779 40.436 81.4729 40.7022C81.2835 40.7962 81.1573 40.9685 81.0942 41.1564C80.9364 41.548 80.9679 41.9866 81.0152 42.3938C81.0941 42.895 81.2836 43.4119 81.252 43.9131C81.2204 44.2421 81.0784 44.5553 80.9364 44.8529C80.7943 45.1349 80.6523 45.4325 80.3998 45.6204C80.2894 45.6987 80.1631 45.7614 80.0368 45.824C79.3898 46.1216 78.6955 46.3253 77.9854 46.4506C77.149 46.5915 76.2968 46.6072 75.4605 46.7795C75.066 46.8578 74.6241 46.9674 74.2769 47.1867C73.9455 47.3903 73.693 47.7349 73.4879 48.0638C73.1249 48.6277 72.8409 49.2542 72.5726 49.8808C71.9572 51.2748 71.2786 52.6688 70.8209 54.1254C70.7736 54.1568 70.7578 54.1881 70.7578 54.2351C70.7578 54.2664 70.7578 54.2977 70.7578 54.3447C70.7578 54.3447 70.7578 54.3447 70.7578 54.3604C70.7578 54.3917 70.7578 54.423 70.7578 54.4544C70.8209 55.5508 71.247 56.6002 71.8151 57.54C72.115 58.0569 72.4622 58.5424 72.8093 59.0123C73.1565 59.4822 73.4879 59.9834 73.9139 60.3906C74.1191 60.5943 74.3558 60.7979 74.6083 60.9232C75.0028 61.1268 75.4131 61.0798 75.6025 60.6726L75.6498 60.6569Z" fill="#EAAC8B"/>
<path d="M82.8455 45.4498C82.7193 45.7318 82.5773 46.0137 82.4195 46.28C82.3563 46.4053 82.2775 46.5149 82.1828 46.6089C82.0881 46.7029 81.9934 46.8125 81.946 46.9221C81.8987 47.0475 82.2301 47.0788 82.2775 46.9692C82.3248 46.8439 82.4195 46.7655 82.5142 46.6716C82.6088 46.5619 82.6877 46.4523 82.7509 46.327C82.9087 46.0607 83.0349 45.7788 83.1769 45.4968C83.24 45.3715 82.8929 45.3402 82.8455 45.4498Z" fill="#E26E61"/>
<path d="M85.5906 43.3187C85.5906 43.1934 85.2277 43.209 85.2434 43.3187C85.3697 44.556 84.8331 45.7151 84.3123 46.8115C84.2492 46.9368 84.5964 46.9681 84.6438 46.8585C85.1645 45.7621 85.7169 44.5717 85.5906 43.3187Z" fill="#E26E61"/>
<path d="M87.1546 43.8522C86.839 44.51 86.4445 45.1209 86.0026 45.7004C85.9553 45.7631 86.0816 45.8101 86.1289 45.8101C86.2078 45.8101 86.2867 45.8101 86.3498 45.7474C86.8074 45.1679 87.1862 44.557 87.5018 43.8992C87.5649 43.7739 87.2178 43.7425 87.1704 43.8522H87.1546Z" fill="#E26E61"/>
<path d="M77.5422 50.9162C77.5422 50.9162 77.4317 50.8535 77.3844 50.8535C77.3212 50.8535 77.2581 50.8535 77.195 50.9005C77.1792 50.9162 77.1476 50.9318 77.1319 50.9475C77.0372 51.0258 76.9583 51.1041 76.8794 51.1824C76.7216 51.3391 76.5638 51.5114 76.406 51.6993C76.3586 51.762 76.4059 51.809 76.469 51.8246C76.5164 51.8246 76.5638 51.8403 76.5953 51.8246C76.6269 51.8246 76.6742 51.8246 76.7058 51.7776C76.832 51.6367 76.9583 51.4957 77.0845 51.3547C77.1476 51.2921 77.2108 51.2294 77.2897 51.1668C77.337 51.1198 77.3844 51.0728 77.4475 51.0258C77.479 51.0258 77.4948 51.0101 77.5264 50.9945C77.5579 50.9788 77.5579 50.9475 77.5422 50.9162Z" fill="#E26E61"/>
<path d="M77.1498 59.5433C77.0551 59.5277 76.9131 59.5277 76.8342 59.5746C75.7295 60.2482 74.5776 59.1674 73.9937 58.3059C73.2362 57.1939 72.6681 55.9408 72.2104 54.6721C72.0369 54.1866 71.879 53.701 71.7528 53.2155C71.6897 52.9962 71.6581 52.1817 71.2951 52.2913C71.2005 52.3227 71.1216 52.401 71.0584 52.495C70.7113 52.9335 70.6324 53.4504 70.4114 53.9516C70.1747 54.4998 69.9222 55.0324 69.6382 55.5493C69.0859 56.5674 68.4704 57.5698 67.8708 58.5566C66.6399 60.5301 65.409 62.5506 64.7935 64.8218C64.4937 65.9025 64.3043 67.0929 64.6357 68.1893C64.8093 68.7375 65.1249 69.2074 65.4879 69.646C65.8824 70.1159 66.2927 70.5701 66.7188 71.0087C67.0975 71.3846 67.5078 71.7605 68.0286 71.9171C68.5809 72.0894 69.149 71.9484 69.6066 71.6195C70.0801 71.2906 70.4588 70.8207 70.8691 70.3978C71.3267 69.9279 71.7844 69.458 72.2262 68.9881C73.0468 68.1423 73.9305 67.3279 74.4513 66.2628C74.8616 65.417 75.0983 64.4928 75.2719 63.5687C76.3923 62.582 77.1498 61.1879 77.3234 59.7C77.3234 59.6216 77.1971 59.5747 77.1498 59.559V59.5433Z" fill="#E2B8AF"/>
<path d="M69.3065 71.7494C69.3065 71.7494 69.1329 71.7337 69.0698 71.7807C68.6122 72.141 68.0125 72.0157 67.5548 71.7181C67.0498 71.4048 66.6554 70.9349 66.2608 70.512C65.456 69.6506 64.6985 68.7264 64.1778 67.6613C63.9253 67.1288 63.7201 66.5806 63.6255 66.0011C63.515 65.3589 63.4992 64.6854 63.515 64.0432C63.515 62.6648 63.5781 61.2865 63.6255 59.9082L63.7675 55.1936C63.7675 55.0683 63.4203 55.0683 63.4203 55.1936C63.373 56.6659 63.3414 58.1382 63.2941 59.6106C63.2467 61.0515 63.1836 62.5082 63.1836 63.9492C63.1836 64.6541 63.1836 65.3589 63.3098 66.0481C63.4203 66.6433 63.6255 67.2071 63.8937 67.7397C64.4461 68.8361 65.2509 69.7915 66.0872 70.6843C66.5449 71.1699 67.0025 71.7024 67.6338 71.9843C68.1861 72.2193 68.8962 72.235 69.4012 71.8434C69.4643 71.7964 69.4012 71.7337 69.338 71.7181L69.3065 71.7494Z" fill="#6A8EA8"/>
<path d="M70.7746 52.6393C70.0802 54.3309 69.307 55.9755 68.4075 57.5731C67.9656 58.372 67.4922 59.1551 67.003 59.9226C66.5138 60.6901 65.9772 61.4419 65.5354 62.2407C65.062 63.1179 64.699 64.089 64.7463 65.1071C64.7463 65.2324 65.0935 65.2324 65.0935 65.1071C65.0146 63.2432 66.2298 61.6925 67.1924 60.2202C68.1866 58.6852 69.0702 57.1033 69.8751 55.4743C70.3169 54.5502 70.743 53.6261 71.1217 52.6863C71.1691 52.561 70.8377 52.5297 70.7904 52.6393H70.7746Z" fill="#6A8EA8"/>
<path d="M66.3236 58.843C65.3926 59.955 64.6036 61.1924 63.9881 62.5081C63.925 62.6334 64.2722 62.6648 64.3195 62.5551C64.9349 61.2551 65.7082 60.0334 66.6235 58.937C66.7339 58.8117 66.4025 58.7647 66.3236 58.843Z" fill="#6A8EA8"/>
<path d="M75.0663 63.4317C75.0663 63.4317 74.8928 63.416 74.8296 63.463C73.7723 64.2462 72.6046 64.904 71.3737 65.3896C71.3105 65.4209 71.3263 65.4835 71.3737 65.5149C71.4526 65.5618 71.5473 65.5462 71.6262 65.5149C72.8728 65.0136 74.0564 64.3558 75.1295 63.5413C75.1926 63.4943 75.1137 63.4317 75.0663 63.416V63.4317Z" fill="#6A8EA8"/>
<path d="M39.5285 48.5823C39.0236 50.5559 38.5028 52.5294 38.1398 54.5186C37.7927 56.4765 37.5875 58.4814 37.698 60.4706C37.7611 61.5983 37.9189 62.7104 38.1872 63.7911C38.2187 63.9164 38.5659 63.9008 38.5343 63.7911C38.0451 61.8646 37.9347 59.844 38.0767 57.8705C38.2029 55.8656 38.5817 53.8764 39.0393 51.9186C39.3076 50.8065 39.5917 49.6944 39.8757 48.5823C39.9073 48.4727 39.5601 48.457 39.5285 48.5823Z" fill="#6A8EA8"/>
<path d="M32.9298 59.061C32.5195 58.5128 32.1092 57.9646 31.6989 57.4321C31.62 57.3381 31.2886 57.3851 31.3675 57.4791C32.0777 58.4189 32.7878 59.3743 33.4979 60.3141C34.1449 61.1912 34.7919 62.0997 35.1549 63.1334C35.36 63.7286 35.4705 64.3552 35.4232 64.9817C35.4232 65.107 35.7546 65.107 35.7703 64.9817C35.9439 62.6792 34.2396 60.784 32.9456 59.0767L32.9298 59.061Z" fill="#6A8EA8"/>
<path d="M35.8183 59.9073C35.1397 58.6856 34.0509 57.7302 32.7569 57.1976C32.678 57.1663 32.5833 57.1506 32.5044 57.1976C32.4413 57.229 32.4413 57.2916 32.5044 57.3229C33.7668 57.8241 34.8241 58.7639 35.4711 59.9543C35.5343 60.0639 35.8656 60.017 35.8025 59.9073H35.8183Z" fill="#6A8EA8"/>
<path d="M27.1734 53.7366C27.1419 53.6113 26.7947 53.627 26.8262 53.7366C27.3628 55.7885 27.5679 57.9343 27.4575 60.0488C27.4575 60.1741 27.8046 60.1741 27.8046 60.0488C27.9309 57.9343 27.71 55.7885 27.1734 53.7366Z" fill="#6A8EA8"/>
<path d="M70.4289 82.8229C70.3184 82.8543 70.2237 82.8856 70.0975 82.8856C70.0975 82.8856 70.0975 82.8699 70.0975 82.8543C70.0344 82.7289 70.3815 82.6976 70.4289 82.8073V82.8229Z" fill="#D3D0CE"/>
</g>
<defs>
<clipPath id="clip0_1_14065">
<rect width="114" height="160" fill="white"/>
</clipPath>
</defs>
</svg>
