<svg  viewBox="0 0 114 160" fill="none" xmlns="http://www.w3.org/2000/svg">
<g clip-path="url(#clip0_1_13842)">
<path d="M112.584 21.8574C111.132 30.1742 103.082 35.7656 94.6027 34.3414C86.1231 32.9172 80.4222 25.0224 81.8743 16.7056C83.3264 8.38875 91.3758 2.79733 99.8554 4.22156C108.335 5.64579 114.036 13.5406 112.584 21.8574Z" fill="#E2B8AF"/>
<path d="M92.0869 15.5451C91.7821 15.3517 91.3339 15.2462 90.9754 15.3869C90.7961 15.4572 90.6706 15.6154 90.563 15.7913C90.4376 15.9495 90.3479 16.1605 90.2941 16.3715C90.1866 16.688 90.1328 17.0045 90.2045 17.2858C90.2583 17.9013 90.7603 18.3232 91.4236 18.2705C92.5351 18.1826 92.9653 16.1254 92.0689 15.5451H92.0869Z" fill="#333333"/>
<path d="M104.423 17.6193C104.118 17.4259 103.67 17.3204 103.311 17.4611C103.132 17.5314 103.007 17.6897 102.899 17.8655C102.774 18.0237 102.684 18.2347 102.63 18.4633C102.523 18.7798 102.469 19.0963 102.54 19.3776C102.594 19.9931 103.096 20.4151 103.76 20.3623C104.871 20.2744 105.301 18.2172 104.405 17.6369L104.423 17.6193Z" fill="#333333"/>
<path d="M102.906 24.0377L90.8945 22.0332C90.8945 22.0684 90.8945 22.086 90.8945 22.1211C90.8945 22.1211 90.8945 22.1211 90.8945 22.1387C91.3069 23.3519 91.9164 24.5124 92.8665 25.374C93.7629 26.2004 94.8565 26.5872 96.0218 26.7982C96.0576 26.7982 96.0935 26.7982 96.1473 26.8158C96.1652 26.8158 96.201 26.8158 96.2189 26.8158C96.2369 26.8158 96.2727 26.8158 96.3086 26.8158C96.3445 26.8158 96.3803 26.8158 96.4341 26.8334C97.5993 27.0092 98.7646 26.9916 99.8941 26.5169C101.095 26.007 102.063 25.1102 102.852 24.108C102.87 24.0728 102.888 24.0553 102.888 24.0201L102.906 24.0377Z" fill="white"/>
<path d="M55.803 158.931C55.803 159.405 55.9822 160.355 55.803 160.988C55.803 160.988 55.803 161.005 55.803 161.023H-6.17163C-6.72737 159.616 -6.17164 156.24 -6.15371 155.221C-6.06407 152.865 -5.92066 150.508 -5.70553 148.17C-5.31113 143.581 -4.68369 139.009 -3.8411 134.473C-3.7694 134.051 -2.72959 134.068 -2.58617 134.367C-2.42483 134.684 7.471 129.813 8.457 129.391C12.3651 127.738 16.4167 126.384 20.6296 125.716C25.4879 124.943 30.4359 125.101 35.3479 125.206C38.4493 125.277 41.5687 125.329 44.6522 125.646C46.3911 125.822 48.2018 126.121 49.636 127.123C51.9486 128.758 52.2712 131.36 53.0242 133.857C53.8309 136.547 54.3508 139.167 54.7273 141.998C55.1396 145.181 55.4623 148.398 55.6595 151.599C55.7671 153.251 55.8388 154.887 55.8926 156.539C55.9105 157.331 55.8388 158.139 55.8208 158.931H55.803Z" fill="#D3D0CE"/>
<path d="M54.8834 148.943C53.3417 148.785 51.8178 148.574 50.3478 148.117C49.1646 147.747 48.0352 147.22 46.9954 146.552C45.0055 145.251 43.392 143.44 42.3164 141.347C41.7248 140.204 41.3124 138.991 41.0794 137.743C42.7646 137.62 44.4497 137.479 46.1349 137.356C48.2145 137.198 50.294 137.022 52.3736 136.846C52.4632 136.846 52.6425 136.776 52.6067 136.653C52.5529 136.529 52.3198 136.529 52.2123 136.529C48.5192 136.846 44.8083 137.145 41.1153 137.426C37.4043 137.708 33.6934 137.971 29.9824 138.235C29.9466 138.235 29.9286 138.235 29.8928 138.235C29.8928 137.303 29.8928 136.354 29.9107 135.422C29.9107 133.083 29.9466 130.745 29.9645 128.406C29.9645 128.107 29.9645 127.826 29.9645 127.527C29.9645 127.298 29.3191 127.298 29.3191 127.527C29.3191 129.83 29.2833 132.134 29.2653 134.455C29.2653 135.738 29.2653 137.004 29.2474 138.288C27.5264 138.411 25.7874 138.516 24.0664 138.622C24.0664 138.552 24.0664 138.481 24.0664 138.393C24.1381 135.457 24.2098 132.521 24.2815 129.584C24.2815 129.373 23.6541 129.356 23.6362 129.584C23.5107 134.841 23.3673 140.099 23.2418 145.356C23.1163 150.543 22.9908 155.748 23.1342 160.952C23.1342 160.988 23.1342 161.005 23.1342 161.04H23.7796C23.7617 160.108 23.7437 159.159 23.7258 158.209C24.6042 157.998 25.5006 157.787 26.3253 157.383C27.2037 156.961 27.9208 156.328 28.4048 155.502C28.9247 154.587 29.2295 153.567 29.4446 152.548C29.6597 151.493 29.7494 150.403 29.7852 149.33C29.8211 148.222 29.8211 147.097 29.839 145.989C29.839 144.829 29.839 143.651 29.8569 142.49C29.8569 141.189 29.8569 139.888 29.8928 138.587C31.5959 138.464 33.299 138.358 35.0021 138.235C36.8127 138.112 38.6413 137.971 40.452 137.831C40.8822 140.152 41.9578 142.314 43.4816 144.125C45.0592 145.989 47.1388 147.431 49.4694 148.257C51.1546 148.838 52.9293 149.119 54.7041 149.295C54.8117 149.295 55.0447 149.312 55.0985 149.189C55.1523 149.066 54.973 148.996 54.8834 148.996V148.943ZM29.2295 141.382C29.2295 143.668 29.2295 145.936 29.1757 148.222C29.1399 150.332 29.0144 152.513 28.2256 154.499C27.867 155.396 27.3471 156.223 26.5225 156.768C25.7695 157.278 24.8732 157.541 23.9947 157.77C23.9051 157.787 23.8155 157.805 23.7438 157.823C23.7438 156.557 23.7438 155.273 23.7438 154.007C23.7796 148.978 23.9409 143.95 24.0664 138.921C25.8054 138.815 27.5264 138.692 29.2653 138.587C29.2653 139.519 29.2653 140.45 29.2474 141.382H29.2295Z" fill="#4C6880"/>
<path d="M43.3089 156.557C43.2192 156.469 42.9861 156.452 42.8786 156.504C40.4405 157.348 37.9486 158.052 35.4388 158.632C34.7217 158.79 34.0046 158.948 33.2875 159.089C33.1979 159.107 33.0186 159.159 33.0724 159.282C33.1262 159.405 33.3592 159.405 33.4668 159.388C36.0483 158.896 38.6119 158.245 41.1217 157.471C41.8209 157.26 42.52 157.032 43.2192 156.786C43.3268 156.75 43.4343 156.663 43.3268 156.575L43.3089 156.557Z" fill="#4C6880"/>
<path d="M13.0845 158.86C11.1663 158.033 9.17635 157.348 7.15057 156.82C7.02508 156.785 6.80997 156.767 6.72034 156.873C6.61277 156.978 6.72033 157.066 6.8279 157.084C8.81782 157.594 10.7539 158.262 12.6363 159.071C12.7797 159.124 12.959 159.141 13.0845 159.071C13.1921 159.018 13.21 158.895 13.0845 158.842V158.86Z" fill="#4C6880"/>
<path d="M57.1257 60.8207C57.0898 60.9613 57.0719 61.102 57.0361 61.2427C57.054 61.3833 57.0719 61.5064 57.0899 61.6471C57.0899 61.7702 57.0181 61.8581 56.8747 61.9108C56.2652 64.601 55.6377 67.2913 55.0282 69.9991C54.9565 70.3507 54.8669 70.6848 54.7952 71.0365C54.4366 72.6365 54.078 74.219 53.7374 75.8191C52.9845 79.2478 52.5005 82.6941 52.2495 86.1755C52.2315 86.4217 52.2136 86.6854 52.1957 86.9316C52.1957 86.9316 52.1957 87.0898 52.1957 87.1602C52.1598 87.7756 52.124 88.391 52.1061 89.0064C51.9089 94.1231 51.8551 99.3453 51.9089 104.567C51.9089 104.902 51.9089 105.236 51.9089 105.57C51.9447 108.77 52.0164 111.97 52.1061 115.152C52.1419 116.612 52.2495 118.089 52.357 119.548C52.375 119.882 52.4108 120.216 52.4288 120.55C52.5184 121.834 52.608 123.118 52.6439 124.401C52.6797 125.984 53.4326 129.131 51.6041 130.098C51.12 130.362 50.5464 130.397 49.9906 130.432C44.3077 130.801 38.6248 131.188 32.9239 131.558C32.2964 131.593 31.6331 131.645 31.0594 131.909C30.6292 132.103 30.2706 132.384 29.93 132.718C29.7687 132.859 29.6073 133.017 29.4639 133.175C29.2129 133.421 28.9799 133.65 28.7289 133.878C26.1295 136.323 23.279 138.45 20.2135 140.296C17.0403 142.195 13.6341 143.162 10.0487 144.182C5.51307 145.483 0.744429 145.993 -3.97044 145.677C-4.34692 145.642 -4.72339 145.624 -5.06401 145.466C-5.7811 145.167 -6.22929 144.393 -6.33686 143.637C-6.53406 142.354 -6.33684 140.859 -6.12171 139.4C-6.06793 139.065 -6.01415 138.731 -5.96037 138.397C-5.83488 137.659 -5.72731 136.938 -5.67353 136.27C-5.4584 133.632 -5.24328 130.977 -5.01023 128.34C-4.92059 127.267 -4.81303 126.195 -4.70547 125.122C-4.66961 124.788 -4.63376 124.454 -4.59791 124.12C-4.18558 120.339 -3.73738 116.524 -3.73738 112.779C-3.59396 111.144 -3.46849 109.473 -3.36092 107.82C-3.343 107.486 -3.30713 107.152 -3.2892 106.818C-3.07407 103.301 -2.94859 99.7497 -3.12786 96.2682C-3.12786 95.9693 -3.16371 95.688 -3.18164 95.3891C-3.21749 94.7033 -3.28921 94.0176 -3.36092 93.3143C-3.36092 93.2791 -3.36092 93.2263 -3.36092 93.1912C-3.45056 92.2944 -3.34299 90.4658 -3.82702 89.7097C-3.82702 89.6745 -3.86288 89.657 -3.86288 89.6218C-4.81303 84.4172 -6.03208 79.2829 -7.41248 74.1663C-7.66346 73.2344 -7.91445 72.3024 -8.18336 71.3881C-8.29093 71.0013 -8.39848 70.6321 -8.50604 70.2452C-8.86459 69.0144 -9.22314 67.7836 -9.58169 66.5352C-10.1016 64.7945 -11.6612 62.5438 -11.213 60.6624C-11.0876 60.1349 -10.7111 59.7657 -10.245 59.4668C-9.77888 59.1679 -9.24106 58.9393 -8.79288 58.658C-7.48419 57.8843 -6.15758 57.181 -4.79511 56.5128C-4.20351 56.2315 -3.59398 55.9502 -3.00238 55.6864C-1.94467 55.2117 -0.886968 54.7721 0.188668 54.3501C4.09681 52.8204 8.13047 51.5544 12.1462 50.306C12.1641 50.306 12.2 50.306 12.2179 50.2884C12.8453 50.095 13.4907 49.9016 14.1182 49.7082C15.6958 49.2334 17.2734 48.829 18.9047 48.5828C23.9961 47.8268 29.1233 48.8114 34.1429 50.1653C34.9496 50.3763 35.7564 50.6049 36.5452 50.8335C37.1009 50.9917 37.6567 51.15 38.1945 51.3082C41.1166 52.1698 44.0388 53.0314 46.9609 53.8754C47.1223 53.9281 47.3015 53.9809 47.4629 54.016C48.6819 54.3677 49.9727 54.6842 51.2097 55.0534C52.3033 55.3875 53.361 55.7567 54.347 56.2491C54.5621 56.3546 54.7593 56.4777 54.9386 56.6359C56.068 57.5502 56.5879 59.2206 56.8389 60.5745C56.9823 60.6273 57.0719 60.7152 57.054 60.8207H57.1257Z" fill="#557571"/>
<path d="M0.946827 70.5593C0.946827 70.5593 0.946827 70.6472 0.946827 70.6999C0.946827 70.9813 0.910975 71.2802 0.893045 71.5615C0.749628 73.5484 0.480696 75.5177 0.140078 77.4694C-0.272249 79.7728 -0.738346 82.0586 -1.27617 84.3444C-1.7602 86.4368 -1.88569 88.5292 -2.47729 90.6216C-2.72827 91.5359 -3.01511 92.4327 -3.31987 93.3118C-3.48122 93.769 -3.66049 94.2261 -3.82183 94.6833C-3.96525 95.0349 -4.09073 95.3866 -4.23415 95.7207C-5.32772 98.3582 -6.65433 100.925 -8.07059 103.422C-9.61233 106.13 -11.4947 108.978 -14.2734 110.297C-14.5065 110.403 -14.7216 110.508 -14.9726 110.596C-15.1519 110.666 -15.3311 110.719 -15.5104 110.772C-15.6538 110.807 -15.8152 110.842 -15.9765 110.842C-17.2494 110.93 -19.2034 110.227 -20.2074 109.77C-21.767 109.066 -23.2012 107.888 -23.8108 106.271C-25.0477 103.053 -24.2231 99.5011 -23.1474 96.1778C-23.0219 95.8262 -22.9144 95.4569 -22.7889 95.1053C-22.7351 94.9646 -22.6992 94.824 -22.6455 94.7009C-21.4802 91.3249 -20.3508 87.949 -19.2393 84.5554C-19.1317 84.2038 -19.0062 83.8521 -18.8987 83.518C-17.3749 78.8233 -15.8869 74.1111 -14.4169 69.3812C-14.3093 69.0647 -14.2197 68.7482 -14.1121 68.4141C-13.5026 66.4272 -12.8751 64.4404 -12.2656 62.4535C-11.7995 60.9413 -11.19 59.9742 -10.2219 59.4819C-9.45101 59.0951 -8.48293 59.0072 -7.19217 59.2006C-3.98319 59.7105 -0.97139 61.8205 0.247663 64.8272C0.982681 66.6558 1.05438 68.6603 0.964743 70.5944L0.946827 70.5593Z" fill="#557571"/>
<path d="M72.8072 89.1338C72.359 90.3471 71.4089 91.2966 70.4767 92.2109C70.4588 92.2285 70.4229 92.2636 70.405 92.2812C70.154 92.5274 69.9209 92.756 69.652 92.9845C68.9349 93.6527 68.1461 94.2329 67.2139 94.5319C67.0884 94.567 66.945 94.6022 66.8195 94.6373C66.3534 94.7428 65.9052 94.7604 65.457 94.7253C64.3635 94.6549 63.3057 94.2505 62.266 93.8461C61.9971 93.7406 61.7281 93.6351 61.4772 93.5472C59.8996 92.9494 58.4296 92.035 57.0312 91.068C56.834 90.9273 56.6189 90.7867 56.4217 90.646C56.3141 90.5757 56.2245 90.5053 56.1169 90.435C54.7903 89.4679 53.5354 88.3778 52.4418 87.1821C52.3701 87.0942 52.2984 87.0239 52.2088 86.936C51.9757 86.6722 51.7427 86.4085 51.5275 86.1271C51.2766 85.8106 51.0256 85.4765 50.7925 85.1425C49.7707 84.3512 49.0177 83.3138 48.3903 82.1709C47.5656 80.6588 46.8127 79.0763 46.2569 77.4411C45.5578 75.3839 45.2171 73.2211 45.1992 71.0584C45.1992 70.7243 45.1992 70.3903 45.1992 70.0562C45.2171 69.4056 45.2709 68.755 45.3426 68.1044C45.3426 67.0846 45.4323 66.0648 45.5936 65.045C46.2031 61.335 48.1572 57.7832 51.5813 55.9369C51.6172 55.9194 51.653 55.9018 51.6889 55.8842C51.7247 55.8666 51.7785 55.8314 51.8144 55.8139C52.0474 55.6908 52.4777 55.6732 52.7108 55.8139C52.8004 55.8666 52.8542 55.9369 52.8721 56.0073C53.5713 56.2007 54.3063 56.3941 55.0054 56.6227C55.3102 56.7282 55.6329 56.8513 55.9197 56.9743C56.7623 57.3436 57.3718 58.1524 57.9634 58.8557C59.8099 61.0888 61.4234 63.4977 62.9472 65.9593C63.1265 66.2406 63.3058 66.522 63.4671 66.8209C64.489 68.4913 65.4929 70.1617 66.5147 71.8321C66.7298 72.1837 66.9629 72.5354 67.178 72.8871C67.3931 73.2211 67.6083 73.5552 67.8234 73.8893C67.8772 73.9772 67.931 74.0651 67.9848 74.1355C68.0923 74.3113 68.1999 74.4695 68.3074 74.6278C68.5943 75.0674 68.8632 75.5069 69.1321 75.9465C69.7596 76.9663 70.3512 77.9861 70.889 79.0236C71.6778 80.5533 72.377 82.1533 72.8789 83.8589C73.3271 85.3535 73.3092 87.6393 72.7534 89.0987L72.8072 89.1338Z" fill="#557571"/>
<path d="M85.3531 63.8449C85.2635 63.0713 85.138 62.2976 84.9767 61.524C84.7257 60.3459 84.4388 59.0096 83.7755 57.9898C83.2915 57.2513 82.6282 56.4776 81.8035 56.0908C81.1581 55.7919 80.0825 55.7391 79.6343 56.4249C79.4192 56.7414 79.4013 57.1985 79.3654 57.5502C79.3117 58.0777 79.2758 58.6052 79.2937 59.1151C79.3296 60.1349 79.4909 61.1371 79.7599 62.1042C80.0825 63.2647 80.5486 64.39 81.1402 65.4274C81.5884 66.2362 82.18 67.5198 83.184 67.7484C83.2915 67.766 83.4349 67.8011 83.5604 67.8011C84.4747 68.1528 85.1739 67.555 85.389 66.6934C85.5145 66.2362 85.4966 65.7439 85.4607 65.2692C85.4249 64.7944 85.389 64.3197 85.3352 63.8273L85.3531 63.8449Z" fill="#6A8EA8"/>
<path d="M114.534 30.6133C113.763 30.1913 112.724 30.4023 111.899 30.7188C111.146 30.4902 110.59 30.7188 109.927 31.088C109.586 31.2814 109.264 31.51 108.941 31.7386C108.69 31.932 108.493 32.2837 108.188 32.4067C107.829 32.565 107.381 32.6002 107.005 32.7936C106.664 32.9694 106.359 33.1804 106.037 33.3914C105.373 33.8134 104.692 34.1826 103.993 34.5695C102.577 35.3431 101.107 36.1344 99.4932 36.3454C99.78 36.0289 100.085 35.5893 99.8697 35.22C99.7621 35.0266 99.529 34.9211 99.3139 34.8684C97.6287 34.464 96.2304 35.8179 94.8321 36.486C92.4298 37.6289 89.6511 36.9608 87.1234 37.5938C84.7928 38.174 83.3407 40.284 82.2471 42.2181C80.9385 44.5391 79.9524 47.0711 78.8768 49.4975C77.7115 52.135 76.5283 54.7549 75.3631 57.3923C75.3272 57.4627 75.3451 57.5154 75.3631 57.5682C75.0762 58.5704 75.148 59.6957 75.2017 60.7155C75.2555 61.9288 75.4348 63.1948 76.0981 64.2497C76.7256 65.252 77.6578 65.8674 78.7872 66.1663C79.6298 66.3773 80.562 66.5883 81.4225 66.3245C82.2472 66.0784 82.5161 65.6564 82.8746 64.8827C83.6813 63.1948 83.9682 61.3309 84.3267 59.5023C84.6136 58.0077 84.9363 56.5308 85.3486 55.0714C85.9581 52.8207 86.729 50.6228 87.7688 48.5129C88.2707 47.4755 88.8444 46.4556 89.4898 45.4886C90.0993 44.5567 90.655 43.8182 91.7665 43.4841C94.8321 42.5522 98.0949 42.4115 101.178 41.5675C103.401 40.9697 105.499 40.1257 107.507 39.0532C108.851 38.3498 110.196 37.6641 111.576 37.0311C111.917 36.8729 113.494 35.8706 112.562 35.5365C111.469 35.1497 110.267 35.4838 109.174 35.8179C110.787 34.3936 112.741 33.3738 114.462 32.0727C114.678 31.9144 114.875 31.7386 114.982 31.51C115.162 31.1056 114.893 30.8067 114.534 30.6133Z" fill="#EDAF8C"/>
<path d="M112.041 30.8242C111.915 30.7891 111.79 30.8066 111.7 30.877C110.804 31.4572 109.943 32.0902 109.119 32.7584C108.921 32.5825 108.617 32.4946 108.366 32.4595C108.276 32.4595 108.097 32.4595 108.043 32.5474C107.989 32.6529 108.151 32.688 108.222 32.7056C108.455 32.7408 108.796 32.8639 108.814 33.1452C108.832 33.4617 108.437 33.6903 108.222 33.8661C107.613 34.3584 107.039 34.9035 106.483 35.431C105.426 36.4684 104.368 37.5234 103.131 38.3674C102.45 38.8245 101.697 39.1938 100.908 39.4224C100.818 39.4399 100.747 39.5103 100.818 39.5982C100.89 39.6861 101.069 39.6685 101.159 39.6509C104.404 38.719 106.358 35.8002 108.886 33.8309C109.119 33.6551 109.388 33.3738 109.316 33.0749C109.352 33.0749 109.388 33.0573 109.423 33.0221C110.302 32.3188 111.216 31.6506 112.148 31.0352C112.256 30.9649 112.112 30.877 112.059 30.8594L112.041 30.8242Z" fill="#D49A89"/>
<path d="M108.74 35.9252C108.005 36.6285 107.288 37.3318 106.535 38.0175C105.872 38.633 105.154 39.2132 104.348 39.6528C103.9 39.8989 103.433 40.0748 102.931 40.1803C102.842 40.1979 102.77 40.2858 102.842 40.3561C102.913 40.444 103.093 40.4264 103.182 40.4089C105.047 39.9869 106.463 38.6505 107.79 37.3846L109.17 36.0658C109.331 35.9076 108.847 35.8197 108.722 35.9427L108.74 35.9252Z" fill="#D49A89"/>
<path d="M99.6484 36.3446C99.6484 36.3446 99.3974 36.2743 99.3078 36.2919C98.3576 36.5732 97.3896 36.7666 96.4215 36.8721C95.9375 36.9249 95.4535 36.96 94.9694 36.96C94.4675 36.96 93.9834 36.9425 93.4814 36.96C93.4097 36.96 93.2305 36.9776 93.2305 37.0831C93.2305 37.1886 93.4097 37.2062 93.4814 37.2062C93.9834 37.2062 94.4854 37.2062 95.0053 37.2062C95.5251 37.2062 96.045 37.171 96.5649 37.1183C97.5868 37.0128 98.5907 36.8018 99.5767 36.5205C99.6664 36.5029 99.7381 36.4325 99.6664 36.3446H99.6484Z" fill="#D49A89"/>
<path d="M85.3934 67.3832C85.3934 68.3327 85.0528 69.2646 84.7301 70.1614C84.0488 72.0955 83.4572 74.1527 82.6684 76.0869C82.5429 76.4209 82.3995 76.7374 82.2561 77.0715C82.1306 77.3704 81.9872 77.6518 81.8438 77.9331C81.0909 79.3925 80.4275 80.9222 79.9256 82.4695C79.4415 83.9289 78.2045 85.4059 77.2723 86.6191C75.4617 88.9753 73.3283 91.0852 70.944 92.8611C70.8723 92.9139 70.8006 92.9666 70.7468 93.0018C70.46 93.2128 70.1731 93.3886 69.8683 93.5645C68.9182 94.1095 67.8964 94.4964 66.8566 94.6722C66.4084 94.7425 65.9602 94.7777 65.4941 94.7601C64.4902 94.7425 63.4683 94.4964 62.5003 93.9865C62.4286 93.9513 62.3747 93.9161 62.303 93.881C61.0302 93.1601 60.0263 91.9996 59.5961 90.6281C58.7535 87.9379 59.6857 84.7202 61.1737 82.4344C62.3748 80.5881 63.9524 79.0232 65.3686 77.3177C66.1574 76.1572 67.0717 75.067 67.8964 73.9066C68.1294 73.5901 68.3625 73.256 68.5776 72.9219C68.6134 72.8692 68.6493 72.8164 68.6852 72.7637C69.0975 72.1307 69.4919 71.4625 69.8683 70.8119C70.9619 68.913 71.93 66.9612 72.8443 64.9743C73.0415 64.5524 73.2387 64.1128 73.4359 63.6732C74.0813 62.2314 74.6908 60.7896 75.3003 59.3478C75.7664 58.24 76.2505 57.1147 76.9496 56.13C77.0213 56.0421 77.0931 55.9366 77.2006 55.9015C77.3799 55.8311 77.6129 55.919 77.7205 56.0773C77.846 56.2355 77.8818 56.429 77.9356 56.6224C78.6527 59.8752 80.1048 62.9699 82.1485 65.6249C82.4891 66.0469 82.8298 66.4865 83.2959 66.7678C83.6186 66.9612 83.9951 67.1019 84.3715 67.0843C84.5867 67.0843 85.0707 66.8381 85.3037 66.9612C85.3396 66.9612 85.3575 66.9964 85.3934 67.0316C85.4651 67.1195 85.4651 67.2426 85.4651 67.3656L85.3934 67.3832Z" fill="#557571"/>
<path d="M52.2505 86.1758C52.2326 86.422 52.2147 86.6857 52.1967 86.9319C52.1967 86.9319 52.1967 87.0901 52.1967 87.1605C51.1032 87.0901 50.0096 87.055 48.934 87.055H48.916C45.2947 87.055 41.6017 87.4946 38.0342 87.9166C33.5345 88.4616 28.8913 89.0067 24.284 88.7078C23.1725 88.6375 22.0431 88.4968 20.9495 88.3737C19.4436 88.1979 17.866 88.0221 16.3422 87.9869C14.2089 87.9341 12.0217 88.1627 9.92423 88.3737C9.51191 88.4089 9.09958 88.4616 8.68725 88.4968C4.9763 88.866 1.2295 89.077 -2.5173 89.1298C-2.73242 89.1298 -2.94755 89.1298 -3.16268 89.1298C-3.18061 88.7957 -3.19852 88.4616 -3.23438 88.1276C-3.01925 88.1276 -2.80412 88.1276 -2.58899 88.1276C1.13988 88.0748 4.88667 87.8638 8.57969 87.5121C8.99202 87.477 9.40435 87.4242 9.81667 87.3891C11.95 87.1781 14.173 86.9495 16.3601 86.9846C17.9377 87.0198 19.5333 87.1956 21.075 87.3715C22.1506 87.4946 23.2621 87.6176 24.3557 87.688C28.8734 87.9869 33.4628 87.4418 37.9266 86.9143C41.53 86.4923 45.2409 86.0352 48.934 86.0352H48.9519C50.0634 86.0352 51.1749 86.0703 52.2864 86.1582L52.2505 86.1758Z" fill="white"/>
<path d="M62.9564 65.9723C61.4505 66.8515 59.9625 67.7834 58.5283 68.7328C57.3989 69.4713 56.2516 69.8406 55.0504 69.9988C54.8712 70.0164 54.6919 70.034 54.5126 70.0516C54.2975 70.0516 54.0824 70.0867 53.8672 70.0867C53.0067 70.1219 52.1283 70.0867 51.1961 70.0867C50.6403 70.0867 50.0846 70.0516 49.493 70.0516C48.1305 70.0516 46.6963 70.0516 45.1904 70.0516C43.1826 70.0516 41.0313 70.0692 38.7366 70.1043C34.9181 70.1571 31.0458 70.2274 27.2811 70.2802C24.09 70.3329 20.8093 70.3857 17.5645 70.4384C12.4373 70.5087 7.23842 70.5439 2.09329 70.5615C1.71682 70.5615 1.32242 70.5615 0.945948 70.5615C0.60533 70.5615 0.282633 70.5615 -0.0400581 70.5615C-1.76108 70.5263 -3.53588 70.5087 -5.2569 70.6494C-5.38239 70.6494 -5.50789 70.667 -5.63338 70.667C-5.84851 70.667 -6.06361 70.667 -6.27874 70.667C-7.06754 70.6318 -7.76672 70.456 -8.48381 70.2274C-8.86028 70.1043 -9.25469 69.9637 -9.66702 69.823C-9.93593 69.7351 -10.2048 69.6296 -10.4917 69.5241C-11.6749 69.1197 -12.876 68.7504 -14.095 68.3988C-14.2026 68.7153 -14.2923 69.0318 -14.3998 69.3658C-13.1987 69.6999 -12.0155 70.0692 -10.8323 70.4736C-10.5454 70.5791 -10.2765 70.667 -10.0076 70.7549C-9.36223 70.9835 -8.77065 71.1945 -8.14319 71.3703C-7.46195 71.5461 -6.76278 71.6692 -5.97398 71.6868C-5.97398 71.6868 -5.92022 71.6868 -5.88437 71.6868C-5.70509 71.6868 -5.5258 71.6868 -5.3286 71.6692C-5.25689 71.6692 -5.2031 71.6692 -5.1314 71.6692C-3.44623 71.5286 -1.7073 71.5461 -0.0221405 71.5813C0.30055 71.5813 0.605312 71.5813 0.928003 71.5813C1.34033 71.5813 1.73474 71.5813 2.14707 71.5813C7.27427 71.5813 12.4911 71.5286 17.6183 71.4582C20.8631 71.4231 24.1618 71.3527 27.3349 71.3C31.0817 71.2296 34.9719 71.1593 38.7725 71.1241C41.0672 71.089 43.2005 71.0714 45.2084 71.0714C46.7143 71.0714 48.1305 71.0714 49.5109 71.0714C50.0667 71.0714 50.6403 71.0714 51.1781 71.1066C52.0386 71.1241 52.8812 71.1593 53.7238 71.1241C53.939 71.1241 54.1541 71.1066 54.3692 71.089C54.5305 71.089 54.674 71.0714 54.8353 71.0538C56.3053 70.8956 57.7216 70.5087 59.1199 69.5944C60.5541 68.6449 62.0241 67.7306 63.5121 66.869C63.3328 66.5877 63.1535 66.3064 62.9922 66.0075L62.9564 65.9723ZM47.5389 54.0158C46.284 53.9982 45.0291 53.963 43.7921 53.9279C42.4655 53.8927 41.0851 53.8575 39.7226 53.84L17.7617 53.4707C14.5169 53.418 11.1645 53.3652 7.86588 53.5586C5.66082 53.6993 3.4199 53.9455 1.26863 54.1916C0.928007 54.2268 0.569458 54.262 0.22884 54.3147C-0.846796 54.7367 -1.92243 55.1763 -2.96221 55.651C-1.49218 55.5104 -0.0400524 55.3521 1.39413 55.1939C3.5454 54.9477 5.76837 54.7015 7.93757 54.5609C11.2003 54.3674 14.5348 54.4202 17.7438 54.4729L39.7047 54.8422C41.0492 54.8598 42.4296 54.8949 43.7563 54.9301C46.2302 54.9829 48.7579 55.0532 51.2857 55.0532C50.0308 54.6839 48.7579 54.3675 47.5389 54.0158ZM-4.25298 94.1756C-4.70116 93.6305 -5.16725 93.0503 -5.77678 92.6107C-6.33252 92.2063 -6.97791 91.9425 -7.56951 91.6964C-7.91012 91.5557 -8.23283 91.4326 -8.53759 91.2744C-9.29054 90.8875 -9.98969 90.3601 -10.653 89.8326C-11.5852 89.1116 -12.5354 88.4083 -13.4496 87.7402C-15.3499 86.3335 -17.1785 84.9972 -18.8816 83.4675C-18.9892 83.8191 -19.1147 84.1708 -19.2222 84.5049C-17.555 85.9643 -15.7981 87.2654 -14.0592 88.5314C-13.1449 89.1996 -12.1948 89.9029 -11.2805 90.6062C-10.5634 91.1513 -9.82836 91.714 -8.98577 92.136C-8.64516 92.3118 -8.28661 92.4524 -7.94599 92.5931C-7.37232 92.8217 -6.81657 93.0503 -6.35046 93.3843C-5.8485 93.7536 -5.43616 94.2459 -5.02384 94.7734C-4.77285 95.0899 -4.52187 95.3888 -4.23503 95.6877C-4.09161 95.3361 -3.9482 94.9844 -3.82271 94.6503C-3.96613 94.4921 -4.09161 94.3163 -4.23503 94.158L-4.25298 94.1756ZM-14.9735 110.581C-15.7802 104.796 -18.5948 99.2571 -22.7898 95.0899C-23.0049 94.8789 -23.22 94.6679 -23.4351 94.4745C-23.8295 94.369 -24.2419 94.2811 -24.6363 94.2108C-24.9052 94.158 -25.1741 94.1053 -25.4609 94.0701C-24.6542 94.7207 -23.8833 95.424 -23.1662 96.1801C-19.294 100.171 -16.7124 105.394 -15.9953 110.844C-15.9953 110.897 -15.9953 110.95 -15.9774 110.985C-15.834 110.967 -15.6906 110.932 -15.5472 110.897C-15.35 110.844 -15.1707 110.792 -14.9914 110.721C-14.9914 110.686 -14.9914 110.633 -14.9914 110.598L-14.9735 110.581ZM70.4679 92.2063C69.2309 88.3556 68.4062 84.3291 68.6572 80.2322C68.7469 78.8255 68.962 77.3837 69.1771 75.9771C69.1771 75.8892 69.195 75.8188 69.213 75.7309C69.4639 74.1133 69.7329 72.4429 69.8046 70.7901C69.4281 71.4582 69.0337 72.1088 68.6214 72.7418C68.5497 73.3748 68.46 74.0254 68.3525 74.6759C68.2987 74.9748 68.2628 75.2913 68.209 75.5902C67.976 77.0848 67.725 78.6321 67.6354 80.1794C67.3664 84.5928 68.2987 88.9007 69.6611 92.9975C69.7149 93.1734 69.7866 93.3668 69.8404 93.5426C70.1452 93.3668 70.432 93.1733 70.7188 92.9799C70.6292 92.7338 70.5575 92.47 70.4679 92.2239V92.2063ZM77.334 70.5615C75.9536 68.8208 74.376 66.447 73.3721 63.6513C73.1749 64.0909 72.9777 64.5129 72.7805 64.9525C73.8203 67.4493 75.2545 69.5768 76.5273 71.1945C78.2304 73.3396 80.2024 75.2562 82.2461 77.0496C82.3895 76.7332 82.5329 76.3991 82.6584 76.065C80.7402 74.3594 78.9116 72.5484 77.3161 70.5615H77.334ZM52.3793 119.53C50.1025 119.443 47.8795 119.319 45.7282 119.196L44.6526 119.144C40.6011 118.915 36.406 118.686 32.2828 118.968C28.769 119.196 25.2553 119.812 21.6699 120.445C16.3455 121.412 10.9494 122.484 5.73252 123.539C4.44176 123.803 3.15099 124.049 1.86023 124.313C0.0675011 124.665 -1.56387 124.471 -3.28489 124.243C-3.69722 124.19 -4.12747 124.137 -4.57565 124.084C-4.61151 124.419 -4.64736 124.753 -4.68321 125.087C-4.25296 125.139 -3.84064 125.192 -3.42831 125.227C-2.33475 125.368 -1.29496 125.491 -0.201397 125.491C0.533621 125.491 1.26863 125.438 2.05743 125.28C3.34819 125.016 4.63896 124.77 5.92973 124.506C11.1466 123.469 16.5247 122.379 21.8491 121.412C25.3987 120.761 28.8766 120.181 32.3545 119.935C36.424 119.671 40.5831 119.882 44.5989 120.111L45.6744 120.163C47.8616 120.286 50.1383 120.41 52.451 120.497C52.433 120.163 52.3972 119.829 52.3793 119.495V119.53ZM51.9132 104.567C36.8363 104.216 21.6878 104.761 6.73645 106.238L6.00142 106.308C2.95379 106.607 -0.165564 106.923 -3.24905 106.8C-3.26698 107.134 -3.2849 107.468 -3.32075 107.802C-2.81879 107.82 -2.33475 107.838 -1.83278 107.838C0.820452 107.838 3.49161 107.574 6.09106 107.31L6.82609 107.24C21.7595 105.763 36.8722 105.218 51.9132 105.569C51.9132 105.235 51.9132 104.901 51.9132 104.567ZM13.8894 135.584C13.0648 135.777 12.2401 135.988 11.4334 136.182C9.6048 136.639 7.70453 137.096 5.82217 137.465C5.44569 137.536 5.08713 137.606 4.71066 137.676C4.54931 137.694 4.4059 137.729 4.24456 137.747C0.874231 138.309 -2.53195 138.538 -5.9202 138.397C-5.97398 138.731 -6.02778 139.065 -6.08157 139.399C-5.3824 139.434 -4.70116 139.452 -4.002 139.452C-2.10171 139.452 -0.201401 139.347 1.69889 139.136C2.03951 139.1 2.39806 139.048 2.73867 139.012C3.29442 138.942 3.86807 138.854 4.42381 138.766C6.87985 138.362 9.31796 137.764 11.6844 137.184C12.4911 136.99 13.3158 136.779 14.1404 136.586C18.9449 135.443 23.857 134.546 28.769 133.913C29.02 133.685 29.271 133.439 29.5041 133.21C29.6654 133.052 29.8088 132.911 29.9702 132.753C24.5741 133.403 19.178 134.371 13.8894 135.619V135.584Z" fill="white"/>
<path d="M67.1986 72.9007C66.2843 74.9579 64.8321 76.7338 63.4338 78.4569C62.8064 79.2306 62.1431 80.0394 61.5694 80.8482C60.2249 82.7121 59.1133 84.7165 58.2887 86.8441C58.1632 87.1606 58.0377 87.4771 57.9302 87.8112C57.5537 88.8837 57.2489 89.9739 57.0159 91.0992C56.8187 90.9585 56.6036 90.8179 56.4064 90.6772C56.2988 90.6069 56.2091 90.5365 56.1016 90.4662C56.3167 89.5343 56.5856 88.6024 56.8904 87.6881C56.9979 87.3716 57.1234 87.0375 57.231 86.721C58.1094 84.4528 59.2747 82.2901 60.7089 80.3032C61.3184 79.4768 61.9817 78.6504 62.6092 77.8591C64.1868 75.9074 65.6927 74.0612 66.4994 71.8633C66.7145 72.2149 66.9476 72.5666 67.1627 72.9183L67.1986 72.9007Z" fill="white"/>
<path d="M54.3447 66.4305C54.0399 68.9449 53.6634 71.4593 53.1973 73.9561C52.9642 75.2045 52.7132 76.4529 52.4443 77.6837C52.1754 78.9145 51.8707 80.1454 51.6376 81.3938C51.3687 82.7828 51.2074 84.1895 51.3149 85.6137C51.3149 85.8423 51.9603 85.8247 51.9603 85.6137C51.781 83.0817 52.4443 80.6201 52.9822 78.176C53.5379 75.6968 54.004 73.2 54.3984 70.6856C54.6136 69.2614 54.8107 67.8548 54.99 66.4305C55.0079 66.2195 54.3805 66.202 54.3447 66.4305Z" fill="#6A8EA8"/>
<path d="M67.5381 73.8516C67.4126 73.8516 67.2334 73.8691 67.1617 73.9922C66.0681 75.7857 64.7594 77.4737 63.5583 79.1968C62.4288 80.8321 61.3532 82.5376 60.654 84.3838C60.2596 85.4037 59.9908 86.4762 59.8832 87.5664C59.8653 87.7598 60.4927 87.7422 60.5106 87.5136C60.7078 85.5795 61.4428 83.7508 62.3751 82.0629C63.3611 80.2694 64.598 78.6342 65.7812 76.9638C66.4804 75.9967 67.1616 75.0296 67.7712 74.0274C67.8429 73.9043 67.6098 73.8516 67.5381 73.8516Z" fill="#6A8EA8"/>
<path d="M35.6603 124.526C34.5309 126.231 33.3477 127.919 32.1107 129.555C31.7521 130.012 31.3936 130.487 31.035 130.944C30.9633 131.032 31.1605 131.084 31.2143 131.102C31.3219 131.102 31.4653 131.102 31.537 131.014C32.8098 129.396 34.011 127.744 35.1763 126.056C35.499 125.581 35.8395 125.089 36.1443 124.614C36.2339 124.473 35.7499 124.403 35.6603 124.543V124.526Z" fill="#6A8EA8"/>
<path d="M16.8186 129.676C16.711 129.641 16.5497 129.641 16.478 129.729C14.7032 131.259 12.8566 132.683 10.9205 134.002C8.96642 135.32 6.94064 136.534 4.84315 137.606C3.65995 138.222 2.47675 138.784 1.2577 139.312C1.15013 139.347 1.16806 139.452 1.2577 139.488C1.36526 139.54 1.50867 139.54 1.61624 139.488C3.78543 138.538 5.90086 137.466 7.92664 136.27C9.97035 135.074 11.9244 133.773 13.8068 132.349C14.8645 131.558 15.9043 130.714 16.9082 129.852C16.9978 129.782 16.9082 129.694 16.8186 129.676Z" fill="#6A8EA8"/>
<path d="M36.6148 51.2027C36.6148 51.572 36.5789 51.9588 36.5252 52.3281C35.7722 57.5854 31.5413 62.1746 28.3682 66.2363C27.8125 66.9396 27.1492 67.6605 26.2169 67.8715C25.3206 68.0825 24.5856 67.3264 23.976 66.7638C21.3407 64.3549 18.8309 61.8053 16.6079 59.0272C15.102 57.1458 13.5245 55.282 12.897 52.961C12.6819 52.1874 12.3592 51.2027 12.2695 50.2708C12.897 50.0774 13.5424 49.884 14.1698 49.6906C15.7474 49.2158 17.325 48.8114 18.9564 48.5653C24.0477 47.8092 29.1749 48.7939 34.1946 50.1477C35.0013 50.3587 35.808 50.5873 36.5968 50.8159C36.5968 50.939 36.5968 51.0621 36.5968 51.2027H36.6148Z" fill="white"/>
<path d="M34.7027 52.4472C34.6131 53.133 34.4338 53.8187 34.1829 54.4693C33.9319 55.1375 33.6271 55.788 33.3044 56.421C31.7447 59.4277 29.6652 62.1355 27.6035 64.8257C27.1553 65.406 26.6175 65.9862 25.8646 66.1621C25.1475 66.3379 24.538 65.7225 24.0539 65.2477C20.576 62.0124 17.3671 58.4431 15.0365 54.3286C14.5883 53.5374 14.1581 52.711 13.9788 51.8143C13.8174 51.0054 13.9071 50.2845 14.176 49.6515C15.7536 49.1768 17.3312 48.7724 18.9626 48.5262C24.0539 47.7701 29.1811 48.7548 34.2007 50.1087C34.38 50.3549 34.5414 50.6186 34.631 50.9351C34.7745 51.4098 34.7565 51.9197 34.7027 52.4121V52.4472Z" fill="#EDAF8C"/>
<path d="M33.413 39.8441C33.4309 39.932 33.4489 40.02 33.4489 40.1079C33.4489 40.1255 33.4489 40.1606 33.4489 40.1782C33.4489 40.3892 33.4489 40.6178 33.4489 40.8815C33.4489 41.7959 33.897 42.675 33.8253 43.5717C33.7357 44.6619 33.2517 45.7521 33.162 46.8598C33.0007 48.6533 33.0545 50.7281 32.5883 52.4688C32.1402 54.1392 30.1502 54.526 28.5906 54.7546C24.1088 55.4403 13.4958 56.003 15.8263 48.8643C16.5434 46.6488 17.153 44.3278 17.637 42.0772C18.1031 39.9321 18.5692 37.7693 19.5014 35.7649C20.344 33.9362 21.2942 33.356 23.32 33.7428C25.1127 34.0945 26.8696 34.6747 28.3934 35.6769C29.2001 36.2044 29.8634 36.855 30.6701 37.3649C31.4768 37.8924 32.3015 38.2265 32.9469 38.9474C33.2158 39.2463 33.3413 39.5101 33.3951 39.809L33.413 39.8441Z" fill="#EDAF8C"/>
<path d="M33.4158 39.8438C33.4337 39.9317 33.4516 40.0196 33.4516 40.1075C33.4516 40.1251 33.4516 40.1603 33.4516 40.1778C33.4516 40.3888 33.4516 40.6174 33.4516 40.8812C33.4516 41.7955 33.8998 42.6746 33.8281 43.5714C33.7385 44.6615 33.2544 45.7517 33.1648 46.8594C33.1469 47.1583 33.111 47.4748 33.111 47.7737C31.8561 47.3869 30.6729 46.7891 29.6152 46.0154C28.5575 45.2418 27.6073 44.222 27.3743 42.956C26.7827 39.5448 30.5833 40.0899 32.6628 39.9141C32.9318 39.8965 33.1648 39.8438 33.3979 39.8086L33.4158 39.8438Z" fill="#D49A89"/>
<path d="M31.5828 21.3646C32.4075 22.613 32.9453 24.0372 33.1963 25.5142C33.268 25.9538 33.3039 26.4813 33.4293 26.9033C33.5728 27.3428 34.003 27.6242 34.4153 27.8527C35.6523 28.5561 36.8714 29.2418 38.1083 29.9451C38.7716 30.332 39.1302 31.0529 39.0226 31.8089C38.933 32.3892 38.6283 32.8991 38.2697 33.3738C38.0725 33.6376 37.8574 33.9189 37.7319 34.2354C37.5526 34.7102 37.6243 35.2201 37.7319 35.7124C37.947 36.6619 38.2876 37.5586 38.5745 38.4905C38.8434 39.3873 38.9151 40.1785 38.8971 41.1104C38.8792 42.9215 37.2479 43.9237 35.6344 44.3809C32.1745 45.3655 28.4814 44.627 25.5951 42.5522C24.6629 41.8841 23.8203 41.1104 23.0136 40.284C22.2786 39.5455 21.7946 38.9301 20.6651 38.9125C17.7071 38.8422 15.2511 37.4355 13.6018 35.0091C12.4903 33.3738 11.8987 31.4397 11.7732 29.488C11.6836 28.222 11.8091 26.9208 12.2572 25.7076C12.6516 24.635 13.297 23.668 13.9782 22.7536C14.8388 21.6283 15.771 20.5558 16.7749 19.5535C17.1872 19.1315 17.4203 18.6392 17.9402 18.3051C18.478 17.9535 19.1234 17.7425 19.7508 17.6545C20.701 17.5139 21.6691 17.5666 22.6371 17.5666C23.7665 17.5666 24.896 17.4963 26.0254 17.6721C27.9077 17.971 29.6467 19.026 30.8837 20.4503C31.1347 20.7492 31.3677 21.0481 31.5828 21.3822V21.3646Z" fill="#EDAF8C"/>
<path d="M18.4988 42.2714C19.5744 39.968 19.8971 37.5943 19.915 35.0799C19.915 34.3063 19.8792 33.2864 20.3274 32.6007C21.0086 31.5633 22.4069 31.1589 23.2495 30.2797C24.1279 29.3654 24.7016 28.1698 24.8092 26.9214C24.863 26.3411 24.8092 25.7609 24.845 25.1806C24.8809 24.0026 25.1139 22.5607 25.7235 21.5233C26.333 20.5035 26.7453 19.4134 27.2831 18.3584C27.3728 18.1826 27.4803 18.0067 27.57 17.8309C28.1795 16.8111 28.1616 15.9495 26.9067 15.3341C26.1896 14.9824 25.3649 14.9473 24.5761 14.9473C19.1262 15.0352 13.5688 17.532 8.94354 20.2046C8.31609 20.5563 7.68863 20.9431 7.15081 21.4178C5.4298 22.9124 4.69477 25.2861 4.76648 27.5368C4.83819 29.7874 5.62701 31.9677 6.52338 34.0425C7.54523 36.3635 8.78221 38.6669 10.6646 40.39C11.1486 40.8296 11.6864 41.234 12.2063 41.6384C13.3178 42.4824 14.4293 43.5901 15.7918 44.0297C17.1722 44.4869 17.9251 43.4319 18.445 42.289L18.4988 42.2714Z" fill="#333333"/>
<path d="M31.3146 24.8447C31.1353 24.5985 30.6871 24.5809 30.4541 24.6337C29.6832 24.7743 29.002 25.1963 28.4462 25.7238C27.9264 26.2162 27.3706 26.6557 27.1376 27.3766C27.03 27.7107 27.2451 27.9217 27.5319 27.7986C27.8546 27.6404 28.1594 27.2887 28.4642 27.0777C29.1095 26.6206 29.7908 26.1986 30.5079 25.8645C30.7588 25.7414 31.4222 25.4777 31.4042 25.0908C31.4042 25.0029 31.3684 24.9326 31.3325 24.8623L31.3146 24.8447Z" fill="#333333"/>
<path d="M29.9355 28.5894C29.7742 28.097 29.8817 27.2003 30.6526 27.341C30.814 27.3761 30.9574 27.464 31.0649 27.5871C31.2263 27.763 31.3518 27.974 31.4414 28.2025C31.5669 28.5718 31.6207 28.941 31.4593 29.3103C31.4235 29.3806 31.4056 29.4334 31.3518 29.5037C31.2263 29.6619 31.0111 29.7323 30.8139 29.6971C30.5988 29.6619 30.4196 29.4861 30.2941 29.3103C30.1865 29.152 30.0431 28.8883 29.9534 28.6069L29.9355 28.5894Z" fill="black"/>
<path d="M23.5682 35.0446C23.5682 35.0446 23.5682 34.9919 23.5682 34.9567C23.3173 32.7237 20.3772 29.295 17.957 31.2115C17.1144 31.8797 16.738 33.0402 16.8814 34.0951C17.1682 36.1524 19.7139 38.9832 22.0624 38.3854C23.4965 38.0162 23.6937 36.2403 23.5862 35.0271L23.5682 35.0446Z" fill="#EDAF8C"/>
<path d="M36.2481 38.052C36.4632 37.9816 36.6245 37.8586 36.6783 37.6124C36.7321 37.3838 36.6783 37.1376 36.6245 36.9091C36.5349 36.5047 36.4453 36.0827 36.2839 35.6958C36.266 35.6431 36.248 35.6079 36.2122 35.5728C36.1226 35.4848 35.9792 35.52 35.8537 35.5552C34.9932 35.7838 34.0968 35.9244 33.2004 35.9948C33.0391 35.9948 32.8598 36.0123 32.6985 36.0827C31.7304 36.5222 33.29 37.5421 33.6844 37.7355C34.1326 37.9641 34.6346 38.0871 35.1366 38.1047C35.4414 38.1047 35.9075 38.1575 36.2481 38.052Z" fill="white"/>
<path d="M20.4215 22.3663C19.4176 24.6696 17.6965 26.6741 15.5453 28.028C14.9357 28.4149 14.3083 28.7489 13.645 29.0303C13.5732 29.0654 13.5912 29.1358 13.645 29.1709C13.7167 29.2237 13.8422 29.2061 13.9139 29.1709C16.2803 28.1687 18.324 26.4455 19.7402 24.318C20.1346 23.7202 20.4932 23.0696 20.78 22.419C20.8338 22.2783 20.4573 22.2432 20.4035 22.3663H20.4215Z" fill="#4C6880"/>
<path d="M21.2778 24.0713C20.973 25.0032 20.3456 25.8297 19.503 26.3396C19.4313 26.3747 19.4313 26.4275 19.503 26.4802C19.5747 26.5154 19.7002 26.5154 19.7719 26.4802C20.6504 25.9352 21.3316 25.1087 21.6363 24.1241C21.6901 23.9834 21.2957 23.9483 21.2599 24.0713H21.2778Z" fill="#4C6880"/>
<path d="M24.1813 23.8086C23.7869 24.4767 23.2311 25.0218 22.5499 25.391C22.4782 25.4262 22.4782 25.4965 22.5499 25.5317C22.6216 25.5669 22.7471 25.5669 22.8188 25.5317C23.5359 25.1449 24.1454 24.5646 24.5577 23.8613C24.6295 23.7382 24.253 23.7031 24.1813 23.8086Z" fill="#4C6880"/>
<path d="M13.5518 25.8643C12.8347 27.4995 11.4005 28.8007 9.67951 29.3634C9.6078 29.3809 9.554 29.4337 9.60778 29.4864C9.66156 29.5392 9.805 29.5392 9.87671 29.5216C11.6694 28.9414 13.1753 27.605 13.9283 25.8995C13.982 25.7588 13.6056 25.7237 13.5518 25.8467V25.8643Z" fill="#4C6880"/>
<path d="M8.38571 21.5067C8.38571 21.5067 8.18852 21.4891 8.11682 21.5419C6.82605 22.5441 6.01932 24.0739 5.92969 25.6915C5.92969 25.8146 6.30614 25.8322 6.30614 25.6915C6.39578 24.1266 7.18459 22.632 8.43949 21.6474C8.5112 21.5946 8.43951 21.5419 8.3678 21.5243L8.38571 21.5067Z" fill="#4C6880"/>
<path d="M15.4304 42.0973C13.9424 41.3412 12.6159 40.3038 11.5044 39.0554C11.4327 38.9675 11.0562 39.0202 11.1817 39.1433C12.2931 40.4093 13.6556 41.4467 15.1615 42.2203C15.2332 42.2555 15.3587 42.2555 15.4304 42.2203C15.5021 42.1852 15.5021 42.1148 15.4304 42.0797V42.0973Z" fill="#4C6880"/>
<path d="M16.1987 41.4794C15.858 41.3387 15.5354 41.1453 15.2306 40.9343C15.1589 40.8816 15.0513 40.864 14.9617 40.8992C14.9079 40.8992 14.8183 40.9695 14.89 41.0222C15.2127 41.2508 15.5533 41.4442 15.9118 41.6025C16.0014 41.6377 16.109 41.6377 16.1807 41.6025C16.2524 41.5673 16.2524 41.497 16.1807 41.4618L16.1987 41.4794Z" fill="#4C6880"/>
<path d="M26.5177 16.6028C26.4639 16.4094 26.4102 16.216 26.3026 16.0401C26.195 15.8467 26.0695 15.6533 25.8006 15.7061C25.7469 15.7061 25.6393 15.7412 25.6751 15.8292C25.6931 15.8643 25.7648 15.8995 25.8186 15.8995C25.8186 15.8995 25.8365 15.9347 25.8544 15.9522C25.8723 15.9874 25.9082 16.0226 25.9261 16.0753C25.962 16.1456 25.9978 16.216 26.0337 16.2863C26.1054 16.4446 26.1412 16.6204 26.1771 16.7786C26.2309 17.1127 26.213 17.4644 26.1233 17.7809C26.0875 17.9215 26.4639 17.9567 26.4998 17.8336C26.6253 17.4292 26.6432 17.0248 26.5356 16.6204L26.5177 16.6028Z" fill="#4C6880"/>
<path d="M45.5632 55.2517C45.0203 56.6933 44.3318 58.0958 43.9478 59.6023C43.5506 61.1477 43.5241 62.862 44.3053 64.2645C44.6628 64.9139 45.1792 65.4593 45.7089 65.9918C48.0525 68.3294 50.7404 70.3553 53.627 72.0176C56.7783 73.8358 60.3269 74.2643 63.8887 74.7449C66.5501 75.0955 69.2116 75.4461 71.8862 75.7838C74.2431 76.0825 76.5868 77.3552 78.8113 78.2123C81.3006 79.1863 83.5515 79.3032 84.1739 76.2253C85.2199 71.0436 85.1537 65.7061 85.0478 60.4335C84.9948 57.7842 84.9154 55.1219 84.3592 52.5375C83.6707 49.3298 82.2539 46.3298 80.8769 43.3688C80.2016 41.9143 79.4998 40.4468 78.9172 38.9533C78.414 37.6806 78.4538 36.356 77.8976 35.0703C76.4809 31.7457 72.9985 29.512 69.3572 29.0834C65.716 28.6548 61.9953 29.8756 59.016 31.9535C57.4006 33.0833 55.719 33.9405 53.9845 34.8625C50.939 36.4599 48.1717 38.9793 47.3508 42.265C46.8344 44.3299 47.0595 46.148 46.98 48.2519C46.9006 50.5895 46.4371 52.9271 45.6294 55.1349C45.6162 55.1868 45.5897 55.2258 45.5765 55.2777L45.5632 55.2517Z" fill="#333333"/>
<path d="M68.2021 64.3145C68.1226 63.6132 67.5798 63.0677 67.1825 62.4833C66.3483 61.2236 66.1497 59.6263 66.4013 58.1328C66.5734 57.1068 66.9574 56.1198 67.4209 55.1848C67.5798 54.8601 68.0035 54.3666 68.0299 54.003C68.0432 53.6004 67.5135 53.6393 67.2222 53.6004C66.4013 53.5095 65.5671 53.4965 64.733 53.5614C63.5677 53.6523 62.429 53.8861 61.33 54.2757C60.6018 53.3796 59.7544 52.5874 58.8142 51.9121C58.1257 51.4186 57.4372 50.9121 56.6295 50.6264C55.6894 50.2888 55.3451 50.6394 54.9744 51.5355C53.5046 55.0549 50.2076 57.4964 46.381 57.9899C45.7189 58.0808 44.8318 58.2626 44.9112 59.0808C44.9907 59.7691 45.5998 60.2236 46.2353 60.3405C46.6988 60.4314 47.1622 60.3925 47.6389 60.4055C49.625 60.4314 51.4655 61.2366 53.306 61.847C54.1402 62.1197 54.9743 62.3145 55.7556 62.6651C56.219 62.8729 56.7619 63.0028 57.265 63.0937C57.649 63.1716 58.3905 63.0937 58.7215 63.2755C59.7941 63.8469 60.9857 64.2236 62.1907 64.3794C63.2102 64.4963 64.243 64.4703 65.2494 64.6391C66.1497 64.795 67.1031 65.0937 67.924 64.7301C68.0167 64.6911 68.1094 64.6392 68.1624 64.5482C68.2021 64.4703 68.2021 64.3664 68.1888 64.2885L68.2021 64.3145Z" fill="#EDAF8C"/>
<path d="M66.4853 55.0057C66.4853 55.0057 66.4853 54.9797 66.4853 54.9667C66.7369 54.1226 66.578 53.5252 66.1675 53.0057C65.81 52.3564 65.2274 51.8239 64.5786 51.4473C64.5256 51.4213 64.4859 51.3953 64.433 51.3694C63.7974 51.0317 63.1089 50.8239 62.3939 50.6811C61.7186 50.4343 61.0168 50.2525 60.3018 50.2135C60.2488 50.2135 60.1826 50.2135 60.1296 50.2135C59.3749 50.1876 58.5937 50.3564 57.9316 50.72C57.3093 50.9538 56.8459 51.3823 56.6075 52.2265C56.6075 52.2265 56.6075 52.2525 56.6075 52.2654C56.4751 52.655 56.4619 53.0446 56.5414 53.4342C56.7929 55.2654 58.7129 56.8368 60.4872 57.2264C60.4872 57.2264 60.5004 57.2264 60.5136 57.2264C60.5136 57.2264 60.5269 57.2264 60.5401 57.2264C62.2482 57.8108 64.7243 57.4601 65.9292 56.0316C66.194 55.7329 66.3926 55.3953 66.4985 54.9927L66.4853 55.0057Z" fill="#D49A89"/>
<path d="M72.55 39.2655C72.1396 38.4473 71.6894 37.5382 70.9743 36.9408C70.2991 36.3694 69.7297 35.6941 68.975 35.2006C67.6111 34.3175 65.9163 34.0058 64.2877 34.0708C63.2151 34.1097 62.1294 34.3045 61.1628 34.7721C60.3948 35.1357 59.7195 35.6552 59.0575 36.1746C58.4616 36.6292 57.8658 37.0967 57.3229 37.6162C56.78 38.1356 56.7006 38.6681 56.4887 39.3824C56.4887 39.4083 56.4755 39.4473 56.4623 39.4733C56.1577 40.5122 55.8002 41.5641 55.6281 42.629C55.4824 43.5381 55.0984 44.3952 54.9528 45.3173C54.6615 47.1354 54.8204 49.0055 55.35 50.7587C55.8796 52.512 57.2435 53.9275 58.4616 55.2652C58.7265 55.5509 59.0178 55.8106 59.3488 56.0054C59.6666 56.1872 60.0506 56.2781 60.3816 56.421C60.9642 56.6547 61.613 56.6677 62.2353 56.5638C64.0361 56.2651 66.009 56.0054 67.5449 54.9665C69.0809 53.9275 70.405 52.5639 71.3319 50.9665C71.8085 50.1614 72.0601 49.2523 72.5235 48.4601C72.934 47.7458 73.265 46.9796 73.5828 46.2134C73.8344 45.629 74.0065 45.1615 74.033 44.5251C74.0595 44.0576 74.033 43.5901 73.9536 43.1225C73.7417 41.7979 73.1723 40.5512 72.5633 39.3434C72.5633 39.3174 72.5368 39.2914 72.5235 39.2785L72.55 39.2655Z" fill="#EDAF8C"/>
<path d="M70.3386 50.6412C70.3916 50.1217 70.6299 49.6412 70.9212 49.2126C71.1728 48.849 71.517 48.5893 71.7421 48.2256C72.1658 47.5243 72.6425 46.7451 73.5164 46.5114C73.9269 46.4075 74.4036 46.4724 74.7081 46.7581C74.9729 47.0049 75.0656 47.3815 75.0789 47.7321C75.1318 48.7321 74.6551 49.7321 73.8872 50.3814C73.1192 51.0308 72.0732 51.3554 71.0536 51.3165C70.8153 51.3165 70.5372 51.2645 70.4048 51.0567C70.3254 50.9269 70.3254 50.771 70.3386 50.6282V50.6412Z" fill="#EDAF8C"/>
<path d="M77.1571 48.535C77.3028 49.4311 77.4484 50.3402 77.2763 51.2233C77.0909 52.1064 76.5216 52.9765 75.6344 53.2362C71.9799 54.3401 71.0133 47.8337 71.159 45.652C71.2649 44.0546 71.6092 42.4442 71.4106 40.8469C71.159 38.8729 70.0732 37.0288 68.4578 35.834C64.2472 32.7301 59.6791 35.1846 56.9912 38.8859C56.5012 39.5482 56.157 40.678 55.5744 41.2235C55.2566 41.5092 54.8329 41.3663 54.621 41.0417C54.3959 40.678 54.4621 40.1845 54.5548 39.7949C54.9785 38.0937 55.7862 36.4963 56.8985 35.1327C56.9514 35.0807 56.9911 35.0158 57.0441 34.9639C57.534 34.3924 58.1828 33.6782 58.8449 33.2886C59.6658 32.808 60.7383 32.6522 61.6785 32.5613C62.8569 32.4314 64.0486 32.4055 65.227 32.6003C66.4849 32.8081 67.6899 33.2756 68.8683 33.7691C69.8217 34.1717 70.7882 34.6002 71.5959 35.2236C72.6287 36.0158 73.3835 37.0937 73.9528 38.2365C74.5222 39.4183 74.6678 40.743 75.171 41.9377C76.1111 44.1325 76.7599 46.1844 77.1571 48.535Z" fill="#333333"/>
<path d="M56.1551 45.3011C56.4464 44.8596 56.5656 44.3531 56.6185 43.8336C56.6583 43.3921 56.5523 42.9895 56.6185 42.5609C56.7377 41.7428 56.8701 40.8467 56.3405 40.1324C56.0889 39.7947 55.6784 39.561 55.2547 39.5999C54.8972 39.6389 54.5794 39.8597 54.3411 40.1324C53.6526 40.8726 53.3877 41.9505 53.5731 42.9245C53.7585 43.9115 54.3676 44.7946 55.1753 45.405C55.3739 45.5479 55.6122 45.6777 55.8373 45.5998C55.983 45.5479 56.0756 45.431 56.1551 45.3011Z" fill="#EDAF8C"/>
<path d="M63.125 40.9655C63.1779 40.6019 62.8204 40.4331 62.5291 40.2253C62.1054 39.9266 61.6552 39.6799 61.152 39.537C60.543 39.3552 59.9339 39.3552 59.3115 39.3682C59.2189 39.3682 59.1129 39.3682 59.0202 39.3812C58.9408 39.3812 58.8746 39.4071 58.7952 39.4201C58.5833 39.4591 58.2126 39.4851 58.0537 39.6539C57.8683 39.8357 58.1199 39.8097 58.2788 39.8097C58.5833 39.8097 58.8878 39.8227 59.1924 39.8357C59.5366 39.8357 59.8677 39.8487 60.1987 39.9266C60.7813 40.0435 61.2977 40.3552 61.7744 40.7058C61.973 40.8617 62.7012 41.485 62.9661 41.2902C63.019 41.2513 63.0455 41.1993 63.072 41.1474C63.0985 41.0824 63.125 41.0175 63.125 40.9655Z" fill="#333333"/>
<path d="M67.6962 42.5523C67.8816 42.2406 68.2656 42.3315 68.6363 42.3445C69.1527 42.3705 69.6691 42.4614 70.1458 42.6562C70.7284 42.89 71.2051 43.2536 71.695 43.6562C71.7744 43.7211 71.8407 43.7731 71.9069 43.851C71.9598 43.9029 72.0128 43.9679 72.0525 44.0198C72.1849 44.1886 72.463 44.4354 72.4894 44.6562C72.5159 44.9029 72.3438 44.7341 72.2114 44.6302C71.9731 44.4484 71.7215 44.2666 71.4831 44.0847C71.2183 43.8769 70.9403 43.6822 70.6357 43.5263C70.1061 43.2666 69.5102 43.1757 68.9144 43.1627C68.6628 43.1627 67.6962 43.1887 67.6035 42.877C67.5903 42.825 67.6035 42.7601 67.6035 42.7081C67.63 42.6432 67.6433 42.5783 67.683 42.5263L67.6962 42.5523Z" fill="#333333"/>
<path d="M62.4301 49.0695C62.2712 48.8098 62.0726 48.576 61.8475 48.3812C61.7945 48.3293 61.7019 48.2903 61.6092 48.3033C61.5827 48.3033 61.5562 48.3163 61.543 48.3423C61.543 48.3682 61.543 48.3942 61.5694 48.4202C61.6754 48.5111 61.7813 48.615 61.874 48.7319C61.9667 48.8358 62.0329 48.9397 62.1123 49.0695C62.152 49.1345 62.2447 49.1734 62.3242 49.1734C62.3771 49.1734 62.4698 49.1474 62.4301 49.0825V49.0695Z" fill="#D49A89"/>
<path d="M64.1409 49.2239C63.9555 49.146 63.7437 49.1589 63.5451 49.1719C63.3729 49.1719 63.1876 49.2109 63.0154 49.2499C62.9889 49.2499 62.9625 49.2628 62.9492 49.2888C62.9492 49.3148 62.9492 49.3408 62.9757 49.3667C63.0287 49.4187 63.1346 49.4706 63.214 49.4447C63.3729 49.4057 63.5318 49.3797 63.6907 49.3797C63.7702 49.3797 63.8231 49.3797 63.9026 49.3797C63.9158 49.3797 63.9423 49.3797 63.9555 49.3797C63.9555 49.3797 63.982 49.3797 63.9953 49.3797C63.9953 49.3797 63.9953 49.3797 64.0085 49.3797H64.035C63.9953 49.3797 64.0615 49.3797 64.0747 49.3797C64.1277 49.3927 64.2468 49.4187 64.2733 49.3537C64.2998 49.2888 64.1806 49.2369 64.1409 49.2109V49.2239Z" fill="#D49A89"/>
<path d="M64.2782 42.2665C64.212 42.1756 63.881 42.1496 64.0002 42.3054C64.5298 42.9678 64.2782 43.8898 63.9472 44.5651C63.7486 44.9807 63.5235 45.3833 63.3116 45.7989C63.0998 46.2274 62.8879 46.643 62.6893 47.0716C62.6363 47.1755 62.9674 47.3053 63.0203 47.1884C63.2322 46.7339 63.4573 46.2924 63.6824 45.8508C63.9075 45.4223 64.1458 44.9937 64.3444 44.5521C64.6754 43.8249 64.8211 42.9418 64.2782 42.2665Z" fill="#D49A89"/>
<path d="M64.1598 52.0583L62.0678 51.2012L61.8162 51.0973C61.8162 51.0973 59.7374 50.2402 59.7241 50.2402C59.5785 50.1752 59.4328 50.1233 59.2739 50.0843C58.9561 50.0194 59.0621 50.2272 59.1415 50.4609C59.3931 51.1492 59.8433 51.9154 60.4259 52.383C60.5186 52.4609 60.6245 52.5258 60.7304 52.5907C60.8893 52.6817 61.0482 52.7596 61.2203 52.8245C61.3925 52.8895 61.5646 52.9544 61.7367 52.9933C61.8559 53.0193 61.9751 53.0453 62.1075 53.0583C62.796 53.1232 63.5508 52.9284 64.1996 52.7466C64.3982 52.6946 64.9013 52.5388 64.6498 52.2921C64.5306 52.1752 64.3187 52.1102 64.1598 52.0453V52.0583Z" fill="white"/>
<path d="M60.6139 41.8903C60.3358 41.7215 59.9386 41.7215 59.6473 41.8903C59.3692 42.0331 59.1838 42.3059 59.1176 42.6046C59.0779 42.7734 59.0779 42.9552 59.1044 43.137C59.1706 43.5916 59.4354 43.7864 59.8988 43.7864C60.0577 43.7864 60.2166 43.7734 60.3623 43.7085C60.5741 43.6046 60.733 43.4097 60.8125 43.189C60.9714 42.7734 61.0773 42.189 60.6271 41.9163L60.6139 41.8903Z" fill="#333333"/>
<path d="M69.4693 45.4059C69.1913 45.2371 68.794 45.2371 68.5027 45.4059C68.2247 45.5488 68.0393 45.8215 67.9731 46.1202C67.9334 46.289 67.9334 46.4708 67.9599 46.6527C68.0128 47.0552 68.3306 47.1591 68.7146 47.1591C68.9662 47.1591 69.2575 47.1332 69.4296 46.9513C69.4958 46.8734 69.5488 46.7825 69.5885 46.6916C69.668 46.5358 69.7474 46.3669 69.7871 46.1981C69.8533 45.8994 69.7341 45.5877 69.4693 45.4319V45.4059Z" fill="#333333"/>
<path d="M63.2152 30.2909C63.1357 30.252 63.0298 30.252 62.9504 30.2909C61.5203 30.9013 60.5273 32.2909 60.4743 33.8233C60.4611 34.2909 60.5273 34.7584 60.6729 35.1999C60.7126 35.3168 61.0834 35.2909 61.0304 35.148C60.5538 33.6805 61.0172 32.0442 62.1956 31.0442C62.5002 30.7844 62.8312 30.5766 63.2019 30.4338C63.2814 30.4078 63.2681 30.3299 63.2019 30.3039L63.2152 30.2909Z" fill="#4C6880"/>
<path d="M73.7309 52.6967C72.42 51.2033 71.8507 49.2552 71.652 47.3332C71.4269 45.1255 71.705 42.9177 71.8242 40.71C71.8904 39.5152 71.9036 38.3074 71.7712 37.1126C71.6521 36.0477 71.4269 34.9828 70.9503 34.0088C70.5133 33.1127 69.8513 32.3465 69.0038 31.801C68.1961 31.2946 67.2428 30.9959 66.2895 30.9829C64.4754 30.9569 62.6747 32.0608 62.0523 33.7491C61.9729 33.9439 61.9199 34.1516 61.8802 34.3594C61.8537 34.4763 62.2377 34.5023 62.251 34.3594C62.5687 32.6712 64.1444 31.3335 65.879 31.1777C66.7926 31.0997 67.7195 31.3465 68.5139 31.801C69.3614 32.2816 70.0234 33.0088 70.4868 33.853C70.99 34.788 71.2416 35.8269 71.374 36.8659C71.5196 38.0347 71.5196 39.2035 71.4667 40.3723C71.3607 42.5541 71.0694 44.7229 71.2416 46.9046C71.3872 48.7747 71.8507 50.6838 72.9761 52.2292C73.1085 52.411 73.2542 52.5928 73.4131 52.7617C73.4925 52.8526 73.85 52.8006 73.7441 52.6708L73.7309 52.6967Z" fill="#4C6880"/>
<path d="M70.1511 35.1207C69.5287 34.7571 68.6681 34.7571 68.0457 35.1337C67.9795 35.1727 67.9795 35.2246 68.0457 35.2636C68.112 35.3025 68.2444 35.3025 68.3106 35.2636C68.8005 34.9649 69.3831 34.9649 69.873 35.2506C69.9392 35.2895 70.0716 35.2895 70.1378 35.2506C70.204 35.2116 70.204 35.1597 70.1378 35.1207H70.1511Z" fill="#4C6880"/>
<path d="M59.5749 35.8404C59.4955 35.8145 59.3763 35.8145 59.3233 35.8794C58.6083 36.5028 57.6285 36.7235 56.7281 36.9573C55.7615 37.2041 54.7817 37.4378 53.8151 37.7495C52.0806 38.3079 50.3989 39.1521 49.2735 40.6066C48.7041 41.3468 48.3201 42.204 48.2539 43.126C48.2539 43.2559 48.6247 43.2559 48.6247 43.126C48.7571 41.4507 49.909 40.0482 51.2861 39.1391C52.9015 38.0612 54.8744 37.6456 56.7414 37.1651C57.7477 36.9053 58.8467 36.6716 59.6411 35.9703C59.7073 35.9184 59.6411 35.8534 59.5749 35.8404Z" fill="#4C6880"/>
<path d="M50.1692 42.1089C49.2026 43.1868 48.62 44.5504 48.5273 45.992C48.5273 46.1218 48.8981 46.1218 48.8981 45.992C48.9908 44.6024 49.5469 43.2518 50.487 42.2128C50.6062 42.0829 50.2487 42.031 50.156 42.1219L50.1692 42.1089Z" fill="#4C6880"/>
<path d="M54.0622 49.5671C53.6253 50.8528 52.9632 52.0605 52.1158 53.1384C51.2684 54.2163 50.2488 55.1514 49.0969 55.9046C48.4481 56.3332 47.7463 56.6968 47.0313 56.9825C46.9518 57.0085 46.9651 57.0864 47.0313 57.1124C47.1107 57.1513 47.2167 57.1513 47.2961 57.1124C48.5937 56.5799 49.7854 55.8397 50.8315 54.9176C51.8775 53.9956 52.7779 52.9177 53.4664 51.7229C53.8504 51.0476 54.1814 50.3463 54.4197 49.606C54.4727 49.4632 54.102 49.4372 54.0622 49.5541V49.5671Z" fill="#4C6880"/>
<path d="M81.1397 53.7576C80.279 52.8095 79.2992 51.9914 78.3723 51.1083C77.4454 50.2252 76.6378 49.2642 76.0419 48.1343C75.3799 46.8876 75.0091 45.498 74.9297 44.0954C74.9297 43.9656 74.5457 43.9656 74.5589 44.0954C74.6251 45.3292 74.9297 46.5629 75.4461 47.6928C75.9625 48.8356 76.7172 49.8486 77.6043 50.7576C78.4915 51.6667 79.4846 52.4849 80.3849 53.381C81.2721 54.2771 82.0136 55.29 82.5697 56.4069C83.192 57.6536 83.5893 59.0172 83.7217 60.4068C83.7217 60.5367 84.1057 60.5367 84.0924 60.4068C83.8541 57.9523 82.8081 55.6017 81.1397 53.7576Z" fill="#4C6880"/>
<path d="M75.9362 33.7827C75.6978 33.5099 75.4198 33.2892 75.1152 33.1073C75.049 33.0684 74.9166 33.0684 74.8504 33.1073C74.7842 33.1463 74.7842 33.1983 74.8504 33.2372C76.3996 34.1333 76.6777 36.0683 76.8763 37.6527C76.8895 37.7826 77.2735 37.7826 77.247 37.6527C77.0749 36.2891 76.8763 34.8476 75.9362 33.7697V33.7827Z" fill="#4C6880"/>
<path d="M81.8431 57.8861C81.8034 57.7692 81.4327 57.7952 81.4856 57.938C81.8961 59.2237 82.1212 60.5484 82.1874 61.886C82.1874 62.0159 82.5714 62.0159 82.5582 61.886C82.4919 60.5354 82.2536 59.1848 81.8431 57.8861Z" fill="#4C6880"/>
<path d="M84.3315 137.016C83.8018 139.081 83.2325 141.133 82.6234 143.172C82.3453 144.133 82.0408 145.094 81.7495 146.042C81.5641 146.627 81.3787 147.211 81.1934 147.795C81.1139 148.055 81.0212 148.315 80.9418 148.575C80.7829 149.055 80.624 149.523 80.4651 150.003C80.187 150.834 79.8957 151.665 79.5912 152.497C79.2602 153.406 78.9292 154.315 78.5981 155.211C77.9758 156.886 77.3138 158.548 76.6385 160.198C76.4134 160.73 76.2015 161.263 75.9764 161.795H40.0537C38.4251 154.497 37.7233 147.016 37.9881 139.536C37.9881 139.393 38.1602 139.315 38.3456 139.289C38.3986 139.25 38.478 139.211 38.6104 139.185C41.9074 138.536 45.2309 137.99 48.5676 137.562C54.4334 136.796 60.3389 136.354 66.2576 136.25C69.25 136.198 72.2557 136.224 75.2482 136.341C76.7179 136.393 78.1877 136.471 79.6442 136.575C80.24 136.614 80.8358 136.653 81.4317 136.705C81.6038 136.718 81.7892 136.731 81.9613 136.744C82.4645 136.783 82.9544 136.809 83.4311 136.951C83.6165 136.679 84.4109 136.757 84.3447 137.016H84.3315Z" fill="#EDAF8C"/>
<path d="M72.5785 90.1976C69.7316 89.5482 66.7259 89.8339 63.8129 90.2235C59.4964 90.7949 55.1798 91.6131 51.1148 93.1845C48.8374 94.0676 44.2031 95.4182 43.5675 98.0805C41.5549 106.444 39.8335 114.782 38.9067 123.327C38.5227 126.885 38.1917 130.457 37.9533 134.028C37.8342 135.898 37.7415 137.755 37.6753 139.625C37.6223 141.067 37.1721 143.235 37.7282 144.586C38.0195 145.287 38.6021 145.313 39.3569 145.599C44.7195 147.651 50.5058 148.404 56.1861 149.235C57.166 149.378 58.159 149.521 59.1521 149.443C60.6483 149.326 61.8003 148.859 63.0979 148.222C64.5942 147.482 66.3022 147.132 67.9176 146.742C71.1881 145.937 74.4322 145.041 77.663 144.041C79.1195 143.599 80.6289 143.223 82.059 142.794C83.3831 142.391 83.7538 141.339 84.0451 140.08C85.8062 132.288 86.5609 124.119 86.071 116.132C85.7135 110.34 84.1908 104.873 81.0791 99.9246C79.8742 98.0026 78.6031 96.1065 77.6762 94.0416C77.2525 93.0936 77.1863 92.1975 76.2727 91.6521C75.3326 91.0936 74.2998 90.6781 73.2405 90.3794C73.0286 90.3144 72.8035 90.2625 72.5917 90.2105L72.5785 90.1976Z" fill="#D3D0CE"/>
<path d="M77.2786 69.1614C77.3978 67.6809 77.5037 66.2004 77.5699 64.7199C77.6891 62.1615 78.3114 57.3824 75.9413 55.7071C74.0346 54.3565 71.5982 54.4604 69.4002 54.85C67.1096 55.2656 65.4809 56.863 63.5742 57.9928C61.4557 59.2395 58.9531 59.8239 56.4903 59.6681C54.5042 59.5382 52.5842 58.9149 50.651 58.4863C46.5861 57.5772 42.6668 58.5123 38.6812 59.4213C37.2115 59.759 36.0198 60.8889 35.2783 62.1745C34.5368 63.4732 34.1793 64.9407 33.835 66.3822C33.3451 68.4212 33.0803 70.7588 32.2726 72.6938C31.5841 74.3301 31.253 75.9145 30.9353 77.6677C30.6837 79.0573 30.4586 80.4599 30.2467 81.8625C30.1805 82.343 29.9554 82.9534 30.538 83.1871C31.0809 83.4079 31.8224 83.33 32.405 83.343C33.557 83.3689 34.7089 83.291 35.8609 83.1871C36.8804 83.0962 38.4296 82.6287 39.4227 82.8624C41.1043 83.252 41.2632 85.5637 41.2632 86.9143C41.2632 90.9532 40.4555 94.8882 40.7468 98.9141C40.7733 99.2647 40.813 99.6413 41.0911 99.8621C41.3029 100.044 41.5942 100.07 41.8723 100.083C44.8118 100.252 47.6851 99.3556 50.5849 98.9011C55.2589 98.1738 60.0257 98.6024 64.7527 98.7842C69.4797 98.966 74.3391 98.8881 78.7484 97.2258C79.7282 96.8622 80.761 96.3167 81.0788 95.3297C81.423 94.2518 80.7478 93.148 80.1254 92.1999C79.3045 90.9532 78.5233 89.6805 77.8083 88.3688C77.2124 87.278 77.133 86.265 76.8814 85.0572C76.2194 81.9793 76.3385 78.8755 76.6563 75.7587C76.8814 73.5509 77.1065 71.3432 77.2919 69.1224L77.2786 69.1614Z" fill="#6A8EA8"/>
<path d="M68.4927 65.6264C67.9101 64.6264 67.0229 63.7953 65.9239 63.3797C64.613 62.8862 63.1036 63.055 61.8457 63.6135C60.601 64.1719 59.5815 65.1069 58.7473 66.1459C57.8999 67.2108 57.2378 68.4186 56.92 69.7432C56.8803 69.8861 56.8538 70.0289 56.8274 70.1718C55.596 68.4835 53.8481 67.0939 51.8355 66.4186C50.2334 65.8731 48.512 65.8602 47.2277 67.003C45.9036 68.1848 45.5063 70.2497 45.6255 71.938C45.7182 73.3016 46.1419 74.6262 46.7245 75.86C47.9692 78.5093 49.9685 80.756 52.2328 82.652C54.4837 84.5481 57.0127 86.1195 59.5417 87.652C59.5682 87.6649 60.0184 86.8598 60.0449 86.7948C61.4617 83.704 63.8318 81.1456 65.8445 78.3924C67.2215 76.5093 68.4794 74.4314 68.9164 72.1198C69.115 71.1198 69.2474 69.99 69.2871 68.977C69.3268 67.8082 69.0885 66.6394 68.5059 65.6264H68.4927Z" fill="#E0FEEB"/>
<path d="M66.169 79.7733C65.7718 78.7992 64.5404 78.5265 63.8386 77.8252C63.256 77.2408 62.5807 76.7733 61.8392 76.4097C61.3626 76.1759 60.8197 76.0071 60.2901 76.124C59.6148 76.2668 59.1513 76.8512 58.6747 77.3317C57.5624 78.4616 56.1059 79.0849 54.8745 80.0719C53.6563 81.033 52.372 81.8641 50.9949 82.6044C48.7042 83.8251 46.2944 84.8381 44.0037 86.0458C43.6726 84.7601 43.4476 83.4485 43.2622 82.1368C43.1563 81.3966 43.0636 80.6434 42.9709 79.9031C42.9576 79.7862 42.759 79.7732 42.6663 79.7862C39.899 80.3187 37.1051 80.7602 34.298 81.0979C33.5036 81.1888 32.7091 81.2797 31.9147 81.3576C31.8485 81.3576 31.7161 81.4096 31.7558 81.5005C31.6763 82.981 31.822 84.4744 32.1265 85.929C32.4311 87.3965 32.8813 88.825 33.3976 90.2276C33.9008 91.5522 34.4437 92.8639 35.0793 94.1366C35.6883 95.3574 36.3769 96.5521 37.1978 97.656C37.6083 98.2144 38.0452 98.7469 38.5219 99.2404C38.9191 99.656 39.3296 100.072 39.8592 100.318C40.9185 101.059 42.3221 100.942 43.6594 100.396C45.8574 99.5001 47.8965 98.3443 49.8429 97.0067C51.7629 95.695 53.2326 94.0587 54.7024 92.2665C57.4962 88.877 60.1444 85.2926 63.64 82.5524C64.1697 82.1368 64.7258 81.7342 65.3084 81.3836C65.6791 81.1498 66.0763 80.9031 66.2087 80.5005C66.2882 80.2667 66.2485 80.007 66.1558 79.7733H66.169Z" fill="#EDAF8C"/>
<path d="M44.4013 71.0704C44.2557 68.564 43.7922 66.0965 42.8521 63.7589C42.4417 62.7459 41.912 61.7459 41.1176 60.9797C40.3761 60.2784 39.0255 59.6031 37.953 59.759C36.8142 59.9278 35.8079 61.2784 35.2783 62.2005C34.5368 63.4991 34.1793 64.9666 33.835 66.4082C33.3451 68.4471 33.0803 70.7847 32.2726 72.7197C31.5841 74.3561 31.253 75.9404 30.9353 77.6937C30.6837 79.0832 30.4586 80.4858 30.2467 81.8884C30.1805 82.3689 29.9554 82.9793 30.538 83.213C31.0809 83.4338 31.8224 83.3559 32.405 83.3689C33.557 83.3948 34.7089 83.3169 35.8609 83.213C37.1982 83.0961 38.284 82.8104 39.6081 83.0052C40.7865 83.1741 42.3622 82.9143 43.1964 82.0183C43.8717 81.291 44.0041 80.2521 44.11 79.278C44.3881 76.5638 44.5735 73.7846 44.4146 71.0574L44.4013 71.0704Z" fill="#6A8EA8"/>
<path d="M58.6866 149.809C57.9848 152.718 57.4287 155.666 57.0314 158.627C56.9123 159.472 56.8196 160.303 56.7269 161.147C56.7137 161.277 57.0844 161.277 57.0977 161.147C57.4154 158.173 57.8921 155.212 58.5012 152.29C58.6733 151.459 58.8587 150.641 59.0573 149.809C59.0838 149.693 58.713 149.68 58.6866 149.809Z" fill="#D49A89"/>
<path d="M83.7592 81.1101C83.7327 80.6815 83.6135 80.2919 83.362 79.9932C83.1104 79.7075 82.7661 79.5517 82.3954 79.4867C81.9717 79.4088 81.5082 79.3958 81.0845 79.3698C80.6211 79.3309 80.1709 79.3049 79.7075 79.2919C77.9994 79.227 76.2516 79.3179 74.6362 79.8893C73.9079 80.1361 73.2194 80.4737 72.597 80.9283C72.4779 80.9283 72.3587 80.9672 72.3587 81.0451C72.3587 81.0711 72.3587 81.0841 72.3587 81.1101C72.3455 81.1101 72.3322 81.136 72.3057 81.149C72.2395 81.201 72.2793 81.2529 72.3322 81.2919C72.3984 81.3308 72.1601 82.3048 72.1469 82.4087C72.0674 82.8893 72.0807 83.3438 72.0012 83.8113C72.0012 83.8633 71.9747 83.9282 71.935 83.9671C71.882 84.0191 71.8026 84.0321 71.7232 84.0451C70.9949 84.11 70.2799 84.1619 69.5516 84.2269C68.8234 84.2918 68.0951 84.3438 67.3536 84.3568C65.7382 84.3827 64.1361 84.1749 62.5472 83.9152C61.8322 83.7983 61.1172 83.6685 60.4286 83.4866C59.1178 83.149 57.8731 82.6425 56.5755 82.2789C55.9664 82.11 55.2779 82.0841 54.6953 81.8763C54.1259 81.6815 53.5566 81.3698 53.0004 81.149C51.6366 80.6166 50.2993 79.9542 48.9222 79.4867C48.5515 79.3569 47.9954 79.188 47.5981 79.3049C47.2406 79.4088 46.8566 79.7984 46.6051 80.0581C45.2545 81.4347 44.5395 83.3697 44.6719 85.2788C44.7248 85.9801 44.9235 86.7333 45.5325 87.1229C45.7841 87.2788 46.0754 87.3567 46.3667 87.4346C47.1214 87.6294 47.7835 87.8502 48.4853 88.1878C50.1669 88.9151 51.7425 89.8372 53.3579 90.6813C59.5812 93.941 66.387 96.0708 73.365 97.1227C75.0996 97.3825 77.0195 97.5383 78.4363 96.5253C80.0782 95.3695 80.9124 92.98 81.5215 91.1748C81.8525 90.1878 82.157 89.1878 82.4483 88.1878C82.541 87.8762 82.6205 87.5775 82.6999 87.2658C82.8853 86.6164 83.1501 86.019 83.2825 85.3567C83.4414 84.5905 83.5606 83.8243 83.64 83.0451C83.693 82.5126 83.8254 81.7854 83.7724 81.136L83.7592 81.1101Z" fill="#EDAF8C"/>
<path d="M83.4815 69.6556C82.8459 66.6427 81.5351 63.3441 80.0388 60.7467C79.2841 59.4221 78.0924 57.0325 76.6624 56.3182C76.146 56.0585 76.1989 56.1364 75.815 56.6169C75.5104 56.9935 75.2853 57.4481 75.0735 57.8896C74.6497 58.7857 74.3584 59.7467 74.0936 60.6948C72.2266 67.37 71.1806 74.2659 70.9688 81.1879C70.9688 81.4866 70.9688 81.7983 71.1012 82.058C71.4454 82.6943 72.3061 82.2138 72.849 82.1489C73.6699 82.045 74.5173 82.071 75.3515 82.084C76.7683 82.084 78.1983 82.1229 79.6151 82.2008C80.9127 82.2788 82.2103 82.3956 83.4947 82.5905C84.3686 82.7203 85.4014 83.3826 85.322 81.9671C85.0969 78.11 84.2892 74.3828 83.6668 70.5907C83.6139 70.279 83.5609 69.9803 83.4947 69.6686L83.4815 69.6556Z" fill="#6A8EA8"/>
<path d="M76.4199 86.451C75.877 85.7887 75.2812 85.1783 74.5529 84.7238C73.8114 84.2563 72.9508 83.9835 72.0636 84.0095C72.0239 84.0095 71.918 84.0095 71.918 84.0745C71.918 84.1394 72.0239 84.1524 72.0636 84.1394C73.7585 84.0874 75.1488 85.2562 76.1551 86.477C76.1948 86.5289 76.2742 86.529 76.3272 86.529C76.3537 86.529 76.4596 86.49 76.4199 86.438V86.451Z" fill="#D49A89"/>
<path d="M62.1436 83.7959C61.0975 83.3414 59.9456 83.2245 58.8466 82.9518C58.264 82.809 57.6946 82.6271 57.1252 82.4453C56.5294 82.2635 55.9468 82.0687 55.3642 81.8609C54.7154 81.6402 54.0666 81.4064 53.4178 81.1726C53.3118 81.1336 53.1 81.2376 53.2721 81.2895C54.4241 81.7051 55.576 82.1077 56.7413 82.4843C57.2974 82.6661 57.8535 82.8479 58.4229 83.0038C58.9657 83.1466 59.5351 83.2505 60.0912 83.3674C60.7268 83.4972 61.3491 83.6401 61.945 83.8998C61.9979 83.9258 62.0906 83.9258 62.1436 83.8998C62.1965 83.8739 62.1965 83.8219 62.1436 83.7959Z" fill="#D49A89"/>
<path d="M60.3639 137.633C59.1722 136.581 58.007 135.477 56.8948 134.348C55.7693 133.218 54.6968 132.049 53.6508 130.841C52.618 129.633 51.6249 128.4 50.6715 127.14C49.7182 125.867 48.8046 124.568 47.9439 123.244C47.0832 121.919 46.2623 120.556 45.4943 119.166C45.4016 118.997 45.309 118.828 45.2163 118.659C45.1501 118.543 44.7793 118.582 44.8588 118.711C45.6267 120.114 46.4344 121.478 47.2951 122.828C48.1425 124.166 49.0429 125.478 49.9963 126.75C50.9364 128.036 51.9294 129.283 52.9622 130.49C53.995 131.698 55.0543 132.88 56.1666 134.023C57.2788 135.166 58.4308 136.283 59.6224 137.347C59.7681 137.477 59.9137 137.607 60.0594 137.737C60.1256 137.789 60.2448 137.789 60.311 137.776C60.3639 137.763 60.4434 137.698 60.3772 137.646L60.3639 137.633Z" fill="#6A8EA8"/>
<path d="M64.2233 128.256C62.8992 127.646 61.6545 126.893 60.4893 126.023C60.4231 125.971 60.3172 125.958 60.2377 125.984C60.1848 125.997 60.0921 126.062 60.1715 126.114C61.35 126.997 62.6211 127.75 63.9717 128.373C64.0511 128.412 64.1571 128.412 64.2365 128.373C64.3027 128.334 64.3159 128.269 64.2365 128.243L64.2233 128.256Z" fill="#6A8EA8"/>
<path d="M75.4473 101.826C75.3811 101.787 75.2486 101.787 75.1824 101.826C73.6068 102.774 71.9516 103.605 70.2568 104.333C68.562 105.06 66.8274 105.657 65.0399 106.151C64.0468 106.423 63.0272 106.657 62.0077 106.865C61.9547 106.865 61.8488 106.904 61.8753 106.982C61.9018 107.047 62.0474 107.06 62.1136 107.047C63.9409 106.696 65.7549 106.216 67.5159 105.618C69.2902 105.021 71.0115 104.307 72.6799 103.475C73.62 103.008 74.5336 102.501 75.434 101.969C75.5002 101.93 75.5002 101.878 75.434 101.839L75.4473 101.826Z" fill="#6A8EA8"/>
<path d="M42.0501 70.0889C41.8912 69.4655 41.7058 68.8422 41.5072 68.2318C41.4675 68.1149 41.0967 68.1409 41.1497 68.2838C41.8382 70.4525 42.3149 72.6863 42.5797 74.933C42.6592 75.5693 42.7121 76.1927 42.7519 76.829C42.7519 76.9589 43.1358 76.9589 43.1226 76.829C42.977 74.5564 42.6062 72.2967 42.0368 70.0889H42.0501Z" fill="#4C6880"/>
<path d="M73.1783 61.9575C73.1385 64.1782 72.9002 66.3989 72.45 68.5677C72.3176 69.1781 72.172 69.7885 72.0131 70.3989C71.9866 70.5028 72.3573 70.5287 72.3838 70.3989C72.9532 68.256 73.3239 66.0483 73.4696 63.8405C73.5093 63.2172 73.5358 62.5938 73.549 61.9704C73.549 61.8406 73.1783 61.8406 73.1783 61.9704V61.9575Z" fill="#4C6880"/>
<path d="M61.886 58.8788C61.8198 58.8399 61.6874 58.8399 61.6212 58.8788C60.2177 59.684 58.7214 60.3463 57.1855 60.8658C57.1193 60.8918 57.0663 60.9307 57.1193 60.9957C57.1722 61.0476 57.3046 61.0476 57.3708 61.0346C58.9333 60.5152 60.456 59.8398 61.886 59.0217C61.9522 58.9827 61.9522 58.9308 61.886 58.8918V58.8788Z" fill="#4C6880"/>
<path d="M82.6895 76.4219C82.226 76.0712 81.7626 75.7076 81.2859 75.3569C80.9681 75.1232 80.6636 74.8764 80.3193 74.6816C78.9555 73.8635 77.2871 73.7076 75.7512 73.2921C75.6453 73.2661 75.5261 73.2271 75.4467 73.1492C75.1818 72.8505 75.8571 72.4479 76.0955 72.344C76.4 72.2012 76.731 72.1232 77.0621 72.0713C78.1081 71.9155 79.1806 71.9544 80.2399 71.8505C80.4517 71.8246 80.6636 71.7986 80.849 71.7077C80.9681 71.6557 81.0741 71.5778 81.1667 71.4869C81.2992 71.37 81.4316 71.2402 81.4978 71.0843C81.6699 70.6687 81.2727 70.4999 80.9549 70.3571C80.5709 70.1882 80.1737 70.0454 79.7764 69.9415C78.9555 69.7207 78.0949 69.6558 77.2474 69.7077C75.6585 69.8116 74.1226 70.3311 72.5469 70.5389C71.9643 70.6168 71.3684 70.6557 70.7726 70.6557C70.5872 70.6557 70.2032 70.7207 70.0443 70.6168C69.8457 70.4999 70.0576 70.1882 70.1503 70.0583C70.521 69.5129 70.9712 69.0194 71.342 68.474C71.6465 68.0064 72.0305 67.3441 71.9775 66.7727C71.9378 66.3311 71.6465 65.7597 71.1698 65.6429C71.1433 65.5909 71.0374 65.5649 70.9977 65.5649C70.905 65.5519 70.7726 65.5649 70.7064 65.6429C69.8325 66.7857 68.9453 67.9155 68.0052 69.0064C67.9523 69.0064 67.8993 69.0324 67.8728 69.0584C66.7473 70.3311 65.41 71.396 64.0727 72.4349C62.7353 73.4739 61.3715 74.4998 60.1798 75.7076C59.8488 76.0453 59.531 76.3829 59.2529 76.7595C58.9749 77.1231 58.7366 77.5257 58.6836 77.9803C58.6836 77.9803 58.6836 77.9933 58.6836 78.0063C58.6836 78.0192 58.6836 78.0452 58.6836 78.0582C58.6836 78.0842 58.6836 78.1101 58.7101 78.1231C58.9219 79.0971 59.4781 79.9932 60.2858 80.6166C60.7492 80.9802 61.2788 81.24 61.8614 81.3309C62.1792 81.3828 62.497 81.3958 62.8148 81.4088C63.1458 81.4348 63.4768 81.4477 63.7946 81.4607C64.1521 81.4737 64.5096 81.4867 64.8539 81.4088C65.0128 81.3698 65.1584 81.3049 65.3041 81.227C65.3041 81.227 65.3306 81.214 65.3438 81.201C65.357 81.201 65.3835 81.201 65.3968 81.201C65.794 81.0971 66.2045 81.0711 66.6149 81.1101C66.8533 81.1361 67.0784 81.162 67.3167 81.162C67.5286 81.162 67.7536 81.1361 67.9655 81.1101C68.5084 81.0452 69.0513 80.9672 69.5677 80.8374C69.7928 80.7724 70.0443 80.7205 70.2694 80.6296C70.521 80.5387 70.7196 80.3828 71.0109 80.3828C71.1698 80.3828 71.3287 80.4348 71.4876 80.4867C71.673 80.5387 71.8451 80.6036 72.0305 80.6555C73.103 80.9932 74.1755 81.3309 75.1554 81.8763C75.4731 82.0581 75.7777 82.2529 76.0955 82.4477C76.5986 82.7724 77.0753 83.136 77.5917 83.4347C78.0816 83.7204 78.6774 83.9412 79.2468 83.8373C79.5381 83.7854 79.8294 83.6555 80.0148 83.4217C80.2134 83.175 80.1075 82.8373 79.9618 82.5776C79.4852 81.7075 78.4921 81.162 77.6579 80.6555C76.784 80.1101 75.8704 79.5906 75.0759 78.9413C74.97 78.8634 74.8641 78.7595 74.8641 78.6296C74.8641 78.3179 75.2745 78.227 75.5129 78.24C75.8439 78.253 76.1749 78.3569 76.4795 78.4608C76.8105 78.5777 77.1283 78.7205 77.446 78.8504C77.7903 78.9932 78.1478 79.1231 78.5053 79.253C79.1806 79.4997 79.8559 79.7854 80.5709 79.9673C80.9152 80.0582 81.2594 80.1231 81.617 80.1361C81.948 80.1361 82.279 80.0452 82.4644 79.7595C82.6365 79.4867 82.6365 79.227 82.5041 78.9543C82.3584 78.6556 82.1466 78.4088 81.8685 78.227C81.8288 78.2011 81.6169 78.0322 81.5905 78.0322C81.8553 78.0322 82.1069 78.0063 82.3717 77.9413C82.4379 77.9283 82.5041 77.9153 82.5571 77.8764C82.7292 77.7465 82.8748 77.7335 83.0072 77.5257C83.1264 77.3569 83.1926 77.1361 83.1132 76.9284C83.047 76.7465 82.8748 76.6167 82.7159 76.4868C82.7159 76.4868 82.6895 76.4738 82.6762 76.4608L82.6895 76.4219Z" fill="#EDAF8C"/>
<path d="M80.2279 82.813C80.1617 82.5793 80.0292 82.3585 79.8836 82.1637C79.8439 82.1118 79.7644 82.1118 79.7115 82.1118C79.685 82.1118 79.5791 82.1507 79.6188 82.2027C79.8306 82.4624 80.1087 82.904 79.9101 83.2416C79.738 83.5273 79.4069 83.6832 79.0759 83.7091C78.6919 83.7481 78.3079 83.6182 77.9504 83.4624C77.5797 83.2936 77.2222 83.0988 76.8779 82.878C76.4807 82.6312 76.0834 82.3715 75.7127 82.0728C75.6597 82.0338 75.5803 82.0338 75.5141 82.0468C75.4744 82.0468 75.4082 82.0988 75.4611 82.1377C76.1894 82.7091 76.9838 83.2286 77.8445 83.5922C78.5463 83.8909 79.5261 84.0338 80.0822 83.3845C80.2279 83.2156 80.2941 83.0208 80.2279 82.813Z" fill="#D49A89"/>
<path d="M81.5389 77.8932C81.1549 77.7504 80.7842 77.5426 80.4399 77.3478C80.0824 77.14 79.7249 76.9582 79.3542 76.7893C78.5994 76.4647 77.805 76.2179 77.0105 75.9842C76.5736 75.8543 76.1366 75.7114 75.7791 75.4517C75.7261 75.4128 75.6467 75.4127 75.5805 75.4257C75.5408 75.4257 75.4746 75.4777 75.5275 75.5166C76.1763 75.9971 77.0238 76.14 77.7653 76.3868C78.5862 76.6465 79.3939 76.9712 80.1486 77.3997C80.5591 77.6335 80.9563 77.8672 81.4065 78.0231C81.5124 78.062 81.7243 77.9582 81.5522 77.9062L81.5389 77.8932Z" fill="#D49A89"/>
<path d="M69.8851 70.6562C69.6203 70.6562 69.3555 70.6952 69.0907 70.7342C69.0509 70.7342 68.9582 70.7602 68.998 70.8251C69.0245 70.877 69.1304 70.89 69.1701 70.877C69.2893 70.8511 69.4217 70.8381 69.5408 70.8251C69.5673 70.8251 69.6071 70.8251 69.6335 70.8251C69.6468 70.8251 69.66 70.8251 69.6733 70.8251C69.6733 70.8251 69.6865 70.8251 69.6998 70.8251C69.766 70.8251 69.8189 70.8251 69.8851 70.8251C69.9248 70.8251 70.0308 70.8251 70.0308 70.7601C70.0308 70.6952 69.9248 70.6822 69.8851 70.6952V70.6562Z" fill="#D49A89"/>
<path d="M81.4346 70.5018C81.0904 70.2551 80.6534 70.0992 80.2297 70.0862C79.7928 70.0732 79.3293 70.4888 79.7133 70.8784C79.9517 71.1252 80.3621 71.2291 80.6799 71.333C80.8918 71.3979 81.1169 71.4498 81.3287 71.3979C81.5803 71.333 81.8319 71.0343 81.7127 70.7745C81.6862 70.7226 81.6465 70.6706 81.5935 70.6317C81.5406 70.5927 81.4876 70.5408 81.4346 70.5018Z" fill="#FFCEB8"/>
<path d="M71.2237 65.501C71.2237 65.501 71.2237 65.501 71.2369 65.488C71.2502 65.462 71.2369 65.436 71.2237 65.4101C71.1972 65.3841 71.1442 65.3711 71.1045 65.3711C71.0251 65.3711 70.9324 65.3711 70.8662 65.436C70.5616 65.7997 70.2571 66.1633 69.9525 66.5399C69.926 66.5789 69.979 66.6178 70.0055 66.6308C70.0585 66.6568 70.1247 66.6698 70.1909 66.6568C70.4689 66.6048 70.6676 66.397 70.8662 66.2022C71.0515 66.0204 71.1972 65.8126 71.2369 65.5529C71.2369 65.5399 71.2369 65.5269 71.2104 65.5139L71.2237 65.501Z" fill="#FFCEB8"/>
<path d="M83.2294 76.8534C83.1764 76.7235 83.0837 76.6066 82.9646 76.5287C82.7395 76.3858 82.4614 76.1651 82.1966 76.1131C81.7729 76.0352 81.3359 76.217 81.3359 76.6975C81.3359 76.9183 81.4419 77.1391 81.6008 77.2949C81.7596 77.4508 81.9583 77.5676 82.1701 77.6585C82.3423 77.7365 82.5409 77.8014 82.7395 77.7754C83.2294 77.7105 83.3883 77.23 83.2294 76.8534Z" fill="#FFCEB8"/>
<path d="M82.6786 79.1756C82.6256 79.0458 82.533 78.9289 82.4138 78.851C82.1887 78.7081 81.9106 78.4873 81.6458 78.4354C81.2221 78.3575 80.7852 78.5393 80.7852 79.0198C80.7852 79.2406 80.8911 79.4613 81.05 79.6172C81.2089 79.773 81.4075 79.8899 81.6193 79.9808C81.7915 80.0587 81.9901 80.1237 82.1887 80.0977C82.6786 80.0328 82.8375 79.5522 82.6786 79.1756Z" fill="#FFCEB8"/>
<path d="M80.0263 82.6834C79.9733 82.5536 79.8806 82.4367 79.7614 82.3587C79.5363 82.2159 79.2583 81.9951 78.9935 81.9432C78.5698 81.8653 78.1328 82.0471 78.1328 82.5276C78.1328 82.7484 78.2387 82.9691 78.3976 83.125C78.5565 83.2938 78.7551 83.3977 78.967 83.4886C79.1391 83.5665 79.3377 83.6315 79.5363 83.6055C80.0263 83.5406 80.1851 83.06 80.0263 82.6834Z" fill="#FFCEB8"/>
<path d="M45.5208 88.2006C46.4609 87.863 47.3745 87.2266 47.9836 86.4604C48.0366 86.3825 48.0763 86.3046 48.1292 86.2266C48.2352 86.0708 48.3941 85.941 48.5132 85.7981C48.7119 85.5384 48.8575 85.2397 48.9767 84.941C49.215 84.3306 49.3607 83.6813 49.4136 83.0319C49.5063 81.8631 49.2945 80.7462 49.0296 79.6164C48.7781 78.5255 48.2087 77.5385 47.5466 76.6424C47.0964 76.0191 46.6065 75.4347 46.1299 74.8243C45.918 74.5386 45.7194 74.2139 45.4678 73.9672C45.256 73.7724 45.0441 73.4736 44.9646 73.2009C44.9117 73.0191 44.872 72.8503 44.819 72.6685C44.7131 72.3049 44.5939 71.8763 44.2364 71.6685C44.0378 71.5516 43.7332 71.5256 43.5081 71.6295C43.1639 71.7204 42.9918 72.0321 42.9255 72.3698C42.9123 72.3828 42.8991 72.3958 42.8858 72.4217C42.6475 74.1749 43.5214 75.7983 44.5807 77.1489C43.9054 77.1229 43.2301 77.1489 42.568 77.2268C42.1311 77.2788 41.6941 77.4346 41.2439 77.4086C40.807 77.3827 40.3436 77.3437 39.9066 77.3047C38.8871 77.2138 37.894 77.019 36.9141 76.7333C36.2256 76.5255 35.5238 76.2528 34.8088 76.1879C34.1468 76.123 33.4582 76.11 32.7962 76.058C32.4917 76.0321 32.1871 76.0191 31.8958 76.11C31.5516 76.2139 31.2602 76.4606 31.3662 76.8372C31.5118 77.2918 32.015 77.4866 32.399 77.7073C32.6638 77.8502 32.9286 78.006 33.2199 78.0969C33.445 78.1619 33.6833 78.2008 33.9084 78.2528C34.16 78.3047 34.4116 78.3826 34.6499 78.4606L36.3845 78.9801C36.8347 79.1099 37.2717 79.2528 37.7086 79.4216C37.8807 79.4865 38.0529 79.5645 38.1588 79.7073C38.4766 80.0839 37.9337 80.5125 37.5762 80.6164C37.2452 80.7203 36.9009 80.7852 36.5699 80.8891C35.8681 81.0969 35.1796 81.3307 34.4778 81.5514C33.776 81.7722 33.0743 81.967 32.3592 82.1228C31.6707 82.2787 30.9822 82.4215 30.3466 82.7072C29.7773 82.967 28.9166 83.4605 28.9298 84.1488C28.9298 84.7981 29.5257 84.9669 30.0818 84.941C30.3996 84.941 30.7041 84.902 31.0219 84.8501C32.2401 84.6423 33.392 84.1747 34.597 83.954C34.9412 83.889 35.2855 83.8501 35.643 83.8241C34.1998 84.5644 32.73 85.2656 31.2867 86.0059C31.0219 86.1357 30.7438 86.2786 30.5585 86.5124C30.2407 86.902 30.3466 87.5123 30.8101 87.7721C30.9689 87.863 31.1411 87.889 31.3132 87.902C31.9355 87.9409 32.5446 87.7461 33.1007 87.4994C33.6701 87.2526 34.1997 86.9279 34.7691 86.6942C35.0604 86.5773 35.3517 86.4734 35.643 86.3695C36.08 86.2267 36.5169 86.0708 36.9406 85.928C37.126 85.863 37.3246 85.7981 37.5232 85.7981C37.563 85.876 37.4835 85.9799 37.404 86.0319C36.4242 86.7851 35.4841 87.5903 34.5705 88.4214C33.882 89.0578 33.1802 89.7201 32.8227 90.5772C32.5976 91.1097 32.9154 91.4084 33.4715 91.3954C34.0011 91.3824 34.5572 91.3045 35.0074 91.0188C35.312 90.824 35.5901 90.6422 35.8681 90.4214C36.5831 89.8759 37.3246 89.3435 38.1588 88.9669C39.5623 88.3175 40.9129 88.4604 42.4092 88.5253C43.4419 88.5643 44.488 88.5513 45.4678 88.2006H45.5208Z" fill="#EDAF8C"/>
<path d="M35.9465 83.7473C35.9465 83.7473 35.8141 83.6953 35.7744 83.6953C34.543 83.8901 33.2983 84.0849 32.1199 84.4875C32.0669 84.5005 32.0272 84.5395 32.0669 84.5784C32.1066 84.6174 32.2126 84.6174 32.2655 84.6044C33.2719 84.2667 34.3311 84.0719 35.3771 83.9031C34.2649 84.3706 33.1792 84.8901 32.1199 85.4615C32.0669 85.4875 32.0669 85.5394 32.1199 85.5654C32.1729 85.5914 32.2655 85.5914 32.3185 85.5654C33.4572 84.942 34.6357 84.3836 35.8274 83.8901C35.8671 83.8771 35.8671 83.8512 35.8538 83.8252C35.8935 83.8252 35.9598 83.7862 35.9333 83.7473H35.9465Z" fill="#D49A89"/>
<path d="M37.6961 85.8102C37.6961 85.8102 37.7623 85.7582 37.7226 85.7193C37.6828 85.6803 37.5769 85.6803 37.524 85.6933C35.8291 86.2388 34.1872 86.9011 32.5983 87.6933C32.5454 87.7192 32.5454 87.7712 32.5983 87.7972C32.6513 87.8231 32.744 87.8231 32.7969 87.7972C34.3196 87.0439 35.8953 86.4076 37.5107 85.8751C37.2591 86.1479 36.9414 86.3297 36.6368 86.5374C36.319 86.7582 36.0012 86.979 35.7099 87.2128C35.1141 87.6803 34.558 88.1998 34.0416 88.7582C33.7503 89.0699 33.4722 89.4075 33.2074 89.7452C33.1544 89.8231 33.4193 89.8621 33.4855 89.7841C34.4123 88.5894 35.5246 87.5504 36.7825 86.6803C37.14 86.4336 37.5239 86.2258 37.802 85.9011C37.855 85.8491 37.7888 85.8102 37.7093 85.7972L37.6961 85.8102Z" fill="#D49A89"/>
<path d="M55.2036 91.5626C54.1973 90.9003 53.1645 90.3029 52.092 89.7445C51.0194 89.186 49.9204 88.6925 48.8082 88.225C48.1859 87.9653 47.5503 87.7055 46.9147 87.4458C46.9809 87.3939 47.0604 87.3419 47.1266 87.29C47.1796 87.251 47.1266 87.1991 47.0736 87.1991C47.0074 87.1731 46.928 87.1861 46.875 87.225C46.5043 87.5107 46.1203 87.7835 45.7098 88.0042C45.2993 88.225 44.8491 88.3549 44.3857 88.4328C43.4721 88.5757 42.532 88.4977 41.6051 88.4588C40.718 88.4198 39.8176 88.4068 38.9569 88.6146C38.5332 88.7185 38.1227 88.8743 37.752 89.1081C37.3548 89.3419 37.0105 89.6406 36.6265 89.9003C35.7658 90.4977 34.839 91.0172 33.8592 91.4327C33.8062 91.4587 33.8194 91.5107 33.8592 91.5366C33.9121 91.5756 34.0048 91.5626 34.0578 91.5366C34.9184 91.16 35.7394 90.7055 36.5338 90.199C36.9178 89.9393 37.2886 89.6665 37.6726 89.3938C38.0565 89.1211 38.4538 88.9133 38.904 88.7834C39.3806 88.6406 39.8706 88.5887 40.3605 88.5757C39.4601 89.5627 38.904 90.8354 38.7848 92.16C38.7451 92.5496 38.7583 92.9522 38.798 93.3418C38.798 93.4457 39.0893 93.4327 39.0761 93.3418C38.9172 92.0042 39.235 90.6276 39.9632 89.4717C40.1619 89.1471 40.4002 88.8484 40.665 88.5757C41.8832 88.5757 43.1146 88.7705 44.3195 88.6016C44.8359 88.5367 45.3258 88.3938 45.7893 88.1731C46.1203 88.0172 46.4248 87.8095 46.7161 87.6017C48.9274 88.5107 51.1254 89.4198 53.191 90.6146C53.7736 90.9522 54.3562 91.3029 54.9123 91.6795C54.9652 91.7185 55.0447 91.7184 55.1109 91.7055C55.1506 91.7055 55.2168 91.6405 55.1639 91.6146L55.2036 91.5626Z" fill="#D49A89"/>
<path d="M45.5576 77.0597C45.2796 77.0078 45.0015 76.9948 44.7235 77.0467C44.6838 77.0467 44.5911 77.0727 44.6308 77.1376C44.6573 77.1896 44.75 77.1896 44.8029 77.1896C44.8294 77.1896 44.8691 77.1896 44.8956 77.1896C44.9088 77.1896 44.9353 77.1896 44.9486 77.1896C44.9486 77.1896 44.9618 77.1896 44.975 77.1896C45.028 77.1896 45.0942 77.1896 45.1472 77.1896C45.1604 77.1896 45.1737 77.1896 45.1869 77.1896H45.2134C45.2399 77.1896 45.2663 77.1896 45.2928 77.1896C45.359 77.1896 45.412 77.2026 45.4782 77.2156C45.5312 77.2156 45.6239 77.2156 45.6503 77.1636C45.6768 77.1117 45.5841 77.0857 45.5576 77.0727V77.0597Z" fill="#D49A89"/>
<path d="M44.6685 72.0721C44.5891 71.8643 44.4964 71.6695 44.3243 71.5266C44.2581 71.4747 44.1521 71.4747 44.0727 71.4877C43.98 71.4877 43.9006 71.5266 43.927 71.6046C44.0197 71.8643 44.1257 72.124 44.2581 72.3708C44.3243 72.4877 44.3905 72.6045 44.4699 72.7214C44.5229 72.8123 44.6023 72.9032 44.6818 72.9682C44.7215 73.0071 44.7877 73.0331 44.8407 73.0071C44.8936 72.9812 44.9069 72.8903 44.8936 72.8253C44.8539 72.5656 44.7612 72.3188 44.6685 72.0721Z" fill="#FFCEB8"/>
<path d="M30.1612 83.6697C30.1612 83.6697 30.0818 83.6047 30.0421 83.5787C29.6316 83.345 28.996 83.5138 28.8636 83.9943C28.8106 84.2151 28.8636 84.4618 29.0225 84.6307C29.38 85.0073 29.7243 84.8644 30.0421 84.5787C30.148 84.4878 30.2672 84.3839 30.3201 84.2541C30.3996 84.0593 30.3201 83.8255 30.1612 83.6697Z" fill="#FFCEB8"/>
<path d="M31.7093 86.7751C31.6033 86.6712 31.4577 86.5933 31.2988 86.5803C30.9678 86.5543 30.3454 86.7621 30.3719 87.1517C30.3719 87.2556 30.4116 87.3465 30.4646 87.4374C30.5043 87.5283 30.5573 87.6322 30.6367 87.6972C31.0869 88.1127 31.8814 87.5413 31.8152 86.9959C31.8152 86.905 31.7622 86.827 31.696 86.7621L31.7093 86.7751Z" fill="#FFCEB8"/>
<path d="M33.6972 90.1112C33.4323 90.0333 33.0748 90.1113 32.9159 90.345C32.757 90.5658 32.5584 91.0723 32.8762 91.2541C32.9292 91.293 32.9954 91.306 33.0616 91.319C33.4323 91.3969 33.6442 91.319 33.8693 90.9944C33.9752 90.8385 34.0414 90.6567 34.0149 90.4749C33.9884 90.2801 33.856 90.1632 33.6839 90.1112H33.6972Z" fill="#FFCEB8"/>
<path d="M32.8457 76.5646C32.6868 76.3568 32.369 76.0971 32.1969 76.0711C31.8791 76.0062 31.3495 76.3179 31.376 76.6685C31.4157 77.188 32.0512 77.214 32.4352 77.149C32.5544 77.1231 32.6603 77.0971 32.7662 77.0322C32.8722 76.9672 32.9384 76.8633 32.9251 76.7464C32.9251 76.6945 32.8854 76.6296 32.8325 76.5646H32.8457Z" fill="#FFCEB8"/>
<path d="M51.7084 50.638C51.6289 50.638 51.523 50.638 51.4701 50.7029C50.9139 51.4432 50.2651 52.1185 49.5369 52.6899C49.4707 52.7418 49.5501 52.8068 49.6031 52.8198C49.6825 52.8457 49.7885 52.8327 49.8547 52.7808C50.5962 52.1834 51.2582 51.5081 51.8276 50.7419C51.8805 50.6769 51.7349 50.638 51.6952 50.625L51.7084 50.638Z" fill="#4C6880"/>
</g>
<defs>
<clipPath id="clip0_1_13842">
<rect width="114" height="160" fill="white"/>
</clipPath>
</defs>
</svg>
