<svg  viewBox="0 0 114 160" fill="none" xmlns="http://www.w3.org/2000/svg">
<g clip-path="url(#clip0_1_13981)">
<path d="M89.5343 25.0435C89.2251 24.2102 88.8175 23.4193 88.3256 22.6708C87.5666 21.5268 86.639 20.5099 85.8519 19.3801C84.5869 17.5441 83.7858 15.4397 82.6052 13.5472C78.7963 7.48838 70.8834 4.39541 64.0106 6.24554C57.7561 7.94032 53.61 10.3977 46.9901 8.22278C43.4202 7.05056 40.0048 5.32754 36.2943 4.79086C26.0483 3.30793 20.6091 12.4174 11.8107 15.468C9.04188 16.4283 6.68065 18.6739 5.09245 21.1031C4.09455 22.6284 3.3637 24.4926 3.77129 26.2722C4.09456 27.6562 5.00812 28.8285 5.37355 30.2125C5.82331 31.8649 5.86547 33.6021 5.80925 35.2968C5.68276 38.8983 4.93785 42.542 5.73898 46.1152C6.13251 47.8806 6.91959 49.5471 8.02992 50.9735C10.5598 54.2501 14.5795 56.0579 18.6273 56.9053C20.9042 57.3713 23.2233 57.5832 25.5564 57.5126C29.6042 57.3855 33.6379 56.4392 37.6576 56.877C40.0048 57.1312 42.2958 57.7809 44.6289 58.0775C46.6528 58.3458 48.494 57.9927 50.5319 57.9645C54.8468 57.908 59.6395 59.052 63.5889 56.7075C64.8398 55.959 65.8939 54.8998 67.1589 54.1654C69.9839 52.513 73.5117 52.6824 76.5335 51.4396C82.4365 49.0246 85.6973 41.5534 88.6629 36.3279C90.5884 32.9383 90.9117 28.659 89.5343 25.0435Z" fill="#D3D0CE"/>
<path d="M41.5368 49.2512C40.5811 48.3473 39.7378 47.3445 38.9507 46.2994C38.6134 46.3983 38.262 46.483 37.9247 46.5678C34.6359 47.3304 31.7687 47.2881 29.3794 46.4124C28.1144 45.9605 26.8495 45.2119 25.4861 44.1527C23.3779 42.5144 22.1692 40.8479 21.8038 39.0684C21.4243 37.2606 21.9303 35.4246 22.4784 33.8569C23.0828 32.1339 23.7152 30.651 24.3758 29.3517C23.7996 26.8095 24.0947 23.8295 25.2332 21.8946C26.6808 19.4372 29.0983 17.347 32.0638 16.0335C34.5656 14.9178 37.4609 14.2964 40.8903 14.141C43.1953 14.028 45.0646 14.1693 46.7793 14.5788C46.8777 14.6071 46.9761 14.6212 47.0885 14.6495C48.2551 14.9178 50.026 15.3274 50.6725 16.2454C51.1082 16.8668 50.8552 17.7566 50.3633 18.2509C49.8854 18.7311 49.2249 18.957 48.5783 19.1547C48.4659 19.183 48.3535 19.2253 48.241 19.2536C45.6971 19.988 43.0688 20.4823 40.5108 20.9625C37.3625 21.5557 34.1159 22.1771 31.0378 23.2363C28.6204 24.0696 26.5684 26.1033 24.8115 29.4223C24.9521 30.0013 25.1348 30.538 25.3597 31.0323C25.964 32.3458 27.1446 33.3061 28.1706 34.1676L28.4798 34.4219C30.8973 36.4273 33.3991 38.4893 35.4511 40.9467C36.3084 41.9636 37.0955 43.0652 37.8545 44.1386C38.262 44.7035 38.6696 45.2826 39.0913 45.8475C42.5347 44.8589 45.6128 43.1782 48.0583 40.9467C51.0239 38.2351 53.0337 34.7043 53.6943 31.0182C53.7787 30.5662 53.8489 29.9731 53.7646 29.4364C52.4294 32.0774 50.785 34.21 48.8735 35.7636C46.5966 37.6278 44.0105 38.6023 41.1714 38.6729C38.6415 38.7435 34.0596 37.7126 32.2606 35.2693C31.4595 34.1818 31.2768 32.9531 31.7265 31.5972C32.4855 29.2952 35.6057 27.9393 37.2782 27.2049C42.0288 25.143 47.6648 25.1994 52.3591 27.3603C52.8089 27.5721 53.3289 27.8263 53.6803 28.2783C53.7224 28.3207 53.7505 28.363 53.7786 28.4195C53.9614 27.9676 54.116 27.4874 54.0879 27.0072C54.0316 25.8067 53.0197 24.8746 52.1623 24.2956C51.6704 23.9707 51.1504 23.6883 50.6163 23.4482L43.8981 24.5215C42.7596 24.7051 41.4947 24.7757 40.7638 23.9284L40.6092 23.7448L40.82 23.6177C43.7716 21.8664 47.5383 21.6828 50.6725 23.0245L55.6198 22.2336C56.5053 22.0923 57.6156 21.9088 58.5995 22.3042C59.6958 22.742 60.525 23.886 60.7218 25.2277C60.8764 26.2869 60.6937 27.4733 60.1455 28.8291C59.2038 31.1735 57.6016 33.1931 56.0696 35.1421C55.4652 35.9048 54.8468 36.6957 54.2706 37.4866C53.8208 38.108 53.4694 38.9836 53.9614 39.4073C54.4533 39.831 55.2825 39.3367 55.8307 38.7718C58.6838 35.8907 61.1996 32.6706 63.2938 29.1963C63.3641 29.0833 63.4344 28.9562 63.5046 28.8432C64.2917 27.5298 65.121 26.1598 66.3999 25.2701C67.8054 24.2956 69.9699 24.0696 71.1927 25.3972C71.4175 25.6514 71.6284 25.948 71.8111 26.2445C72.2327 26.8942 72.6403 27.5015 73.2868 27.4874V27.8828C72.4295 27.9111 71.9516 27.1767 71.4738 26.4705C71.2911 26.1881 71.0943 25.9056 70.8835 25.6655C69.8293 24.5074 67.8476 24.7334 66.6248 25.5949C65.4161 26.4423 64.615 27.7557 63.856 29.0409C63.7857 29.1539 63.7155 29.281 63.6452 29.394C61.5229 32.8966 58.993 36.1308 56.1118 39.0401C55.409 39.7604 54.3971 40.3112 53.6943 39.6898C53.0056 39.0825 53.3711 38.0233 53.9473 37.2182C54.5236 36.4132 55.142 35.6223 55.7463 34.8597C57.2643 32.9389 58.8384 30.9334 59.766 28.6455C60.2861 27.3603 60.4688 26.2446 60.3142 25.2559C60.1315 24.0555 59.4006 23.0245 58.4449 22.6432C57.5735 22.2901 56.5615 22.4596 55.6761 22.6008L51.319 23.307C51.6845 23.4906 52.0358 23.7024 52.3872 23.9284C53.3148 24.5498 54.4252 25.5808 54.4814 26.9507C54.5095 27.6286 54.2706 28.2783 54.0035 28.8432C54.2706 29.5776 54.1722 30.425 54.0597 31.0605C53.3711 34.8455 51.3331 38.447 48.2972 41.2151C45.8517 43.4607 42.7596 45.1554 39.3302 46.1582C40.0751 47.1468 40.8763 48.0931 41.7758 48.9405L41.4947 49.237L41.5368 49.2512ZM24.5445 29.9589C23.9542 31.1453 23.392 32.5011 22.8579 33.9982C22.3238 35.5093 21.8319 37.2747 22.1973 38.9978C22.5487 40.6784 23.7152 42.2602 25.7391 43.842C27.0603 44.873 28.2971 45.5933 29.5199 46.0452C31.8249 46.8785 34.6218 46.935 37.8263 46.1864C38.1215 46.1158 38.4026 46.0452 38.6837 45.9746C38.2902 45.452 37.9107 44.9154 37.5312 44.3928C36.7722 43.3336 35.9852 42.2461 35.1419 41.2292C33.118 38.8141 30.6302 36.7522 28.2128 34.7608L27.9036 34.5066C26.8354 33.631 25.6267 32.6282 24.9802 31.23C24.7975 30.8346 24.6429 30.4109 24.5164 29.9872L24.5445 29.9589ZM44.6711 26.0751C42.1974 26.0751 39.7378 26.5694 37.475 27.558C35.8587 28.2642 32.8509 29.5776 32.1341 31.7102C31.7265 32.9389 31.8952 34.0405 32.612 35.015C34.3267 37.3312 38.7399 38.3198 41.1855 38.2492C46.3014 38.108 50.7006 34.8032 53.5819 28.928C53.5819 28.8997 53.61 28.8715 53.624 28.8573C53.5678 28.7444 53.4976 28.6172 53.4132 28.5184C53.1181 28.1371 52.6543 27.9111 52.2467 27.7134C49.8854 26.6259 47.2853 26.0751 44.6851 26.0751H44.6711ZM42.3661 14.5082C41.9023 14.5082 41.4244 14.5082 40.9325 14.5506C37.5452 14.7059 34.7062 15.3274 32.2465 16.4149C29.3653 17.7001 27.0041 19.7197 25.5986 22.1065C24.6007 23.8154 24.2915 26.4564 24.6991 28.8009C24.9802 28.3065 25.2613 27.8405 25.5564 27.4027C27.1025 25.0865 28.9155 23.5612 30.9394 22.8691C34.0456 21.7958 37.3063 21.1885 40.4687 20.5812C43.0126 20.101 45.6409 19.6067 48.1567 18.8723C48.2691 18.844 48.3816 18.8017 48.494 18.7734C49.1124 18.5898 49.6887 18.3921 50.1103 17.9825C50.4898 17.6012 50.6866 16.9374 50.3774 16.4855C49.8152 15.6805 48.0724 15.285 47.0323 15.0449C46.9199 15.0167 46.8215 15.0025 46.7231 14.9743C45.416 14.6636 44.0105 14.5082 42.3801 14.5082H42.3661ZM41.2979 23.8295C41.9304 24.3379 42.9564 24.2673 43.884 24.112L49.9276 23.1375C47.1166 22.1488 43.9121 22.3748 41.2979 23.8295Z" fill="#333333"/>
<path d="M90.7844 41.8493C90.5314 41.1996 89.8849 40.903 89.2243 40.9454C88.8027 40.9736 88.0718 41.2702 87.7345 41.6798C87.7064 41.6939 87.6783 41.708 87.6642 41.7363C86.6101 42.9226 85.4717 44.2078 84.783 45.6625C84.53 46.1992 84.1927 47.0042 84.4176 47.5974C84.6424 48.2047 85.4576 48.247 86.0198 48.247C87.5237 48.2188 88.5497 47.0325 89.3649 45.8885C89.8146 45.2529 90.2082 44.575 90.5174 43.8689C90.7844 43.2475 91.0515 42.5272 90.7844 41.8493Z" fill="#4C6880"/>
<path d="M93.4538 42.3691C93.3555 41.9313 93.2008 41.5076 93.0462 41.098C92.5403 39.8128 91.8797 38.5982 91.3596 37.3272C90.6569 35.59 90.0385 33.8811 89.2093 32.2004C88.3519 30.4492 87.4805 28.6979 86.7356 26.9043C86.2015 25.6332 85.6674 23.1193 83.9106 23.0345C81.9991 22.9639 80.0736 22.9639 78.1481 22.9357C77.5859 22.9357 77.0096 22.9215 76.5036 23.204C75.7165 23.6559 74.9576 24.1644 74.2267 24.7152C73.7208 25.0965 73.2569 25.5626 72.8353 26.071C72.6245 26.3252 72.4277 26.5794 72.245 26.8337C72.1466 26.9749 72.0904 27.1302 72.0763 27.2573C72.0482 27.4692 72.1185 27.6528 72.2872 27.7799C72.0061 28.5284 72.9477 29.2205 73.5099 29.63C74.2689 30.1808 75.07 30.6751 75.8852 31.1271C76.1101 31.5649 76.3631 32.0027 76.588 32.4406C76.602 32.4688 76.6161 32.497 76.6301 32.5394C76.8269 32.9349 77.0237 33.5422 77.4312 33.7116C77.6561 33.8105 77.8529 33.7822 78.0356 33.7116C78.1621 33.6693 78.2464 33.5845 78.3589 33.528C78.401 33.5139 78.4432 33.5422 78.4713 33.5845C78.5135 33.641 78.5697 33.7116 78.6119 33.7681C78.6821 33.867 78.7665 33.98 78.8508 34.0788C78.9773 34.2483 79.1319 34.4178 79.3287 34.4319C79.5957 34.446 79.8627 34.333 80.0876 34.1636C80.2141 34.0647 80.3406 33.9517 80.4249 33.8387C81.1839 34.6296 81.985 35.4064 83.0813 35.6324C83.4327 35.703 83.9246 35.6606 84.2479 35.7877C84.5149 35.9007 84.6836 36.2679 84.8241 36.508C85.2317 37.1859 85.569 37.9062 85.808 38.6547C86.581 41.0698 86.4123 43.6684 86.8199 46.1541C86.8761 46.5072 86.9605 46.8885 87.2135 47.1569C87.354 47.2981 87.5508 47.397 87.7475 47.4393C88.38 47.5947 89.0265 47.3122 89.6028 47.0156C90.2774 46.6625 90.9099 46.2671 91.5283 45.8434C92.0062 45.5044 92.5122 45.0808 92.8776 44.5723C93.243 44.078 93.496 43.499 93.496 42.8776C93.496 42.7081 93.4679 42.5245 93.4257 42.355L93.4538 42.3691ZM76.1101 27.0314C76.0539 27.4127 75.9977 27.8081 75.9274 28.1895C75.7447 27.9635 75.576 27.794 75.3511 27.6246C75.2808 27.5822 74.6343 27.2573 74.6343 27.2432C74.6765 27.215 74.7187 27.1867 74.7608 27.1585C75.2527 26.8337 75.6603 26.4665 76.082 26.0569C76.1382 26.0004 76.2085 25.9439 76.2787 25.9439C76.2225 26.3111 76.1663 26.6642 76.1101 27.0314Z" fill="#EDAF8C"/>
<path d="M79.445 33.1862C79.3326 33.0732 79.2061 32.9602 79.0515 32.9178C78.8969 32.8613 78.7142 32.8754 78.5877 32.9743C78.3487 33.172 78.4471 33.4827 78.6158 33.7793C78.6861 33.8782 78.7704 33.9912 78.8547 34.09C78.9812 34.2595 79.1358 34.429 79.3326 34.4431C79.5996 34.4572 79.8667 34.3442 80.0916 34.1748C80.0213 33.8076 79.5996 33.3415 79.431 33.1862H79.445Z" fill="#FFCEB8"/>
<path d="M73.1322 26.0429C73.0339 26.0429 72.9355 26.0429 72.8371 26.0711C72.6263 26.3253 72.4295 26.5796 72.2468 26.8338C72.1484 26.975 72.0922 27.1304 72.0781 27.2575C72.0781 27.2575 72.1062 27.2716 72.1203 27.2716C72.1484 27.2716 72.1765 27.2716 72.2046 27.2716C72.3592 27.2292 72.5138 27.2151 72.6684 27.2434C72.7809 27.2716 72.8933 27.314 73.0198 27.2998C73.0901 27.2998 73.1603 27.2434 73.2166 27.201C73.2728 27.1586 73.315 27.088 73.3712 27.0315C73.4555 26.9327 73.5398 26.8197 73.582 26.6926C73.7366 26.3112 73.5258 26.0146 73.1322 26.0429Z" fill="#FFCEB8"/>
<path d="M79.9436 33.0741C80.028 33.2012 80.1123 33.3283 80.1966 33.4413C80.295 33.5825 80.4215 33.7379 80.5902 33.7379C80.6745 33.7379 80.7729 33.6955 80.8431 33.639C80.9556 33.5402 81.054 33.3283 80.9977 33.1871C80.9415 33.0317 80.7448 32.8764 80.6323 32.7634C80.5199 32.6504 80.3934 32.5374 80.2388 32.495C80.1123 32.4527 79.9577 32.4527 79.8312 32.5092C79.6766 32.5939 79.6766 32.6787 79.775 32.834C79.8312 32.9046 79.8874 32.9894 79.9296 33.06L79.9436 33.0741Z" fill="#FFCEB8"/>
<path d="M77.4121 32.7947C77.2996 32.6817 77.1731 32.5687 77.0185 32.5122C76.892 32.4699 76.7374 32.4699 76.625 32.5122C76.8218 32.9077 77.0185 33.515 77.4261 33.6845C77.651 33.7833 77.8478 33.7551 78.0305 33.6845C77.9181 33.3314 77.5526 32.9218 77.398 32.7665L77.4121 32.7947Z" fill="#FFCEB8"/>
<path d="M82.7444 28.9113C82.7444 28.9113 82.5897 28.869 82.5335 28.8831C82.2243 28.982 81.887 28.9537 81.5637 28.9537H80.5237C80.5237 28.9537 80.4394 28.9537 80.3972 28.9819C80.355 28.9819 80.341 29.0102 80.341 29.0526C80.4253 29.4198 80.4112 29.8152 80.3269 30.1824C80.2988 30.2672 80.2707 30.3519 80.2426 30.4508C80.2145 30.5355 80.1583 30.6202 80.1301 30.7191C80.088 30.8745 80.2285 30.9733 80.3269 31.0722C80.7626 31.5524 81.0578 32.2585 80.9875 32.9223C80.9594 33.2189 80.8469 33.5296 80.5799 33.6708C80.1301 33.1342 79.6804 32.5692 79.2588 32.0043C79.062 31.736 78.8512 31.4535 78.6544 31.1852C78.5701 31.058 78.4857 30.9168 78.4436 30.7473C78.4014 30.5779 78.4014 30.4084 78.4154 30.253C78.4717 29.5469 78.5982 28.8407 78.6825 28.1346C78.7247 27.8239 78.7247 27.4708 78.9776 27.2589C79.2166 27.0471 79.5258 26.8917 79.8069 26.7364C80.4675 26.3692 81.1702 26.0867 81.8729 25.7901C81.9292 25.7619 81.9151 25.7054 81.8729 25.6771C81.8167 25.6348 81.7184 25.6489 81.6621 25.6771C81.0016 25.9455 80.355 26.2279 79.7226 26.5528C79.4274 26.7081 79.1463 26.8635 78.8793 27.0471C78.7668 27.1318 78.6544 27.2166 78.5841 27.3295C78.4998 27.4566 78.4576 27.6261 78.4295 27.7815C78.3171 28.5159 78.2468 29.2503 78.1484 29.9847C78.1063 30.3237 78.0641 30.6767 78.2187 30.9874C78.3592 31.2981 78.6122 31.5806 78.823 31.8631C79.3009 32.5127 79.8069 33.1483 80.3129 33.7556C80.341 33.7838 80.3972 33.7979 80.4675 33.7838C80.4675 33.7838 80.4815 33.8121 80.4956 33.8121C80.5518 33.8544 80.6502 33.8403 80.7064 33.8121C81.2967 33.5578 81.3389 32.7952 81.2264 32.2444C81.1561 31.9054 81.0156 31.5665 80.8188 31.284C80.7204 31.1428 80.608 31.0157 80.4956 30.8886C80.3972 30.7897 80.4112 30.7332 80.4534 30.6061C80.4956 30.5073 80.5377 30.4225 80.5658 30.3237C80.6923 29.9282 80.7204 29.5045 80.6361 29.0949C80.9594 29.0949 81.2967 29.0949 81.62 29.0949C81.9713 29.0949 82.3227 29.0949 82.66 28.9961C82.7162 28.982 82.7584 28.9396 82.7162 28.8972L82.7444 28.9113Z" fill="#E26E61"/>
<path d="M85.2181 34.786C84.5295 34.4753 84.1359 33.755 83.8127 33.1053C83.4613 32.3709 83.2083 31.58 83.0677 30.775C82.9975 30.3231 82.9553 29.857 82.9553 29.4051C82.9553 29.2921 82.6602 29.2921 82.6602 29.4051C82.6602 30.2524 82.7866 31.0857 83.0396 31.8907C83.2786 32.6675 83.6018 33.4443 84.0797 34.1081C84.3186 34.447 84.6278 34.7436 85.0073 34.9131C85.0635 34.9413 85.1619 34.9413 85.2181 34.9131C85.2744 34.8848 85.2744 34.8283 85.2181 34.8001V34.786Z" fill="#E26E61"/>
<path d="M80.6799 24.62C80.6799 24.62 80.5253 24.5917 80.4691 24.62C79.7663 24.9024 79.0636 25.2273 78.3889 25.5804C77.8267 25.8769 77.1381 26.1876 76.9132 26.8514C76.8148 27.1763 76.8007 27.5152 76.7867 27.8542C76.7726 28.2355 76.7586 28.6309 76.7445 29.0123C76.7445 29.4077 76.7305 29.8173 76.7445 30.2128C76.7445 30.58 76.8007 30.9048 76.9694 31.2437C77.1802 31.6816 77.4192 32.0911 77.6581 32.5148C77.883 32.8961 78.1078 33.334 78.4452 33.6447C78.4873 33.6729 78.5295 33.7153 78.5857 33.7012C78.6138 33.6729 78.6138 33.6306 78.5998 33.5882C78.5998 33.5458 78.5717 33.5176 78.5576 33.4752C78.4733 33.334 78.403 33.1927 78.3187 33.0515C78.2062 32.882 78.1078 32.7125 78.0095 32.5431C77.8127 32.2041 77.6159 31.8651 77.4332 31.5262C77.2646 31.2014 77.0959 30.8906 77.0678 30.5093C77.0397 30.128 77.0678 29.7467 77.0678 29.3795C77.0678 28.9981 77.0818 28.6027 77.0959 28.2214C77.0959 27.8683 77.0959 27.5152 77.1662 27.1763C77.2224 26.8373 77.3629 26.5549 77.6159 26.3289C77.8689 26.117 78.1641 25.9617 78.4592 25.8063C79.1901 25.4109 79.935 25.0578 80.708 24.7471C80.7642 24.7188 80.7502 24.6623 80.708 24.6341L80.6799 24.62Z" fill="#E26E61"/>
<path d="M79.451 24.1229C78.8888 24.4195 78.3407 24.7302 77.7926 25.055C77.5677 25.1963 77.3287 25.3375 77.1039 25.4787C76.893 25.6058 76.6541 25.7471 76.5276 25.9589C76.3871 26.1708 76.373 26.4532 76.3308 26.7074C76.2746 27.004 76.2325 27.3006 76.1903 27.5831C76.1481 27.8373 76.12 28.0774 76.0919 28.3316C76.0779 28.4587 76.0638 28.5999 76.0497 28.7271C76.0216 28.9248 76.0076 29.1084 75.9935 29.3061C75.9654 29.5886 75.9373 29.871 75.9233 30.1394C75.9092 30.3795 75.867 30.6337 76.0076 30.8455C76.0638 30.9303 75.7827 30.9726 75.7124 30.8879C75.5438 30.6619 75.6 30.3512 75.614 30.097C75.6422 29.758 75.6703 29.4191 75.6984 29.0801C75.7124 28.9389 75.7265 28.8118 75.7405 28.6706C75.7546 28.5434 75.7687 28.4022 75.7827 28.2751C75.8249 27.9503 75.867 27.6113 75.9233 27.2865C75.9654 26.9899 76.0216 26.6933 76.0779 26.4109C76.12 26.1708 76.1903 25.9448 76.359 25.7612C76.5276 25.5776 76.7666 25.4505 76.9774 25.3093C77.2163 25.1539 77.4552 25.0127 77.7082 24.8573C78.2142 24.5607 78.7202 24.2641 79.2402 23.9958C79.2964 23.9675 79.3948 23.9675 79.451 23.9958C79.5073 24.024 79.5073 24.0805 79.451 24.1088V24.1229Z" fill="#E26E61"/>
<path d="M74.5926 27.2148C74.5926 27.2148 74.4521 27.2148 74.3818 27.2431C73.8196 27.6244 73.1309 27.8786 72.4422 27.808C72.386 27.808 72.2876 27.808 72.2595 27.8645C72.2314 27.921 72.3157 27.9492 72.3579 27.9634C73.1731 28.034 73.9602 27.7657 74.6489 27.3137C74.7051 27.2713 74.6348 27.2148 74.5926 27.2148Z" fill="#E26E61"/>
<path d="M19.1051 139.087C21.4944 139.256 23.8837 138.79 26.2028 138.197C27.2007 137.943 26.6807 146.755 26.6666 147.857C26.6104 152.009 26.5682 156.161 26.512 160.3H77.9248C78.0373 154.184 77.0394 148.125 77.1237 142.052C77.208 136.234 77.2924 130.457 76.9269 124.61C76.6599 120.246 76.3788 115.896 76.1539 111.532C76.0415 109.357 75.9431 107.168 75.8588 104.993C75.8307 104.174 75.142 99.4005 75.6901 98.9486C78.5292 96.6182 81.4104 94.3444 84.3198 92.1271C86.2172 90.6865 88.1709 89.3166 90.0261 87.8195C91.8532 86.3507 93.4414 84.6983 94.8891 82.8623C96.3227 81.0404 97.7703 79.162 98.9931 77.1707C100.16 75.2782 101.003 73.2021 101.495 71.0412C102.001 68.838 102.127 66.5501 101.874 64.3045C101.593 61.8612 100.961 59.4602 100.413 57.0734C99.7802 54.2912 99.1337 51.5089 98.5012 48.7267C98.2623 47.6533 98.1498 46.2269 97.4049 45.3653C96.8849 44.7722 96.0978 44.5321 95.3248 44.5745C95.2545 44.5745 94.355 42.0747 94.2426 41.8346C94.0317 41.3826 93.8209 40.9307 93.582 40.4787C93.4274 40.1821 93.3149 39.6455 92.8933 39.9421C92.7528 40.0268 92.6684 40.168 92.57 40.3093C91.5581 41.7922 90.4477 43.2186 89.2671 44.5745C88.7049 45.2241 88.1146 45.8738 87.4119 46.3681C86.7091 46.8765 85.8799 47.2296 85.0226 47.2578C84.868 47.2578 84.6993 47.2579 84.5447 47.3143C84.1933 47.4273 84.2636 47.6815 84.3479 47.964C84.629 48.9526 85.2053 49.8 85.5566 50.7604C85.7956 51.3959 85.1209 51.7066 84.7836 52.1021C84.3339 52.6105 84.1371 53.3732 84.0949 54.037C83.9965 55.7176 84.8117 57.4406 85.1069 59.093C85.4442 61.0279 85.6129 62.991 85.5848 64.94C85.5707 65.8722 85.5145 67.0867 84.8961 67.8494C84.2636 68.6403 83.1111 68.6262 82.1975 68.9086C78.1778 70.1938 73.9473 70.6316 69.8152 71.3943C67.3837 71.8321 64.91 72.3547 62.619 73.2727C60.3843 74.1766 58.2761 75.3911 55.9008 76.0267C53.7364 76.6057 51.4876 76.7611 49.2528 76.7752C44.4039 76.8035 39.5128 76.1962 34.7482 77.2695C34.706 77.2272 34.6498 77.1989 34.5936 77.1848C33.7362 76.8882 31.7123 78.5689 31.0096 78.9784C29.5198 79.84 28.0159 80.6591 26.4698 81.4217C24.5584 82.368 22.6047 82.9047 20.9182 84.2464C18.2196 86.379 16.5892 89.3589 15.7319 92.6779C14.9308 95.7991 14.214 98.9486 13.5112 102.084C12.5836 106.264 11.7263 110.459 10.9532 114.668C10.5738 116.744 10.2083 118.834 9.87101 120.924C9.26665 124.582 8.19848 128.24 9.63208 131.856C11.1219 135.626 15.0573 138.832 19.1332 139.129L19.1051 139.087Z" fill="#6A8EA8"/>
<path d="M61.396 76.2089C61.2977 76.7879 60.9322 77.2822 60.5528 77.7342C59.2457 79.2736 57.545 80.4741 55.6617 81.1943C54.5654 81.618 53.4831 82.1406 52.3447 82.4372C51.0235 82.7903 49.6602 82.9032 48.2969 83.0021C46.4838 83.1292 45.0221 83.1998 43.2652 82.6632C41.7192 82.2677 40.1872 81.9005 38.6131 81.6604C37.0389 81.4203 35.6475 81.2367 34.1436 80.7C33.0192 80.2905 31.7683 79.7962 31.2483 78.7087C31.0656 78.3132 30.9813 77.8754 30.9672 77.4517C30.9391 76.6043 31.164 75.7569 31.5856 75.0367C32.1478 74.0763 33.0333 73.3701 33.6938 72.4662C34.242 71.7036 34.6215 70.828 35.2118 70.0935C35.3945 69.8817 35.5772 69.6981 35.788 69.5427C36.294 69.1614 36.8843 68.9496 37.5449 68.7519C38.2757 68.54 39.0207 68.6106 39.7515 68.427C40.6229 68.2152 41.5084 68.0881 42.4079 67.9751C44.2772 67.7209 46.1605 67.5373 48.058 67.4384C49.7727 67.3537 51.5014 67.3395 53.1739 67.7067C53.202 67.7067 53.2442 67.7209 53.2723 67.735C54.9167 68.1163 56.4909 68.9072 57.5872 70.1924C57.7277 70.3619 57.8542 70.5314 57.9807 70.715C58.3743 71.2658 58.7256 71.8448 59.1473 72.3674C59.6392 72.9605 60.2295 73.469 60.7074 74.0763C61.1712 74.6836 61.5225 75.4604 61.396 76.223V76.2089Z" fill="#6A8EA8"/>
<path d="M56.9962 74.1631C55.8015 75.7591 53.9041 76.7336 52.1192 77.4821C51.1915 77.8775 50.2217 78.1741 49.2098 78.2447C48.1416 78.3295 47.0594 78.2165 45.9772 78.1317C43.9111 77.9764 41.845 77.7504 39.8352 77.2279C38.1205 76.79 35.9841 76.2675 35.4079 74.3467C34.8738 72.5814 35.5906 70.7736 36.9539 69.6155C38.5 68.2879 40.4958 68.2314 42.4213 67.9631C44.2906 67.7089 46.1739 67.5253 48.0714 67.4264C49.2941 67.3558 50.531 67.3417 51.7537 67.4688C52.8922 67.5817 53.7917 68.1043 54.8458 68.5139C55.3096 68.6975 55.7875 68.8811 56.1951 69.1636C57.8114 70.251 58.1628 72.6096 57.0103 74.149L56.9962 74.1631Z" fill="#4C6880"/>
<path d="M34.9745 134.722C33.808 134.948 32.4868 134.807 31.4608 134.157C31.4327 134.143 31.4046 134.129 31.3905 134.115C30.4348 133.479 29.7321 132.519 29.2542 131.474C28.8326 130.57 28.5093 129.581 28.3266 128.593C28.2704 128.254 28.2141 127.915 28.2001 127.59C28.172 127.307 28.8326 127.251 29.0996 127.42C29.6337 127.138 30.2802 127.053 30.8705 126.983C32.1917 126.813 33.5128 126.672 34.834 126.799C35.86 126.884 36.9141 127.152 37.8136 127.646C38.4039 127.971 39.0645 128.451 39.3316 129.087C39.43 129.129 39.5002 129.2 39.5002 129.285C39.8375 131.883 37.3639 134.27 34.9745 134.736V134.722Z" fill="#4C6880"/>
<path d="M40.3788 68.2416C40.7301 68.1993 41.0815 68.1428 41.4329 68.0863C43.6817 67.6908 45.9304 66.9847 47.7997 65.6712C49.0366 64.7956 50.0766 63.6799 50.9902 62.4935C51.9038 61.3072 52.719 60.0079 53.1406 58.5673C53.4358 57.5504 53.5341 56.4912 53.5482 55.432C53.5622 53.7089 53.2811 51.8164 51.9881 50.6866C51.4962 50.2629 50.9199 49.9522 50.4139 49.5567C49.908 49.1613 49.7674 48.6387 49.5004 48.0738C49.0647 47.184 48.2073 46.5061 47.2375 46.3084C46.7175 46.1954 46.1834 46.2237 45.6493 46.1389C45.1434 46.0542 44.6655 45.8706 44.1595 45.8282C42.6838 45.7152 41.4188 46.8451 39.9712 47.184C39.3668 47.3253 38.7203 47.3253 38.1019 47.4524C36.865 47.6925 35.7266 48.441 35.0098 49.4861C34.799 49.7968 34.6162 50.1217 34.3492 50.3759C34.0962 50.6018 33.787 50.7431 33.534 50.9408C32.3815 51.8305 32.3675 53.5395 31.8474 54.8953C31.5804 55.6014 31.1447 56.237 30.976 56.9714C30.7793 57.7905 30.9198 58.652 31.0604 59.4853C31.2712 60.6858 31.4961 61.9145 32.0161 63.0161C32.2972 63.5951 32.7048 64.0047 33.0562 64.5273C33.3232 64.9368 33.534 65.4876 33.7589 65.9255C33.9276 66.2503 34.0822 66.5893 34.307 66.8858C34.8271 67.6344 35.6563 67.6485 36.4996 67.8603C37.2023 68.0298 37.9051 68.2134 38.6359 68.2699C39.2262 68.3264 39.8166 68.2981 40.4069 68.2275L40.3788 68.2416Z" fill="#824A2B"/>
<path d="M53.1416 77.1394C52.7481 77.436 52.3546 77.7325 51.9891 78.0574C51.6518 78.3398 51.3286 78.6364 51.0053 78.933L49.9933 79.9075C49.2484 80.5995 48.5176 81.2916 47.7867 81.9977C46.2547 81.0656 44.7087 80.1759 43.1346 79.3426C42.6426 79.0742 42.1367 78.82 41.6307 78.5658C40.5625 78.015 39.4943 77.4925 38.4121 76.984C38.1732 76.8852 37.9342 76.7863 37.6953 76.6733C37.9483 74.7243 38.637 72.9024 38.5667 70.897C38.5386 70.2473 38.4543 69.5835 38.5667 68.948C38.6792 68.3124 39.0867 67.6769 39.6911 67.465C40.2392 67.2673 40.7312 66.999 41.2653 66.8012C41.968 66.5329 42.7129 66.4058 43.4297 66.2504C44.8352 65.9538 46.1985 65.516 47.6181 65.3889C48.8549 65.2618 51.4551 65.3042 52.0313 66.66C52.0735 66.773 52.1297 66.9001 52.1719 67.0272C52.1719 67.3238 52.1719 67.6062 52.1859 67.9028C52.2421 69.9366 52.4951 71.9562 52.7622 73.9758C52.9027 75.035 53.0292 76.0801 53.1276 77.1394H53.1416Z" fill="#EDAF8C"/>
<path d="M52.7765 73.9758L52.7484 74.004C51.1461 75.5293 48.2227 75.9671 46.1144 75.6706C45.0041 75.5152 43.964 75.1198 43.1208 74.4419C41.9401 73.4956 40.886 72.0833 41.3639 70.4591C41.5888 69.7247 42.0947 69.1174 42.6991 68.6372C44.0343 67.578 45.735 67.1684 47.4075 67.1967C48.2648 67.2108 49.1222 67.3379 49.9374 67.5639C50.7104 67.7757 51.4553 67.6769 52.2002 67.8746C52.2564 69.9083 52.5235 71.9279 52.7765 73.9617V73.9758Z" fill="#ED7D6B"/>
<path d="M51.4389 52.4651C49.7383 50.502 47.2084 49.2451 44.6083 49.231C41.9378 49.2027 39.3658 50.4173 37.3841 52.1968C36.1472 53.3125 35.0931 54.6684 34.4325 56.2219C34.1655 56.8292 33.8984 57.5636 33.8984 58.2415C33.8984 58.8912 34.1795 59.5691 34.3763 60.1905C34.7698 61.4333 35.2477 62.6621 35.7537 63.8625C36.344 65.2607 36.9484 66.7578 37.7916 68.0289C38.8317 69.5824 39.928 70.9382 41.4459 72.0398C44.0742 73.9464 48.136 75.5424 51.1438 73.5934C51.5514 73.3392 51.9449 73.0567 52.2963 72.7319C53.6034 71.5314 54.1797 69.7236 54.4467 67.9582C54.7981 65.5714 54.517 63.2976 54.0391 60.9673C53.7861 59.7527 53.3083 58.6511 52.985 57.4789C52.5493 55.8688 52.5633 53.8068 51.4249 52.4934L51.4389 52.4651Z" fill="#EDAF8C"/>
<path d="M50.0337 50.0538C49.7808 49.842 49.5278 49.6301 49.2888 49.39C48.6704 48.7827 48.1644 48.1472 47.3352 47.8788C46.3795 47.5681 45.3535 47.4269 44.3696 47.3845C42.8376 47.328 41.2213 47.9353 39.7877 48.4438C39.2396 48.6415 38.6352 48.7968 38.1433 49.1076C37.567 49.4748 37.033 49.9973 36.527 50.4775C34.7561 52.2005 33.7019 54.6156 33.4911 57.0871C33.3646 58.5418 33.4771 60.053 33.8566 61.4653C34.0252 62.0585 34.2501 62.6517 34.5593 63.1883C34.8404 63.6544 35.3604 63.9792 35.8805 64.1205C36.4567 64.2758 36.794 63.7815 36.8784 63.2307C36.9486 62.7929 36.8502 62.3551 36.7519 61.9314C36.541 60.9992 36.3302 60.0671 36.1194 59.135C35.8102 57.7792 35.6275 56.5928 36.9346 55.7455C37.2719 55.5195 37.6795 55.3359 38.0871 55.3924C38.312 55.4206 38.5228 55.5336 38.7336 55.6042C39.1834 55.7737 39.6612 55.8161 40.1391 55.8726C40.6591 55.929 41.2073 55.9714 41.6992 55.7737C42.5144 55.4347 42.936 54.5167 43.709 54.1072C44.4258 53.74 45.2832 53.8671 46.0562 53.6552C46.9557 53.4151 47.7006 52.6807 47.9677 51.7768C48.0379 51.5367 48.0801 51.2543 48.2628 51.0707C48.4596 50.8588 48.7969 50.8306 49.078 50.9012C49.3591 50.9718 49.598 51.1554 49.837 51.3249C50.3711 51.7062 50.6522 52.1017 51.0457 52.6101C51.2144 52.8361 51.3971 53.0762 51.6079 53.2739C51.6501 53.3021 52.1279 53.627 52.1279 53.6128C52.7744 53.7964 52.2544 52.6948 52.1701 52.483C51.9171 51.9039 51.5376 51.4238 51.0879 50.9859C50.7505 50.6611 50.3711 50.3645 50.0056 50.0538H50.0337Z" fill="#824A2B"/>
<path d="M36.6082 62.8602C34.2048 62.0552 33.5723 64.5409 34.1907 65.8543C34.5702 66.6735 35.3011 67.3373 36.0319 67.9728C36.6644 68.5095 37.7326 69.2156 38.7586 68.5095C39.1521 68.2411 39.2646 67.8174 39.3067 67.4502C39.4613 66.0238 38.8148 64.4561 37.6764 63.4675C37.3812 63.2133 37.0158 63.0015 36.6082 62.8602Z" fill="#EDAF8C"/>
<path d="M41.3594 62.3399C41.2892 61.9303 41.3032 61.3936 41.767 61.1394C42.0762 60.9699 42.4838 60.9982 42.7227 61.21C42.8492 61.323 42.9195 61.4642 42.9898 61.6055C43.1585 61.9727 43.2849 62.4387 43.032 62.8059C42.8774 63.0178 42.5963 63.1872 42.3152 63.1449C41.753 63.0743 41.4578 62.8483 41.3735 62.3257L41.3594 62.3399Z" fill="#333333"/>
<path d="M48.1073 57.7654C47.9245 57.8218 47.7278 57.6524 47.6997 57.4546C47.6716 57.2569 47.784 57.0733 47.9105 56.9321C48.1775 56.6496 48.6554 56.5649 49.0208 56.5225C49.4846 56.466 49.9484 56.4519 50.4123 56.466C50.609 56.466 50.8199 56.4802 51.0166 56.5084C51.4664 56.5508 51.9302 56.6355 52.2956 56.9038C52.6751 57.1722 52.4362 57.4829 52.0286 57.4405C50.8901 57.2993 49.7236 57.4123 48.6273 57.7654C48.4586 57.8218 48.2759 57.8783 48.1073 57.8642C47.3342 57.8219 47.8402 56.9603 48.2197 56.7485C48.2478 56.7485 48.2619 56.7202 48.29 56.7061L48.1073 57.7512V57.7654Z" fill="#824A2B"/>
<path d="M40.303 59.5721C39.6144 60.1229 38.8132 60.8008 38.7148 61.747C38.7148 61.7894 38.7148 61.8318 38.7148 61.8741C38.7711 61.973 38.8976 61.9448 38.9959 61.8883C39.6565 61.5634 40.1625 60.9985 40.7809 60.5889C41.4555 60.137 42.2567 59.8828 42.9735 59.4732C43.1 59.4026 43.2265 59.3178 43.3108 59.1907C43.3951 59.0778 43.4232 58.9083 43.353 58.7812C43.2546 58.6258 43.0578 58.5835 42.8751 58.5835C41.8912 58.5552 41.0761 58.9507 40.3312 59.558C40.3312 59.558 40.3312 59.5579 40.3171 59.5721H40.303Z" fill="#824A2B"/>
<path d="M51.8698 59.332C51.6871 58.9507 51.3639 58.527 50.8438 58.5976C50.5065 58.64 50.1833 58.8942 50.113 59.219C50.0849 59.3744 50.0989 59.5439 50.127 59.6992C50.2114 60.0805 50.366 60.5466 50.8017 60.702C51.0547 60.7867 51.3779 60.7443 51.5747 60.5607C51.9963 60.1794 52.1088 59.8263 51.8698 59.332Z" fill="#333333"/>
<path d="M51.5471 66.9876C51.5471 66.9876 51.4066 66.9452 51.2941 66.9876C51.252 66.9876 45.6441 68.7106 45.6441 68.7106C45.1381 68.866 45.5176 69.1767 45.8549 69.3885C46.0938 69.5297 46.3328 69.6569 46.5858 69.7557C47.0917 69.9535 47.6118 70.0382 48.1318 70.0099C49.1719 69.9676 50.1698 69.5015 50.8584 68.6824C51.1255 68.3716 51.3504 68.0045 51.519 67.5949C51.6034 67.383 51.6877 67.0723 51.5331 66.9735L51.5471 66.9876Z" fill="white"/>
<path d="M49.555 64.3009C49.4144 64.0608 49.2317 63.863 49.0771 63.6512C48.8944 63.4111 48.7117 63.1851 48.529 62.945C48.1776 62.4931 47.8262 62.027 47.517 61.5327C47.1516 60.9537 46.8705 60.3464 46.5894 59.725C46.5191 59.5696 46.1256 59.7532 46.1959 59.9086C46.4207 60.4311 46.6597 60.9396 46.9408 61.4339C47.2219 61.914 47.5311 62.366 47.8684 62.8038C48.2057 63.2557 48.5571 63.6794 48.8944 64.1314C49.035 64.3008 49.1755 64.4845 49.2458 64.6963C49.3301 64.9364 49.2458 65.12 49.1193 65.2895C48.782 65.7132 48.3463 66.0804 47.8684 66.3346C47.8122 66.3628 47.6857 66.4476 47.7138 66.5323C47.756 66.6171 47.9106 66.5747 47.9668 66.5464C48.4446 66.2922 48.8804 65.9533 49.2458 65.5437C49.4004 65.3742 49.5971 65.1765 49.6674 64.9364C49.7236 64.7104 49.6674 64.4844 49.5409 64.2867L49.555 64.3009Z" fill="#ED7D6B"/>
<path d="M47.0227 49.63C46.7275 50.2373 46.7135 50.9152 46.4745 51.5507C46.3481 51.8614 46.1653 52.1439 45.8983 52.3557C45.6172 52.5817 45.2939 52.7229 44.9707 52.8783C44.9004 52.9207 44.9004 52.9913 44.9707 53.0195C45.055 53.0619 45.1674 53.0619 45.2518 53.0195C45.8983 52.723 46.5308 52.384 46.8259 51.6778C47.093 51.0423 47.093 50.322 47.4022 49.7006C47.4724 49.5594 47.0789 49.517 47.0227 49.6441V49.63Z" fill="#A6673E"/>
<path d="M45.273 50.6747C45.273 50.6747 45.1746 50.6465 45.1325 50.6465C45.0622 50.6465 44.9498 50.6606 44.9357 50.7453C44.7811 51.3526 44.3876 51.8893 43.8535 52.2C43.7832 52.2424 43.7832 52.313 43.8535 52.3413C43.9378 52.3836 44.0643 52.3836 44.1346 52.3413C44.7389 51.9882 45.1746 51.4232 45.3433 50.7453C45.3433 50.7171 45.3011 50.6888 45.2871 50.6747H45.273Z" fill="#A6673E"/>
<path d="M37.6365 49.1623C37.6365 49.1623 37.4397 49.0917 37.3694 49.12C36.4418 49.473 35.7531 50.3487 35.7109 51.3514C35.7109 51.4926 36.1045 51.4926 36.1045 51.3514C36.1466 50.4617 36.7369 49.6142 37.5662 49.3035C37.6224 49.2753 37.7067 49.2329 37.6365 49.1623Z" fill="#A6673E"/>
<path d="M38.4519 50.3482C38.3816 50.3058 38.2411 50.3058 38.1708 50.3482C37.5102 50.7578 37.1307 51.5628 37.2713 52.3396C37.2994 52.4808 37.6929 52.4667 37.6648 52.3396C37.5383 51.6475 37.8476 50.8849 38.4519 50.5035C38.5222 50.4612 38.5222 50.4047 38.4519 50.3623V50.3482Z" fill="#A6673E"/>
<path d="M33.3656 58.4153C32.8877 57.6667 32.8877 56.664 33.3656 55.9013C33.4359 55.7742 33.0564 55.7318 32.9861 55.8448C32.4942 56.6357 32.4942 57.6808 32.9861 58.4576C33.0564 58.5706 33.4499 58.5282 33.3656 58.4011V58.4153Z" fill="#A6673E"/>
<path d="M30.5254 135.584C28.6982 133.805 27.5176 131.375 27.1944 128.847C27.096 128.127 27.0819 127.407 27.1241 126.672C27.1241 126.531 26.7305 126.531 26.7305 126.672C26.5619 129.257 27.3068 131.884 28.7685 134.002C29.1902 134.61 29.654 135.174 30.1881 135.683C30.2864 135.768 30.6659 135.711 30.5394 135.584H30.5254Z" fill="#4C6880"/>
<path d="M28.1757 136.883C26.2361 135.245 25.1258 132.773 25.182 130.231C25.1961 129.454 25.3225 128.692 25.5615 127.943C25.6036 127.788 25.2101 127.76 25.182 127.887C24.3809 130.457 24.8447 133.296 26.4329 135.471C26.8405 136.022 27.3183 136.53 27.8384 136.982C27.9086 137.038 28.0351 137.053 28.1054 137.024C28.1616 137.01 28.246 136.94 28.1757 136.883Z" fill="#4C6880"/>
<path d="M21.3028 135.881C21.0358 135.669 20.7828 135.471 20.586 135.189C20.3892 134.921 20.2346 134.638 20.08 134.356C19.8973 134.017 19.7146 133.692 19.5319 133.353C19.4616 133.226 19.0681 133.282 19.1524 133.409C19.4335 133.932 19.7146 134.469 20.0238 134.977C20.1644 135.203 20.319 135.415 20.5017 135.598C20.6844 135.782 20.9233 135.923 21.092 136.107C21.092 136.121 21.092 136.149 21.092 136.163C21.1623 136.276 21.4012 136.291 21.4855 136.192C21.598 136.079 21.3731 135.952 21.3028 135.881Z" fill="#4C6880"/>
<path d="M35.4292 135.063C35.3449 135.021 35.2324 135.021 35.1481 135.063C34.6421 135.303 34.1361 135.557 33.6021 135.727C33.0539 135.896 32.4917 135.91 31.9295 135.995C31.3673 136.094 30.8613 136.334 30.3694 136.588C29.8494 136.857 29.3294 137.097 28.7953 137.337C28.205 137.591 27.5866 137.831 26.9822 138.057C26.9119 138.085 26.8416 138.128 26.9119 138.198C26.9681 138.255 27.1087 138.255 27.179 138.241C28.2893 137.845 29.3575 137.393 30.4116 136.871C30.9176 136.617 31.4095 136.334 31.9717 136.221C32.5339 136.122 33.1101 136.108 33.6583 135.953C34.2767 135.783 34.867 135.501 35.4432 135.218C35.5135 135.176 35.5135 135.105 35.4432 135.077L35.4292 135.063Z" fill="#4C6880"/>
<path d="M25.1685 121.829C23.0321 120.756 20.5304 120.939 18.3097 121.632C17.1712 121.985 16.0609 122.394 15.1052 123.129C14.2338 123.806 13.4326 124.569 12.7158 125.402C11.9147 126.335 11.212 127.366 10.6217 128.453C10.5514 128.58 10.9449 128.637 11.0011 128.509C11.999 126.645 13.3483 124.965 14.9646 123.609C15.3863 123.242 15.836 122.903 16.3279 122.648C16.8339 122.38 17.3821 122.182 17.9161 121.999C18.9984 121.632 20.1368 121.349 21.2753 121.293C22.498 121.236 23.7489 121.434 24.8452 121.985C24.9295 122.027 25.042 122.027 25.1263 121.985C25.1966 121.942 25.1966 121.872 25.1263 121.843L25.1685 121.829Z" fill="#4C6880"/>
<path d="M22.0508 122.463C22.0508 122.463 21.854 122.406 21.7837 122.42C20.6172 122.745 19.5349 123.31 18.5089 123.946C17.5391 124.539 16.5272 125.146 15.6417 125.88C15.1639 126.276 14.7282 126.714 14.3627 127.222C14.2784 127.335 14.5736 127.349 14.6157 127.349C14.9671 127.307 15.2904 127.137 15.5996 126.968C15.8807 126.813 16.1758 126.629 16.5131 126.643C16.5693 126.643 16.7099 126.629 16.7099 126.544C16.7099 126.459 16.5693 126.445 16.5131 126.445C16.1477 126.417 15.7963 126.558 15.4731 126.742C15.3044 126.841 15.1357 126.94 14.953 127.024C15.5714 126.262 16.3726 125.669 17.1878 125.132C18.1435 124.496 19.1273 123.861 20.1533 123.338C20.7437 123.042 21.348 122.787 21.9945 122.618C22.0648 122.604 22.121 122.547 22.0648 122.477L22.0508 122.463Z" fill="#4C6880"/>
<path d="M26.7606 116.646C26.592 114.895 26.3812 113.143 26.086 111.406C25.7909 109.669 25.3692 107.96 24.9054 106.251C24.4416 104.528 23.9637 102.805 23.5842 101.068C23.2048 99.3309 22.8955 97.5796 22.6707 95.8142C22.6426 95.6023 22.6144 95.3764 22.5863 95.1645C22.5723 95.0233 22.1647 95.0233 22.1928 95.1645C22.4036 96.9299 22.6847 98.6812 23.0501 100.418C23.4015 102.141 23.8653 103.836 24.3151 105.545C24.7789 107.268 25.2287 108.991 25.566 110.742C25.8892 112.479 26.1141 114.231 26.2968 115.996C26.4795 117.762 26.606 119.527 26.7325 121.292C26.7466 121.504 26.7606 121.73 26.7747 121.942C26.7747 122.083 27.1823 122.083 27.1682 121.942C27.0417 120.177 26.9293 118.411 26.7606 116.646Z" fill="#4C6880"/>
<path d="M25.3397 116.775C24.0326 113.866 22.7677 110.943 21.573 107.977C21.2357 107.144 20.8984 106.296 20.5751 105.463C20.5329 105.336 20.1253 105.364 20.1956 105.519C21.3622 108.485 22.5709 111.437 23.8499 114.36C24.2153 115.194 24.5807 116.013 24.9462 116.832C25.0024 116.959 25.3959 116.917 25.3257 116.775H25.3397Z" fill="#4C6880"/>
<path d="M46.1373 82.4685C43.9869 82.073 41.8505 81.6917 39.7001 81.2962C38.6179 81.0985 37.5497 80.9008 36.4675 80.7031L34.8512 80.4065C34.4436 80.3359 34.036 80.2511 33.6284 80.1523C32.7992 79.9263 31.9699 79.5591 31.5202 78.7823C31.4499 78.6693 31.0564 78.7117 31.1407 78.8388C31.5342 79.545 32.251 79.9404 32.9959 80.1946C33.8814 80.4912 34.809 80.6183 35.7226 80.7737C37.9292 81.1691 40.1218 81.5787 42.3284 81.9741L46.0389 82.652C46.0389 82.652 46.2497 82.6521 46.2919 82.5815C46.334 82.4967 46.2075 82.4684 46.1513 82.4543L46.1373 82.4685Z" fill="#4C6880"/>
<path d="M61.0051 74.3182C60.9208 74.2617 60.8224 74.2476 60.7381 74.2758C60.6819 74.29 60.5835 74.3606 60.6678 74.4171C61.3846 74.8972 61.5673 75.8294 61.3987 76.6344C61.2019 77.5948 60.4429 78.3292 59.6559 78.8517C59.2202 79.1483 58.7423 79.4026 58.2785 79.6426C57.7585 79.911 57.2103 80.1652 56.6762 80.4053C55.594 80.8855 54.4837 81.2809 53.3593 81.6199C52.1084 81.9871 50.8153 82.2413 49.6347 82.8345C49.5645 82.8768 49.5645 82.9475 49.6347 82.9757C49.7191 83.0181 49.8315 83.0181 49.9158 82.9757C50.984 82.439 52.1646 82.1989 53.3171 81.8741C54.4837 81.5351 55.6362 81.1256 56.7465 80.6454C57.8006 80.1934 58.8688 79.6991 59.8386 79.0636C60.6538 78.541 61.4549 77.8349 61.736 76.8745C62.003 75.9706 61.8344 74.869 61.0051 74.3041V74.3182Z" fill="#4C6880"/>
<path d="M76.2625 79.4445C75.7987 81.8314 75.4333 84.2323 75.1943 86.6473C74.9554 89.0624 74.8148 91.4775 74.8008 93.8925C74.8008 95.2625 74.8008 96.6183 74.871 97.9882C74.871 98.1294 75.2786 98.1294 75.2646 97.9882C75.1521 95.559 75.1662 93.1299 75.2786 90.7007C75.3911 88.2856 75.63 85.8706 75.9673 83.4696C76.1641 82.1138 76.389 80.7721 76.656 79.4304C76.6841 79.3033 76.2906 79.2751 76.2625 79.4304V79.4445Z" fill="#4C6880"/>
<path d="M84.2723 68.5278C83.6398 70.2225 83.176 71.9738 82.8949 73.7533C82.8808 73.8805 83.2744 73.9087 83.2884 73.7533C83.5695 71.988 84.0333 70.2508 84.6518 68.5701C84.708 68.4148 84.3144 68.3865 84.2723 68.5136V68.5278Z" fill="#4C6880"/>
<path d="M85.325 68.2019C85.0439 69.9249 84.7909 71.6479 84.5801 73.3851C84.3693 75.1222 84.2006 76.8735 84.0601 78.6106C83.9898 79.5851 83.9195 80.5738 83.8633 81.5624C83.8633 81.7036 84.2568 81.7036 84.2568 81.5624C84.3552 79.8253 84.4817 78.074 84.6504 76.351C84.819 74.5997 85.0298 72.8625 85.2688 71.1254C85.4093 70.1509 85.5499 69.1764 85.7185 68.2019C85.7466 68.0748 85.3391 68.0465 85.325 68.2019Z" fill="#4C6880"/>
<path d="M94.3884 45.8604C93.9527 46.5101 93.5311 47.1597 93.0813 47.7811C92.6878 48.3319 92.2521 48.8828 91.7321 49.3347C91.212 49.7866 90.6217 50.1115 89.9612 50.3092C89.3146 50.5069 88.6259 50.6058 87.9654 50.7611C87.2204 50.9306 86.4896 51.1566 85.8431 51.5803C85.7587 51.6368 85.8712 51.7074 85.9133 51.7215C85.9977 51.7498 86.1101 51.7356 86.1804 51.6791C87.3329 50.8883 88.7946 50.8741 90.0877 50.4928C90.7482 50.2951 91.3526 49.9985 91.9007 49.5748C92.4348 49.1511 92.8846 48.6144 93.2922 48.0636C93.8122 47.3716 94.276 46.6372 94.7679 45.9169C94.8523 45.8039 94.4587 45.7474 94.3884 45.8604Z" fill="#4C6880"/>
<path d="M93.2071 49.209C92.5746 51.3416 91.8719 53.4459 91.0848 55.5079C90.8599 56.0869 90.635 56.6801 90.3961 57.2591C90.3399 57.4004 90.7334 57.4427 90.7756 57.3156C91.6048 55.2537 92.3638 53.1776 93.0384 51.0591C93.2352 50.4659 93.4179 49.8586 93.5866 49.2654C93.6287 49.1101 93.2352 49.0819 93.2071 49.209Z" fill="#4C6880"/>
<path d="M75.491 28.2303C74.8445 28.1174 74.2261 28.0185 73.6498 27.8066C73.439 27.8773 73.2282 27.9196 73.0033 27.9479C73.7622 28.3575 74.6055 28.4846 75.4348 28.6258C75.5332 28.6399 75.6456 28.654 75.758 28.6823C75.7721 28.5552 75.7861 28.414 75.8002 28.2868C75.7018 28.2727 75.6034 28.2586 75.505 28.2303H75.491ZM93.3688 115.582C93.1299 114.226 92.0617 112.997 90.6422 112.433C89.3491 111.924 88.0701 112.065 87.1144 112.786C86.2992 113.407 85.8073 114.339 85.4419 115.158C84.7251 116.754 84.2191 118.435 83.8256 120.144C83.1931 119.762 82.6028 119.296 82.0546 118.746C80.5086 117.178 79.3561 115.017 78.4425 111.981C75.3083 101.544 77.276 90.1039 79.848 79.2855C80.1432 78.0568 80.4524 76.814 80.7475 75.5994C82.2655 69.3852 83.8396 62.9592 84.458 56.4625C85.1186 49.4574 84.0785 42.0569 81.2816 33.8231C81.2394 33.696 81.1973 33.5689 81.1411 33.4418C81.0708 33.5689 80.9583 33.6819 80.8319 33.7525C80.86 33.8231 80.874 33.8937 80.9021 33.9643C83.685 42.1416 84.7251 49.4857 84.0645 56.4343C83.4461 62.8885 81.886 69.3005 80.368 75.5147C80.0729 76.7151 79.7637 77.9721 79.4685 79.2008C78.302 84.0733 77.0511 89.8355 76.6013 95.6966C76.1235 101.868 76.6013 107.235 78.063 112.108C78.9907 115.215 80.1713 117.404 81.7735 119.028C82.3779 119.635 83.0385 120.144 83.7272 120.553C83.3898 122.093 83.1369 123.66 82.8839 125.186C82.673 126.513 82.4482 127.869 82.1671 129.197C81.0848 134.465 79.1593 139.507 76.4608 144.153C73.4249 149.365 69.8409 153.121 65.8212 155.339C60.9301 158.022 55.2379 158.29 50.9511 156.031C47.4936 154.209 44.8373 150.678 43.8253 146.582C42.8977 142.811 43.3053 138.546 44.9919 134.592C45.1184 134.309 45.2449 134.013 45.3713 133.716C46.2146 131.824 47.086 129.861 46.5379 127.883C46.1303 126.443 45.0903 125.341 43.4318 124.578C41.8155 123.83 39.9321 123.59 38.6531 123.519L38.625 123.915C40.5786 124.028 45.2167 124.649 46.1444 127.996C46.6644 129.832 45.8211 131.725 45.0059 133.561C44.8794 133.843 44.7389 134.154 44.6264 134.436C42.9117 138.476 42.476 142.826 43.4318 146.681C44.4718 150.89 47.2125 154.52 50.7684 156.398C52.7502 157.443 55.0411 157.966 57.4023 157.966C60.2695 157.966 63.2632 157.203 66.0039 155.692C70.0939 153.446 73.7201 149.633 76.7981 144.365C79.5248 139.676 81.4643 134.606 82.5606 129.296C82.8277 127.968 83.0525 126.584 83.2774 125.271C83.5163 123.773 83.7693 122.262 84.0926 120.765C85.6808 121.598 87.4377 121.895 89.0259 121.542C91.7947 120.935 93.8186 118.152 93.3829 115.596L93.3688 115.582ZM88.9275 121.132C87.3955 121.471 85.6949 121.175 84.1629 120.342C84.5564 118.618 85.0624 116.924 85.7792 115.328C86.1306 114.551 86.5944 113.675 87.3393 113.11C88.1826 112.461 89.3351 112.348 90.4876 112.8C91.7806 113.308 92.7645 114.424 92.9753 115.638C93.3829 117.997 91.4995 120.553 88.9275 121.118V121.132Z" fill="#333333"/>
<path d="M51.0075 78.9355L49.9955 79.91C49.2506 80.6021 48.5197 81.2941 47.7889 82.0003C46.2569 81.0681 44.7109 80.1784 43.1367 79.3451C43.46 79.3734 43.7692 79.4016 44.0925 79.4157C45.0904 79.444 46.1023 79.4016 47.1002 79.3592C48.4214 79.3169 49.7144 79.1756 51.0075 78.9355Z" fill="white"/>
<path d="M42.4248 100.388C42.6497 100.106 42.6497 99.6536 42.5513 99.3288C42.4529 99.0181 42.2562 98.8062 41.9891 98.665C42.3405 92.7474 42.1297 86.8015 41.9048 80.8839C41.9048 80.5309 40.8928 80.5309 40.9069 80.8839C41.1177 86.7733 41.3285 92.6768 40.9912 98.5661C40.7663 98.6226 40.5555 98.7497 40.415 98.9475C40.1901 99.3005 40.2323 99.809 40.415 100.176C40.5134 100.374 40.668 100.529 40.8507 100.642C40.8085 101.094 40.7663 101.546 40.7242 101.998C40.6961 102.337 41.694 102.365 41.7221 101.998C41.7642 101.588 41.7924 101.179 41.8345 100.783C42.0734 100.727 42.3124 100.586 42.4108 100.374L42.4248 100.388Z" fill="white"/>
<path d="M54.3727 94.2015C54.3306 94.0603 54.2603 93.919 54.1619 93.7919C54.0916 93.7072 54.0073 93.6648 53.9089 93.6366C53.8105 89.0607 53.7965 84.4989 53.8527 79.923C53.8527 79.5699 52.8548 79.5699 52.8548 79.923C52.7845 84.5413 52.8126 89.1737 52.911 93.7919C52.3488 94.0885 52.4894 94.8512 52.9391 95.2043C52.9532 95.9669 52.9813 96.7296 53.0094 97.4922C53.0094 97.8453 54.0213 97.8453 54.0073 97.4922C53.9792 96.7719 53.9651 96.0375 53.9511 95.3172C54.1478 95.2325 54.3024 95.0772 54.3868 94.8653C54.3868 94.8371 54.4008 94.8088 54.4149 94.7664C54.4852 94.5828 54.4711 94.3851 54.3868 94.2156L54.3727 94.2015Z" fill="white"/>
<path d="M35.8576 131.008C35.7452 131.177 35.5906 131.304 35.436 131.431C34.424 132.222 33.384 132.957 32.3018 133.663L32.1472 133.762C31.8942 133.931 31.6271 134.058 31.3882 134.129C30.4325 133.493 29.7297 132.533 29.2518 131.488C28.8302 130.584 28.5069 129.595 28.3242 128.607C28.3523 128.494 28.3945 128.381 28.4507 128.282C28.4929 128.197 28.5491 128.127 28.6194 128.084C28.7037 128.028 28.8161 128.014 28.9145 128.014C29.3643 128.014 29.7859 128.24 30.1795 128.466C30.7136 128.762 31.2476 129.031 31.8098 129.285C32.3299 129.525 32.864 129.751 33.4261 129.85C33.8197 129.92 34.2413 129.92 34.6349 129.991C34.8738 130.033 35.0987 130.076 35.3236 130.175C35.5484 130.273 35.703 130.471 35.942 130.485C36.0263 130.669 35.9701 130.895 35.8717 131.05L35.8576 131.008Z" fill="#EDAF8C"/>
<path d="M24.026 127.182C23.7449 127.182 23.4498 127.125 23.1265 126.998C22.6767 126.814 22.3816 126.518 22.2973 126.165C22.0302 125.063 22.7892 124.343 23.3935 123.877C24.6725 122.902 26.064 122.069 27.5257 121.405C28.0176 121.179 28.5517 121.08 29.0015 121.123C29.4934 121.165 29.8869 121.405 30.1258 121.787C30.6599 122.648 30.1258 124.032 29.6058 124.738C28.7625 125.854 27.343 126.348 26.078 126.687C25.8672 126.744 25.6704 126.814 25.4737 126.871C25.0099 127.026 24.546 127.182 24.0401 127.182H24.026ZM28.7906 121.518C28.4533 121.518 28.0598 121.603 27.6943 121.773C26.2607 122.422 24.8974 123.241 23.6325 124.188C22.8032 124.823 22.5221 125.374 22.6908 126.052C22.7611 126.363 23.0984 126.532 23.2811 126.617C23.9979 126.913 24.6163 126.716 25.3331 126.476C25.5299 126.405 25.7407 126.334 25.9656 126.278C27.1743 125.953 28.5095 125.487 29.2825 124.47C29.7604 123.849 30.1961 122.634 29.7885 121.97C29.6199 121.688 29.3388 121.532 28.9733 121.49C28.9733 121.49 28.8609 121.49 28.8047 121.49L28.7906 121.518Z" fill="#ED7D6B"/>
<path d="M28.9695 121.319C28.5056 121.276 27.9856 121.403 27.6061 121.587C26.1585 122.251 24.7811 123.07 23.5021 124.03C22.8134 124.553 22.2512 125.188 22.4761 126.106C22.5604 126.445 22.8696 126.671 23.1929 126.813C24.2048 127.236 25.0341 126.756 25.9898 126.488C27.2688 126.149 28.604 125.669 29.4192 124.609C29.9111 123.974 30.4031 122.66 29.9392 121.884C29.7144 121.516 29.363 121.347 28.9695 121.319Z" fill="#EDAF8C"/>
<path d="M35.4247 129.299C39.6785 129.299 43.1268 125.834 43.1268 121.56C43.1268 117.285 39.6785 113.82 35.4247 113.82C31.171 113.82 27.7227 117.285 27.7227 121.56C27.7227 125.834 31.171 129.299 35.4247 129.299Z" fill="#333333"/>
<path d="M44.727 121.87C44.6848 121.488 44.5021 121.121 44.1086 121.022C43.701 120.924 43.2934 121.093 42.9982 121.39C42.7312 121.644 42.5204 121.955 42.3236 122.265C41.9301 122.025 41.41 122.039 40.9743 122.209C40.4262 122.435 40.0608 122.929 39.7937 123.437C39.4705 124.045 39.2034 124.694 38.9364 125.33C38.6553 125.994 38.3882 126.672 38.1352 127.35C38.0509 127.604 37.9525 127.844 37.8682 128.098C37.6433 128.098 37.4325 128.098 37.2076 128.098C37.3341 127.519 37.4325 126.926 37.5028 126.333C37.5731 125.697 37.7277 124.807 37.1795 124.327C36.8422 124.031 36.3643 124.017 35.9567 124.158C35.4789 124.313 35.2399 124.638 35.0291 125.076C34.6075 125.923 34.2842 126.827 34.1015 127.759C34.0734 127.929 34.0031 128.211 33.8204 128.268C33.7501 128.282 33.6517 128.268 33.5674 128.268C33.455 128.268 33.3285 128.296 33.202 128.324C32.9771 128.352 32.7382 128.381 32.5133 128.423C32.1057 127.9 31.684 127.392 31.2624 126.884C30.658 126.177 30.0677 125.415 29.1963 125.033C28.9293 124.92 28.6341 124.878 28.353 124.949C26.9335 125.33 27.9876 127.138 28.353 127.915C28.9855 129.214 29.885 130.386 31.2483 130.951C31.67 131.12 32.1057 131.219 32.5555 131.248C32.6117 131.248 32.6538 131.262 32.7101 131.262C33.3004 131.318 33.9047 131.304 34.5091 131.318C35.6897 131.318 36.8844 131.318 38.0509 131.092C39.105 130.894 40.131 130.499 40.9884 129.849C41.5787 129.44 41.916 128.762 42.2393 128.126C42.6609 127.321 43.0685 126.502 43.448 125.683C43.8275 124.864 44.1789 124.017 44.474 123.155C44.6146 122.745 44.741 122.322 44.6848 121.884L44.727 121.87ZM29.9834 129.765C29.9834 129.765 30.0396 129.821 30.0677 129.849C30.3629 130.118 30.6862 130.372 31.0235 130.598C30.644 130.372 30.2926 130.089 29.9834 129.765Z" fill="#EDAF8C"/>
<path d="M42.4961 122.774C42.4961 122.774 42.468 122.676 42.4399 122.619C42.2994 122.393 42.0464 122.435 41.8215 122.407C41.5826 122.379 41.3436 122.308 41.0906 122.337C40.7112 122.379 40.6128 122.986 40.5284 123.297C40.4722 123.481 40.4301 123.678 40.4582 123.862C40.5425 124.681 41.7793 124.851 42.1729 124.187C42.3134 123.961 42.3556 123.692 42.3977 123.424C42.4259 123.198 42.5383 122.972 42.4961 122.746V122.774Z" fill="#FFCEB8"/>
<path d="M43.2363 122.141C43.1801 122.296 43.1238 122.451 43.1098 122.607C43.0957 122.988 43.4471 123.172 43.7985 123.158C44.3185 123.129 44.4872 122.663 44.6418 122.225C44.712 121.999 44.7683 121.731 44.6699 121.505C44.5293 121.194 44.1639 121.053 43.8266 121.067C43.7844 121.067 43.7282 121.067 43.7001 121.11C43.672 121.138 43.6439 121.18 43.6298 121.223C43.5174 121.491 43.4049 121.774 43.2925 122.042C43.2925 122.07 43.2644 122.112 43.2503 122.141H43.2363Z" fill="#FFCEB8"/>
<path d="M36.6641 126.362C37.156 126.15 37.3387 125.543 37.2966 125.035C37.2966 124.992 37.2966 124.936 37.2544 124.908C37.2263 124.879 37.1841 124.865 37.156 124.865C36.8609 124.795 36.5517 124.752 36.2425 124.766C36.0738 124.766 35.8911 124.795 35.7224 124.809C35.3429 124.851 35.3008 125.148 35.3008 125.473C35.3008 125.642 35.3008 125.826 35.3711 125.981C35.4835 126.278 35.7084 126.334 35.9754 126.405C36.2003 126.461 36.4392 126.447 36.6641 126.348V126.362Z" fill="#FFCEB8"/>
<path d="M29.1134 127.409C29.1134 127.409 29.2258 127.38 29.268 127.352C29.4928 127.239 29.6053 126.985 29.6053 126.731C29.6053 126.476 29.535 126.236 29.4647 126.01C29.4366 125.926 29.4085 125.841 29.3523 125.784C29.1274 125.573 28.509 125.671 28.242 125.671C28.1576 125.671 27.9328 125.671 27.8625 125.742C27.8344 125.77 27.8203 125.827 27.8063 125.869C27.7219 126.251 27.9046 126.632 28.1014 126.971C28.1576 127.056 28.1998 127.14 28.2841 127.211C28.3544 127.267 28.4528 127.31 28.5371 127.338C28.7198 127.409 28.9307 127.451 29.1274 127.409H29.1134Z" fill="#FFCEB8"/>
<path d="M40.5717 115.98C40.5717 115.98 40.4171 115.938 40.3608 115.952C38.4494 116.404 36.7066 117.364 35.1043 118.494C33.6426 119.525 32.2652 120.712 31.183 122.152C30.5786 122.957 30.0727 123.833 29.7072 124.779C29.6651 124.892 29.9602 124.92 30.0024 124.821C30.6349 123.155 31.7171 121.728 32.9961 120.5C33.6426 119.892 34.3172 119.328 35.034 118.805C35.8211 118.24 36.6222 117.703 37.4796 117.251C38.4353 116.743 39.4613 116.319 40.5154 116.079C40.5717 116.079 40.6138 116.023 40.5717 115.98Z" fill="#4C6880"/>
<path d="M40.1297 116.955C40.1297 116.955 39.9751 116.913 39.9189 116.927C38.3307 117.478 36.8409 118.325 35.5338 119.398C34.2267 120.486 33.1304 121.799 32.3011 123.268C31.8233 124.101 31.4438 124.991 31.1486 125.895C31.1065 126.008 31.4016 126.036 31.4438 125.937C31.9498 124.355 32.7509 122.858 33.7769 121.545C34.817 120.217 36.096 119.102 37.5436 118.24C38.3448 117.76 39.2021 117.35 40.0876 117.04C40.1438 117.026 40.1859 116.983 40.1438 116.941L40.1297 116.955Z" fill="#4C6880"/>
<path d="M41.4974 118.057C41.4974 118.057 41.3428 118.029 41.2866 118.057C39.5438 118.961 38.068 120.374 37.0842 122.083C36.8031 122.563 36.5642 123.085 36.3674 123.608C36.3252 123.721 36.6204 123.749 36.6625 123.65C37.3372 121.814 38.5459 120.204 40.106 119.046C40.5417 118.721 41.0196 118.425 41.4974 118.17C41.5536 118.142 41.5536 118.086 41.4974 118.057Z" fill="#4C6880"/>
<path d="M32.5126 119.697C31.6131 118.708 30.573 117.861 29.4346 117.169C29.3502 117.112 29.0832 117.197 29.2237 117.282C30.3481 117.96 31.3741 118.793 32.2596 119.781C32.3299 119.852 32.611 119.81 32.5126 119.697Z" fill="#4C6880"/>
<path d="M32.9781 118.396C32.5565 118.015 32.1208 117.648 31.6851 117.281C31.2915 116.956 30.8839 116.589 30.392 116.405C30.3358 116.391 30.2234 116.391 30.1812 116.433C30.139 116.49 30.1812 116.518 30.2374 116.532C30.7153 116.702 31.1088 117.097 31.4883 117.408C31.8959 117.747 32.3035 118.1 32.7111 118.453C32.7813 118.523 33.0765 118.453 32.9641 118.368L32.9781 118.396Z" fill="#4C6880"/>
<path d="M36.8795 116.52C36.3876 115.715 35.5865 115.193 34.8135 114.684C34.7291 114.628 34.4621 114.698 34.6026 114.797C35.3476 115.291 36.1065 115.8 36.5844 116.577C36.6406 116.661 36.9358 116.633 36.8795 116.534V116.52Z" fill="#4C6880"/>
<path d="M42.4631 122.267C42.4631 122.267 42.3226 122.225 42.2523 122.239C42.2102 122.253 42.1399 122.296 42.1961 122.338C42.5475 122.649 42.4772 123.157 42.3648 123.567C42.2383 124.047 42.0977 124.527 41.9572 125.007C41.662 125.939 41.3387 126.843 40.9874 127.747C40.7906 128.27 40.5798 128.778 40.383 129.301C40.3409 129.414 40.636 129.442 40.6782 129.343C41.4231 127.479 42.1539 125.601 42.6599 123.637C42.7723 123.171 42.8707 122.621 42.4631 122.267Z" fill="#ED7D6B"/>
<path d="M37.7407 128.111C37.6001 128.478 37.4736 128.846 37.3612 129.213C37.3471 129.269 37.4174 129.298 37.4596 129.312C37.5018 129.312 37.6282 129.312 37.6423 129.255C37.7688 128.888 37.8953 128.521 38.0218 128.154C38.0639 128.041 37.7688 128.012 37.7266 128.111H37.7407Z" fill="#ED7D6B"/>
<path d="M37.2326 128.154C37.2326 128.154 37.1483 128.154 37.1202 128.154C37.0921 128.154 37.064 128.168 37.0499 128.197C36.9796 128.465 36.9094 128.733 36.8672 129.002C36.8672 129.03 36.8953 129.044 36.9094 129.058C36.9375 129.072 36.9796 129.086 37.0218 129.086C37.078 129.086 37.1623 129.086 37.1764 129.016C37.2186 128.762 37.2748 128.507 37.3451 128.253C37.3591 128.197 37.2888 128.168 37.2467 128.154H37.2326Z" fill="#ED7D6B"/>
<path d="M34.1031 128.184C34.1031 128.184 33.9345 128.184 33.9204 128.24C33.822 128.565 33.7236 128.904 33.6112 129.229C33.5971 129.285 33.6674 129.313 33.7096 129.328C33.7518 129.328 33.8782 129.328 33.8923 129.271C34.0047 128.946 34.1031 128.621 34.2015 128.282C34.2156 128.226 34.1453 128.198 34.1031 128.184Z" fill="#ED7D6B"/>
<path d="M33.0647 128.962C32.9663 128.807 32.8679 128.651 32.7836 128.496C32.7555 128.439 32.6571 128.439 32.6009 128.439C32.5587 128.439 32.4603 128.482 32.5025 128.538C32.6009 128.694 32.6992 128.849 32.7836 129.004C32.8117 129.061 32.9101 129.075 32.9663 129.061C33.0084 129.061 33.1068 129.019 33.0647 128.962Z" fill="#ED7D6B"/>
<path d="M35.4947 131.232C35.4947 131.232 35.3541 131.176 35.312 131.176C34.3 131.246 33.274 131.374 32.2621 131.176C31.2923 130.992 30.4912 130.399 29.8446 129.679C29.4511 129.241 29.1278 128.761 28.7905 128.281C28.7343 128.196 28.4391 128.238 28.4954 128.323C29.0857 129.184 29.7181 130.06 30.5895 130.653C31.0112 130.936 31.4609 131.148 31.9669 131.275C32.4729 131.402 32.9929 131.43 33.513 131.43C34.1314 131.43 34.7498 131.359 35.3682 131.317C35.4104 131.317 35.4947 131.275 35.4666 131.218L35.4947 131.232Z" fill="#ED7D6B"/>
<path d="M28.2098 124.891C28.0974 124.891 27.999 124.919 27.9006 124.975C27.8303 125.018 27.7741 125.088 27.7319 125.173C27.6898 125.244 27.6476 125.328 27.6195 125.399C27.5773 125.484 27.5492 125.569 27.5352 125.667C27.5352 125.696 27.5633 125.71 27.5773 125.724C27.6054 125.738 27.6476 125.752 27.6898 125.752C27.746 125.752 27.8303 125.752 27.8444 125.682C27.8725 125.54 27.9427 125.399 27.999 125.272C28.0271 125.215 28.0692 125.159 28.1114 125.117C28.1114 125.117 28.1395 125.102 28.1536 125.088C28.1536 125.088 28.1676 125.088 28.1817 125.088C28.1817 125.088 28.1817 125.088 28.1957 125.088C28.2379 125.088 28.3503 125.074 28.3503 125.018C28.3503 124.947 28.2379 124.947 28.1957 124.947L28.2098 124.891Z" fill="#ED7D6B"/>
</g>
<defs>
<clipPath id="clip0_1_13981">
<rect width="114" height="160" fill="white"/>
</clipPath>
</defs>
</svg>
