<svg width="64" height="19" viewBox="0 0 64 19" xmlns="http://www.w3.org/2000/svg">
 <path d="M107.791 0v32h-47.428v-32h47.428zM75.341 8.811v13.927c0 0.007 0 0.015 0 0.022s0 0.015 0.001 0.022c0.001 0.029 0.002 0.059-0.001 0.087-0.007 0.081 0.015 0.128 0.108 0.115 0.022-0.002 0.044-0.002 0.067-0.001 0.006 0 0.012 0 0.018 0 0.005 0 0.010 0 0.015 0 0.393 0 0.786 0 1.179 0 0.786 0 1.573 0.001 2.36-0 0.013 0 0.026 0 0.038 0 0.010 0 0.020 0 0.028 0 0.076 0.001 0.112 0.001 0.13-0.017s0.016-0.051 0.014-0.116c-0.001-0.022-0.001-0.048-0.001-0.078v-13.943l-0-0.015-0.001-0.018c-0.001-0.022-0.002-0.044 0.001-0.066 0.008-0.082-0.020-0.125-0.11-0.115-0.018 0.002-0.036 0.001-0.055 0.001-0.009-0-0.019-0.001-0.028-0.001-0.396 0-0.793-0-1.19-0h-0.001c-0.794-0-1.587-0.001-2.38 0-0.024 0-0.044-0-0.062-0.001-0.065-0.001-0.098-0.001-0.115 0.015s-0.016 0.049-0.015 0.116c0 0.019 0.001 0.040 0.001 0.064zM95.043 8.618h-5.903c-1.965 0-3.931 0-5.894-0.002-0.007 0-0.014 0-0.022 0s-0.015 0-0.023 0c-0.029 0-0.058 0.001-0.088-0-0.066-0.003-0.090 0.028-0.085 0.089 0.001 0.019 0.001 0.036 0 0.054-0 0.009-0 0.018-0 0.028v3.335l-0 0.035c-0 0.072-0.001 0.107 0.017 0.124s0.051 0.016 0.118 0.016c0.007-0 0.014-0 0.022-0s0.016-0 0.024-0h3.706c0.121 0 0.181 0 0.21 0.030s0.029 0.086 0.029 0.2v10.282c0 0.020-0 0.037-0.001 0.053-0.001 0.059-0.001 0.090 0.014 0.106 0.017 0.018 0.053 0.018 0.128 0.017l0.037-0h3.557c0.112 0 0.167 0 0.194-0.027s0.027-0.080 0.027-0.186v-10.282c0-0.022-0-0.042-0.001-0.059-0.001-0.064-0.001-0.097 0.015-0.114 0.018-0.018 0.056-0.018 0.134-0.018 0.015 0 0.031 0 0.049 0h3.773c0.163 0 0.163 0 0.165-0.159v-3.318c0-0.023 0-0.043 0.001-0.061 0.001-0.072 0.001-0.108-0.017-0.126s-0.053-0.017-0.123-0.016c-0.019 0-0.040 0.001-0.063 0.001z"></path>
<path d="M30.983 14.21c0.673-1.227 1.748-1.815 2.791-1.838 2.116-0.005 3.5 1.173 3.877 2.806 0.229 0.984 0.127 1.94-0.362 2.834-0.576 1.050-1.474 1.661-2.682 1.797-1.168 0.133-2.188-0.194-3.021-1.025-0.534-0.532-0.856-1.181-0.993-1.914-0.174-0.928-0.067-1.827 0.391-2.659z"></path>
<path d="M47.427 0l12.935 16-12.935 16h-47.427v-32h47.427zM20.969 13.662c0.072 0.058 0.144 0.116 0.218 0.174 0.049-0.029 0.079-0.069 0.107-0.107 0.007-0.009 0.013-0.018 0.020-0.026 0.257-0.302 0.512-0.606 0.768-0.91 0.512-0.606 1.023-1.212 1.534-1.82 0.102-0.122 0.099-0.177-0.018-0.276-0.092-0.079-0.185-0.156-0.28-0.233-0.811-0.657-1.702-1.17-2.712-1.467-0.674-0.197-1.364-0.306-2.065-0.353-0.915-0.061-1.821-0.031-2.719 0.174-3.145 0.716-5.491 3.292-5.767 6.594-0.073 0.89-0.003 1.773 0.227 2.638 0.524 1.96 1.662 3.461 3.47 4.45 0.985 0.539 2.051 0.823 3.173 0.912 0.95 0.075 1.89 0.018 2.818-0.189 1.569-0.35 2.956-1.056 4.189-2.067 0.099-0.081 0.139-0.161 0.139-0.289-0.004-1.572-0.004-3.144-0.004-4.716l0-1.179c0-0.020-0.002-0.041-0.003-0.062-0.003-0.046-0.006-0.092 0.006-0.134 0.015-0.049-0.012-0.077-0.038-0.104-0.021-0.022-0.042-0.044-0.039-0.077 0.007-0.054-0.030-0.062-0.073-0.062h-6.625c-0.013 0-0.026 0-0.039 0.001-0.026 0.001-0.053 0.001-0.078-0.001-0.067-0.007-0.089 0.026-0.084 0.087 0.002 0.025 0.002 0.051 0.001 0.077-0 0.013-0.001 0.025-0.001 0.038 0 0.345-0 0.69-0 1.035-0 0.69-0.001 1.38 0 2.070 0 0.029-0 0.053-0.001 0.074-0.001 0.063-0.002 0.096 0.014 0.112s0.053 0.017 0.126 0.016c0.018-0 0.039-0 0.062-0h2.62c0.023 0 0.044-0 0.062-0 0.073-0.001 0.108-0.001 0.125 0.016s0.015 0.048 0.014 0.11c-0 0.022-0.001 0.048-0.001 0.078 0.001 0.15 0.001 0.299 0 0.449-0 0.075-0 0.15-0 0.225v0.005c0 0.308 0 0.311-0.282 0.445-0.826 0.391-1.699 0.503-2.6 0.391-1.002-0.123-1.803-0.591-2.39-1.401-0.382-0.527-0.591-1.122-0.669-1.763-0.098-0.818 0.002-1.605 0.377-2.347 0.452-0.892 1.137-1.533 2.12-1.827 0.689-0.207 1.387-0.153 2.078-0.003 0.626 0.135 1.172 0.437 1.674 0.816 0.184 0.138 0.363 0.281 0.545 0.427zM39.508 10.682c-1.544-1.39-3.383-2.052-5.284-2.067-0.878 0.002-1.534 0.072-2.23 0.251-2.020 0.521-3.6 1.638-4.65 3.422-1.078 1.83-1.297 3.793-0.694 5.812 0.674 2.257 2.111 3.9 4.335 4.815 1.707 0.701 3.477 0.795 5.261 0.332 2.073-0.537 3.662-1.725 4.703-3.578 0.878-1.562 1.113-3.238 0.786-4.987-0.294-1.572-1.028-2.919-2.227-4z"></path>
</svg>
