<svg width="40" height="40" viewBox="0 0 40 40" fill="none" xmlns="http://www.w3.org/2000/svg">
<path d="M25.178 1.04957L21.2316 0L17.9059 12.3192L14.9034 1.19734L10.9569 2.24691L14.201 14.2632L6.12087 6.24344L3.23187 9.1109L12.0947 17.9077L1.05745 14.9723L0 18.8893L12.0596 22.0966C11.9215 21.5055 11.8485 20.8896 11.8485 20.2568C11.8485 15.7775 15.5069 12.1464 20.0198 12.1464C24.5328 12.1464 28.1912 15.7775 28.1912 20.2568C28.1912 20.8855 28.119 21.4976 27.9827 22.0852L38.9426 25L40 21.083L27.8925 17.863L38.9305 14.9274L37.873 11.0104L25.7659 14.2303L33.846 6.21051L30.957 3.34305L22.2171 12.0178L25.178 1.04957Z" />
<path d="M28.0649 22C27.7212 23.469 26.9956 24.7887 26 25.846L34.0654 34L37 31.0332L28.0649 22Z" />
<path d="M25.7391 26C24.7233 27.0177 23.4396 27.7772 22 28.1686L24.9587 39L29 37.9377L25.7391 26Z" />
<path d="M22 28.0376C21.358 28.2074 20.6851 28.2976 19.9917 28.2976C19.2488 28.2976 18.5294 28.194 17.8464 28L15 38.9292L18.8844 40L22 28.0376Z" />
<path d="M18 28.2213C16.5614 27.8066 15.2818 27.0302 14.2719 26L6 34.0707L9.00239 37L18 28.2213Z" />
<path d="M14 25.7563C13.0433 24.7179 12.3464 23.4303 12.0147 22L1 24.9922L2.05927 29L14 25.7563Z" />
</svg>
