<svg width="24" height="24" viewBox="0 0 24 24" fill="none" xmlns="http://www.w3.org/2000/svg">
<path fill-rule="evenodd" clip-rule="evenodd" d="M5.78734 14.021C5.83031 14.0353 5.87449 14.0457 5.91934 14.052C6.20226 14.7186 6.48359 15.386 6.76334 16.054C7.26634 17.256 7.77334 18.494 7.88434 18.85C8.02334 19.288 8.16934 19.586 8.32934 19.79C8.41234 19.894 8.50734 19.986 8.61934 20.056C8.67768 20.0925 8.74011 20.122 8.80534 20.144C9.12534 20.264 9.41734 20.214 9.60034 20.153C9.70773 20.1163 9.80991 20.0659 9.90434 20.003L9.90934 20.001L12.7353 18.239L16.0003 20.741C16.0483 20.778 16.1003 20.809 16.1563 20.834C16.5483 21.004 16.9283 21.064 17.2863 21.016C17.6423 20.966 17.9253 20.817 18.1363 20.648C18.3786 20.4527 18.5718 20.2034 18.7003 19.92L18.7093 19.898L18.7123 19.89L18.7143 19.886V19.884L18.7153 19.883C18.7327 19.84 18.7461 19.7954 18.7553 19.75L21.7353 4.72496C21.7448 4.67687 21.7494 4.62797 21.7493 4.57896C21.7493 4.13896 21.5833 3.71996 21.1943 3.46696C20.8603 3.24996 20.4893 3.23996 20.2543 3.25796C20.0023 3.27796 19.7683 3.33996 19.6113 3.38996C19.5235 3.41782 19.4367 3.44918 19.3513 3.48396L19.3403 3.48896L2.62634 10.045L2.62434 10.046C2.56779 10.0668 2.51208 10.0898 2.45734 10.115C2.3248 10.1746 2.19766 10.2455 2.07734 10.327C1.85034 10.482 1.32734 10.908 1.41634 11.612C1.48634 12.172 1.87034 12.517 2.10534 12.683C2.23334 12.774 2.35534 12.839 2.44534 12.882C2.48534 12.902 2.57134 12.936 2.60834 12.952L2.61834 12.955L5.78734 14.021ZM19.9253 4.86896H19.9233C19.9147 4.87278 19.9061 4.87645 19.8973 4.87996L3.16334 11.445C3.15473 11.4484 3.14606 11.4518 3.13734 11.455L3.12734 11.458C3.09677 11.47 3.06674 11.4833 3.03734 11.498C3.06517 11.5139 3.09388 11.5283 3.12334 11.541L6.26534 12.599C6.32149 12.6179 6.37519 12.6434 6.42534 12.675L16.8023 6.59996L16.8123 6.59496C16.8526 6.57047 16.894 6.54778 16.9363 6.52696C17.0083 6.48996 17.1233 6.43596 17.2533 6.39596C17.3433 6.36796 17.6103 6.28896 17.8983 6.38196C18.0511 6.43011 18.1872 6.52025 18.2912 6.64208C18.3952 6.76392 18.4628 6.91253 18.4863 7.07096C18.5236 7.20971 18.5246 7.3557 18.4893 7.49496C18.4193 7.76996 18.2273 7.98396 18.0523 8.14796C17.9023 8.28796 15.9563 10.164 14.0373 12.016L11.4243 14.536L10.9593 14.986L16.8313 19.488C16.9106 19.5212 16.9967 19.5349 17.0823 19.528C17.1255 19.5221 17.1661 19.5041 17.1993 19.476C17.2399 19.4417 17.2747 19.4012 17.3023 19.356L17.3043 19.355L20.1943 4.78196C20.1033 4.80386 20.014 4.83261 19.9273 4.86796L19.9253 4.86896ZM11.4643 17.263L10.2923 16.365L10.0083 18.17L11.4643 17.263ZM9.21734 14.583L10.3823 13.458L12.9953 10.936L13.9683 9.99796L7.44834 13.815L7.48334 13.897C7.89454 14.8684 8.30121 15.8417 8.70334 16.817L8.98634 15.017C9.01195 14.85 9.09338 14.6977 9.21734 14.583Z"/>
</svg>
